[
    {
        "duration": 0.3819580078125,
        "durationTicks": 1043,
        "midi": 76,
        "name": "E5",
        "ticks": 10,
        "time": 0.003662109375,
        "velocity": 0.6692913385826772
    },
    {
        "duration": 0.3819580078125,
        "durationTicks": 1043,
        "midi": 88,
        "name": "E6",
        "ticks": 10,
        "time": 0.003662109375,
        "velocity": 0.7795275590551181
    },
    {
        "duration": 0.1849365234375,
        "durationTicks": 505,
        "midi": 28,
        "name": "E1",
        "ticks": 10,
        "time": 0.003662109375,
        "velocity": 0.6377952755905512
    },
    {
        "duration": 0.1959228515625,
        "durationTicks": 535,
        "midi": 40,
        "name": "E2",
        "ticks": 10,
        "time": 0.003662109375,
        "velocity": 0.7716535433070866
    },
    {
        "duration": 0.1746826171875,
        "durationTicks": 477,
        "midi": 52,
        "name": "E3",
        "ticks": 546,
        "time": 0.199951171875,
        "velocity": 0.6299212598425197
    },
    {
        "duration": 0.1746826171875,
        "durationTicks": 477,
        "midi": 55,
        "name": "G3",
        "ticks": 546,
        "time": 0.199951171875,
        "velocity": 0.6299212598425197
    },
    {
        "duration": 0.1856689453125,
        "durationTicks": 507,
        "midi": 59,
        "name": "B3",
        "ticks": 546,
        "time": 0.199951171875,
        "velocity": 0.7401574803149606
    },
    {
        "duration": 0.173583984375,
        "durationTicks": 474,
        "midi": 71,
        "name": "B4",
        "ticks": 1054,
        "time": 0.385986328125,
        "velocity": 0.6377952755905512
    },
    {
        "duration": 0.1845703125,
        "durationTicks": 504,
        "midi": 83,
        "name": "B5",
        "ticks": 1054,
        "time": 0.385986328125,
        "velocity": 0.7480314960629921
    },
    {
        "duration": 0.173583984375,
        "durationTicks": 474,
        "midi": 28,
        "name": "E1",
        "ticks": 1054,
        "time": 0.385986328125,
        "velocity": 0.6062992125984252
    },
    {
        "duration": 0.1845703125,
        "durationTicks": 504,
        "midi": 40,
        "name": "E2",
        "ticks": 1054,
        "time": 0.385986328125,
        "velocity": 0.7401574803149606
    },
    {
        "duration": 0.1754150390625,
        "durationTicks": 479,
        "midi": 72,
        "name": "C5",
        "ticks": 1559,
        "time": 0.5709228515625,
        "velocity": 0.6299212598425197
    },
    {
        "duration": 0.1864013671875,
        "durationTicks": 509,
        "midi": 84,
        "name": "C6",
        "ticks": 1559,
        "time": 0.5709228515625,
        "velocity": 0.7401574803149606
    },
    {
        "duration": 0.1754150390625,
        "durationTicks": 479,
        "midi": 52,
        "name": "E3",
        "ticks": 1559,
        "time": 0.5709228515625,
        "velocity": 0.6299212598425197
    },
    {
        "duration": 0.1754150390625,
        "durationTicks": 479,
        "midi": 55,
        "name": "G3",
        "ticks": 1559,
        "time": 0.5709228515625,
        "velocity": 0.6299212598425197
    },
    {
        "duration": 0.1864013671875,
        "durationTicks": 509,
        "midi": 59,
        "name": "B3",
        "ticks": 1559,
        "time": 0.5709228515625,
        "velocity": 0.7401574803149606
    },
    {
        "duration": 0.1754150390625,
        "durationTicks": 479,
        "midi": 74,
        "name": "D5",
        "ticks": 2069,
        "time": 0.7576904296875,
        "velocity": 0.6535433070866141
    },
    {
        "duration": 0.1864013671875,
        "durationTicks": 509,
        "midi": 86,
        "name": "D6",
        "ticks": 2069,
        "time": 0.7576904296875,
        "velocity": 0.7637795275590551
    },
    {
        "duration": 0.1754150390625,
        "durationTicks": 479,
        "midi": 28,
        "name": "E1",
        "ticks": 2069,
        "time": 0.7576904296875,
        "velocity": 0.6220472440944882
    },
    {
        "duration": 0.1864013671875,
        "durationTicks": 509,
        "midi": 40,
        "name": "E2",
        "ticks": 2069,
        "time": 0.7576904296875,
        "velocity": 0.7559055118110236
    },
    {
        "duration": 0.0849609375,
        "durationTicks": 232,
        "midi": 88,
        "name": "E6",
        "ticks": 2579,
        "time": 0.9444580078125,
        "velocity": 0.6929133858267716
    },
    {
        "duration": 0.173583984375,
        "durationTicks": 474,
        "midi": 52,
        "name": "E3",
        "ticks": 2579,
        "time": 0.9444580078125,
        "velocity": 0.6299212598425197
    },
    {
        "duration": 0.173583984375,
        "durationTicks": 474,
        "midi": 55,
        "name": "G3",
        "ticks": 2579,
        "time": 0.9444580078125,
        "velocity": 0.6299212598425197
    },
    {
        "duration": 0.1845703125,
        "durationTicks": 504,
        "midi": 59,
        "name": "B3",
        "ticks": 2579,
        "time": 0.9444580078125,
        "velocity": 0.7401574803149606
    },
    {
        "duration": 0.0882568359375,
        "durationTicks": 241,
        "midi": 86,
        "name": "D6",
        "ticks": 2827,
        "time": 1.0352783203125,
        "velocity": 0.6929133858267716
    },
    {
        "duration": 0.173583984375,
        "durationTicks": 474,
        "midi": 72,
        "name": "C5",
        "ticks": 3084,
        "time": 1.12939453125,
        "velocity": 0.6377952755905512
    },
    {
        "duration": 0.1845703125,
        "durationTicks": 504,
        "midi": 84,
        "name": "C6",
        "ticks": 3084,
        "time": 1.12939453125,
        "velocity": 0.7480314960629921
    },
    {
        "duration": 0.173583984375,
        "durationTicks": 474,
        "midi": 28,
        "name": "E1",
        "ticks": 3084,
        "time": 1.12939453125,
        "velocity": 0.6062992125984252
    },
    {
        "duration": 0.1845703125,
        "durationTicks": 504,
        "midi": 40,
        "name": "E2",
        "ticks": 3084,
        "time": 1.12939453125,
        "velocity": 0.7401574803149606
    },
    {
        "duration": 0.17431640625,
        "durationTicks": 476,
        "midi": 71,
        "name": "B4",
        "ticks": 3589,
        "time": 1.3143310546875,
        "velocity": 0.6299212598425197
    },
    {
        "duration": 0.185302734375,
        "durationTicks": 506,
        "midi": 83,
        "name": "B5",
        "ticks": 3589,
        "time": 1.3143310546875,
        "velocity": 0.7401574803149606
    },
    {
        "duration": 0.17431640625,
        "durationTicks": 476,
        "midi": 52,
        "name": "E3",
        "ticks": 3589,
        "time": 1.3143310546875,
        "velocity": 0.6299212598425197
    },
    {
        "duration": 0.17431640625,
        "durationTicks": 476,
        "midi": 55,
        "name": "G3",
        "ticks": 3589,
        "time": 1.3143310546875,
        "velocity": 0.6299212598425197
    },
    {
        "duration": 0.185302734375,
        "durationTicks": 506,
        "midi": 59,
        "name": "B3",
        "ticks": 3589,
        "time": 1.3143310546875,
        "velocity": 0.7401574803149606
    },
    {
        "duration": 0.3841552734375,
        "durationTicks": 1049,
        "midi": 69,
        "name": "A4",
        "ticks": 4100,
        "time": 1.50146484375,
        "velocity": 0.6692913385826772
    },
    {
        "duration": 0.3841552734375,
        "durationTicks": 1049,
        "midi": 81,
        "name": "A5",
        "ticks": 4100,
        "time": 1.50146484375,
        "velocity": 0.7795275590551181
    },
    {
        "duration": 0.1871337890625,
        "durationTicks": 511,
        "midi": 33,
        "name": "A1",
        "ticks": 4100,
        "time": 1.50146484375,
        "velocity": 0.6456692913385826
    },
    {
        "duration": 0.1981201171875,
        "durationTicks": 541,
        "midi": 45,
        "name": "A2",
        "ticks": 4100,
        "time": 1.50146484375,
        "velocity": 0.7795275590551181
    },
    {
        "duration": 0.1746826171875,
        "durationTicks": 477,
        "midi": 52,
        "name": "E3",
        "ticks": 4642,
        "time": 1.699951171875,
        "velocity": 0.6299212598425197
    },
    {
        "duration": 0.1746826171875,
        "durationTicks": 477,
        "midi": 57,
        "name": "A3",
        "ticks": 4642,
        "time": 1.699951171875,
        "velocity": 0.6299212598425197
    },
    {
        "duration": 0.1856689453125,
        "durationTicks": 507,
        "midi": 60,
        "name": "C4",
        "ticks": 4642,
        "time": 1.699951171875,
        "velocity": 0.7401574803149606
    },
    {
        "duration": 0.173583984375,
        "durationTicks": 474,
        "midi": 69,
        "name": "A4",
        "ticks": 5150,
        "time": 1.885986328125,
        "velocity": 0.6377952755905512
    },
    {
        "duration": 0.1845703125,
        "durationTicks": 504,
        "midi": 81,
        "name": "A5",
        "ticks": 5150,
        "time": 1.885986328125,
        "velocity": 0.7480314960629921
    },
    {
        "duration": 0.173583984375,
        "durationTicks": 474,
        "midi": 33,
        "name": "A1",
        "ticks": 5150,
        "time": 1.885986328125,
        "velocity": 0.6141732283464567
    },
    {
        "duration": 0.1845703125,
        "durationTicks": 504,
        "midi": 45,
        "name": "A2",
        "ticks": 5150,
        "time": 1.885986328125,
        "velocity": 0.7480314960629921
    },
    {
        "duration": 0.1754150390625,
        "durationTicks": 479,
        "midi": 72,
        "name": "C5",
        "ticks": 5655,
        "time": 2.0709228515625,
        "velocity": 0.6299212598425197
    },
    {
        "duration": 0.1864013671875,
        "durationTicks": 509,
        "midi": 84,
        "name": "C6",
        "ticks": 5655,
        "time": 2.0709228515625,
        "velocity": 0.7401574803149606
    },
    {
        "duration": 0.1754150390625,
        "durationTicks": 479,
        "midi": 48,
        "name": "C3",
        "ticks": 5655,
        "time": 2.0709228515625,
        "velocity": 0.6299212598425197
    },
    {
        "duration": 0.1754150390625,
        "durationTicks": 479,
        "midi": 52,
        "name": "E3",
        "ticks": 5655,
        "time": 2.0709228515625,
        "velocity": 0.6299212598425197
    },
    {
        "duration": 0.1864013671875,
        "durationTicks": 509,
        "midi": 57,
        "name": "A3",
        "ticks": 5655,
        "time": 2.0709228515625,
        "velocity": 0.7401574803149606
    },
    {
        "duration": 0.371337890625,
        "durationTicks": 1014,
        "midi": 76,
        "name": "E5",
        "ticks": 6165,
        "time": 2.2576904296875,
        "velocity": 0.6535433070866141
    },
    {
        "duration": 0.371337890625,
        "durationTicks": 1014,
        "midi": 88,
        "name": "E6",
        "ticks": 6165,
        "time": 2.2576904296875,
        "velocity": 0.7637795275590551
    },
    {
        "duration": 0.1754150390625,
        "durationTicks": 479,
        "midi": 33,
        "name": "A1",
        "ticks": 6165,
        "time": 2.2576904296875,
        "velocity": 0.6299212598425197
    },
    {
        "duration": 0.1864013671875,
        "durationTicks": 509,
        "midi": 45,
        "name": "A2",
        "ticks": 6165,
        "time": 2.2576904296875,
        "velocity": 0.7637795275590551
    },
    {
        "duration": 0.173583984375,
        "durationTicks": 474,
        "midi": 52,
        "name": "E3",
        "ticks": 6675,
        "time": 2.4444580078125,
        "velocity": 0.6299212598425197
    },
    {
        "duration": 0.173583984375,
        "durationTicks": 474,
        "midi": 57,
        "name": "A3",
        "ticks": 6675,
        "time": 2.4444580078125,
        "velocity": 0.6299212598425197
    },
    {
        "duration": 0.1845703125,
        "durationTicks": 504,
        "midi": 60,
        "name": "C4",
        "ticks": 6675,
        "time": 2.4444580078125,
        "velocity": 0.7401574803149606
    },
    {
        "duration": 0.173583984375,
        "durationTicks": 474,
        "midi": 74,
        "name": "D5",
        "ticks": 7180,
        "time": 2.62939453125,
        "velocity": 0.6377952755905512
    },
    {
        "duration": 0.1845703125,
        "durationTicks": 504,
        "midi": 86,
        "name": "D6",
        "ticks": 7180,
        "time": 2.62939453125,
        "velocity": 0.7480314960629921
    },
    {
        "duration": 0.173583984375,
        "durationTicks": 474,
        "midi": 33,
        "name": "A1",
        "ticks": 7180,
        "time": 2.62939453125,
        "velocity": 0.6141732283464567
    },
    {
        "duration": 0.1845703125,
        "durationTicks": 504,
        "midi": 45,
        "name": "A2",
        "ticks": 7180,
        "time": 2.62939453125,
        "velocity": 0.7480314960629921
    },
    {
        "duration": 0.17431640625,
        "durationTicks": 476,
        "midi": 72,
        "name": "C5",
        "ticks": 7685,
        "time": 2.8143310546875,
        "velocity": 0.6299212598425197
    },
    {
        "duration": 0.185302734375,
        "durationTicks": 506,
        "midi": 84,
        "name": "C6",
        "ticks": 7685,
        "time": 2.8143310546875,
        "velocity": 0.7401574803149606
    },
    {
        "duration": 0.17431640625,
        "durationTicks": 476,
        "midi": 57,
        "name": "A3",
        "ticks": 7685,
        "time": 2.8143310546875,
        "velocity": 0.6299212598425197
    },
    {
        "duration": 0.17431640625,
        "durationTicks": 476,
        "midi": 60,
        "name": "C4",
        "ticks": 7685,
        "time": 2.8143310546875,
        "velocity": 0.6299212598425197
    },
    {
        "duration": 0.185302734375,
        "durationTicks": 506,
        "midi": 64,
        "name": "E4",
        "ticks": 7685,
        "time": 2.8143310546875,
        "velocity": 0.7401574803149606
    },
    {
        "duration": 0.3841552734375,
        "durationTicks": 1049,
        "midi": 71,
        "name": "B4",
        "ticks": 8196,
        "time": 3.00146484375,
        "velocity": 0.6692913385826772
    },
    {
        "duration": 0.3841552734375,
        "durationTicks": 1049,
        "midi": 83,
        "name": "B5",
        "ticks": 8196,
        "time": 3.00146484375,
        "velocity": 0.7795275590551181
    },
    {
        "duration": 0.1871337890625,
        "durationTicks": 511,
        "midi": 32,
        "name": "G#1",
        "ticks": 8196,
        "time": 3.00146484375,
        "velocity": 0.6456692913385826
    },
    {
        "duration": 0.1981201171875,
        "durationTicks": 541,
        "midi": 44,
        "name": "G#2",
        "ticks": 8196,
        "time": 3.00146484375,
        "velocity": 0.7795275590551181
    },
    {
        "duration": 0.1746826171875,
        "durationTicks": 477,
        "midi": 52,
        "name": "E3",
        "ticks": 8738,
        "time": 3.199951171875,
        "velocity": 0.6299212598425197
    },
    {
        "duration": 0.1746826171875,
        "durationTicks": 477,
        "midi": 56,
        "name": "G#3",
        "ticks": 8738,
        "time": 3.199951171875,
        "velocity": 0.6299212598425197
    },
    {
        "duration": 0.1856689453125,
        "durationTicks": 507,
        "midi": 59,
        "name": "B3",
        "ticks": 8738,
        "time": 3.199951171875,
        "velocity": 0.7401574803149606
    },
    {
        "duration": 0.173583984375,
        "durationTicks": 474,
        "midi": 71,
        "name": "B4",
        "ticks": 9246,
        "time": 3.385986328125,
        "velocity": 0.6377952755905512
    },
    {
        "duration": 0.1845703125,
        "durationTicks": 504,
        "midi": 83,
        "name": "B5",
        "ticks": 9246,
        "time": 3.385986328125,
        "velocity": 0.7480314960629921
    },
    {
        "duration": 0.173583984375,
        "durationTicks": 474,
        "midi": 28,
        "name": "E1",
        "ticks": 9246,
        "time": 3.385986328125,
        "velocity": 0.6062992125984252
    },
    {
        "duration": 0.1845703125,
        "durationTicks": 504,
        "midi": 40,
        "name": "E2",
        "ticks": 9246,
        "time": 3.385986328125,
        "velocity": 0.7401574803149606
    },
    {
        "duration": 0.1754150390625,
        "durationTicks": 479,
        "midi": 72,
        "name": "C5",
        "ticks": 9751,
        "time": 3.5709228515625,
        "velocity": 0.6299212598425197
    },
    {
        "duration": 0.1864013671875,
        "durationTicks": 509,
        "midi": 84,
        "name": "C6",
        "ticks": 9751,
        "time": 3.5709228515625,
        "velocity": 0.7401574803149606
    },
    {
        "duration": 0.1754150390625,
        "durationTicks": 479,
        "midi": 52,
        "name": "E3",
        "ticks": 9751,
        "time": 3.5709228515625,
        "velocity": 0.6299212598425197
    },
    {
        "duration": 0.1754150390625,
        "durationTicks": 479,
        "midi": 56,
        "name": "G#3",
        "ticks": 9751,
        "time": 3.5709228515625,
        "velocity": 0.6299212598425197
    },
    {
        "duration": 0.1864013671875,
        "durationTicks": 509,
        "midi": 59,
        "name": "B3",
        "ticks": 9751,
        "time": 3.5709228515625,
        "velocity": 0.7401574803149606
    },
    {
        "duration": 0.371337890625,
        "durationTicks": 1014,
        "midi": 74,
        "name": "D5",
        "ticks": 10261,
        "time": 3.7576904296875,
        "velocity": 0.6535433070866141
    },
    {
        "duration": 0.371337890625,
        "durationTicks": 1014,
        "midi": 86,
        "name": "D6",
        "ticks": 10261,
        "time": 3.7576904296875,
        "velocity": 0.7637795275590551
    },
    {
        "duration": 0.1754150390625,
        "durationTicks": 479,
        "midi": 32,
        "name": "G#1",
        "ticks": 10261,
        "time": 3.7576904296875,
        "velocity": 0.6299212598425197
    },
    {
        "duration": 0.1864013671875,
        "durationTicks": 509,
        "midi": 44,
        "name": "G#2",
        "ticks": 10261,
        "time": 3.7576904296875,
        "velocity": 0.7637795275590551
    },
    {
        "duration": 0.173583984375,
        "durationTicks": 474,
        "midi": 52,
        "name": "E3",
        "ticks": 10771,
        "time": 3.9444580078125,
        "velocity": 0.6299212598425197
    },
    {
        "duration": 0.173583984375,
        "durationTicks": 474,
        "midi": 56,
        "name": "G#3",
        "ticks": 10771,
        "time": 3.9444580078125,
        "velocity": 0.6299212598425197
    },
    {
        "duration": 0.1845703125,
        "durationTicks": 504,
        "midi": 59,
        "name": "B3",
        "ticks": 10771,
        "time": 3.9444580078125,
        "velocity": 0.6299212598425197
    },
    {
        "duration": 0.1845703125,
        "durationTicks": 504,
        "midi": 64,
        "name": "E4",
        "ticks": 10771,
        "time": 3.9444580078125,
        "velocity": 0.7401574803149606
    },
    {
        "duration": 0.3702392578125,
        "durationTicks": 1011,
        "midi": 76,
        "name": "E5",
        "ticks": 11276,
        "time": 4.12939453125,
        "velocity": 0.6377952755905512
    },
    {
        "duration": 0.3702392578125,
        "durationTicks": 1011,
        "midi": 88,
        "name": "E6",
        "ticks": 11276,
        "time": 4.12939453125,
        "velocity": 0.7480314960629921
    },
    {
        "duration": 0.173583984375,
        "durationTicks": 474,
        "midi": 28,
        "name": "E1",
        "ticks": 11276,
        "time": 4.12939453125,
        "velocity": 0.6062992125984252
    },
    {
        "duration": 0.1845703125,
        "durationTicks": 504,
        "midi": 40,
        "name": "E2",
        "ticks": 11276,
        "time": 4.12939453125,
        "velocity": 0.7401574803149606
    },
    {
        "duration": 0.17431640625,
        "durationTicks": 476,
        "midi": 52,
        "name": "E3",
        "ticks": 11781,
        "time": 4.3143310546875,
        "velocity": 0.6299212598425197
    },
    {
        "duration": 0.17431640625,
        "durationTicks": 476,
        "midi": 56,
        "name": "G#3",
        "ticks": 11781,
        "time": 4.3143310546875,
        "velocity": 0.6299212598425197
    },
    {
        "duration": 0.185302734375,
        "durationTicks": 506,
        "midi": 59,
        "name": "B3",
        "ticks": 11781,
        "time": 4.3143310546875,
        "velocity": 0.6299212598425197
    },
    {
        "duration": 0.185302734375,
        "durationTicks": 506,
        "midi": 64,
        "name": "E4",
        "ticks": 11781,
        "time": 4.3143310546875,
        "velocity": 0.7401574803149606
    },
    {
        "duration": 0.1981201171875,
        "durationTicks": 541,
        "midi": 72,
        "name": "C5",
        "ticks": 12292,
        "time": 4.50146484375,
        "velocity": 0.6692913385826772
    },
    {
        "duration": 0.1981201171875,
        "durationTicks": 541,
        "midi": 84,
        "name": "C6",
        "ticks": 12292,
        "time": 4.50146484375,
        "velocity": 0.7795275590551181
    },
    {
        "duration": 0.1871337890625,
        "durationTicks": 511,
        "midi": 33,
        "name": "A1",
        "ticks": 12292,
        "time": 4.50146484375,
        "velocity": 0.6456692913385826
    },
    {
        "duration": 0.1981201171875,
        "durationTicks": 541,
        "midi": 45,
        "name": "A2",
        "ticks": 12292,
        "time": 4.50146484375,
        "velocity": 0.7795275590551181
    },
    {
        "duration": 0.1746826171875,
        "durationTicks": 477,
        "midi": 64,
        "name": "E4",
        "ticks": 12834,
        "time": 4.699951171875,
        "velocity": 0.6299212598425197
    },
    {
        "duration": 0.1856689453125,
        "durationTicks": 507,
        "midi": 69,
        "name": "A4",
        "ticks": 12834,
        "time": 4.699951171875,
        "velocity": 0.6299212598425197
    },
    {
        "duration": 0.1856689453125,
        "durationTicks": 507,
        "midi": 72,
        "name": "C5",
        "ticks": 12834,
        "time": 4.699951171875,
        "velocity": 0.7401574803149606
    },
    {
        "duration": 0.1746826171875,
        "durationTicks": 477,
        "midi": 48,
        "name": "C3",
        "ticks": 12834,
        "time": 4.699951171875,
        "velocity": 0.6299212598425197
    },
    {
        "duration": 0.1856689453125,
        "durationTicks": 507,
        "midi": 52,
        "name": "E3",
        "ticks": 12834,
        "time": 4.699951171875,
        "velocity": 0.6299212598425197
    },
    {
        "duration": 0.1856689453125,
        "durationTicks": 507,
        "midi": 57,
        "name": "A3",
        "ticks": 12834,
        "time": 4.699951171875,
        "velocity": 0.6299212598425197
    },
    {
        "duration": 0.1856689453125,
        "durationTicks": 507,
        "midi": 60,
        "name": "C4",
        "ticks": 12834,
        "time": 4.699951171875,
        "velocity": 0.7401574803149606
    },
    {
        "duration": 0.1845703125,
        "durationTicks": 504,
        "midi": 69,
        "name": "A4",
        "ticks": 13342,
        "time": 4.885986328125,
        "velocity": 0.6377952755905512
    },
    {
        "duration": 0.1845703125,
        "durationTicks": 504,
        "midi": 81,
        "name": "A5",
        "ticks": 13342,
        "time": 4.885986328125,
        "velocity": 0.7480314960629921
    },
    {
        "duration": 0.173583984375,
        "durationTicks": 474,
        "midi": 21,
        "name": "A0",
        "ticks": 13342,
        "time": 4.885986328125,
        "velocity": 0.6141732283464567
    },
    {
        "duration": 0.1845703125,
        "durationTicks": 504,
        "midi": 33,
        "name": "A1",
        "ticks": 13342,
        "time": 4.885986328125,
        "velocity": 0.7480314960629921
    },
    {
        "duration": 0.1864013671875,
        "durationTicks": 509,
        "midi": 69,
        "name": "A4",
        "ticks": 13847,
        "time": 5.0709228515625,
        "velocity": 0.6299212598425197
    },
    {
        "duration": 0.1754150390625,
        "durationTicks": 479,
        "midi": 72,
        "name": "C5",
        "ticks": 13847,
        "time": 5.0709228515625,
        "velocity": 0.6299212598425197
    },
    {
        "duration": 0.1864013671875,
        "durationTicks": 509,
        "midi": 76,
        "name": "E5",
        "ticks": 13847,
        "time": 5.0709228515625,
        "velocity": 0.7401574803149606
    },
    {
        "duration": 0.1754150390625,
        "durationTicks": 479,
        "midi": 52,
        "name": "E3",
        "ticks": 13847,
        "time": 5.0709228515625,
        "velocity": 0.6299212598425197
    },
    {
        "duration": 0.1864013671875,
        "durationTicks": 509,
        "midi": 57,
        "name": "A3",
        "ticks": 13847,
        "time": 5.0709228515625,
        "velocity": 0.6299212598425197
    },
    {
        "duration": 0.1864013671875,
        "durationTicks": 509,
        "midi": 60,
        "name": "C4",
        "ticks": 13847,
        "time": 5.0709228515625,
        "velocity": 0.6299212598425197
    },
    {
        "duration": 0.1864013671875,
        "durationTicks": 509,
        "midi": 64,
        "name": "E4",
        "ticks": 13847,
        "time": 5.0709228515625,
        "velocity": 0.7401574803149606
    },
    {
        "duration": 0.1754150390625,
        "durationTicks": 479,
        "midi": 69,
        "name": "A4",
        "ticks": 14357,
        "time": 5.2576904296875,
        "velocity": 0.6535433070866141
    },
    {
        "duration": 0.1864013671875,
        "durationTicks": 509,
        "midi": 81,
        "name": "A5",
        "ticks": 14357,
        "time": 5.2576904296875,
        "velocity": 0.7637795275590551
    },
    {
        "duration": 0.1754150390625,
        "durationTicks": 479,
        "midi": 33,
        "name": "A1",
        "ticks": 14357,
        "time": 5.2576904296875,
        "velocity": 0.6299212598425197
    },
    {
        "duration": 0.1864013671875,
        "durationTicks": 509,
        "midi": 45,
        "name": "A2",
        "ticks": 14357,
        "time": 5.2576904296875,
        "velocity": 0.7637795275590551
    },
    {
        "duration": 0.173583984375,
        "durationTicks": 474,
        "midi": 72,
        "name": "C5",
        "ticks": 14867,
        "time": 5.4444580078125,
        "velocity": 0.7165354330708661
    },
    {
        "duration": 0.173583984375,
        "durationTicks": 474,
        "midi": 76,
        "name": "E5",
        "ticks": 14867,
        "time": 5.4444580078125,
        "velocity": 0.7165354330708661
    },
    {
        "duration": 0.1845703125,
        "durationTicks": 504,
        "midi": 81,
        "name": "A5",
        "ticks": 14867,
        "time": 5.4444580078125,
        "velocity": 0.6771653543307087
    },
    {
        "duration": 0.1845703125,
        "durationTicks": 504,
        "midi": 57,
        "name": "A3",
        "ticks": 14867,
        "time": 5.4444580078125,
        "velocity": 0.6299212598425197
    },
    {
        "duration": 0.1845703125,
        "durationTicks": 504,
        "midi": 60,
        "name": "C4",
        "ticks": 14867,
        "time": 5.4444580078125,
        "velocity": 0.6299212598425197
    },
    {
        "duration": 0.1845703125,
        "durationTicks": 504,
        "midi": 64,
        "name": "E4",
        "ticks": 14867,
        "time": 5.4444580078125,
        "velocity": 0.6299212598425197
    },
    {
        "duration": 0.1845703125,
        "durationTicks": 504,
        "midi": 69,
        "name": "A4",
        "ticks": 14867,
        "time": 5.4444580078125,
        "velocity": 0.7401574803149606
    },
    {
        "duration": 0.0882568359375,
        "durationTicks": 241,
        "midi": 81,
        "name": "A5",
        "ticks": 15372,
        "time": 5.62939453125,
        "velocity": 0.7007874015748031
    },
    {
        "duration": 0.0882568359375,
        "durationTicks": 241,
        "midi": 57,
        "name": "A3",
        "ticks": 15372,
        "time": 5.62939453125,
        "velocity": 0.7007874015748031
    },
    {
        "duration": 0.0849609375,
        "durationTicks": 232,
        "midi": 83,
        "name": "B5",
        "ticks": 15629,
        "time": 5.7235107421875,
        "velocity": 0.6929133858267716
    },
    {
        "duration": 0.0849609375,
        "durationTicks": 232,
        "midi": 59,
        "name": "B3",
        "ticks": 15629,
        "time": 5.7235107421875,
        "velocity": 0.6929133858267716
    },
    {
        "duration": 0.0849609375,
        "durationTicks": 232,
        "midi": 84,
        "name": "C6",
        "ticks": 15877,
        "time": 5.8143310546875,
        "velocity": 0.6929133858267716
    },
    {
        "duration": 0.0849609375,
        "durationTicks": 232,
        "midi": 60,
        "name": "C4",
        "ticks": 15877,
        "time": 5.8143310546875,
        "velocity": 0.6929133858267716
    },
    {
        "duration": 0.0889892578125,
        "durationTicks": 243,
        "midi": 86,
        "name": "D6",
        "ticks": 16125,
        "time": 5.9051513671875,
        "velocity": 0.6929133858267716
    },
    {
        "duration": 0.0889892578125,
        "durationTicks": 243,
        "midi": 62,
        "name": "D4",
        "ticks": 16125,
        "time": 5.9051513671875,
        "velocity": 0.6929133858267716
    },
    {
        "duration": 0.1871337890625,
        "durationTicks": 511,
        "midi": 76,
        "name": "E5",
        "ticks": 16388,
        "time": 6.00146484375,
        "velocity": 0.6692913385826772
    },
    {
        "duration": 0.1981201171875,
        "durationTicks": 541,
        "midi": 88,
        "name": "E6",
        "ticks": 16388,
        "time": 6.00146484375,
        "velocity": 0.7795275590551181
    },
    {
        "duration": 0.1871337890625,
        "durationTicks": 511,
        "midi": 52,
        "name": "E3",
        "ticks": 16388,
        "time": 6.00146484375,
        "velocity": 0.6692913385826772
    },
    {
        "duration": 0.1981201171875,
        "durationTicks": 541,
        "midi": 64,
        "name": "E4",
        "ticks": 16388,
        "time": 6.00146484375,
        "velocity": 0.7795275590551181
    },
    {
        "duration": 0.37060546875,
        "durationTicks": 1012,
        "midi": 74,
        "name": "D5",
        "ticks": 16930,
        "time": 6.199951171875,
        "velocity": 0.6299212598425197
    },
    {
        "duration": 0.37060546875,
        "durationTicks": 1012,
        "midi": 86,
        "name": "D6",
        "ticks": 16930,
        "time": 6.199951171875,
        "velocity": 0.7401574803149606
    },
    {
        "duration": 0.1746826171875,
        "durationTicks": 477,
        "midi": 38,
        "name": "D2",
        "ticks": 16930,
        "time": 6.199951171875,
        "velocity": 0.6220472440944882
    },
    {
        "duration": 0.1746826171875,
        "durationTicks": 477,
        "midi": 41,
        "name": "F2",
        "ticks": 16930,
        "time": 6.199951171875,
        "velocity": 0.6299212598425197
    },
    {
        "duration": 0.1856689453125,
        "durationTicks": 507,
        "midi": 45,
        "name": "A2",
        "ticks": 16930,
        "time": 6.199951171875,
        "velocity": 0.7401574803149606
    },
    {
        "duration": 0.173583984375,
        "durationTicks": 474,
        "midi": 50,
        "name": "D3",
        "ticks": 17438,
        "time": 6.385986328125,
        "velocity": 0.6377952755905512
    },
    {
        "duration": 0.1845703125,
        "durationTicks": 504,
        "midi": 65,
        "name": "F4",
        "ticks": 17438,
        "time": 6.385986328125,
        "velocity": 0.7480314960629921
    },
    {
        "duration": 0.1754150390625,
        "durationTicks": 479,
        "midi": 77,
        "name": "F5",
        "ticks": 17943,
        "time": 6.5709228515625,
        "velocity": 0.6299212598425197
    },
    {
        "duration": 0.1864013671875,
        "durationTicks": 509,
        "midi": 89,
        "name": "F6",
        "ticks": 17943,
        "time": 6.5709228515625,
        "velocity": 0.7401574803149606
    },
    {
        "duration": 0.1754150390625,
        "durationTicks": 479,
        "midi": 38,
        "name": "D2",
        "ticks": 17943,
        "time": 6.5709228515625,
        "velocity": 0.6220472440944882
    },
    {
        "duration": 0.1754150390625,
        "durationTicks": 479,
        "midi": 41,
        "name": "F2",
        "ticks": 17943,
        "time": 6.5709228515625,
        "velocity": 0.6299212598425197
    },
    {
        "duration": 0.1864013671875,
        "durationTicks": 509,
        "midi": 45,
        "name": "A2",
        "ticks": 17943,
        "time": 6.5709228515625,
        "velocity": 0.7401574803149606
    },
    {
        "duration": 0.371337890625,
        "durationTicks": 1014,
        "midi": 81,
        "name": "A5",
        "ticks": 18453,
        "time": 6.7576904296875,
        "velocity": 0.6535433070866141
    },
    {
        "duration": 0.371337890625,
        "durationTicks": 1014,
        "midi": 93,
        "name": "A6",
        "ticks": 18453,
        "time": 6.7576904296875,
        "velocity": 0.7637795275590551
    },
    {
        "duration": 0.1754150390625,
        "durationTicks": 479,
        "midi": 57,
        "name": "A3",
        "ticks": 18453,
        "time": 6.7576904296875,
        "velocity": 0.6535433070866141
    },
    {
        "duration": 0.1864013671875,
        "durationTicks": 509,
        "midi": 69,
        "name": "A4",
        "ticks": 18453,
        "time": 6.7576904296875,
        "velocity": 0.7637795275590551
    },
    {
        "duration": 0.173583984375,
        "durationTicks": 474,
        "midi": 38,
        "name": "D2",
        "ticks": 18963,
        "time": 6.9444580078125,
        "velocity": 0.6220472440944882
    },
    {
        "duration": 0.173583984375,
        "durationTicks": 474,
        "midi": 41,
        "name": "F2",
        "ticks": 18963,
        "time": 6.9444580078125,
        "velocity": 0.6299212598425197
    },
    {
        "duration": 0.1845703125,
        "durationTicks": 504,
        "midi": 45,
        "name": "A2",
        "ticks": 18963,
        "time": 6.9444580078125,
        "velocity": 0.7401574803149606
    },
    {
        "duration": 0.173583984375,
        "durationTicks": 474,
        "midi": 79,
        "name": "G5",
        "ticks": 19468,
        "time": 7.12939453125,
        "velocity": 0.6377952755905512
    },
    {
        "duration": 0.1845703125,
        "durationTicks": 504,
        "midi": 91,
        "name": "G6",
        "ticks": 19468,
        "time": 7.12939453125,
        "velocity": 0.7480314960629921
    },
    {
        "duration": 0.173583984375,
        "durationTicks": 474,
        "midi": 45,
        "name": "A2",
        "ticks": 19468,
        "time": 7.12939453125,
        "velocity": 0.6377952755905512
    },
    {
        "duration": 0.1845703125,
        "durationTicks": 504,
        "midi": 57,
        "name": "A3",
        "ticks": 19468,
        "time": 7.12939453125,
        "velocity": 0.7480314960629921
    },
    {
        "duration": 0.17431640625,
        "durationTicks": 476,
        "midi": 77,
        "name": "F5",
        "ticks": 19973,
        "time": 7.3143310546875,
        "velocity": 0.6299212598425197
    },
    {
        "duration": 0.185302734375,
        "durationTicks": 506,
        "midi": 89,
        "name": "F6",
        "ticks": 19973,
        "time": 7.3143310546875,
        "velocity": 0.7401574803149606
    },
    {
        "duration": 0.17431640625,
        "durationTicks": 476,
        "midi": 41,
        "name": "F2",
        "ticks": 19973,
        "time": 7.3143310546875,
        "velocity": 0.6299212598425197
    },
    {
        "duration": 0.185302734375,
        "durationTicks": 506,
        "midi": 53,
        "name": "F3",
        "ticks": 19973,
        "time": 7.3143310546875,
        "velocity": 0.7401574803149606
    },
    {
        "duration": 0.569091796875,
        "durationTicks": 1554,
        "midi": 76,
        "name": "E5",
        "ticks": 20484,
        "time": 7.50146484375,
        "velocity": 0.6692913385826772
    },
    {
        "duration": 0.569091796875,
        "durationTicks": 1554,
        "midi": 88,
        "name": "E6",
        "ticks": 20484,
        "time": 7.50146484375,
        "velocity": 0.7795275590551181
    },
    {
        "duration": 0.1871337890625,
        "durationTicks": 511,
        "midi": 36,
        "name": "C2",
        "ticks": 20484,
        "time": 7.50146484375,
        "velocity": 0.6535433070866141
    },
    {
        "duration": 0.1981201171875,
        "durationTicks": 541,
        "midi": 48,
        "name": "C3",
        "ticks": 20484,
        "time": 7.50146484375,
        "velocity": 0.7795275590551181
    },
    {
        "duration": 0.1856689453125,
        "durationTicks": 507,
        "midi": 48,
        "name": "C3",
        "ticks": 21026,
        "time": 7.699951171875,
        "velocity": 0.6299212598425197
    },
    {
        "duration": 0.1856689453125,
        "durationTicks": 507,
        "midi": 60,
        "name": "C4",
        "ticks": 21026,
        "time": 7.699951171875,
        "velocity": 0.7401574803149606
    },
    {
        "duration": 0.173583984375,
        "durationTicks": 474,
        "midi": 36,
        "name": "C2",
        "ticks": 21534,
        "time": 7.885986328125,
        "velocity": 0.6220472440944882
    },
    {
        "duration": 0.1845703125,
        "durationTicks": 504,
        "midi": 48,
        "name": "C3",
        "ticks": 21534,
        "time": 7.885986328125,
        "velocity": 0.7480314960629921
    },
    {
        "duration": 0.1754150390625,
        "durationTicks": 479,
        "midi": 72,
        "name": "C5",
        "ticks": 22039,
        "time": 8.0709228515625,
        "velocity": 0.6299212598425197
    },
    {
        "duration": 0.1864013671875,
        "durationTicks": 509,
        "midi": 84,
        "name": "C6",
        "ticks": 22039,
        "time": 8.0709228515625,
        "velocity": 0.7401574803149606
    },
    {
        "duration": 0.1864013671875,
        "durationTicks": 509,
        "midi": 48,
        "name": "C3",
        "ticks": 22039,
        "time": 8.0709228515625,
        "velocity": 0.6299212598425197
    },
    {
        "duration": 0.1864013671875,
        "durationTicks": 509,
        "midi": 60,
        "name": "C4",
        "ticks": 22039,
        "time": 8.0709228515625,
        "velocity": 0.7401574803149606
    },
    {
        "duration": 0.371337890625,
        "durationTicks": 1014,
        "midi": 76,
        "name": "E5",
        "ticks": 22549,
        "time": 8.2576904296875,
        "velocity": 0.6535433070866141
    },
    {
        "duration": 0.371337890625,
        "durationTicks": 1014,
        "midi": 88,
        "name": "E6",
        "ticks": 22549,
        "time": 8.2576904296875,
        "velocity": 0.7637795275590551
    },
    {
        "duration": 0.1754150390625,
        "durationTicks": 479,
        "midi": 36,
        "name": "C2",
        "ticks": 22549,
        "time": 8.2576904296875,
        "velocity": 0.6377952755905512
    },
    {
        "duration": 0.1864013671875,
        "durationTicks": 509,
        "midi": 48,
        "name": "C3",
        "ticks": 22549,
        "time": 8.2576904296875,
        "velocity": 0.7637795275590551
    },
    {
        "duration": 0.173583984375,
        "durationTicks": 474,
        "midi": 52,
        "name": "E3",
        "ticks": 23059,
        "time": 8.4444580078125,
        "velocity": 0.6299212598425197
    },
    {
        "duration": 0.173583984375,
        "durationTicks": 474,
        "midi": 57,
        "name": "A3",
        "ticks": 23059,
        "time": 8.4444580078125,
        "velocity": 0.6299212598425197
    },
    {
        "duration": 0.1845703125,
        "durationTicks": 504,
        "midi": 60,
        "name": "C4",
        "ticks": 23059,
        "time": 8.4444580078125,
        "velocity": 0.7401574803149606
    },
    {
        "duration": 0.173583984375,
        "durationTicks": 474,
        "midi": 74,
        "name": "D5",
        "ticks": 23564,
        "time": 8.62939453125,
        "velocity": 0.6377952755905512
    },
    {
        "duration": 0.1845703125,
        "durationTicks": 504,
        "midi": 86,
        "name": "D6",
        "ticks": 23564,
        "time": 8.62939453125,
        "velocity": 0.7480314960629921
    },
    {
        "duration": 0.173583984375,
        "durationTicks": 474,
        "midi": 31,
        "name": "G1",
        "ticks": 23564,
        "time": 8.62939453125,
        "velocity": 0.6141732283464567
    },
    {
        "duration": 0.1845703125,
        "durationTicks": 504,
        "midi": 43,
        "name": "G2",
        "ticks": 23564,
        "time": 8.62939453125,
        "velocity": 0.7480314960629921
    },
    {
        "duration": 0.17431640625,
        "durationTicks": 476,
        "midi": 72,
        "name": "C5",
        "ticks": 24069,
        "time": 8.8143310546875,
        "velocity": 0.6299212598425197
    },
    {
        "duration": 0.185302734375,
        "durationTicks": 506,
        "midi": 84,
        "name": "C6",
        "ticks": 24069,
        "time": 8.8143310546875,
        "velocity": 0.7401574803149606
    },
    {
        "duration": 0.17431640625,
        "durationTicks": 476,
        "midi": 52,
        "name": "E3",
        "ticks": 24069,
        "time": 8.8143310546875,
        "velocity": 0.6299212598425197
    },
    {
        "duration": 0.17431640625,
        "durationTicks": 476,
        "midi": 57,
        "name": "A3",
        "ticks": 24069,
        "time": 8.8143310546875,
        "velocity": 0.6299212598425197
    },
    {
        "duration": 0.185302734375,
        "durationTicks": 506,
        "midi": 60,
        "name": "C4",
        "ticks": 24069,
        "time": 8.8143310546875,
        "velocity": 0.7401574803149606
    },
    {
        "duration": 0.3841552734375,
        "durationTicks": 1049,
        "midi": 71,
        "name": "B4",
        "ticks": 24580,
        "time": 9.00146484375,
        "velocity": 0.6692913385826772
    },
    {
        "duration": 0.3841552734375,
        "durationTicks": 1049,
        "midi": 83,
        "name": "B5",
        "ticks": 24580,
        "time": 9.00146484375,
        "velocity": 0.7795275590551181
    },
    {
        "duration": 0.1871337890625,
        "durationTicks": 511,
        "midi": 35,
        "name": "B1",
        "ticks": 24580,
        "time": 9.00146484375,
        "velocity": 0.6535433070866141
    },
    {
        "duration": 0.1981201171875,
        "durationTicks": 541,
        "midi": 47,
        "name": "B2",
        "ticks": 24580,
        "time": 9.00146484375,
        "velocity": 0.7795275590551181
    },
    {
        "duration": 0.1856689453125,
        "durationTicks": 507,
        "midi": 47,
        "name": "B2",
        "ticks": 25122,
        "time": 9.199951171875,
        "velocity": 0.6299212598425197
    },
    {
        "duration": 0.1856689453125,
        "durationTicks": 507,
        "midi": 59,
        "name": "B3",
        "ticks": 25122,
        "time": 9.199951171875,
        "velocity": 0.7401574803149606
    },
    {
        "duration": 0.173583984375,
        "durationTicks": 474,
        "midi": 71,
        "name": "B4",
        "ticks": 25630,
        "time": 9.385986328125,
        "velocity": 0.6377952755905512
    },
    {
        "duration": 0.1845703125,
        "durationTicks": 504,
        "midi": 83,
        "name": "B5",
        "ticks": 25630,
        "time": 9.385986328125,
        "velocity": 0.7480314960629921
    },
    {
        "duration": 0.173583984375,
        "durationTicks": 474,
        "midi": 35,
        "name": "B1",
        "ticks": 25630,
        "time": 9.385986328125,
        "velocity": 0.6220472440944882
    },
    {
        "duration": 0.1845703125,
        "durationTicks": 504,
        "midi": 47,
        "name": "B2",
        "ticks": 25630,
        "time": 9.385986328125,
        "velocity": 0.7480314960629921
    },
    {
        "duration": 0.1754150390625,
        "durationTicks": 479,
        "midi": 72,
        "name": "C5",
        "ticks": 26135,
        "time": 9.5709228515625,
        "velocity": 0.6299212598425197
    },
    {
        "duration": 0.1864013671875,
        "durationTicks": 509,
        "midi": 84,
        "name": "C6",
        "ticks": 26135,
        "time": 9.5709228515625,
        "velocity": 0.7401574803149606
    },
    {
        "duration": 0.1754150390625,
        "durationTicks": 479,
        "midi": 47,
        "name": "B2",
        "ticks": 26135,
        "time": 9.5709228515625,
        "velocity": 0.6299212598425197
    },
    {
        "duration": 0.1864013671875,
        "durationTicks": 509,
        "midi": 59,
        "name": "B3",
        "ticks": 26135,
        "time": 9.5709228515625,
        "velocity": 0.7401574803149606
    },
    {
        "duration": 0.371337890625,
        "durationTicks": 1014,
        "midi": 74,
        "name": "D5",
        "ticks": 26645,
        "time": 9.7576904296875,
        "velocity": 0.6535433070866141
    },
    {
        "duration": 0.371337890625,
        "durationTicks": 1014,
        "midi": 86,
        "name": "D6",
        "ticks": 26645,
        "time": 9.7576904296875,
        "velocity": 0.7637795275590551
    },
    {
        "duration": 0.1754150390625,
        "durationTicks": 479,
        "midi": 50,
        "name": "D3",
        "ticks": 26645,
        "time": 9.7576904296875,
        "velocity": 0.6535433070866141
    },
    {
        "duration": 0.1864013671875,
        "durationTicks": 509,
        "midi": 62,
        "name": "D4",
        "ticks": 26645,
        "time": 9.7576904296875,
        "velocity": 0.7637795275590551
    },
    {
        "duration": 0.173583984375,
        "durationTicks": 474,
        "midi": 40,
        "name": "E2",
        "ticks": 27155,
        "time": 9.9444580078125,
        "velocity": 0.6220472440944882
    },
    {
        "duration": 0.1845703125,
        "durationTicks": 504,
        "midi": 52,
        "name": "E3",
        "ticks": 27155,
        "time": 9.9444580078125,
        "velocity": 0.7401574803149606
    },
    {
        "duration": 0.3702392578125,
        "durationTicks": 1011,
        "midi": 76,
        "name": "E5",
        "ticks": 27660,
        "time": 10.12939453125,
        "velocity": 0.6377952755905512
    },
    {
        "duration": 0.3702392578125,
        "durationTicks": 1011,
        "midi": 88,
        "name": "E6",
        "ticks": 27660,
        "time": 10.12939453125,
        "velocity": 0.7480314960629921
    },
    {
        "duration": 0.173583984375,
        "durationTicks": 474,
        "midi": 52,
        "name": "E3",
        "ticks": 27660,
        "time": 10.12939453125,
        "velocity": 0.6377952755905512
    },
    {
        "duration": 0.1845703125,
        "durationTicks": 504,
        "midi": 56,
        "name": "G#3",
        "ticks": 27660,
        "time": 10.12939453125,
        "velocity": 0.6377952755905512
    },
    {
        "duration": 0.1845703125,
        "durationTicks": 504,
        "midi": 59,
        "name": "B3",
        "ticks": 27660,
        "time": 10.12939453125,
        "velocity": 0.7480314960629921
    },
    {
        "duration": 0.17431640625,
        "durationTicks": 476,
        "midi": 44,
        "name": "G#2",
        "ticks": 28165,
        "time": 10.3143310546875,
        "velocity": 0.6299212598425197
    },
    {
        "duration": 0.185302734375,
        "durationTicks": 506,
        "midi": 56,
        "name": "G#3",
        "ticks": 28165,
        "time": 10.3143310546875,
        "velocity": 0.7401574803149606
    },
    {
        "duration": 0.3841552734375,
        "durationTicks": 1049,
        "midi": 72,
        "name": "C5",
        "ticks": 28676,
        "time": 10.50146484375,
        "velocity": 0.6692913385826772
    },
    {
        "duration": 0.3841552734375,
        "durationTicks": 1049,
        "midi": 84,
        "name": "C6",
        "ticks": 28676,
        "time": 10.50146484375,
        "velocity": 0.7795275590551181
    },
    {
        "duration": 0.1871337890625,
        "durationTicks": 511,
        "midi": 33,
        "name": "A1",
        "ticks": 28676,
        "time": 10.50146484375,
        "velocity": 0.6456692913385826
    },
    {
        "duration": 0.1981201171875,
        "durationTicks": 541,
        "midi": 45,
        "name": "A2",
        "ticks": 28676,
        "time": 10.50146484375,
        "velocity": 0.7795275590551181
    },
    {
        "duration": 0.1746826171875,
        "durationTicks": 477,
        "midi": 48,
        "name": "C3",
        "ticks": 29218,
        "time": 10.699951171875,
        "velocity": 0.6299212598425197
    },
    {
        "duration": 0.1746826171875,
        "durationTicks": 477,
        "midi": 52,
        "name": "E3",
        "ticks": 29218,
        "time": 10.699951171875,
        "velocity": 0.6299212598425197
    },
    {
        "duration": 0.1856689453125,
        "durationTicks": 507,
        "midi": 57,
        "name": "A3",
        "ticks": 29218,
        "time": 10.699951171875,
        "velocity": 0.7401574803149606
    },
    {
        "duration": 0.371337890625,
        "durationTicks": 1014,
        "midi": 69,
        "name": "A4",
        "ticks": 29726,
        "time": 10.885986328125,
        "velocity": 0.6377952755905512
    },
    {
        "duration": 0.371337890625,
        "durationTicks": 1014,
        "midi": 81,
        "name": "A5",
        "ticks": 29726,
        "time": 10.885986328125,
        "velocity": 0.7480314960629921
    },
    {
        "duration": 0.173583984375,
        "durationTicks": 474,
        "midi": 33,
        "name": "A1",
        "ticks": 29726,
        "time": 10.885986328125,
        "velocity": 0.6141732283464567
    },
    {
        "duration": 0.1845703125,
        "durationTicks": 504,
        "midi": 45,
        "name": "A2",
        "ticks": 29726,
        "time": 10.885986328125,
        "velocity": 0.7480314960629921
    },
    {
        "duration": 0.1754150390625,
        "durationTicks": 479,
        "midi": 52,
        "name": "E3",
        "ticks": 30231,
        "time": 11.0709228515625,
        "velocity": 0.6299212598425197
    },
    {
        "duration": 0.1754150390625,
        "durationTicks": 479,
        "midi": 57,
        "name": "A3",
        "ticks": 30231,
        "time": 11.0709228515625,
        "velocity": 0.6299212598425197
    },
    {
        "duration": 0.1864013671875,
        "durationTicks": 509,
        "midi": 60,
        "name": "C4",
        "ticks": 30231,
        "time": 11.0709228515625,
        "velocity": 0.7401574803149606
    },
    {
        "duration": 0.37500842675781243,
        "durationTicks": 1014,
        "midi": 69,
        "name": "A4",
        "ticks": 30741,
        "time": 11.2576904296875,
        "velocity": 0.6535433070866141
    },
    {
        "duration": 0.37500842675781243,
        "durationTicks": 1014,
        "midi": 81,
        "name": "A5",
        "ticks": 30741,
        "time": 11.2576904296875,
        "velocity": 0.7637795275590551
    },
    {
        "duration": 0.17597690624999984,
        "durationTicks": 479,
        "midi": 33,
        "name": "A1",
        "ticks": 30741,
        "time": 11.2576904296875,
        "velocity": 0.6299212598425197
    },
    {
        "duration": 0.18707429296875056,
        "durationTicks": 509,
        "midi": 45,
        "name": "A2",
        "ticks": 30741,
        "time": 11.2576904296875,
        "velocity": 0.7637795275590551
    },
    {
        "duration": 0.1763407294921855,
        "durationTicks": 474,
        "midi": 57,
        "name": "A3",
        "ticks": 31251,
        "time": 11.445135568359376,
        "velocity": 0.6299212598425197
    },
    {
        "duration": 0.1763407294921855,
        "durationTicks": 474,
        "midi": 60,
        "name": "C4",
        "ticks": 31251,
        "time": 11.445135568359376,
        "velocity": 0.6299212598425197
    },
    {
        "duration": 0.18756328808593636,
        "durationTicks": 504,
        "midi": 64,
        "name": "E4",
        "ticks": 31251,
        "time": 11.445135568359376,
        "velocity": 0.7401574803149606
    },
    {
        "duration": 0.09051974121093842,
        "durationTicks": 241,
        "midi": 40,
        "name": "E2",
        "ticks": 31756,
        "time": 11.633074457031249,
        "velocity": 0.6299212598425197
    },
    {
        "duration": 0.09615374999999915,
        "durationTicks": 256,
        "midi": 52,
        "name": "E3",
        "ticks": 31756,
        "time": 11.633074457031249,
        "velocity": 0.7480314960629921
    },
    {
        "duration": 0.08713933593750056,
        "durationTicks": 232,
        "midi": 38,
        "name": "D2",
        "ticks": 32013,
        "time": 11.729603807617186,
        "velocity": 0.6220472440944882
    },
    {
        "duration": 0.09278303613281125,
        "durationTicks": 247,
        "midi": 50,
        "name": "D3",
        "ticks": 32013,
        "time": 11.729603807617186,
        "velocity": 0.7401574803149606
    },
    {
        "duration": 0.08770143749999981,
        "durationTicks": 232,
        "midi": 36,
        "name": "C2",
        "ticks": 32261,
        "time": 11.822764867187498,
        "velocity": 0.6141732283464567
    },
    {
        "duration": 0.0933717890625001,
        "durationTicks": 247,
        "midi": 48,
        "name": "C3",
        "ticks": 32261,
        "time": 11.822764867187498,
        "velocity": 0.7401574803149606
    },
    {
        "duration": 0.09244891406249955,
        "durationTicks": 243,
        "midi": 35,
        "name": "B1",
        "ticks": 32509,
        "time": 11.916514679687499,
        "velocity": 0.6141732283464567
    },
    {
        "duration": 0.09815609179687357,
        "durationTicks": 258,
        "midi": 47,
        "name": "B2",
        "ticks": 32509,
        "time": 11.916514679687499,
        "velocity": 0.7401574803149606
    },
    {
        "duration": 0.3877507031250005,
        "durationTicks": 1049,
        "midi": 88,
        "name": "E6",
        "ticks": 32772,
        "time": 12.016573164062498,
        "velocity": 0.6692913385826772
    },
    {
        "duration": 0.3877507031250005,
        "durationTicks": 1049,
        "midi": 100,
        "name": "E7",
        "ticks": 32772,
        "time": 12.016573164062498,
        "velocity": 0.7795275590551181
    },
    {
        "duration": 0.19072921875000048,
        "durationTicks": 511,
        "midi": 28,
        "name": "E1",
        "ticks": 32772,
        "time": 12.016573164062498,
        "velocity": 0.6377952755905512
    },
    {
        "duration": 0.20171554687500048,
        "durationTicks": 541,
        "midi": 40,
        "name": "E2",
        "ticks": 32772,
        "time": 12.016573164062498,
        "velocity": 0.7716535433070866
    },
    {
        "duration": 0.1746826171875,
        "durationTicks": 477,
        "midi": 52,
        "name": "E3",
        "ticks": 33314,
        "time": 12.218654921874998,
        "velocity": 0.6299212598425197
    },
    {
        "duration": 0.1746826171875,
        "durationTicks": 477,
        "midi": 55,
        "name": "G3",
        "ticks": 33314,
        "time": 12.218654921874998,
        "velocity": 0.6299212598425197
    },
    {
        "duration": 0.1856689453125,
        "durationTicks": 507,
        "midi": 59,
        "name": "B3",
        "ticks": 33314,
        "time": 12.218654921874998,
        "velocity": 0.7401574803149606
    },
    {
        "duration": 0.173583984375,
        "durationTicks": 474,
        "midi": 83,
        "name": "B5",
        "ticks": 33822,
        "time": 12.404690078124998,
        "velocity": 0.6377952755905512
    },
    {
        "duration": 0.1845703125,
        "durationTicks": 504,
        "midi": 95,
        "name": "B6",
        "ticks": 33822,
        "time": 12.404690078124998,
        "velocity": 0.7480314960629921
    },
    {
        "duration": 0.173583984375,
        "durationTicks": 474,
        "midi": 28,
        "name": "E1",
        "ticks": 33822,
        "time": 12.404690078124998,
        "velocity": 0.6062992125984252
    },
    {
        "duration": 0.1845703125,
        "durationTicks": 504,
        "midi": 40,
        "name": "E2",
        "ticks": 33822,
        "time": 12.404690078124998,
        "velocity": 0.7401574803149606
    },
    {
        "duration": 0.1754150390625,
        "durationTicks": 479,
        "midi": 84,
        "name": "C6",
        "ticks": 34327,
        "time": 12.589626601562498,
        "velocity": 0.6299212598425197
    },
    {
        "duration": 0.1864013671875,
        "durationTicks": 509,
        "midi": 96,
        "name": "C7",
        "ticks": 34327,
        "time": 12.589626601562498,
        "velocity": 0.7401574803149606
    },
    {
        "duration": 0.1754150390625,
        "durationTicks": 479,
        "midi": 52,
        "name": "E3",
        "ticks": 34327,
        "time": 12.589626601562498,
        "velocity": 0.6299212598425197
    },
    {
        "duration": 0.1754150390625,
        "durationTicks": 479,
        "midi": 55,
        "name": "G3",
        "ticks": 34327,
        "time": 12.589626601562498,
        "velocity": 0.6299212598425197
    },
    {
        "duration": 0.1864013671875,
        "durationTicks": 509,
        "midi": 59,
        "name": "B3",
        "ticks": 34327,
        "time": 12.589626601562498,
        "velocity": 0.7401574803149606
    },
    {
        "duration": 0.1754150390625,
        "durationTicks": 479,
        "midi": 86,
        "name": "D6",
        "ticks": 34837,
        "time": 12.776394179687498,
        "velocity": 0.6535433070866141
    },
    {
        "duration": 0.1864013671875,
        "durationTicks": 509,
        "midi": 98,
        "name": "D7",
        "ticks": 34837,
        "time": 12.776394179687498,
        "velocity": 0.7637795275590551
    },
    {
        "duration": 0.1754150390625,
        "durationTicks": 479,
        "midi": 28,
        "name": "E1",
        "ticks": 34837,
        "time": 12.776394179687498,
        "velocity": 0.6220472440944882
    },
    {
        "duration": 0.1864013671875,
        "durationTicks": 509,
        "midi": 40,
        "name": "E2",
        "ticks": 34837,
        "time": 12.776394179687498,
        "velocity": 0.7559055118110236
    },
    {
        "duration": 0.0849609375,
        "durationTicks": 232,
        "midi": 100,
        "name": "E7",
        "ticks": 35347,
        "time": 12.963161757812498,
        "velocity": 0.6929133858267716
    },
    {
        "duration": 0.173583984375,
        "durationTicks": 474,
        "midi": 52,
        "name": "E3",
        "ticks": 35347,
        "time": 12.963161757812498,
        "velocity": 0.6299212598425197
    },
    {
        "duration": 0.173583984375,
        "durationTicks": 474,
        "midi": 55,
        "name": "G3",
        "ticks": 35347,
        "time": 12.963161757812498,
        "velocity": 0.6299212598425197
    },
    {
        "duration": 0.1845703125,
        "durationTicks": 504,
        "midi": 59,
        "name": "B3",
        "ticks": 35347,
        "time": 12.963161757812498,
        "velocity": 0.7401574803149606
    },
    {
        "duration": 0.0882568359375,
        "durationTicks": 241,
        "midi": 98,
        "name": "D7",
        "ticks": 35595,
        "time": 13.053982070312498,
        "velocity": 0.6929133858267716
    },
    {
        "duration": 0.173583984375,
        "durationTicks": 474,
        "midi": 84,
        "name": "C6",
        "ticks": 35852,
        "time": 13.148098281249998,
        "velocity": 0.6377952755905512
    },
    {
        "duration": 0.1845703125,
        "durationTicks": 504,
        "midi": 96,
        "name": "C7",
        "ticks": 35852,
        "time": 13.148098281249998,
        "velocity": 0.7480314960629921
    },
    {
        "duration": 0.173583984375,
        "durationTicks": 474,
        "midi": 28,
        "name": "E1",
        "ticks": 35852,
        "time": 13.148098281249998,
        "velocity": 0.6062992125984252
    },
    {
        "duration": 0.1845703125,
        "durationTicks": 504,
        "midi": 40,
        "name": "E2",
        "ticks": 35852,
        "time": 13.148098281249998,
        "velocity": 0.7401574803149606
    },
    {
        "duration": 0.17431640625,
        "durationTicks": 476,
        "midi": 83,
        "name": "B5",
        "ticks": 36357,
        "time": 13.333034804687498,
        "velocity": 0.6299212598425197
    },
    {
        "duration": 0.185302734375,
        "durationTicks": 506,
        "midi": 95,
        "name": "B6",
        "ticks": 36357,
        "time": 13.333034804687498,
        "velocity": 0.7401574803149606
    },
    {
        "duration": 0.17431640625,
        "durationTicks": 476,
        "midi": 52,
        "name": "E3",
        "ticks": 36357,
        "time": 13.333034804687498,
        "velocity": 0.6299212598425197
    },
    {
        "duration": 0.17431640625,
        "durationTicks": 476,
        "midi": 55,
        "name": "G3",
        "ticks": 36357,
        "time": 13.333034804687498,
        "velocity": 0.6299212598425197
    },
    {
        "duration": 0.185302734375,
        "durationTicks": 506,
        "midi": 59,
        "name": "B3",
        "ticks": 36357,
        "time": 13.333034804687498,
        "velocity": 0.7401574803149606
    },
    {
        "duration": 0.3841552734375,
        "durationTicks": 1049,
        "midi": 81,
        "name": "A5",
        "ticks": 36868,
        "time": 13.520168593749998,
        "velocity": 0.6692913385826772
    },
    {
        "duration": 0.3841552734375,
        "durationTicks": 1049,
        "midi": 93,
        "name": "A6",
        "ticks": 36868,
        "time": 13.520168593749998,
        "velocity": 0.7795275590551181
    },
    {
        "duration": 0.1871337890625,
        "durationTicks": 511,
        "midi": 33,
        "name": "A1",
        "ticks": 36868,
        "time": 13.520168593749998,
        "velocity": 0.6456692913385826
    },
    {
        "duration": 0.1981201171875,
        "durationTicks": 541,
        "midi": 45,
        "name": "A2",
        "ticks": 36868,
        "time": 13.520168593749998,
        "velocity": 0.7795275590551181
    },
    {
        "duration": 0.1746826171875,
        "durationTicks": 477,
        "midi": 52,
        "name": "E3",
        "ticks": 37410,
        "time": 13.718654921874998,
        "velocity": 0.6299212598425197
    },
    {
        "duration": 0.1746826171875,
        "durationTicks": 477,
        "midi": 57,
        "name": "A3",
        "ticks": 37410,
        "time": 13.718654921874998,
        "velocity": 0.6299212598425197
    },
    {
        "duration": 0.1856689453125,
        "durationTicks": 507,
        "midi": 60,
        "name": "C4",
        "ticks": 37410,
        "time": 13.718654921874998,
        "velocity": 0.7401574803149606
    },
    {
        "duration": 0.173583984375,
        "durationTicks": 474,
        "midi": 81,
        "name": "A5",
        "ticks": 37918,
        "time": 13.904690078124998,
        "velocity": 0.6377952755905512
    },
    {
        "duration": 0.1845703125,
        "durationTicks": 504,
        "midi": 93,
        "name": "A6",
        "ticks": 37918,
        "time": 13.904690078124998,
        "velocity": 0.7480314960629921
    },
    {
        "duration": 0.173583984375,
        "durationTicks": 474,
        "midi": 33,
        "name": "A1",
        "ticks": 37918,
        "time": 13.904690078124998,
        "velocity": 0.6141732283464567
    },
    {
        "duration": 0.1845703125,
        "durationTicks": 504,
        "midi": 45,
        "name": "A2",
        "ticks": 37918,
        "time": 13.904690078124998,
        "velocity": 0.7480314960629921
    },
    {
        "duration": 0.1754150390625,
        "durationTicks": 479,
        "midi": 84,
        "name": "C6",
        "ticks": 38423,
        "time": 14.089626601562498,
        "velocity": 0.6299212598425197
    },
    {
        "duration": 0.1864013671875,
        "durationTicks": 509,
        "midi": 96,
        "name": "C7",
        "ticks": 38423,
        "time": 14.089626601562498,
        "velocity": 0.7401574803149606
    },
    {
        "duration": 0.1754150390625,
        "durationTicks": 479,
        "midi": 48,
        "name": "C3",
        "ticks": 38423,
        "time": 14.089626601562498,
        "velocity": 0.6299212598425197
    },
    {
        "duration": 0.1754150390625,
        "durationTicks": 479,
        "midi": 52,
        "name": "E3",
        "ticks": 38423,
        "time": 14.089626601562498,
        "velocity": 0.6299212598425197
    },
    {
        "duration": 0.1864013671875,
        "durationTicks": 509,
        "midi": 57,
        "name": "A3",
        "ticks": 38423,
        "time": 14.089626601562498,
        "velocity": 0.7401574803149606
    },
    {
        "duration": 0.371337890625,
        "durationTicks": 1014,
        "midi": 88,
        "name": "E6",
        "ticks": 38933,
        "time": 14.276394179687498,
        "velocity": 0.6535433070866141
    },
    {
        "duration": 0.371337890625,
        "durationTicks": 1014,
        "midi": 100,
        "name": "E7",
        "ticks": 38933,
        "time": 14.276394179687498,
        "velocity": 0.7637795275590551
    },
    {
        "duration": 0.1754150390625,
        "durationTicks": 479,
        "midi": 33,
        "name": "A1",
        "ticks": 38933,
        "time": 14.276394179687498,
        "velocity": 0.6299212598425197
    },
    {
        "duration": 0.1864013671875,
        "durationTicks": 509,
        "midi": 45,
        "name": "A2",
        "ticks": 38933,
        "time": 14.276394179687498,
        "velocity": 0.7637795275590551
    },
    {
        "duration": 0.173583984375,
        "durationTicks": 474,
        "midi": 52,
        "name": "E3",
        "ticks": 39443,
        "time": 14.463161757812498,
        "velocity": 0.6299212598425197
    },
    {
        "duration": 0.173583984375,
        "durationTicks": 474,
        "midi": 57,
        "name": "A3",
        "ticks": 39443,
        "time": 14.463161757812498,
        "velocity": 0.6299212598425197
    },
    {
        "duration": 0.1845703125,
        "durationTicks": 504,
        "midi": 60,
        "name": "C4",
        "ticks": 39443,
        "time": 14.463161757812498,
        "velocity": 0.7401574803149606
    },
    {
        "duration": 0.173583984375,
        "durationTicks": 474,
        "midi": 86,
        "name": "D6",
        "ticks": 39948,
        "time": 14.648098281249998,
        "velocity": 0.6377952755905512
    },
    {
        "duration": 0.1845703125,
        "durationTicks": 504,
        "midi": 98,
        "name": "D7",
        "ticks": 39948,
        "time": 14.648098281249998,
        "velocity": 0.7480314960629921
    },
    {
        "duration": 0.173583984375,
        "durationTicks": 474,
        "midi": 33,
        "name": "A1",
        "ticks": 39948,
        "time": 14.648098281249998,
        "velocity": 0.6141732283464567
    },
    {
        "duration": 0.1845703125,
        "durationTicks": 504,
        "midi": 45,
        "name": "A2",
        "ticks": 39948,
        "time": 14.648098281249998,
        "velocity": 0.7480314960629921
    },
    {
        "duration": 0.17431640625,
        "durationTicks": 476,
        "midi": 84,
        "name": "C6",
        "ticks": 40453,
        "time": 14.833034804687498,
        "velocity": 0.6299212598425197
    },
    {
        "duration": 0.185302734375,
        "durationTicks": 506,
        "midi": 96,
        "name": "C7",
        "ticks": 40453,
        "time": 14.833034804687498,
        "velocity": 0.7401574803149606
    },
    {
        "duration": 0.17431640625,
        "durationTicks": 476,
        "midi": 57,
        "name": "A3",
        "ticks": 40453,
        "time": 14.833034804687498,
        "velocity": 0.6299212598425197
    },
    {
        "duration": 0.17431640625,
        "durationTicks": 476,
        "midi": 60,
        "name": "C4",
        "ticks": 40453,
        "time": 14.833034804687498,
        "velocity": 0.6299212598425197
    },
    {
        "duration": 0.185302734375,
        "durationTicks": 506,
        "midi": 64,
        "name": "E4",
        "ticks": 40453,
        "time": 14.833034804687498,
        "velocity": 0.7401574803149606
    },
    {
        "duration": 0.3841552734375,
        "durationTicks": 1049,
        "midi": 83,
        "name": "B5",
        "ticks": 40964,
        "time": 15.020168593749998,
        "velocity": 0.6692913385826772
    },
    {
        "duration": 0.3841552734375,
        "durationTicks": 1049,
        "midi": 95,
        "name": "B6",
        "ticks": 40964,
        "time": 15.020168593749998,
        "velocity": 0.7795275590551181
    },
    {
        "duration": 0.1871337890625,
        "durationTicks": 511,
        "midi": 32,
        "name": "G#1",
        "ticks": 40964,
        "time": 15.020168593749998,
        "velocity": 0.6456692913385826
    },
    {
        "duration": 0.1981201171875,
        "durationTicks": 541,
        "midi": 44,
        "name": "G#2",
        "ticks": 40964,
        "time": 15.020168593749998,
        "velocity": 0.7795275590551181
    },
    {
        "duration": 0.1746826171875,
        "durationTicks": 477,
        "midi": 52,
        "name": "E3",
        "ticks": 41506,
        "time": 15.218654921874998,
        "velocity": 0.6299212598425197
    },
    {
        "duration": 0.1746826171875,
        "durationTicks": 477,
        "midi": 56,
        "name": "G#3",
        "ticks": 41506,
        "time": 15.218654921874998,
        "velocity": 0.6299212598425197
    },
    {
        "duration": 0.1856689453125,
        "durationTicks": 507,
        "midi": 59,
        "name": "B3",
        "ticks": 41506,
        "time": 15.218654921874998,
        "velocity": 0.7401574803149606
    },
    {
        "duration": 0.173583984375,
        "durationTicks": 474,
        "midi": 83,
        "name": "B5",
        "ticks": 42014,
        "time": 15.404690078124998,
        "velocity": 0.6377952755905512
    },
    {
        "duration": 0.1845703125,
        "durationTicks": 504,
        "midi": 95,
        "name": "B6",
        "ticks": 42014,
        "time": 15.404690078124998,
        "velocity": 0.7480314960629921
    },
    {
        "duration": 0.173583984375,
        "durationTicks": 474,
        "midi": 28,
        "name": "E1",
        "ticks": 42014,
        "time": 15.404690078124998,
        "velocity": 0.6062992125984252
    },
    {
        "duration": 0.1845703125,
        "durationTicks": 504,
        "midi": 40,
        "name": "E2",
        "ticks": 42014,
        "time": 15.404690078124998,
        "velocity": 0.7401574803149606
    },
    {
        "duration": 0.1754150390625,
        "durationTicks": 479,
        "midi": 84,
        "name": "C6",
        "ticks": 42519,
        "time": 15.589626601562498,
        "velocity": 0.6299212598425197
    },
    {
        "duration": 0.1864013671875,
        "durationTicks": 509,
        "midi": 96,
        "name": "C7",
        "ticks": 42519,
        "time": 15.589626601562498,
        "velocity": 0.7401574803149606
    },
    {
        "duration": 0.1754150390625,
        "durationTicks": 479,
        "midi": 52,
        "name": "E3",
        "ticks": 42519,
        "time": 15.589626601562498,
        "velocity": 0.6299212598425197
    },
    {
        "duration": 0.1754150390625,
        "durationTicks": 479,
        "midi": 56,
        "name": "G#3",
        "ticks": 42519,
        "time": 15.589626601562498,
        "velocity": 0.6299212598425197
    },
    {
        "duration": 0.1864013671875,
        "durationTicks": 509,
        "midi": 59,
        "name": "B3",
        "ticks": 42519,
        "time": 15.589626601562498,
        "velocity": 0.7401574803149606
    },
    {
        "duration": 0.3713378906250018,
        "durationTicks": 1014,
        "midi": 86,
        "name": "D6",
        "ticks": 43029,
        "time": 15.776394179687498,
        "velocity": 0.6535433070866141
    },
    {
        "duration": 0.3713378906250018,
        "durationTicks": 1014,
        "midi": 98,
        "name": "D7",
        "ticks": 43029,
        "time": 15.776394179687498,
        "velocity": 0.7637795275590551
    },
    {
        "duration": 0.1754150390625,
        "durationTicks": 479,
        "midi": 32,
        "name": "G#1",
        "ticks": 43029,
        "time": 15.776394179687498,
        "velocity": 0.6299212598425197
    },
    {
        "duration": 0.1864013671875,
        "durationTicks": 509,
        "midi": 44,
        "name": "G#2",
        "ticks": 43029,
        "time": 15.776394179687498,
        "velocity": 0.7637795275590551
    },
    {
        "duration": 0.17358398437500178,
        "durationTicks": 474,
        "midi": 52,
        "name": "E3",
        "ticks": 43539,
        "time": 15.963161757812498,
        "velocity": 0.6299212598425197
    },
    {
        "duration": 0.17358398437500178,
        "durationTicks": 474,
        "midi": 56,
        "name": "G#3",
        "ticks": 43539,
        "time": 15.963161757812498,
        "velocity": 0.6299212598425197
    },
    {
        "duration": 0.18457031250000178,
        "durationTicks": 504,
        "midi": 59,
        "name": "B3",
        "ticks": 43539,
        "time": 15.963161757812498,
        "velocity": 0.6299212598425197
    },
    {
        "duration": 0.18457031250000178,
        "durationTicks": 504,
        "midi": 64,
        "name": "E4",
        "ticks": 43539,
        "time": 15.963161757812498,
        "velocity": 0.7401574803149606
    },
    {
        "duration": 0.3702392578125,
        "durationTicks": 1011,
        "midi": 88,
        "name": "E6",
        "ticks": 44044,
        "time": 16.14809828125,
        "velocity": 0.6377952755905512
    },
    {
        "duration": 0.3702392578125,
        "durationTicks": 1011,
        "midi": 100,
        "name": "E7",
        "ticks": 44044,
        "time": 16.14809828125,
        "velocity": 0.7480314960629921
    },
    {
        "duration": 0.173583984375,
        "durationTicks": 474,
        "midi": 28,
        "name": "E1",
        "ticks": 44044,
        "time": 16.14809828125,
        "velocity": 0.6062992125984252
    },
    {
        "duration": 0.1845703125,
        "durationTicks": 504,
        "midi": 40,
        "name": "E2",
        "ticks": 44044,
        "time": 16.14809828125,
        "velocity": 0.7401574803149606
    },
    {
        "duration": 0.17431640625,
        "durationTicks": 476,
        "midi": 52,
        "name": "E3",
        "ticks": 44549,
        "time": 16.3330348046875,
        "velocity": 0.6299212598425197
    },
    {
        "duration": 0.17431640625,
        "durationTicks": 476,
        "midi": 56,
        "name": "G#3",
        "ticks": 44549,
        "time": 16.3330348046875,
        "velocity": 0.6299212598425197
    },
    {
        "duration": 0.185302734375,
        "durationTicks": 506,
        "midi": 59,
        "name": "B3",
        "ticks": 44549,
        "time": 16.3330348046875,
        "velocity": 0.6299212598425197
    },
    {
        "duration": 0.185302734375,
        "durationTicks": 506,
        "midi": 64,
        "name": "E4",
        "ticks": 44549,
        "time": 16.3330348046875,
        "velocity": 0.7401574803149606
    },
    {
        "duration": 0.3841552734375,
        "durationTicks": 1049,
        "midi": 84,
        "name": "C6",
        "ticks": 45060,
        "time": 16.52016859375,
        "velocity": 0.6692913385826772
    },
    {
        "duration": 0.3841552734375,
        "durationTicks": 1049,
        "midi": 96,
        "name": "C7",
        "ticks": 45060,
        "time": 16.52016859375,
        "velocity": 0.7795275590551181
    },
    {
        "duration": 0.1871337890625,
        "durationTicks": 511,
        "midi": 33,
        "name": "A1",
        "ticks": 45060,
        "time": 16.52016859375,
        "velocity": 0.6456692913385826
    },
    {
        "duration": 0.1981201171875,
        "durationTicks": 541,
        "midi": 45,
        "name": "A2",
        "ticks": 45060,
        "time": 16.52016859375,
        "velocity": 0.7795275590551181
    },
    {
        "duration": 0.1746826171875,
        "durationTicks": 477,
        "midi": 48,
        "name": "C3",
        "ticks": 45602,
        "time": 16.718654921875,
        "velocity": 0.6299212598425197
    },
    {
        "duration": 0.1856689453125,
        "durationTicks": 507,
        "midi": 52,
        "name": "E3",
        "ticks": 45602,
        "time": 16.718654921875,
        "velocity": 0.6299212598425197
    },
    {
        "duration": 0.1856689453125,
        "durationTicks": 507,
        "midi": 57,
        "name": "A3",
        "ticks": 45602,
        "time": 16.718654921875,
        "velocity": 0.6299212598425197
    },
    {
        "duration": 0.1856689453125,
        "durationTicks": 507,
        "midi": 60,
        "name": "C4",
        "ticks": 45602,
        "time": 16.718654921875,
        "velocity": 0.7401574803149606
    },
    {
        "duration": 0.371337890625,
        "durationTicks": 1014,
        "midi": 81,
        "name": "A5",
        "ticks": 46110,
        "time": 16.904690078125,
        "velocity": 0.6377952755905512
    },
    {
        "duration": 0.371337890625,
        "durationTicks": 1014,
        "midi": 93,
        "name": "A6",
        "ticks": 46110,
        "time": 16.904690078125,
        "velocity": 0.7480314960629921
    },
    {
        "duration": 0.173583984375,
        "durationTicks": 474,
        "midi": 21,
        "name": "A0",
        "ticks": 46110,
        "time": 16.904690078125,
        "velocity": 0.6141732283464567
    },
    {
        "duration": 0.1845703125,
        "durationTicks": 504,
        "midi": 33,
        "name": "A1",
        "ticks": 46110,
        "time": 16.904690078125,
        "velocity": 0.7480314960629921
    },
    {
        "duration": 0.1754150390625,
        "durationTicks": 479,
        "midi": 52,
        "name": "E3",
        "ticks": 46615,
        "time": 17.0896266015625,
        "velocity": 0.6299212598425197
    },
    {
        "duration": 0.1864013671875,
        "durationTicks": 509,
        "midi": 57,
        "name": "A3",
        "ticks": 46615,
        "time": 17.0896266015625,
        "velocity": 0.6299212598425197
    },
    {
        "duration": 0.1864013671875,
        "durationTicks": 509,
        "midi": 60,
        "name": "C4",
        "ticks": 46615,
        "time": 17.0896266015625,
        "velocity": 0.6299212598425197
    },
    {
        "duration": 0.1864013671875,
        "durationTicks": 509,
        "midi": 64,
        "name": "E4",
        "ticks": 46615,
        "time": 17.0896266015625,
        "velocity": 0.7401574803149606
    },
    {
        "duration": 0.371337890625,
        "durationTicks": 1014,
        "midi": 81,
        "name": "A5",
        "ticks": 47125,
        "time": 17.2763941796875,
        "velocity": 0.6535433070866141
    },
    {
        "duration": 0.371337890625,
        "durationTicks": 1014,
        "midi": 93,
        "name": "A6",
        "ticks": 47125,
        "time": 17.2763941796875,
        "velocity": 0.7322834645669292
    },
    {
        "duration": 0.1754150390625,
        "durationTicks": 479,
        "midi": 33,
        "name": "A1",
        "ticks": 47125,
        "time": 17.2763941796875,
        "velocity": 0.6299212598425197
    },
    {
        "duration": 0.1864013671875,
        "durationTicks": 509,
        "midi": 45,
        "name": "A2",
        "ticks": 47125,
        "time": 17.2763941796875,
        "velocity": 0.7637795275590551
    },
    {
        "duration": 0.1845703125,
        "durationTicks": 504,
        "midi": 57,
        "name": "A3",
        "ticks": 47635,
        "time": 17.4631617578125,
        "velocity": 0.6299212598425197
    },
    {
        "duration": 0.1845703125,
        "durationTicks": 504,
        "midi": 60,
        "name": "C4",
        "ticks": 47635,
        "time": 17.4631617578125,
        "velocity": 0.6299212598425197
    },
    {
        "duration": 0.1845703125,
        "durationTicks": 504,
        "midi": 64,
        "name": "E4",
        "ticks": 47635,
        "time": 17.4631617578125,
        "velocity": 0.6299212598425197
    },
    {
        "duration": 0.1845703125,
        "durationTicks": 504,
        "midi": 69,
        "name": "A4",
        "ticks": 47635,
        "time": 17.4631617578125,
        "velocity": 0.7401574803149606
    },
    {
        "duration": 0.0882568359375,
        "durationTicks": 241,
        "midi": 93,
        "name": "A6",
        "ticks": 48140,
        "time": 17.64809828125,
        "velocity": 0.7007874015748031
    },
    {
        "duration": 0.0882568359375,
        "durationTicks": 241,
        "midi": 57,
        "name": "A3",
        "ticks": 48140,
        "time": 17.64809828125,
        "velocity": 0.7007874015748031
    },
    {
        "duration": 0.0849609375,
        "durationTicks": 232,
        "midi": 95,
        "name": "B6",
        "ticks": 48397,
        "time": 17.7422144921875,
        "velocity": 0.6929133858267716
    },
    {
        "duration": 0.0849609375,
        "durationTicks": 232,
        "midi": 59,
        "name": "B3",
        "ticks": 48397,
        "time": 17.7422144921875,
        "velocity": 0.6929133858267716
    },
    {
        "duration": 0.0849609375,
        "durationTicks": 232,
        "midi": 96,
        "name": "C7",
        "ticks": 48645,
        "time": 17.8330348046875,
        "velocity": 0.6929133858267716
    },
    {
        "duration": 0.0849609375,
        "durationTicks": 232,
        "midi": 60,
        "name": "C4",
        "ticks": 48645,
        "time": 17.8330348046875,
        "velocity": 0.6929133858267716
    },
    {
        "duration": 0.0889892578125,
        "durationTicks": 243,
        "midi": 98,
        "name": "D7",
        "ticks": 48893,
        "time": 17.9238551171875,
        "velocity": 0.6929133858267716
    },
    {
        "duration": 0.0889892578125,
        "durationTicks": 243,
        "midi": 62,
        "name": "D4",
        "ticks": 48893,
        "time": 17.9238551171875,
        "velocity": 0.6929133858267716
    },
    {
        "duration": 0.1871337890625,
        "durationTicks": 511,
        "midi": 88,
        "name": "E6",
        "ticks": 49156,
        "time": 18.02016859375,
        "velocity": 0.6692913385826772
    },
    {
        "duration": 0.1981201171875,
        "durationTicks": 541,
        "midi": 100,
        "name": "E7",
        "ticks": 49156,
        "time": 18.02016859375,
        "velocity": 0.7795275590551181
    },
    {
        "duration": 0.1871337890625,
        "durationTicks": 511,
        "midi": 52,
        "name": "E3",
        "ticks": 49156,
        "time": 18.02016859375,
        "velocity": 0.6692913385826772
    },
    {
        "duration": 0.1981201171875,
        "durationTicks": 541,
        "midi": 64,
        "name": "E4",
        "ticks": 49156,
        "time": 18.02016859375,
        "velocity": 0.7795275590551181
    },
    {
        "duration": 0.37060546875,
        "durationTicks": 1012,
        "midi": 86,
        "name": "D6",
        "ticks": 49698,
        "time": 18.218654921875,
        "velocity": 0.6299212598425197
    },
    {
        "duration": 0.37060546875,
        "durationTicks": 1012,
        "midi": 98,
        "name": "D7",
        "ticks": 49698,
        "time": 18.218654921875,
        "velocity": 0.7401574803149606
    },
    {
        "duration": 0.1746826171875,
        "durationTicks": 477,
        "midi": 38,
        "name": "D2",
        "ticks": 49698,
        "time": 18.218654921875,
        "velocity": 0.6220472440944882
    },
    {
        "duration": 0.1746826171875,
        "durationTicks": 477,
        "midi": 41,
        "name": "F2",
        "ticks": 49698,
        "time": 18.218654921875,
        "velocity": 0.6299212598425197
    },
    {
        "duration": 0.1856689453125,
        "durationTicks": 507,
        "midi": 45,
        "name": "A2",
        "ticks": 49698,
        "time": 18.218654921875,
        "velocity": 0.7401574803149606
    },
    {
        "duration": 0.173583984375,
        "durationTicks": 474,
        "midi": 50,
        "name": "D3",
        "ticks": 50206,
        "time": 18.404690078125,
        "velocity": 0.6377952755905512
    },
    {
        "duration": 0.1845703125,
        "durationTicks": 504,
        "midi": 65,
        "name": "F4",
        "ticks": 50206,
        "time": 18.404690078125,
        "velocity": 0.7480314960629921
    },
    {
        "duration": 0.1754150390625,
        "durationTicks": 479,
        "midi": 89,
        "name": "F6",
        "ticks": 50711,
        "time": 18.5896266015625,
        "velocity": 0.6299212598425197
    },
    {
        "duration": 0.1864013671875,
        "durationTicks": 509,
        "midi": 101,
        "name": "F7",
        "ticks": 50711,
        "time": 18.5896266015625,
        "velocity": 0.7401574803149606
    },
    {
        "duration": 0.1754150390625,
        "durationTicks": 479,
        "midi": 38,
        "name": "D2",
        "ticks": 50711,
        "time": 18.5896266015625,
        "velocity": 0.6220472440944882
    },
    {
        "duration": 0.1754150390625,
        "durationTicks": 479,
        "midi": 41,
        "name": "F2",
        "ticks": 50711,
        "time": 18.5896266015625,
        "velocity": 0.6299212598425197
    },
    {
        "duration": 0.1864013671875,
        "durationTicks": 509,
        "midi": 45,
        "name": "A2",
        "ticks": 50711,
        "time": 18.5896266015625,
        "velocity": 0.7401574803149606
    },
    {
        "duration": 0.371337890625,
        "durationTicks": 1014,
        "midi": 93,
        "name": "A6",
        "ticks": 51221,
        "time": 18.7763941796875,
        "velocity": 0.6535433070866141
    },
    {
        "duration": 0.371337890625,
        "durationTicks": 1014,
        "midi": 105,
        "name": "A7",
        "ticks": 51221,
        "time": 18.7763941796875,
        "velocity": 0.7637795275590551
    },
    {
        "duration": 0.1754150390625,
        "durationTicks": 479,
        "midi": 57,
        "name": "A3",
        "ticks": 51221,
        "time": 18.7763941796875,
        "velocity": 0.6535433070866141
    },
    {
        "duration": 0.1864013671875,
        "durationTicks": 509,
        "midi": 69,
        "name": "A4",
        "ticks": 51221,
        "time": 18.7763941796875,
        "velocity": 0.7637795275590551
    },
    {
        "duration": 0.173583984375,
        "durationTicks": 474,
        "midi": 38,
        "name": "D2",
        "ticks": 51731,
        "time": 18.9631617578125,
        "velocity": 0.6220472440944882
    },
    {
        "duration": 0.173583984375,
        "durationTicks": 474,
        "midi": 41,
        "name": "F2",
        "ticks": 51731,
        "time": 18.9631617578125,
        "velocity": 0.6299212598425197
    },
    {
        "duration": 0.1845703125,
        "durationTicks": 504,
        "midi": 45,
        "name": "A2",
        "ticks": 51731,
        "time": 18.9631617578125,
        "velocity": 0.7401574803149606
    },
    {
        "duration": 0.173583984375,
        "durationTicks": 474,
        "midi": 91,
        "name": "G6",
        "ticks": 52236,
        "time": 19.14809828125,
        "velocity": 0.6377952755905512
    },
    {
        "duration": 0.1845703125,
        "durationTicks": 504,
        "midi": 103,
        "name": "G7",
        "ticks": 52236,
        "time": 19.14809828125,
        "velocity": 0.7480314960629921
    },
    {
        "duration": 0.173583984375,
        "durationTicks": 474,
        "midi": 45,
        "name": "A2",
        "ticks": 52236,
        "time": 19.14809828125,
        "velocity": 0.6377952755905512
    },
    {
        "duration": 0.1845703125,
        "durationTicks": 504,
        "midi": 57,
        "name": "A3",
        "ticks": 52236,
        "time": 19.14809828125,
        "velocity": 0.7480314960629921
    },
    {
        "duration": 0.17431640625,
        "durationTicks": 476,
        "midi": 89,
        "name": "F6",
        "ticks": 52741,
        "time": 19.3330348046875,
        "velocity": 0.6299212598425197
    },
    {
        "duration": 0.185302734375,
        "durationTicks": 506,
        "midi": 101,
        "name": "F7",
        "ticks": 52741,
        "time": 19.3330348046875,
        "velocity": 0.7401574803149606
    },
    {
        "duration": 0.17431640625,
        "durationTicks": 476,
        "midi": 41,
        "name": "F2",
        "ticks": 52741,
        "time": 19.3330348046875,
        "velocity": 0.6299212598425197
    },
    {
        "duration": 0.185302734375,
        "durationTicks": 506,
        "midi": 53,
        "name": "F3",
        "ticks": 52741,
        "time": 19.3330348046875,
        "velocity": 0.7401574803149606
    },
    {
        "duration": 0.569091796875,
        "durationTicks": 1554,
        "midi": 88,
        "name": "E6",
        "ticks": 53252,
        "time": 19.52016859375,
        "velocity": 0.6692913385826772
    },
    {
        "duration": 0.569091796875,
        "durationTicks": 1554,
        "midi": 100,
        "name": "E7",
        "ticks": 53252,
        "time": 19.52016859375,
        "velocity": 0.7795275590551181
    },
    {
        "duration": 0.1871337890625,
        "durationTicks": 511,
        "midi": 36,
        "name": "C2",
        "ticks": 53252,
        "time": 19.52016859375,
        "velocity": 0.6535433070866141
    },
    {
        "duration": 0.1981201171875,
        "durationTicks": 541,
        "midi": 48,
        "name": "C3",
        "ticks": 53252,
        "time": 19.52016859375,
        "velocity": 0.7795275590551181
    },
    {
        "duration": 0.1856689453125,
        "durationTicks": 507,
        "midi": 48,
        "name": "C3",
        "ticks": 53794,
        "time": 19.718654921875,
        "velocity": 0.6299212598425197
    },
    {
        "duration": 0.1856689453125,
        "durationTicks": 507,
        "midi": 60,
        "name": "C4",
        "ticks": 53794,
        "time": 19.718654921875,
        "velocity": 0.7401574803149606
    },
    {
        "duration": 0.173583984375,
        "durationTicks": 474,
        "midi": 36,
        "name": "C2",
        "ticks": 54302,
        "time": 19.904690078125,
        "velocity": 0.6220472440944882
    },
    {
        "duration": 0.1845703125,
        "durationTicks": 504,
        "midi": 48,
        "name": "C3",
        "ticks": 54302,
        "time": 19.904690078125,
        "velocity": 0.7480314960629921
    },
    {
        "duration": 0.1754150390625,
        "durationTicks": 479,
        "midi": 84,
        "name": "C6",
        "ticks": 54807,
        "time": 20.0896266015625,
        "velocity": 0.6299212598425197
    },
    {
        "duration": 0.1864013671875,
        "durationTicks": 509,
        "midi": 96,
        "name": "C7",
        "ticks": 54807,
        "time": 20.0896266015625,
        "velocity": 0.7401574803149606
    },
    {
        "duration": 0.1864013671875,
        "durationTicks": 509,
        "midi": 48,
        "name": "C3",
        "ticks": 54807,
        "time": 20.0896266015625,
        "velocity": 0.6299212598425197
    },
    {
        "duration": 0.1864013671875,
        "durationTicks": 509,
        "midi": 60,
        "name": "C4",
        "ticks": 54807,
        "time": 20.0896266015625,
        "velocity": 0.7401574803149606
    },
    {
        "duration": 0.371337890625,
        "durationTicks": 1014,
        "midi": 88,
        "name": "E6",
        "ticks": 55317,
        "time": 20.2763941796875,
        "velocity": 0.6535433070866141
    },
    {
        "duration": 0.371337890625,
        "durationTicks": 1014,
        "midi": 100,
        "name": "E7",
        "ticks": 55317,
        "time": 20.2763941796875,
        "velocity": 0.7637795275590551
    },
    {
        "duration": 0.1754150390625,
        "durationTicks": 479,
        "midi": 36,
        "name": "C2",
        "ticks": 55317,
        "time": 20.2763941796875,
        "velocity": 0.6377952755905512
    },
    {
        "duration": 0.1864013671875,
        "durationTicks": 509,
        "midi": 48,
        "name": "C3",
        "ticks": 55317,
        "time": 20.2763941796875,
        "velocity": 0.7637795275590551
    },
    {
        "duration": 0.173583984375,
        "durationTicks": 474,
        "midi": 52,
        "name": "E3",
        "ticks": 55827,
        "time": 20.4631617578125,
        "velocity": 0.6299212598425197
    },
    {
        "duration": 0.173583984375,
        "durationTicks": 474,
        "midi": 57,
        "name": "A3",
        "ticks": 55827,
        "time": 20.4631617578125,
        "velocity": 0.6299212598425197
    },
    {
        "duration": 0.1845703125,
        "durationTicks": 504,
        "midi": 60,
        "name": "C4",
        "ticks": 55827,
        "time": 20.4631617578125,
        "velocity": 0.7401574803149606
    },
    {
        "duration": 0.173583984375,
        "durationTicks": 474,
        "midi": 86,
        "name": "D6",
        "ticks": 56332,
        "time": 20.64809828125,
        "velocity": 0.6377952755905512
    },
    {
        "duration": 0.1845703125,
        "durationTicks": 504,
        "midi": 98,
        "name": "D7",
        "ticks": 56332,
        "time": 20.64809828125,
        "velocity": 0.7480314960629921
    },
    {
        "duration": 0.173583984375,
        "durationTicks": 474,
        "midi": 31,
        "name": "G1",
        "ticks": 56332,
        "time": 20.64809828125,
        "velocity": 0.6141732283464567
    },
    {
        "duration": 0.1845703125,
        "durationTicks": 504,
        "midi": 43,
        "name": "G2",
        "ticks": 56332,
        "time": 20.64809828125,
        "velocity": 0.7480314960629921
    },
    {
        "duration": 0.17431640625,
        "durationTicks": 476,
        "midi": 84,
        "name": "C6",
        "ticks": 56837,
        "time": 20.8330348046875,
        "velocity": 0.6299212598425197
    },
    {
        "duration": 0.185302734375,
        "durationTicks": 506,
        "midi": 96,
        "name": "C7",
        "ticks": 56837,
        "time": 20.8330348046875,
        "velocity": 0.7401574803149606
    },
    {
        "duration": 0.17431640625,
        "durationTicks": 476,
        "midi": 52,
        "name": "E3",
        "ticks": 56837,
        "time": 20.8330348046875,
        "velocity": 0.6299212598425197
    },
    {
        "duration": 0.17431640625,
        "durationTicks": 476,
        "midi": 57,
        "name": "A3",
        "ticks": 56837,
        "time": 20.8330348046875,
        "velocity": 0.6299212598425197
    },
    {
        "duration": 0.185302734375,
        "durationTicks": 506,
        "midi": 60,
        "name": "C4",
        "ticks": 56837,
        "time": 20.8330348046875,
        "velocity": 0.7401574803149606
    },
    {
        "duration": 0.3841552734375,
        "durationTicks": 1049,
        "midi": 83,
        "name": "B5",
        "ticks": 57348,
        "time": 21.02016859375,
        "velocity": 0.6692913385826772
    },
    {
        "duration": 0.3841552734375,
        "durationTicks": 1049,
        "midi": 95,
        "name": "B6",
        "ticks": 57348,
        "time": 21.02016859375,
        "velocity": 0.7795275590551181
    },
    {
        "duration": 0.1871337890625,
        "durationTicks": 511,
        "midi": 35,
        "name": "B1",
        "ticks": 57348,
        "time": 21.02016859375,
        "velocity": 0.6535433070866141
    },
    {
        "duration": 0.1981201171875,
        "durationTicks": 541,
        "midi": 47,
        "name": "B2",
        "ticks": 57348,
        "time": 21.02016859375,
        "velocity": 0.7795275590551181
    },
    {
        "duration": 0.1856689453125,
        "durationTicks": 507,
        "midi": 47,
        "name": "B2",
        "ticks": 57890,
        "time": 21.218654921875,
        "velocity": 0.6299212598425197
    },
    {
        "duration": 0.1856689453125,
        "durationTicks": 507,
        "midi": 59,
        "name": "B3",
        "ticks": 57890,
        "time": 21.218654921875,
        "velocity": 0.7401574803149606
    },
    {
        "duration": 0.173583984375,
        "durationTicks": 474,
        "midi": 83,
        "name": "B5",
        "ticks": 58398,
        "time": 21.404690078125,
        "velocity": 0.6377952755905512
    },
    {
        "duration": 0.1845703125,
        "durationTicks": 504,
        "midi": 95,
        "name": "B6",
        "ticks": 58398,
        "time": 21.404690078125,
        "velocity": 0.7480314960629921
    },
    {
        "duration": 0.173583984375,
        "durationTicks": 474,
        "midi": 35,
        "name": "B1",
        "ticks": 58398,
        "time": 21.404690078125,
        "velocity": 0.6220472440944882
    },
    {
        "duration": 0.1845703125,
        "durationTicks": 504,
        "midi": 47,
        "name": "B2",
        "ticks": 58398,
        "time": 21.404690078125,
        "velocity": 0.7480314960629921
    },
    {
        "duration": 0.1754150390625,
        "durationTicks": 479,
        "midi": 84,
        "name": "C6",
        "ticks": 58903,
        "time": 21.5896266015625,
        "velocity": 0.6299212598425197
    },
    {
        "duration": 0.1864013671875,
        "durationTicks": 509,
        "midi": 96,
        "name": "C7",
        "ticks": 58903,
        "time": 21.5896266015625,
        "velocity": 0.7401574803149606
    },
    {
        "duration": 0.1754150390625,
        "durationTicks": 479,
        "midi": 47,
        "name": "B2",
        "ticks": 58903,
        "time": 21.5896266015625,
        "velocity": 0.6299212598425197
    },
    {
        "duration": 0.1864013671875,
        "durationTicks": 509,
        "midi": 59,
        "name": "B3",
        "ticks": 58903,
        "time": 21.5896266015625,
        "velocity": 0.7401574803149606
    },
    {
        "duration": 0.371337890625,
        "durationTicks": 1014,
        "midi": 86,
        "name": "D6",
        "ticks": 59413,
        "time": 21.7763941796875,
        "velocity": 0.6535433070866141
    },
    {
        "duration": 0.371337890625,
        "durationTicks": 1014,
        "midi": 98,
        "name": "D7",
        "ticks": 59413,
        "time": 21.7763941796875,
        "velocity": 0.7637795275590551
    },
    {
        "duration": 0.1754150390625,
        "durationTicks": 479,
        "midi": 50,
        "name": "D3",
        "ticks": 59413,
        "time": 21.7763941796875,
        "velocity": 0.6535433070866141
    },
    {
        "duration": 0.1864013671875,
        "durationTicks": 509,
        "midi": 62,
        "name": "D4",
        "ticks": 59413,
        "time": 21.7763941796875,
        "velocity": 0.7637795275590551
    },
    {
        "duration": 0.173583984375,
        "durationTicks": 474,
        "midi": 40,
        "name": "E2",
        "ticks": 59923,
        "time": 21.9631617578125,
        "velocity": 0.6220472440944882
    },
    {
        "duration": 0.1845703125,
        "durationTicks": 504,
        "midi": 52,
        "name": "E3",
        "ticks": 59923,
        "time": 21.9631617578125,
        "velocity": 0.7401574803149606
    },
    {
        "duration": 0.3702392578125,
        "durationTicks": 1011,
        "midi": 88,
        "name": "E6",
        "ticks": 60428,
        "time": 22.14809828125,
        "velocity": 0.6377952755905512
    },
    {
        "duration": 0.3702392578125,
        "durationTicks": 1011,
        "midi": 100,
        "name": "E7",
        "ticks": 60428,
        "time": 22.14809828125,
        "velocity": 0.7480314960629921
    },
    {
        "duration": 0.173583984375,
        "durationTicks": 474,
        "midi": 52,
        "name": "E3",
        "ticks": 60428,
        "time": 22.14809828125,
        "velocity": 0.6377952755905512
    },
    {
        "duration": 0.1845703125,
        "durationTicks": 504,
        "midi": 56,
        "name": "G#3",
        "ticks": 60428,
        "time": 22.14809828125,
        "velocity": 0.6377952755905512
    },
    {
        "duration": 0.1845703125,
        "durationTicks": 504,
        "midi": 59,
        "name": "B3",
        "ticks": 60428,
        "time": 22.14809828125,
        "velocity": 0.7480314960629921
    },
    {
        "duration": 0.17431640625,
        "durationTicks": 476,
        "midi": 44,
        "name": "G#2",
        "ticks": 60933,
        "time": 22.3330348046875,
        "velocity": 0.6299212598425197
    },
    {
        "duration": 0.185302734375,
        "durationTicks": 506,
        "midi": 56,
        "name": "G#3",
        "ticks": 60933,
        "time": 22.3330348046875,
        "velocity": 0.7401574803149606
    },
    {
        "duration": 0.3841552734375,
        "durationTicks": 1049,
        "midi": 84,
        "name": "C6",
        "ticks": 61444,
        "time": 22.52016859375,
        "velocity": 0.6692913385826772
    },
    {
        "duration": 0.3841552734375,
        "durationTicks": 1049,
        "midi": 96,
        "name": "C7",
        "ticks": 61444,
        "time": 22.52016859375,
        "velocity": 0.7795275590551181
    },
    {
        "duration": 0.1871337890625,
        "durationTicks": 511,
        "midi": 33,
        "name": "A1",
        "ticks": 61444,
        "time": 22.52016859375,
        "velocity": 0.6456692913385826
    },
    {
        "duration": 0.1981201171875,
        "durationTicks": 541,
        "midi": 45,
        "name": "A2",
        "ticks": 61444,
        "time": 22.52016859375,
        "velocity": 0.7795275590551181
    },
    {
        "duration": 0.1746826171875,
        "durationTicks": 477,
        "midi": 48,
        "name": "C3",
        "ticks": 61986,
        "time": 22.718654921875,
        "velocity": 0.6299212598425197
    },
    {
        "duration": 0.1746826171875,
        "durationTicks": 477,
        "midi": 52,
        "name": "E3",
        "ticks": 61986,
        "time": 22.718654921875,
        "velocity": 0.6299212598425197
    },
    {
        "duration": 0.1856689453125,
        "durationTicks": 507,
        "midi": 57,
        "name": "A3",
        "ticks": 61986,
        "time": 22.718654921875,
        "velocity": 0.7401574803149606
    },
    {
        "duration": 0.371337890625,
        "durationTicks": 1014,
        "midi": 81,
        "name": "A5",
        "ticks": 62494,
        "time": 22.904690078125,
        "velocity": 0.6377952755905512
    },
    {
        "duration": 0.371337890625,
        "durationTicks": 1014,
        "midi": 93,
        "name": "A6",
        "ticks": 62494,
        "time": 22.904690078125,
        "velocity": 0.7480314960629921
    },
    {
        "duration": 0.173583984375,
        "durationTicks": 474,
        "midi": 33,
        "name": "A1",
        "ticks": 62494,
        "time": 22.904690078125,
        "velocity": 0.6141732283464567
    },
    {
        "duration": 0.1845703125,
        "durationTicks": 504,
        "midi": 45,
        "name": "A2",
        "ticks": 62494,
        "time": 22.904690078125,
        "velocity": 0.7480314960629921
    },
    {
        "duration": 0.1754150390625,
        "durationTicks": 479,
        "midi": 52,
        "name": "E3",
        "ticks": 62999,
        "time": 23.0896266015625,
        "velocity": 0.6299212598425197
    },
    {
        "duration": 0.1754150390625,
        "durationTicks": 479,
        "midi": 57,
        "name": "A3",
        "ticks": 62999,
        "time": 23.0896266015625,
        "velocity": 0.6299212598425197
    },
    {
        "duration": 0.1864013671875,
        "durationTicks": 509,
        "midi": 60,
        "name": "C4",
        "ticks": 62999,
        "time": 23.0896266015625,
        "velocity": 0.7401574803149606
    },
    {
        "duration": 0.371337890625,
        "durationTicks": 1014,
        "midi": 81,
        "name": "A5",
        "ticks": 63509,
        "time": 23.2763941796875,
        "velocity": 0.6535433070866141
    },
    {
        "duration": 0.371337890625,
        "durationTicks": 1014,
        "midi": 93,
        "name": "A6",
        "ticks": 63509,
        "time": 23.2763941796875,
        "velocity": 0.7322834645669292
    },
    {
        "duration": 0.1754150390625,
        "durationTicks": 479,
        "midi": 33,
        "name": "A1",
        "ticks": 63509,
        "time": 23.2763941796875,
        "velocity": 0.6299212598425197
    },
    {
        "duration": 0.1864013671875,
        "durationTicks": 509,
        "midi": 45,
        "name": "A2",
        "ticks": 63509,
        "time": 23.2763941796875,
        "velocity": 0.7637795275590551
    },
    {
        "duration": 0.173583984375,
        "durationTicks": 474,
        "midi": 57,
        "name": "A3",
        "ticks": 64019,
        "time": 23.4631617578125,
        "velocity": 0.6299212598425197
    },
    {
        "duration": 0.173583984375,
        "durationTicks": 474,
        "midi": 60,
        "name": "C4",
        "ticks": 64019,
        "time": 23.4631617578125,
        "velocity": 0.6299212598425197
    },
    {
        "duration": 0.1845703125,
        "durationTicks": 504,
        "midi": 64,
        "name": "E4",
        "ticks": 64019,
        "time": 23.4631617578125,
        "velocity": 0.7401574803149606
    },
    {
        "duration": 0.3702392578125,
        "durationTicks": 1011,
        "midi": 21,
        "name": "A0",
        "ticks": 64524,
        "time": 23.64809828125,
        "velocity": 0.6141732283464567
    },
    {
        "duration": 0.3702392578125,
        "durationTicks": 1011,
        "midi": 33,
        "name": "A1",
        "ticks": 64524,
        "time": 23.64809828125,
        "velocity": 0.7480314960629921
    },
    {
        "duration": 0.1124267578125,
        "durationTicks": 307,
        "midi": 88,
        "name": "E6",
        "ticks": 65540,
        "time": 24.02016859375,
        "velocity": 0.5354330708661418
    },
    {
        "duration": 0.755859375,
        "durationTicks": 2064,
        "midi": 52,
        "name": "E3",
        "ticks": 65540,
        "time": 24.02016859375,
        "velocity": 0.5669291338582677
    },
    {
        "duration": 0.755859375,
        "durationTicks": 2064,
        "midi": 57,
        "name": "A3",
        "ticks": 65540,
        "time": 24.02016859375,
        "velocity": 0.5669291338582677
    },
    {
        "duration": 0.755859375,
        "durationTicks": 2064,
        "midi": 60,
        "name": "C4",
        "ticks": 65540,
        "time": 24.02016859375,
        "velocity": 0.5669291338582677
    },
    {
        "duration": 0.755859375,
        "durationTicks": 2064,
        "midi": 64,
        "name": "E4",
        "ticks": 65540,
        "time": 24.02016859375,
        "velocity": 0.6771653543307087
    },
    {
        "duration": 0.0963134765625,
        "durationTicks": 263,
        "midi": 81,
        "name": "A5",
        "ticks": 65833,
        "time": 24.1274683984375,
        "velocity": 0.49606299212598426
    },
    {
        "duration": 0.0963134765625,
        "durationTicks": 263,
        "midi": 93,
        "name": "A6",
        "ticks": 66082,
        "time": 24.218654921875,
        "velocity": 0.49606299212598426
    },
    {
        "duration": 0.0999755859375,
        "durationTicks": 273,
        "midi": 81,
        "name": "A5",
        "ticks": 66331,
        "time": 24.3098414453125,
        "velocity": 0.49606299212598426
    },
    {
        "duration": 0.099609375,
        "durationTicks": 272,
        "midi": 84,
        "name": "C6",
        "ticks": 66590,
        "time": 24.404690078125,
        "velocity": 0.5039370078740157
    },
    {
        "duration": 0.0955810546875,
        "durationTicks": 261,
        "midi": 81,
        "name": "A5",
        "ticks": 66848,
        "time": 24.4991725,
        "velocity": 0.49606299212598426
    },
    {
        "duration": 0.095947265625,
        "durationTicks": 262,
        "midi": 93,
        "name": "A6",
        "ticks": 67095,
        "time": 24.5896266015625,
        "velocity": 0.49606299212598426
    },
    {
        "duration": 0.10107421875,
        "durationTicks": 276,
        "midi": 81,
        "name": "A5",
        "ticks": 67343,
        "time": 24.6804469140625,
        "velocity": 0.49606299212598426
    },
    {
        "duration": 0.1014404296875,
        "durationTicks": 277,
        "midi": 88,
        "name": "E6",
        "ticks": 67605,
        "time": 24.7763941796875,
        "velocity": 0.5196850393700787
    },
    {
        "duration": 0.741943359375,
        "durationTicks": 2026,
        "midi": 48,
        "name": "C3",
        "ticks": 67605,
        "time": 24.7763941796875,
        "velocity": 0.5511811023622047
    },
    {
        "duration": 0.741943359375,
        "durationTicks": 2026,
        "midi": 52,
        "name": "E3",
        "ticks": 67605,
        "time": 24.7763941796875,
        "velocity": 0.5511811023622047
    },
    {
        "duration": 0.741943359375,
        "durationTicks": 2026,
        "midi": 57,
        "name": "A3",
        "ticks": 67605,
        "time": 24.7763941796875,
        "velocity": 0.5511811023622047
    },
    {
        "duration": 0.741943359375,
        "durationTicks": 2026,
        "midi": 60,
        "name": "C4",
        "ticks": 67605,
        "time": 24.7763941796875,
        "velocity": 0.6614173228346457
    },
    {
        "duration": 0.0955810546875,
        "durationTicks": 261,
        "midi": 81,
        "name": "A5",
        "ticks": 67868,
        "time": 24.87270765625,
        "velocity": 0.49606299212598426
    },
    {
        "duration": 0.095947265625,
        "durationTicks": 262,
        "midi": 93,
        "name": "A6",
        "ticks": 68115,
        "time": 24.9631617578125,
        "velocity": 0.49606299212598426
    },
    {
        "duration": 0.0992431640625,
        "durationTicks": 271,
        "midi": 81,
        "name": "A5",
        "ticks": 68363,
        "time": 25.0539820703125,
        "velocity": 0.49606299212598426
    },
    {
        "duration": 0.0992431640625,
        "durationTicks": 271,
        "midi": 84,
        "name": "C6",
        "ticks": 68620,
        "time": 25.14809828125,
        "velocity": 0.5039370078740157
    },
    {
        "duration": 0.095947265625,
        "durationTicks": 262,
        "midi": 81,
        "name": "A5",
        "ticks": 68877,
        "time": 25.2422144921875,
        "velocity": 0.49606299212598426
    },
    {
        "duration": 0.095947265625,
        "durationTicks": 262,
        "midi": 93,
        "name": "A6",
        "ticks": 69125,
        "time": 25.3330348046875,
        "velocity": 0.49606299212598426
    },
    {
        "duration": 0.0999755859375,
        "durationTicks": 273,
        "midi": 81,
        "name": "A5",
        "ticks": 69373,
        "time": 25.4238551171875,
        "velocity": 0.49606299212598426
    },
    {
        "duration": 0.1124267578125,
        "durationTicks": 307,
        "midi": 88,
        "name": "E6",
        "ticks": 69636,
        "time": 25.52016859375,
        "velocity": 0.5354330708661418
    },
    {
        "duration": 0.755859375,
        "durationTicks": 2064,
        "midi": 50,
        "name": "D3",
        "ticks": 69636,
        "time": 25.52016859375,
        "velocity": 0.5669291338582677
    },
    {
        "duration": 0.755859375,
        "durationTicks": 2064,
        "midi": 52,
        "name": "E3",
        "ticks": 69636,
        "time": 25.52016859375,
        "velocity": 0.5669291338582677
    },
    {
        "duration": 0.755859375,
        "durationTicks": 2064,
        "midi": 56,
        "name": "G#3",
        "ticks": 69636,
        "time": 25.52016859375,
        "velocity": 0.5669291338582677
    },
    {
        "duration": 0.755859375,
        "durationTicks": 2064,
        "midi": 59,
        "name": "B3",
        "ticks": 69636,
        "time": 25.52016859375,
        "velocity": 0.6771653543307087
    },
    {
        "duration": 0.0963134765625,
        "durationTicks": 263,
        "midi": 80,
        "name": "G#5",
        "ticks": 69929,
        "time": 25.6274683984375,
        "velocity": 0.49606299212598426
    },
    {
        "duration": 0.0963134765625,
        "durationTicks": 263,
        "midi": 92,
        "name": "G#6",
        "ticks": 70178,
        "time": 25.718654921875,
        "velocity": 0.49606299212598426
    },
    {
        "duration": 0.0999755859375,
        "durationTicks": 273,
        "midi": 80,
        "name": "G#5",
        "ticks": 70427,
        "time": 25.8098414453125,
        "velocity": 0.49606299212598426
    },
    {
        "duration": 0.099609375,
        "durationTicks": 272,
        "midi": 86,
        "name": "D6",
        "ticks": 70686,
        "time": 25.904690078125,
        "velocity": 0.5039370078740157
    },
    {
        "duration": 0.0955810546875,
        "durationTicks": 261,
        "midi": 80,
        "name": "G#5",
        "ticks": 70944,
        "time": 25.9991725,
        "velocity": 0.49606299212598426
    },
    {
        "duration": 0.095947265625,
        "durationTicks": 262,
        "midi": 92,
        "name": "G#6",
        "ticks": 71191,
        "time": 26.0896266015625,
        "velocity": 0.49606299212598426
    },
    {
        "duration": 0.10107421875,
        "durationTicks": 276,
        "midi": 80,
        "name": "G#5",
        "ticks": 71439,
        "time": 26.1804469140625,
        "velocity": 0.49606299212598426
    },
    {
        "duration": 0.1014404296875,
        "durationTicks": 277,
        "midi": 88,
        "name": "E6",
        "ticks": 71701,
        "time": 26.2763941796875,
        "velocity": 0.5196850393700787
    },
    {
        "duration": 0.741943359375,
        "durationTicks": 2026,
        "midi": 47,
        "name": "B2",
        "ticks": 71701,
        "time": 26.2763941796875,
        "velocity": 0.5511811023622047
    },
    {
        "duration": 0.741943359375,
        "durationTicks": 2026,
        "midi": 52,
        "name": "E3",
        "ticks": 71701,
        "time": 26.2763941796875,
        "velocity": 0.5511811023622047
    },
    {
        "duration": 0.741943359375,
        "durationTicks": 2026,
        "midi": 56,
        "name": "G#3",
        "ticks": 71701,
        "time": 26.2763941796875,
        "velocity": 0.6614173228346457
    },
    {
        "duration": 0.0955810546875,
        "durationTicks": 261,
        "midi": 80,
        "name": "G#5",
        "ticks": 71964,
        "time": 26.37270765625,
        "velocity": 0.49606299212598426
    },
    {
        "duration": 0.095947265625,
        "durationTicks": 262,
        "midi": 92,
        "name": "G#6",
        "ticks": 72211,
        "time": 26.4631617578125,
        "velocity": 0.49606299212598426
    },
    {
        "duration": 0.0992431640625,
        "durationTicks": 271,
        "midi": 80,
        "name": "G#5",
        "ticks": 72459,
        "time": 26.5539820703125,
        "velocity": 0.49606299212598426
    },
    {
        "duration": 0.0992431640625,
        "durationTicks": 271,
        "midi": 83,
        "name": "B5",
        "ticks": 72716,
        "time": 26.64809828125,
        "velocity": 0.5039370078740157
    },
    {
        "duration": 0.095947265625,
        "durationTicks": 262,
        "midi": 80,
        "name": "G#5",
        "ticks": 72973,
        "time": 26.7422144921875,
        "velocity": 0.49606299212598426
    },
    {
        "duration": 0.095947265625,
        "durationTicks": 262,
        "midi": 92,
        "name": "G#6",
        "ticks": 73221,
        "time": 26.8330348046875,
        "velocity": 0.49606299212598426
    },
    {
        "duration": 0.0999755859375,
        "durationTicks": 273,
        "midi": 80,
        "name": "G#5",
        "ticks": 73469,
        "time": 26.9238551171875,
        "velocity": 0.49606299212598426
    },
    {
        "duration": 0.1124267578125,
        "durationTicks": 307,
        "midi": 88,
        "name": "E6",
        "ticks": 73732,
        "time": 27.02016859375,
        "velocity": 0.5354330708661418
    },
    {
        "duration": 0.755859375,
        "durationTicks": 2064,
        "midi": 48,
        "name": "C3",
        "ticks": 73732,
        "time": 27.02016859375,
        "velocity": 0.5669291338582677
    },
    {
        "duration": 0.755859375,
        "durationTicks": 2064,
        "midi": 52,
        "name": "E3",
        "ticks": 73732,
        "time": 27.02016859375,
        "velocity": 0.5669291338582677
    },
    {
        "duration": 0.755859375,
        "durationTicks": 2064,
        "midi": 57,
        "name": "A3",
        "ticks": 73732,
        "time": 27.02016859375,
        "velocity": 0.5669291338582677
    },
    {
        "duration": 0.755859375,
        "durationTicks": 2064,
        "midi": 60,
        "name": "C4",
        "ticks": 73732,
        "time": 27.02016859375,
        "velocity": 0.6771653543307087
    },
    {
        "duration": 0.0963134765625,
        "durationTicks": 263,
        "midi": 81,
        "name": "A5",
        "ticks": 74025,
        "time": 27.1274683984375,
        "velocity": 0.49606299212598426
    },
    {
        "duration": 0.0963134765625,
        "durationTicks": 263,
        "midi": 93,
        "name": "A6",
        "ticks": 74274,
        "time": 27.218654921875,
        "velocity": 0.49606299212598426
    },
    {
        "duration": 0.0999755859375,
        "durationTicks": 273,
        "midi": 81,
        "name": "A5",
        "ticks": 74523,
        "time": 27.3098414453125,
        "velocity": 0.49606299212598426
    },
    {
        "duration": 0.099609375,
        "durationTicks": 272,
        "midi": 84,
        "name": "C6",
        "ticks": 74782,
        "time": 27.404690078125,
        "velocity": 0.5039370078740157
    },
    {
        "duration": 0.0955810546875,
        "durationTicks": 261,
        "midi": 81,
        "name": "A5",
        "ticks": 75040,
        "time": 27.4991725,
        "velocity": 0.49606299212598426
    },
    {
        "duration": 0.095947265625,
        "durationTicks": 262,
        "midi": 93,
        "name": "A6",
        "ticks": 75287,
        "time": 27.5896266015625,
        "velocity": 0.49606299212598426
    },
    {
        "duration": 0.10107421875,
        "durationTicks": 276,
        "midi": 81,
        "name": "A5",
        "ticks": 75535,
        "time": 27.6804469140625,
        "velocity": 0.49606299212598426
    },
    {
        "duration": 0.1014404296875,
        "durationTicks": 277,
        "midi": 88,
        "name": "E6",
        "ticks": 75797,
        "time": 27.7763941796875,
        "velocity": 0.5196850393700787
    },
    {
        "duration": 0.741943359375,
        "durationTicks": 2026,
        "midi": 45,
        "name": "A2",
        "ticks": 75797,
        "time": 27.7763941796875,
        "velocity": 0.5511811023622047
    },
    {
        "duration": 0.741943359375,
        "durationTicks": 2026,
        "midi": 48,
        "name": "C3",
        "ticks": 75797,
        "time": 27.7763941796875,
        "velocity": 0.5511811023622047
    },
    {
        "duration": 0.741943359375,
        "durationTicks": 2026,
        "midi": 52,
        "name": "E3",
        "ticks": 75797,
        "time": 27.7763941796875,
        "velocity": 0.5511811023622047
    },
    {
        "duration": 0.741943359375,
        "durationTicks": 2026,
        "midi": 57,
        "name": "A3",
        "ticks": 75797,
        "time": 27.7763941796875,
        "velocity": 0.6614173228346457
    },
    {
        "duration": 0.0955810546875,
        "durationTicks": 261,
        "midi": 81,
        "name": "A5",
        "ticks": 76060,
        "time": 27.87270765625,
        "velocity": 0.49606299212598426
    },
    {
        "duration": 0.095947265625,
        "durationTicks": 262,
        "midi": 93,
        "name": "A6",
        "ticks": 76307,
        "time": 27.9631617578125,
        "velocity": 0.49606299212598426
    },
    {
        "duration": 0.0992431640625,
        "durationTicks": 271,
        "midi": 81,
        "name": "A5",
        "ticks": 76555,
        "time": 28.0539820703125,
        "velocity": 0.49606299212598426
    },
    {
        "duration": 0.0992431640625,
        "durationTicks": 271,
        "midi": 84,
        "name": "C6",
        "ticks": 76812,
        "time": 28.14809828125,
        "velocity": 0.5039370078740157
    },
    {
        "duration": 0.095947265625,
        "durationTicks": 262,
        "midi": 81,
        "name": "A5",
        "ticks": 77069,
        "time": 28.2422144921875,
        "velocity": 0.49606299212598426
    },
    {
        "duration": 0.095947265625,
        "durationTicks": 262,
        "midi": 93,
        "name": "A6",
        "ticks": 77317,
        "time": 28.3330348046875,
        "velocity": 0.49606299212598426
    },
    {
        "duration": 0.0999755859375,
        "durationTicks": 273,
        "midi": 81,
        "name": "A5",
        "ticks": 77565,
        "time": 28.4238551171875,
        "velocity": 0.49606299212598426
    },
    {
        "duration": 0.1124267578125,
        "durationTicks": 307,
        "midi": 88,
        "name": "E6",
        "ticks": 77828,
        "time": 28.52016859375,
        "velocity": 0.5354330708661418
    },
    {
        "duration": 0.755859375,
        "durationTicks": 2064,
        "midi": 44,
        "name": "G#2",
        "ticks": 77828,
        "time": 28.52016859375,
        "velocity": 0.5669291338582677
    },
    {
        "duration": 0.755859375,
        "durationTicks": 2064,
        "midi": 47,
        "name": "B2",
        "ticks": 77828,
        "time": 28.52016859375,
        "velocity": 0.5669291338582677
    },
    {
        "duration": 0.755859375,
        "durationTicks": 2064,
        "midi": 52,
        "name": "E3",
        "ticks": 77828,
        "time": 28.52016859375,
        "velocity": 0.5669291338582677
    },
    {
        "duration": 0.755859375,
        "durationTicks": 2064,
        "midi": 56,
        "name": "G#3",
        "ticks": 77828,
        "time": 28.52016859375,
        "velocity": 0.6771653543307087
    },
    {
        "duration": 0.0963134765625,
        "durationTicks": 263,
        "midi": 80,
        "name": "G#5",
        "ticks": 78121,
        "time": 28.6274683984375,
        "velocity": 0.49606299212598426
    },
    {
        "duration": 0.0963134765625,
        "durationTicks": 263,
        "midi": 92,
        "name": "G#6",
        "ticks": 78370,
        "time": 28.718654921875,
        "velocity": 0.49606299212598426
    },
    {
        "duration": 0.0999755859375,
        "durationTicks": 273,
        "midi": 80,
        "name": "G#5",
        "ticks": 78619,
        "time": 28.8098414453125,
        "velocity": 0.49606299212598426
    },
    {
        "duration": 0.099609375,
        "durationTicks": 272,
        "midi": 86,
        "name": "D6",
        "ticks": 78878,
        "time": 28.904690078125,
        "velocity": 0.5039370078740157
    },
    {
        "duration": 0.0955810546875,
        "durationTicks": 261,
        "midi": 80,
        "name": "G#5",
        "ticks": 79136,
        "time": 28.9991725,
        "velocity": 0.49606299212598426
    },
    {
        "duration": 0.095947265625,
        "durationTicks": 262,
        "midi": 92,
        "name": "G#6",
        "ticks": 79383,
        "time": 29.0896266015625,
        "velocity": 0.49606299212598426
    },
    {
        "duration": 0.10107421875,
        "durationTicks": 276,
        "midi": 80,
        "name": "G#5",
        "ticks": 79631,
        "time": 29.1804469140625,
        "velocity": 0.49606299212598426
    },
    {
        "duration": 0.1014404296875,
        "durationTicks": 277,
        "midi": 88,
        "name": "E6",
        "ticks": 79893,
        "time": 29.2763941796875,
        "velocity": 0.5196850393700787
    },
    {
        "duration": 0.741943359375,
        "durationTicks": 2026,
        "midi": 47,
        "name": "B2",
        "ticks": 79893,
        "time": 29.2763941796875,
        "velocity": 0.5511811023622047
    },
    {
        "duration": 0.741943359375,
        "durationTicks": 2026,
        "midi": 52,
        "name": "E3",
        "ticks": 79893,
        "time": 29.2763941796875,
        "velocity": 0.5511811023622047
    },
    {
        "duration": 0.741943359375,
        "durationTicks": 2026,
        "midi": 59,
        "name": "B3",
        "ticks": 79893,
        "time": 29.2763941796875,
        "velocity": 0.6614173228346457
    },
    {
        "duration": 0.0955810546875,
        "durationTicks": 261,
        "midi": 80,
        "name": "G#5",
        "ticks": 80156,
        "time": 29.37270765625,
        "velocity": 0.49606299212598426
    },
    {
        "duration": 0.0904541015625,
        "durationTicks": 247,
        "midi": 92,
        "name": "G#6",
        "ticks": 80403,
        "time": 29.4631617578125,
        "velocity": 0.49606299212598426
    },
    {
        "duration": 0.0992431640625,
        "durationTicks": 271,
        "midi": 92,
        "name": "G#6",
        "ticks": 80651,
        "time": 29.5539820703125,
        "velocity": 0.49606299212598426
    },
    {
        "duration": 0.0992431640625,
        "durationTicks": 271,
        "midi": 104,
        "name": "G#7",
        "ticks": 80908,
        "time": 29.64809828125,
        "velocity": 0.5039370078740157
    },
    {
        "duration": 0.0904541015625,
        "durationTicks": 247,
        "midi": 92,
        "name": "G#6",
        "ticks": 81165,
        "time": 29.7422144921875,
        "velocity": 0.49606299212598426
    },
    {
        "duration": 0.095947265625,
        "durationTicks": 262,
        "midi": 92,
        "name": "G#6",
        "ticks": 81413,
        "time": 29.8330348046875,
        "velocity": 0.49606299212598426
    },
    {
        "duration": 0.0999755859375,
        "durationTicks": 273,
        "midi": 80,
        "name": "G#5",
        "ticks": 81661,
        "time": 29.9238551171875,
        "velocity": 0.49606299212598426
    },
    {
        "duration": 0.1124267578125,
        "durationTicks": 307,
        "midi": 88,
        "name": "E6",
        "ticks": 81924,
        "time": 30.02016859375,
        "velocity": 0.5354330708661418
    },
    {
        "duration": 0.755859375,
        "durationTicks": 2064,
        "midi": 52,
        "name": "E3",
        "ticks": 81924,
        "time": 30.02016859375,
        "velocity": 0.5669291338582677
    },
    {
        "duration": 0.755859375,
        "durationTicks": 2064,
        "midi": 57,
        "name": "A3",
        "ticks": 81924,
        "time": 30.02016859375,
        "velocity": 0.5669291338582677
    },
    {
        "duration": 0.755859375,
        "durationTicks": 2064,
        "midi": 60,
        "name": "C4",
        "ticks": 81924,
        "time": 30.02016859375,
        "velocity": 0.5669291338582677
    },
    {
        "duration": 0.755859375,
        "durationTicks": 2064,
        "midi": 64,
        "name": "E4",
        "ticks": 81924,
        "time": 30.02016859375,
        "velocity": 0.6771653543307087
    },
    {
        "duration": 0.0963134765625,
        "durationTicks": 263,
        "midi": 81,
        "name": "A5",
        "ticks": 82217,
        "time": 30.1274683984375,
        "velocity": 0.49606299212598426
    },
    {
        "duration": 0.0963134765625,
        "durationTicks": 263,
        "midi": 93,
        "name": "A6",
        "ticks": 82466,
        "time": 30.218654921875,
        "velocity": 0.49606299212598426
    },
    {
        "duration": 0.0999755859375,
        "durationTicks": 273,
        "midi": 81,
        "name": "A5",
        "ticks": 82715,
        "time": 30.3098414453125,
        "velocity": 0.49606299212598426
    },
    {
        "duration": 0.099609375,
        "durationTicks": 272,
        "midi": 84,
        "name": "C6",
        "ticks": 82974,
        "time": 30.404690078125,
        "velocity": 0.5039370078740157
    },
    {
        "duration": 0.0955810546875,
        "durationTicks": 261,
        "midi": 81,
        "name": "A5",
        "ticks": 83232,
        "time": 30.4991725,
        "velocity": 0.49606299212598426
    },
    {
        "duration": 0.095947265625,
        "durationTicks": 262,
        "midi": 93,
        "name": "A6",
        "ticks": 83479,
        "time": 30.5896266015625,
        "velocity": 0.49606299212598426
    },
    {
        "duration": 0.10107421875,
        "durationTicks": 276,
        "midi": 81,
        "name": "A5",
        "ticks": 83727,
        "time": 30.6804469140625,
        "velocity": 0.49606299212598426
    },
    {
        "duration": 0.1014404296875,
        "durationTicks": 277,
        "midi": 88,
        "name": "E6",
        "ticks": 83989,
        "time": 30.7763941796875,
        "velocity": 0.5196850393700787
    },
    {
        "duration": 0.741943359375,
        "durationTicks": 2026,
        "midi": 48,
        "name": "C3",
        "ticks": 83989,
        "time": 30.7763941796875,
        "velocity": 0.5511811023622047
    },
    {
        "duration": 0.741943359375,
        "durationTicks": 2026,
        "midi": 52,
        "name": "E3",
        "ticks": 83989,
        "time": 30.7763941796875,
        "velocity": 0.5511811023622047
    },
    {
        "duration": 0.741943359375,
        "durationTicks": 2026,
        "midi": 57,
        "name": "A3",
        "ticks": 83989,
        "time": 30.7763941796875,
        "velocity": 0.5511811023622047
    },
    {
        "duration": 0.741943359375,
        "durationTicks": 2026,
        "midi": 60,
        "name": "C4",
        "ticks": 83989,
        "time": 30.7763941796875,
        "velocity": 0.6614173228346457
    },
    {
        "duration": 0.0955810546875,
        "durationTicks": 261,
        "midi": 81,
        "name": "A5",
        "ticks": 84252,
        "time": 30.87270765625,
        "velocity": 0.49606299212598426
    },
    {
        "duration": 0.095947265625,
        "durationTicks": 262,
        "midi": 93,
        "name": "A6",
        "ticks": 84499,
        "time": 30.9631617578125,
        "velocity": 0.49606299212598426
    },
    {
        "duration": 0.0992431640625,
        "durationTicks": 271,
        "midi": 81,
        "name": "A5",
        "ticks": 84747,
        "time": 31.0539820703125,
        "velocity": 0.49606299212598426
    },
    {
        "duration": 0.0992431640625,
        "durationTicks": 271,
        "midi": 84,
        "name": "C6",
        "ticks": 85004,
        "time": 31.14809828125,
        "velocity": 0.5039370078740157
    },
    {
        "duration": 0.095947265625,
        "durationTicks": 262,
        "midi": 81,
        "name": "A5",
        "ticks": 85261,
        "time": 31.2422144921875,
        "velocity": 0.49606299212598426
    },
    {
        "duration": 0.095947265625,
        "durationTicks": 262,
        "midi": 93,
        "name": "A6",
        "ticks": 85509,
        "time": 31.3330348046875,
        "velocity": 0.49606299212598426
    },
    {
        "duration": 0.0999755859375,
        "durationTicks": 273,
        "midi": 81,
        "name": "A5",
        "ticks": 85757,
        "time": 31.4238551171875,
        "velocity": 0.49606299212598426
    },
    {
        "duration": 0.1124267578125,
        "durationTicks": 307,
        "midi": 88,
        "name": "E6",
        "ticks": 86020,
        "time": 31.52016859375,
        "velocity": 0.5354330708661418
    },
    {
        "duration": 0.755859375,
        "durationTicks": 2064,
        "midi": 50,
        "name": "D3",
        "ticks": 86020,
        "time": 31.52016859375,
        "velocity": 0.5669291338582677
    },
    {
        "duration": 0.755859375,
        "durationTicks": 2064,
        "midi": 52,
        "name": "E3",
        "ticks": 86020,
        "time": 31.52016859375,
        "velocity": 0.5669291338582677
    },
    {
        "duration": 0.755859375,
        "durationTicks": 2064,
        "midi": 56,
        "name": "G#3",
        "ticks": 86020,
        "time": 31.52016859375,
        "velocity": 0.5669291338582677
    },
    {
        "duration": 0.755859375,
        "durationTicks": 2064,
        "midi": 59,
        "name": "B3",
        "ticks": 86020,
        "time": 31.52016859375,
        "velocity": 0.6771653543307087
    },
    {
        "duration": 0.0963134765625,
        "durationTicks": 263,
        "midi": 80,
        "name": "G#5",
        "ticks": 86313,
        "time": 31.6274683984375,
        "velocity": 0.49606299212598426
    },
    {
        "duration": 0.0963134765625,
        "durationTicks": 263,
        "midi": 92,
        "name": "G#6",
        "ticks": 86562,
        "time": 31.718654921875,
        "velocity": 0.49606299212598426
    },
    {
        "duration": 0.0999755859375,
        "durationTicks": 273,
        "midi": 80,
        "name": "G#5",
        "ticks": 86811,
        "time": 31.8098414453125,
        "velocity": 0.49606299212598426
    },
    {
        "duration": 0.099609375,
        "durationTicks": 272,
        "midi": 86,
        "name": "D6",
        "ticks": 87070,
        "time": 31.904690078125,
        "velocity": 0.5039370078740157
    },
    {
        "duration": 0.0955810546875,
        "durationTicks": 261,
        "midi": 80,
        "name": "G#5",
        "ticks": 87328,
        "time": 31.9991725,
        "velocity": 0.49606299212598426
    },
    {
        "duration": 0.095947265625,
        "durationTicks": 262,
        "midi": 92,
        "name": "G#6",
        "ticks": 87575,
        "time": 32.0896266015625,
        "velocity": 0.49606299212598426
    },
    {
        "duration": 0.10107421875,
        "durationTicks": 276,
        "midi": 80,
        "name": "G#5",
        "ticks": 87823,
        "time": 32.1804469140625,
        "velocity": 0.49606299212598426
    },
    {
        "duration": 0.1014404296875,
        "durationTicks": 277,
        "midi": 88,
        "name": "E6",
        "ticks": 88085,
        "time": 32.2763941796875,
        "velocity": 0.5196850393700787
    },
    {
        "duration": 0.741943359375,
        "durationTicks": 2026,
        "midi": 47,
        "name": "B2",
        "ticks": 88085,
        "time": 32.2763941796875,
        "velocity": 0.5511811023622047
    },
    {
        "duration": 0.741943359375,
        "durationTicks": 2026,
        "midi": 52,
        "name": "E3",
        "ticks": 88085,
        "time": 32.2763941796875,
        "velocity": 0.5511811023622047
    },
    {
        "duration": 0.741943359375,
        "durationTicks": 2026,
        "midi": 56,
        "name": "G#3",
        "ticks": 88085,
        "time": 32.2763941796875,
        "velocity": 0.6614173228346457
    },
    {
        "duration": 0.0955810546875,
        "durationTicks": 261,
        "midi": 80,
        "name": "G#5",
        "ticks": 88348,
        "time": 32.37270765625,
        "velocity": 0.49606299212598426
    },
    {
        "duration": 0.095947265625,
        "durationTicks": 262,
        "midi": 92,
        "name": "G#6",
        "ticks": 88595,
        "time": 32.4631617578125,
        "velocity": 0.49606299212598426
    },
    {
        "duration": 0.0992431640625,
        "durationTicks": 271,
        "midi": 80,
        "name": "G#5",
        "ticks": 88843,
        "time": 32.5539820703125,
        "velocity": 0.49606299212598426
    },
    {
        "duration": 0.0992431640625,
        "durationTicks": 271,
        "midi": 83,
        "name": "B5",
        "ticks": 89100,
        "time": 32.64809828125,
        "velocity": 0.5039370078740157
    },
    {
        "duration": 0.095947265625,
        "durationTicks": 262,
        "midi": 80,
        "name": "G#5",
        "ticks": 89357,
        "time": 32.7422144921875,
        "velocity": 0.49606299212598426
    },
    {
        "duration": 0.095947265625,
        "durationTicks": 262,
        "midi": 92,
        "name": "G#6",
        "ticks": 89605,
        "time": 32.8330348046875,
        "velocity": 0.49606299212598426
    },
    {
        "duration": 0.0999755859375,
        "durationTicks": 273,
        "midi": 80,
        "name": "G#5",
        "ticks": 89853,
        "time": 32.9238551171875,
        "velocity": 0.49606299212598426
    },
    {
        "duration": 0.1124267578125,
        "durationTicks": 307,
        "midi": 88,
        "name": "E6",
        "ticks": 90116,
        "time": 33.02016859375,
        "velocity": 0.5354330708661418
    },
    {
        "duration": 0.3841552734375,
        "durationTicks": 1049,
        "midi": 48,
        "name": "C3",
        "ticks": 90116,
        "time": 33.02016859375,
        "velocity": 0.5669291338582677
    },
    {
        "duration": 0.3841552734375,
        "durationTicks": 1049,
        "midi": 52,
        "name": "E3",
        "ticks": 90116,
        "time": 33.02016859375,
        "velocity": 0.5669291338582677
    },
    {
        "duration": 0.3841552734375,
        "durationTicks": 1049,
        "midi": 57,
        "name": "A3",
        "ticks": 90116,
        "time": 33.02016859375,
        "velocity": 0.5669291338582677
    },
    {
        "duration": 0.3841552734375,
        "durationTicks": 1049,
        "midi": 60,
        "name": "C4",
        "ticks": 90116,
        "time": 33.02016859375,
        "velocity": 0.6771653543307087
    },
    {
        "duration": 0.0963134765625,
        "durationTicks": 263,
        "midi": 81,
        "name": "A5",
        "ticks": 90409,
        "time": 33.1274683984375,
        "velocity": 0.49606299212598426
    },
    {
        "duration": 0.0963134765625,
        "durationTicks": 263,
        "midi": 93,
        "name": "A6",
        "ticks": 90658,
        "time": 33.218654921875,
        "velocity": 0.49606299212598426
    },
    {
        "duration": 0.0999755859375,
        "durationTicks": 273,
        "midi": 81,
        "name": "A5",
        "ticks": 90907,
        "time": 33.3098414453125,
        "velocity": 0.49606299212598426
    },
    {
        "duration": 0.099609375,
        "durationTicks": 272,
        "midi": 84,
        "name": "C6",
        "ticks": 91166,
        "time": 33.404690078125,
        "velocity": 0.5039370078740157
    },
    {
        "duration": 0.371337890625,
        "durationTicks": 1014,
        "midi": 52,
        "name": "E3",
        "ticks": 91166,
        "time": 33.404690078125,
        "velocity": 0.5354330708661418
    },
    {
        "duration": 0.371337890625,
        "durationTicks": 1014,
        "midi": 57,
        "name": "A3",
        "ticks": 91166,
        "time": 33.404690078125,
        "velocity": 0.5354330708661418
    },
    {
        "duration": 0.371337890625,
        "durationTicks": 1014,
        "midi": 60,
        "name": "C4",
        "ticks": 91166,
        "time": 33.404690078125,
        "velocity": 0.5354330708661418
    },
    {
        "duration": 0.371337890625,
        "durationTicks": 1014,
        "midi": 64,
        "name": "E4",
        "ticks": 91166,
        "time": 33.404690078125,
        "velocity": 0.6456692913385826
    },
    {
        "duration": 0.0955810546875,
        "durationTicks": 261,
        "midi": 81,
        "name": "A5",
        "ticks": 91424,
        "time": 33.4991725,
        "velocity": 0.49606299212598426
    },
    {
        "duration": 0.095947265625,
        "durationTicks": 262,
        "midi": 93,
        "name": "A6",
        "ticks": 91671,
        "time": 33.5896266015625,
        "velocity": 0.49606299212598426
    },
    {
        "duration": 0.10107421875,
        "durationTicks": 276,
        "midi": 81,
        "name": "A5",
        "ticks": 91919,
        "time": 33.6804469140625,
        "velocity": 0.49606299212598426
    },
    {
        "duration": 0.1014404296875,
        "durationTicks": 277,
        "midi": 88,
        "name": "E6",
        "ticks": 92181,
        "time": 33.7763941796875,
        "velocity": 0.5196850393700787
    },
    {
        "duration": 0.741943359375,
        "durationTicks": 2026,
        "midi": 57,
        "name": "A3",
        "ticks": 92181,
        "time": 33.7763941796875,
        "velocity": 0.5511811023622047
    },
    {
        "duration": 0.741943359375,
        "durationTicks": 2026,
        "midi": 60,
        "name": "C4",
        "ticks": 92181,
        "time": 33.7763941796875,
        "velocity": 0.5511811023622047
    },
    {
        "duration": 0.741943359375,
        "durationTicks": 2026,
        "midi": 64,
        "name": "E4",
        "ticks": 92181,
        "time": 33.7763941796875,
        "velocity": 0.5511811023622047
    },
    {
        "duration": 0.741943359375,
        "durationTicks": 2026,
        "midi": 69,
        "name": "A4",
        "ticks": 92181,
        "time": 33.7763941796875,
        "velocity": 0.6614173228346457
    },
    {
        "duration": 0.0955810546875,
        "durationTicks": 261,
        "midi": 81,
        "name": "A5",
        "ticks": 92444,
        "time": 33.87270765625,
        "velocity": 0.49606299212598426
    },
    {
        "duration": 0.095947265625,
        "durationTicks": 262,
        "midi": 93,
        "name": "A6",
        "ticks": 92691,
        "time": 33.9631617578125,
        "velocity": 0.49606299212598426
    },
    {
        "duration": 0.0992431640625,
        "durationTicks": 271,
        "midi": 81,
        "name": "A5",
        "ticks": 92939,
        "time": 34.0539820703125,
        "velocity": 0.49606299212598426
    },
    {
        "duration": 0.0992431640625,
        "durationTicks": 271,
        "midi": 84,
        "name": "C6",
        "ticks": 93196,
        "time": 34.14809828125,
        "velocity": 0.5039370078740157
    },
    {
        "duration": 0.095947265625,
        "durationTicks": 262,
        "midi": 81,
        "name": "A5",
        "ticks": 93453,
        "time": 34.2422144921875,
        "velocity": 0.49606299212598426
    },
    {
        "duration": 0.095947265625,
        "durationTicks": 262,
        "midi": 93,
        "name": "A6",
        "ticks": 93701,
        "time": 34.3330348046875,
        "velocity": 0.49606299212598426
    },
    {
        "duration": 0.0999755859375,
        "durationTicks": 273,
        "midi": 81,
        "name": "A5",
        "ticks": 93949,
        "time": 34.4238551171875,
        "velocity": 0.49606299212598426
    },
    {
        "duration": 0.1124267578125,
        "durationTicks": 307,
        "midi": 88,
        "name": "E6",
        "ticks": 94212,
        "time": 34.52016859375,
        "velocity": 0.49606299212598426
    },
    {
        "duration": 0.755859375,
        "durationTicks": 2064,
        "midi": 56,
        "name": "G#3",
        "ticks": 94212,
        "time": 34.52016859375,
        "velocity": 0.5275590551181102
    },
    {
        "duration": 0.755859375,
        "durationTicks": 2064,
        "midi": 59,
        "name": "B3",
        "ticks": 94212,
        "time": 34.52016859375,
        "velocity": 0.5275590551181102
    },
    {
        "duration": 0.755859375,
        "durationTicks": 2064,
        "midi": 64,
        "name": "E4",
        "ticks": 94212,
        "time": 34.52016859375,
        "velocity": 0.5275590551181102
    },
    {
        "duration": 0.755859375,
        "durationTicks": 2064,
        "midi": 68,
        "name": "G#4",
        "ticks": 94212,
        "time": 34.52016859375,
        "velocity": 0.6377952755905512
    },
    {
        "duration": 0.0963134765625,
        "durationTicks": 263,
        "midi": 80,
        "name": "G#5",
        "ticks": 94505,
        "time": 34.6274683984375,
        "velocity": 0.49606299212598426
    },
    {
        "duration": 0.0963134765625,
        "durationTicks": 263,
        "midi": 92,
        "name": "G#6",
        "ticks": 94754,
        "time": 34.718654921875,
        "velocity": 0.5039370078740157
    },
    {
        "duration": 0.0999755859375,
        "durationTicks": 273,
        "midi": 80,
        "name": "G#5",
        "ticks": 95003,
        "time": 34.8098414453125,
        "velocity": 0.5118110236220472
    },
    {
        "duration": 0.099609375,
        "durationTicks": 272,
        "midi": 83,
        "name": "B5",
        "ticks": 95262,
        "time": 34.904690078125,
        "velocity": 0.5196850393700787
    },
    {
        "duration": 0.0955810546875,
        "durationTicks": 261,
        "midi": 80,
        "name": "G#5",
        "ticks": 95520,
        "time": 34.9991725,
        "velocity": 0.5275590551181102
    },
    {
        "duration": 0.095947265625,
        "durationTicks": 262,
        "midi": 92,
        "name": "G#6",
        "ticks": 95767,
        "time": 35.0896266015625,
        "velocity": 0.5275590551181102
    },
    {
        "duration": 0.10107421875,
        "durationTicks": 276,
        "midi": 80,
        "name": "G#5",
        "ticks": 96015,
        "time": 35.1804469140625,
        "velocity": 0.5354330708661418
    },
    {
        "duration": 0.1014404296875,
        "durationTicks": 277,
        "midi": 88,
        "name": "E6",
        "ticks": 96277,
        "time": 35.2763941796875,
        "velocity": 0.5433070866141733
    },
    {
        "duration": 0.741943359375,
        "durationTicks": 2026,
        "midi": 32,
        "name": "G#1",
        "ticks": 96277,
        "time": 35.2763941796875,
        "velocity": 0.5511811023622047
    },
    {
        "duration": 0.741943359375,
        "durationTicks": 2026,
        "midi": 35,
        "name": "B1",
        "ticks": 96277,
        "time": 35.2763941796875,
        "velocity": 0.5590551181102362
    },
    {
        "duration": 0.741943359375,
        "durationTicks": 2026,
        "midi": 40,
        "name": "E2",
        "ticks": 96277,
        "time": 35.2763941796875,
        "velocity": 0.5669291338582677
    },
    {
        "duration": 0.741943359375,
        "durationTicks": 2026,
        "midi": 44,
        "name": "G#2",
        "ticks": 96277,
        "time": 35.2763941796875,
        "velocity": 0.6850393700787402
    },
    {
        "duration": 0.0955810546875,
        "durationTicks": 261,
        "midi": 80,
        "name": "G#5",
        "ticks": 96540,
        "time": 35.37270765625,
        "velocity": 0.5511811023622047
    },
    {
        "duration": 0.0904541015625,
        "durationTicks": 247,
        "midi": 92,
        "name": "G#6",
        "ticks": 96787,
        "time": 35.4631617578125,
        "velocity": 0.5590551181102362
    },
    {
        "duration": 0.08935546875,
        "durationTicks": 244,
        "midi": 92,
        "name": "G#6",
        "ticks": 97035,
        "time": 35.5539820703125,
        "velocity": 0.5590551181102362
    },
    {
        "duration": 0.037353515625,
        "durationTicks": 102,
        "midi": 93,
        "name": "A6",
        "ticks": 97280,
        "time": 35.64370375,
        "velocity": 0.5905511811023622
    },
    {
        "duration": 0.298828125,
        "durationTicks": 816,
        "midi": 93,
        "name": "A6",
        "ticks": 97280,
        "time": 35.64370375,
        "velocity": 0.5905511811023622
    },
    {
        "duration": 0.037353515625,
        "durationTicks": 102,
        "midi": 105,
        "name": "A7",
        "ticks": 97280,
        "time": 35.64370375,
        "velocity": 0.6141732283464567
    },
    {
        "duration": 0.037353515625,
        "durationTicks": 102,
        "midi": 91,
        "name": "G6",
        "ticks": 97382,
        "time": 35.681057265625,
        "velocity": 0.5905511811023622
    },
    {
        "duration": 0.037353515625,
        "durationTicks": 102,
        "midi": 103,
        "name": "G7",
        "ticks": 97382,
        "time": 35.681057265625,
        "velocity": 0.6220472440944882
    },
    {
        "duration": 0.037353515625,
        "durationTicks": 102,
        "midi": 89,
        "name": "F6",
        "ticks": 97484,
        "time": 35.71841078125,
        "velocity": 0.5905511811023622
    },
    {
        "duration": 0.037353515625,
        "durationTicks": 102,
        "midi": 101,
        "name": "F7",
        "ticks": 97484,
        "time": 35.71841078125,
        "velocity": 0.6220472440944882
    },
    {
        "duration": 0.037353515625,
        "durationTicks": 102,
        "midi": 88,
        "name": "E6",
        "ticks": 97586,
        "time": 35.755764296875,
        "velocity": 0.5905511811023622
    },
    {
        "duration": 0.037353515625,
        "durationTicks": 102,
        "midi": 100,
        "name": "E7",
        "ticks": 97586,
        "time": 35.755764296875,
        "velocity": 0.6220472440944882
    },
    {
        "duration": 0.037353515625,
        "durationTicks": 102,
        "midi": 86,
        "name": "D6",
        "ticks": 97688,
        "time": 35.7931178125,
        "velocity": 0.5905511811023622
    },
    {
        "duration": 0.037353515625,
        "durationTicks": 102,
        "midi": 98,
        "name": "D7",
        "ticks": 97688,
        "time": 35.7931178125,
        "velocity": 0.6299212598425197
    },
    {
        "duration": 0.037353515625,
        "durationTicks": 102,
        "midi": 84,
        "name": "C6",
        "ticks": 97790,
        "time": 35.830471328125,
        "velocity": 0.5905511811023622
    },
    {
        "duration": 0.037353515625,
        "durationTicks": 102,
        "midi": 96,
        "name": "C7",
        "ticks": 97790,
        "time": 35.830471328125,
        "velocity": 0.6299212598425197
    },
    {
        "duration": 0.037353515625,
        "durationTicks": 102,
        "midi": 83,
        "name": "B5",
        "ticks": 97892,
        "time": 35.86782484375,
        "velocity": 0.5905511811023622
    },
    {
        "duration": 0.037353515625,
        "durationTicks": 102,
        "midi": 95,
        "name": "B6",
        "ticks": 97892,
        "time": 35.86782484375,
        "velocity": 0.6299212598425197
    },
    {
        "duration": 0.037353515625,
        "durationTicks": 102,
        "midi": 81,
        "name": "A5",
        "ticks": 97994,
        "time": 35.905178359375,
        "velocity": 0.5905511811023622
    },
    {
        "duration": 0.113525390625,
        "durationTicks": 310,
        "midi": 93,
        "name": "A6",
        "ticks": 97994,
        "time": 35.905178359375,
        "velocity": 0.6377952755905512
    },
    {
        "duration": 0.037353515625,
        "durationTicks": 102,
        "midi": 79,
        "name": "G5",
        "ticks": 98096,
        "time": 35.942531875,
        "velocity": 0.5905511811023622
    },
    {
        "duration": 0.037353515625,
        "durationTicks": 102,
        "midi": 91,
        "name": "G6",
        "ticks": 98096,
        "time": 35.942531875,
        "velocity": 0.6377952755905512
    },
    {
        "duration": 0.037353515625,
        "durationTicks": 102,
        "midi": 77,
        "name": "F5",
        "ticks": 98198,
        "time": 35.979885390625,
        "velocity": 0.5905511811023622
    },
    {
        "duration": 0.037353515625,
        "durationTicks": 102,
        "midi": 89,
        "name": "F6",
        "ticks": 98198,
        "time": 35.979885390625,
        "velocity": 0.7322834645669292
    },
    {
        "duration": 0.375,
        "durationTicks": 1024,
        "midi": 76,
        "name": "E5",
        "ticks": 98304,
        "time": 36.01870375,
        "velocity": 0.5905511811023622
    },
    {
        "duration": 0.3841552734375,
        "durationTicks": 1049,
        "midi": 88,
        "name": "E6",
        "ticks": 98308,
        "time": 36.02016859375,
        "velocity": 0.7795275590551181
    },
    {
        "duration": 0.1871337890625,
        "durationTicks": 511,
        "midi": 28,
        "name": "E1",
        "ticks": 98308,
        "time": 36.02016859375,
        "velocity": 0.6377952755905512
    },
    {
        "duration": 0.1981201171875,
        "durationTicks": 541,
        "midi": 40,
        "name": "E2",
        "ticks": 98308,
        "time": 36.02016859375,
        "velocity": 0.7716535433070866
    },
    {
        "duration": 0.1746826171875,
        "durationTicks": 477,
        "midi": 52,
        "name": "E3",
        "ticks": 98850,
        "time": 36.218654921875,
        "velocity": 0.6299212598425197
    },
    {
        "duration": 0.1746826171875,
        "durationTicks": 477,
        "midi": 55,
        "name": "G3",
        "ticks": 98850,
        "time": 36.218654921875,
        "velocity": 0.6299212598425197
    },
    {
        "duration": 0.1856689453125,
        "durationTicks": 507,
        "midi": 59,
        "name": "B3",
        "ticks": 98850,
        "time": 36.218654921875,
        "velocity": 0.7401574803149606
    },
    {
        "duration": 0.173583984375,
        "durationTicks": 474,
        "midi": 71,
        "name": "B4",
        "ticks": 99358,
        "time": 36.404690078125,
        "velocity": 0.6377952755905512
    },
    {
        "duration": 0.1845703125,
        "durationTicks": 504,
        "midi": 83,
        "name": "B5",
        "ticks": 99358,
        "time": 36.404690078125,
        "velocity": 0.7480314960629921
    },
    {
        "duration": 0.173583984375,
        "durationTicks": 474,
        "midi": 28,
        "name": "E1",
        "ticks": 99358,
        "time": 36.404690078125,
        "velocity": 0.6062992125984252
    },
    {
        "duration": 0.1845703125,
        "durationTicks": 504,
        "midi": 40,
        "name": "E2",
        "ticks": 99358,
        "time": 36.404690078125,
        "velocity": 0.7401574803149606
    },
    {
        "duration": 0.1754150390625,
        "durationTicks": 479,
        "midi": 72,
        "name": "C5",
        "ticks": 99863,
        "time": 36.5896266015625,
        "velocity": 0.6299212598425197
    },
    {
        "duration": 0.1864013671875,
        "durationTicks": 509,
        "midi": 84,
        "name": "C6",
        "ticks": 99863,
        "time": 36.5896266015625,
        "velocity": 0.7401574803149606
    },
    {
        "duration": 0.1754150390625,
        "durationTicks": 479,
        "midi": 52,
        "name": "E3",
        "ticks": 99863,
        "time": 36.5896266015625,
        "velocity": 0.6299212598425197
    },
    {
        "duration": 0.1754150390625,
        "durationTicks": 479,
        "midi": 55,
        "name": "G3",
        "ticks": 99863,
        "time": 36.5896266015625,
        "velocity": 0.6299212598425197
    },
    {
        "duration": 0.1864013671875,
        "durationTicks": 509,
        "midi": 59,
        "name": "B3",
        "ticks": 99863,
        "time": 36.5896266015625,
        "velocity": 0.7401574803149606
    },
    {
        "duration": 0.1754150390625,
        "durationTicks": 479,
        "midi": 74,
        "name": "D5",
        "ticks": 100373,
        "time": 36.7763941796875,
        "velocity": 0.6535433070866141
    },
    {
        "duration": 0.1864013671875,
        "durationTicks": 509,
        "midi": 86,
        "name": "D6",
        "ticks": 100373,
        "time": 36.7763941796875,
        "velocity": 0.7637795275590551
    },
    {
        "duration": 0.1754150390625,
        "durationTicks": 479,
        "midi": 28,
        "name": "E1",
        "ticks": 100373,
        "time": 36.7763941796875,
        "velocity": 0.6220472440944882
    },
    {
        "duration": 0.1864013671875,
        "durationTicks": 509,
        "midi": 40,
        "name": "E2",
        "ticks": 100373,
        "time": 36.7763941796875,
        "velocity": 0.7559055118110236
    },
    {
        "duration": 0.0849609375,
        "durationTicks": 232,
        "midi": 88,
        "name": "E6",
        "ticks": 100883,
        "time": 36.9631617578125,
        "velocity": 0.6929133858267716
    },
    {
        "duration": 0.173583984375,
        "durationTicks": 474,
        "midi": 52,
        "name": "E3",
        "ticks": 100883,
        "time": 36.9631617578125,
        "velocity": 0.6299212598425197
    },
    {
        "duration": 0.173583984375,
        "durationTicks": 474,
        "midi": 55,
        "name": "G3",
        "ticks": 100883,
        "time": 36.9631617578125,
        "velocity": 0.6299212598425197
    },
    {
        "duration": 0.1845703125,
        "durationTicks": 504,
        "midi": 59,
        "name": "B3",
        "ticks": 100883,
        "time": 36.9631617578125,
        "velocity": 0.7401574803149606
    },
    {
        "duration": 0.0882568359375,
        "durationTicks": 241,
        "midi": 86,
        "name": "D6",
        "ticks": 101131,
        "time": 37.0539820703125,
        "velocity": 0.6929133858267716
    },
    {
        "duration": 0.173583984375,
        "durationTicks": 474,
        "midi": 72,
        "name": "C5",
        "ticks": 101388,
        "time": 37.14809828125,
        "velocity": 0.6377952755905512
    },
    {
        "duration": 0.1845703125,
        "durationTicks": 504,
        "midi": 84,
        "name": "C6",
        "ticks": 101388,
        "time": 37.14809828125,
        "velocity": 0.7480314960629921
    },
    {
        "duration": 0.173583984375,
        "durationTicks": 474,
        "midi": 28,
        "name": "E1",
        "ticks": 101388,
        "time": 37.14809828125,
        "velocity": 0.6062992125984252
    },
    {
        "duration": 0.1845703125,
        "durationTicks": 504,
        "midi": 40,
        "name": "E2",
        "ticks": 101388,
        "time": 37.14809828125,
        "velocity": 0.7401574803149606
    },
    {
        "duration": 0.17431640625,
        "durationTicks": 476,
        "midi": 71,
        "name": "B4",
        "ticks": 101893,
        "time": 37.3330348046875,
        "velocity": 0.6299212598425197
    },
    {
        "duration": 0.185302734375,
        "durationTicks": 506,
        "midi": 83,
        "name": "B5",
        "ticks": 101893,
        "time": 37.3330348046875,
        "velocity": 0.7401574803149606
    },
    {
        "duration": 0.17431640625,
        "durationTicks": 476,
        "midi": 52,
        "name": "E3",
        "ticks": 101893,
        "time": 37.3330348046875,
        "velocity": 0.6299212598425197
    },
    {
        "duration": 0.17431640625,
        "durationTicks": 476,
        "midi": 55,
        "name": "G3",
        "ticks": 101893,
        "time": 37.3330348046875,
        "velocity": 0.6299212598425197
    },
    {
        "duration": 0.185302734375,
        "durationTicks": 506,
        "midi": 59,
        "name": "B3",
        "ticks": 101893,
        "time": 37.3330348046875,
        "velocity": 0.7401574803149606
    },
    {
        "duration": 0.3841552734375,
        "durationTicks": 1049,
        "midi": 69,
        "name": "A4",
        "ticks": 102404,
        "time": 37.52016859375,
        "velocity": 0.6692913385826772
    },
    {
        "duration": 0.3841552734375,
        "durationTicks": 1049,
        "midi": 81,
        "name": "A5",
        "ticks": 102404,
        "time": 37.52016859375,
        "velocity": 0.7795275590551181
    },
    {
        "duration": 0.1871337890625,
        "durationTicks": 511,
        "midi": 33,
        "name": "A1",
        "ticks": 102404,
        "time": 37.52016859375,
        "velocity": 0.6456692913385826
    },
    {
        "duration": 0.1981201171875,
        "durationTicks": 541,
        "midi": 45,
        "name": "A2",
        "ticks": 102404,
        "time": 37.52016859375,
        "velocity": 0.7795275590551181
    },
    {
        "duration": 0.1746826171875,
        "durationTicks": 477,
        "midi": 52,
        "name": "E3",
        "ticks": 102946,
        "time": 37.718654921875,
        "velocity": 0.6299212598425197
    },
    {
        "duration": 0.1746826171875,
        "durationTicks": 477,
        "midi": 57,
        "name": "A3",
        "ticks": 102946,
        "time": 37.718654921875,
        "velocity": 0.6299212598425197
    },
    {
        "duration": 0.1856689453125,
        "durationTicks": 507,
        "midi": 60,
        "name": "C4",
        "ticks": 102946,
        "time": 37.718654921875,
        "velocity": 0.7401574803149606
    },
    {
        "duration": 0.173583984375,
        "durationTicks": 474,
        "midi": 69,
        "name": "A4",
        "ticks": 103454,
        "time": 37.904690078125,
        "velocity": 0.6377952755905512
    },
    {
        "duration": 0.1845703125,
        "durationTicks": 504,
        "midi": 81,
        "name": "A5",
        "ticks": 103454,
        "time": 37.904690078125,
        "velocity": 0.7480314960629921
    },
    {
        "duration": 0.173583984375,
        "durationTicks": 474,
        "midi": 33,
        "name": "A1",
        "ticks": 103454,
        "time": 37.904690078125,
        "velocity": 0.6141732283464567
    },
    {
        "duration": 0.1845703125,
        "durationTicks": 504,
        "midi": 45,
        "name": "A2",
        "ticks": 103454,
        "time": 37.904690078125,
        "velocity": 0.7480314960629921
    },
    {
        "duration": 0.1754150390625,
        "durationTicks": 479,
        "midi": 72,
        "name": "C5",
        "ticks": 103959,
        "time": 38.0896266015625,
        "velocity": 0.6299212598425197
    },
    {
        "duration": 0.1864013671875,
        "durationTicks": 509,
        "midi": 84,
        "name": "C6",
        "ticks": 103959,
        "time": 38.0896266015625,
        "velocity": 0.7401574803149606
    },
    {
        "duration": 0.1754150390625,
        "durationTicks": 479,
        "midi": 48,
        "name": "C3",
        "ticks": 103959,
        "time": 38.0896266015625,
        "velocity": 0.6299212598425197
    },
    {
        "duration": 0.1754150390625,
        "durationTicks": 479,
        "midi": 52,
        "name": "E3",
        "ticks": 103959,
        "time": 38.0896266015625,
        "velocity": 0.6299212598425197
    },
    {
        "duration": 0.1864013671875,
        "durationTicks": 509,
        "midi": 57,
        "name": "A3",
        "ticks": 103959,
        "time": 38.0896266015625,
        "velocity": 0.7401574803149606
    },
    {
        "duration": 0.371337890625,
        "durationTicks": 1014,
        "midi": 76,
        "name": "E5",
        "ticks": 104469,
        "time": 38.2763941796875,
        "velocity": 0.6535433070866141
    },
    {
        "duration": 0.371337890625,
        "durationTicks": 1014,
        "midi": 88,
        "name": "E6",
        "ticks": 104469,
        "time": 38.2763941796875,
        "velocity": 0.7637795275590551
    },
    {
        "duration": 0.1754150390625,
        "durationTicks": 479,
        "midi": 33,
        "name": "A1",
        "ticks": 104469,
        "time": 38.2763941796875,
        "velocity": 0.6299212598425197
    },
    {
        "duration": 0.1864013671875,
        "durationTicks": 509,
        "midi": 45,
        "name": "A2",
        "ticks": 104469,
        "time": 38.2763941796875,
        "velocity": 0.7637795275590551
    },
    {
        "duration": 0.173583984375,
        "durationTicks": 474,
        "midi": 52,
        "name": "E3",
        "ticks": 104979,
        "time": 38.4631617578125,
        "velocity": 0.6299212598425197
    },
    {
        "duration": 0.173583984375,
        "durationTicks": 474,
        "midi": 57,
        "name": "A3",
        "ticks": 104979,
        "time": 38.4631617578125,
        "velocity": 0.6299212598425197
    },
    {
        "duration": 0.1845703125,
        "durationTicks": 504,
        "midi": 60,
        "name": "C4",
        "ticks": 104979,
        "time": 38.4631617578125,
        "velocity": 0.7401574803149606
    },
    {
        "duration": 0.173583984375,
        "durationTicks": 474,
        "midi": 74,
        "name": "D5",
        "ticks": 105484,
        "time": 38.64809828125,
        "velocity": 0.6377952755905512
    },
    {
        "duration": 0.1845703125,
        "durationTicks": 504,
        "midi": 86,
        "name": "D6",
        "ticks": 105484,
        "time": 38.64809828125,
        "velocity": 0.7480314960629921
    },
    {
        "duration": 0.173583984375,
        "durationTicks": 474,
        "midi": 33,
        "name": "A1",
        "ticks": 105484,
        "time": 38.64809828125,
        "velocity": 0.6141732283464567
    },
    {
        "duration": 0.1845703125,
        "durationTicks": 504,
        "midi": 45,
        "name": "A2",
        "ticks": 105484,
        "time": 38.64809828125,
        "velocity": 0.7480314960629921
    },
    {
        "duration": 0.17431640625,
        "durationTicks": 476,
        "midi": 72,
        "name": "C5",
        "ticks": 105989,
        "time": 38.8330348046875,
        "velocity": 0.6299212598425197
    },
    {
        "duration": 0.185302734375,
        "durationTicks": 506,
        "midi": 84,
        "name": "C6",
        "ticks": 105989,
        "time": 38.8330348046875,
        "velocity": 0.7401574803149606
    },
    {
        "duration": 0.17431640625,
        "durationTicks": 476,
        "midi": 57,
        "name": "A3",
        "ticks": 105989,
        "time": 38.8330348046875,
        "velocity": 0.6299212598425197
    },
    {
        "duration": 0.17431640625,
        "durationTicks": 476,
        "midi": 60,
        "name": "C4",
        "ticks": 105989,
        "time": 38.8330348046875,
        "velocity": 0.6299212598425197
    },
    {
        "duration": 0.185302734375,
        "durationTicks": 506,
        "midi": 64,
        "name": "E4",
        "ticks": 105989,
        "time": 38.8330348046875,
        "velocity": 0.7401574803149606
    },
    {
        "duration": 0.3841552734375,
        "durationTicks": 1049,
        "midi": 71,
        "name": "B4",
        "ticks": 106500,
        "time": 39.02016859375,
        "velocity": 0.6692913385826772
    },
    {
        "duration": 0.3841552734375,
        "durationTicks": 1049,
        "midi": 83,
        "name": "B5",
        "ticks": 106500,
        "time": 39.02016859375,
        "velocity": 0.7795275590551181
    },
    {
        "duration": 0.1871337890625,
        "durationTicks": 511,
        "midi": 32,
        "name": "G#1",
        "ticks": 106500,
        "time": 39.02016859375,
        "velocity": 0.6456692913385826
    },
    {
        "duration": 0.1981201171875,
        "durationTicks": 541,
        "midi": 44,
        "name": "G#2",
        "ticks": 106500,
        "time": 39.02016859375,
        "velocity": 0.7795275590551181
    },
    {
        "duration": 0.1746826171875,
        "durationTicks": 477,
        "midi": 52,
        "name": "E3",
        "ticks": 107042,
        "time": 39.218654921875,
        "velocity": 0.6299212598425197
    },
    {
        "duration": 0.1746826171875,
        "durationTicks": 477,
        "midi": 56,
        "name": "G#3",
        "ticks": 107042,
        "time": 39.218654921875,
        "velocity": 0.6299212598425197
    },
    {
        "duration": 0.1856689453125,
        "durationTicks": 507,
        "midi": 59,
        "name": "B3",
        "ticks": 107042,
        "time": 39.218654921875,
        "velocity": 0.7401574803149606
    },
    {
        "duration": 0.173583984375,
        "durationTicks": 474,
        "midi": 71,
        "name": "B4",
        "ticks": 107550,
        "time": 39.404690078125,
        "velocity": 0.6377952755905512
    },
    {
        "duration": 0.1845703125,
        "durationTicks": 504,
        "midi": 83,
        "name": "B5",
        "ticks": 107550,
        "time": 39.404690078125,
        "velocity": 0.7480314960629921
    },
    {
        "duration": 0.173583984375,
        "durationTicks": 474,
        "midi": 28,
        "name": "E1",
        "ticks": 107550,
        "time": 39.404690078125,
        "velocity": 0.6062992125984252
    },
    {
        "duration": 0.1845703125,
        "durationTicks": 504,
        "midi": 40,
        "name": "E2",
        "ticks": 107550,
        "time": 39.404690078125,
        "velocity": 0.7401574803149606
    },
    {
        "duration": 0.1754150390625,
        "durationTicks": 479,
        "midi": 72,
        "name": "C5",
        "ticks": 108055,
        "time": 39.5896266015625,
        "velocity": 0.6299212598425197
    },
    {
        "duration": 0.1864013671875,
        "durationTicks": 509,
        "midi": 84,
        "name": "C6",
        "ticks": 108055,
        "time": 39.5896266015625,
        "velocity": 0.7401574803149606
    },
    {
        "duration": 0.1754150390625,
        "durationTicks": 479,
        "midi": 52,
        "name": "E3",
        "ticks": 108055,
        "time": 39.5896266015625,
        "velocity": 0.6299212598425197
    },
    {
        "duration": 0.1754150390625,
        "durationTicks": 479,
        "midi": 56,
        "name": "G#3",
        "ticks": 108055,
        "time": 39.5896266015625,
        "velocity": 0.6299212598425197
    },
    {
        "duration": 0.1864013671875,
        "durationTicks": 509,
        "midi": 59,
        "name": "B3",
        "ticks": 108055,
        "time": 39.5896266015625,
        "velocity": 0.7401574803149606
    },
    {
        "duration": 0.371337890625,
        "durationTicks": 1014,
        "midi": 74,
        "name": "D5",
        "ticks": 108565,
        "time": 39.7763941796875,
        "velocity": 0.6535433070866141
    },
    {
        "duration": 0.371337890625,
        "durationTicks": 1014,
        "midi": 86,
        "name": "D6",
        "ticks": 108565,
        "time": 39.7763941796875,
        "velocity": 0.7637795275590551
    },
    {
        "duration": 0.1754150390625,
        "durationTicks": 479,
        "midi": 32,
        "name": "G#1",
        "ticks": 108565,
        "time": 39.7763941796875,
        "velocity": 0.6299212598425197
    },
    {
        "duration": 0.1864013671875,
        "durationTicks": 509,
        "midi": 44,
        "name": "G#2",
        "ticks": 108565,
        "time": 39.7763941796875,
        "velocity": 0.7637795275590551
    },
    {
        "duration": 0.173583984375,
        "durationTicks": 474,
        "midi": 52,
        "name": "E3",
        "ticks": 109075,
        "time": 39.9631617578125,
        "velocity": 0.6299212598425197
    },
    {
        "duration": 0.173583984375,
        "durationTicks": 474,
        "midi": 56,
        "name": "G#3",
        "ticks": 109075,
        "time": 39.9631617578125,
        "velocity": 0.6299212598425197
    },
    {
        "duration": 0.1845703125,
        "durationTicks": 504,
        "midi": 59,
        "name": "B3",
        "ticks": 109075,
        "time": 39.9631617578125,
        "velocity": 0.6299212598425197
    },
    {
        "duration": 0.1845703125,
        "durationTicks": 504,
        "midi": 64,
        "name": "E4",
        "ticks": 109075,
        "time": 39.9631617578125,
        "velocity": 0.7401574803149606
    },
    {
        "duration": 0.3702392578125,
        "durationTicks": 1011,
        "midi": 76,
        "name": "E5",
        "ticks": 109580,
        "time": 40.14809828125,
        "velocity": 0.6377952755905512
    },
    {
        "duration": 0.3702392578125,
        "durationTicks": 1011,
        "midi": 88,
        "name": "E6",
        "ticks": 109580,
        "time": 40.14809828125,
        "velocity": 0.7480314960629921
    },
    {
        "duration": 0.173583984375,
        "durationTicks": 474,
        "midi": 28,
        "name": "E1",
        "ticks": 109580,
        "time": 40.14809828125,
        "velocity": 0.6062992125984252
    },
    {
        "duration": 0.1845703125,
        "durationTicks": 504,
        "midi": 40,
        "name": "E2",
        "ticks": 109580,
        "time": 40.14809828125,
        "velocity": 0.7401574803149606
    },
    {
        "duration": 0.17431640625,
        "durationTicks": 476,
        "midi": 52,
        "name": "E3",
        "ticks": 110085,
        "time": 40.3330348046875,
        "velocity": 0.6299212598425197
    },
    {
        "duration": 0.17431640625,
        "durationTicks": 476,
        "midi": 56,
        "name": "G#3",
        "ticks": 110085,
        "time": 40.3330348046875,
        "velocity": 0.6299212598425197
    },
    {
        "duration": 0.185302734375,
        "durationTicks": 506,
        "midi": 59,
        "name": "B3",
        "ticks": 110085,
        "time": 40.3330348046875,
        "velocity": 0.6299212598425197
    },
    {
        "duration": 0.185302734375,
        "durationTicks": 506,
        "midi": 64,
        "name": "E4",
        "ticks": 110085,
        "time": 40.3330348046875,
        "velocity": 0.7401574803149606
    },
    {
        "duration": 0.1981201171875,
        "durationTicks": 541,
        "midi": 72,
        "name": "C5",
        "ticks": 110596,
        "time": 40.52016859375,
        "velocity": 0.6692913385826772
    },
    {
        "duration": 0.1981201171875,
        "durationTicks": 541,
        "midi": 84,
        "name": "C6",
        "ticks": 110596,
        "time": 40.52016859375,
        "velocity": 0.7795275590551181
    },
    {
        "duration": 0.1871337890625,
        "durationTicks": 511,
        "midi": 33,
        "name": "A1",
        "ticks": 110596,
        "time": 40.52016859375,
        "velocity": 0.6456692913385826
    },
    {
        "duration": 0.1981201171875,
        "durationTicks": 541,
        "midi": 45,
        "name": "A2",
        "ticks": 110596,
        "time": 40.52016859375,
        "velocity": 0.7795275590551181
    },
    {
        "duration": 0.1746826171875,
        "durationTicks": 477,
        "midi": 64,
        "name": "E4",
        "ticks": 111138,
        "time": 40.718654921875,
        "velocity": 0.6299212598425197
    },
    {
        "duration": 0.1856689453125,
        "durationTicks": 507,
        "midi": 69,
        "name": "A4",
        "ticks": 111138,
        "time": 40.718654921875,
        "velocity": 0.6299212598425197
    },
    {
        "duration": 0.1856689453125,
        "durationTicks": 507,
        "midi": 72,
        "name": "C5",
        "ticks": 111138,
        "time": 40.718654921875,
        "velocity": 0.7401574803149606
    },
    {
        "duration": 0.1746826171875,
        "durationTicks": 477,
        "midi": 48,
        "name": "C3",
        "ticks": 111138,
        "time": 40.718654921875,
        "velocity": 0.6299212598425197
    },
    {
        "duration": 0.1856689453125,
        "durationTicks": 507,
        "midi": 52,
        "name": "E3",
        "ticks": 111138,
        "time": 40.718654921875,
        "velocity": 0.6299212598425197
    },
    {
        "duration": 0.1856689453125,
        "durationTicks": 507,
        "midi": 57,
        "name": "A3",
        "ticks": 111138,
        "time": 40.718654921875,
        "velocity": 0.6299212598425197
    },
    {
        "duration": 0.1856689453125,
        "durationTicks": 507,
        "midi": 60,
        "name": "C4",
        "ticks": 111138,
        "time": 40.718654921875,
        "velocity": 0.7401574803149606
    },
    {
        "duration": 0.1845703125,
        "durationTicks": 504,
        "midi": 69,
        "name": "A4",
        "ticks": 111646,
        "time": 40.904690078125,
        "velocity": 0.6377952755905512
    },
    {
        "duration": 0.1845703125,
        "durationTicks": 504,
        "midi": 81,
        "name": "A5",
        "ticks": 111646,
        "time": 40.904690078125,
        "velocity": 0.7480314960629921
    },
    {
        "duration": 0.173583984375,
        "durationTicks": 474,
        "midi": 21,
        "name": "A0",
        "ticks": 111646,
        "time": 40.904690078125,
        "velocity": 0.6141732283464567
    },
    {
        "duration": 0.1845703125,
        "durationTicks": 504,
        "midi": 33,
        "name": "A1",
        "ticks": 111646,
        "time": 40.904690078125,
        "velocity": 0.7480314960629921
    },
    {
        "duration": 0.1864013671875,
        "durationTicks": 509,
        "midi": 69,
        "name": "A4",
        "ticks": 112151,
        "time": 41.0896266015625,
        "velocity": 0.6299212598425197
    },
    {
        "duration": 0.1754150390625,
        "durationTicks": 479,
        "midi": 72,
        "name": "C5",
        "ticks": 112151,
        "time": 41.0896266015625,
        "velocity": 0.6299212598425197
    },
    {
        "duration": 0.1864013671875,
        "durationTicks": 509,
        "midi": 76,
        "name": "E5",
        "ticks": 112151,
        "time": 41.0896266015625,
        "velocity": 0.7401574803149606
    },
    {
        "duration": 0.1754150390625,
        "durationTicks": 479,
        "midi": 52,
        "name": "E3",
        "ticks": 112151,
        "time": 41.0896266015625,
        "velocity": 0.6299212598425197
    },
    {
        "duration": 0.1864013671875,
        "durationTicks": 509,
        "midi": 57,
        "name": "A3",
        "ticks": 112151,
        "time": 41.0896266015625,
        "velocity": 0.6299212598425197
    },
    {
        "duration": 0.1864013671875,
        "durationTicks": 509,
        "midi": 60,
        "name": "C4",
        "ticks": 112151,
        "time": 41.0896266015625,
        "velocity": 0.6299212598425197
    },
    {
        "duration": 0.1864013671875,
        "durationTicks": 509,
        "midi": 64,
        "name": "E4",
        "ticks": 112151,
        "time": 41.0896266015625,
        "velocity": 0.7401574803149606
    },
    {
        "duration": 0.1754150390625,
        "durationTicks": 479,
        "midi": 69,
        "name": "A4",
        "ticks": 112661,
        "time": 41.2763941796875,
        "velocity": 0.6535433070866141
    },
    {
        "duration": 0.1864013671875,
        "durationTicks": 509,
        "midi": 81,
        "name": "A5",
        "ticks": 112661,
        "time": 41.2763941796875,
        "velocity": 0.7637795275590551
    },
    {
        "duration": 0.1754150390625,
        "durationTicks": 479,
        "midi": 33,
        "name": "A1",
        "ticks": 112661,
        "time": 41.2763941796875,
        "velocity": 0.6299212598425197
    },
    {
        "duration": 0.1864013671875,
        "durationTicks": 509,
        "midi": 45,
        "name": "A2",
        "ticks": 112661,
        "time": 41.2763941796875,
        "velocity": 0.7637795275590551
    },
    {
        "duration": 0.173583984375,
        "durationTicks": 474,
        "midi": 72,
        "name": "C5",
        "ticks": 113171,
        "time": 41.4631617578125,
        "velocity": 0.7165354330708661
    },
    {
        "duration": 0.173583984375,
        "durationTicks": 474,
        "midi": 76,
        "name": "E5",
        "ticks": 113171,
        "time": 41.4631617578125,
        "velocity": 0.7165354330708661
    },
    {
        "duration": 0.1845703125,
        "durationTicks": 504,
        "midi": 81,
        "name": "A5",
        "ticks": 113171,
        "time": 41.4631617578125,
        "velocity": 0.6771653543307087
    },
    {
        "duration": 0.1845703125,
        "durationTicks": 504,
        "midi": 57,
        "name": "A3",
        "ticks": 113171,
        "time": 41.4631617578125,
        "velocity": 0.6299212598425197
    },
    {
        "duration": 0.1845703125,
        "durationTicks": 504,
        "midi": 60,
        "name": "C4",
        "ticks": 113171,
        "time": 41.4631617578125,
        "velocity": 0.6299212598425197
    },
    {
        "duration": 0.1845703125,
        "durationTicks": 504,
        "midi": 64,
        "name": "E4",
        "ticks": 113171,
        "time": 41.4631617578125,
        "velocity": 0.6299212598425197
    },
    {
        "duration": 0.1845703125,
        "durationTicks": 504,
        "midi": 69,
        "name": "A4",
        "ticks": 113171,
        "time": 41.4631617578125,
        "velocity": 0.7401574803149606
    },
    {
        "duration": 0.0882568359375,
        "durationTicks": 241,
        "midi": 81,
        "name": "A5",
        "ticks": 113676,
        "time": 41.64809828125,
        "velocity": 0.7007874015748031
    },
    {
        "duration": 0.0882568359375,
        "durationTicks": 241,
        "midi": 57,
        "name": "A3",
        "ticks": 113676,
        "time": 41.64809828125,
        "velocity": 0.7007874015748031
    },
    {
        "duration": 0.0849609375,
        "durationTicks": 232,
        "midi": 83,
        "name": "B5",
        "ticks": 113933,
        "time": 41.7422144921875,
        "velocity": 0.6929133858267716
    },
    {
        "duration": 0.0849609375,
        "durationTicks": 232,
        "midi": 59,
        "name": "B3",
        "ticks": 113933,
        "time": 41.7422144921875,
        "velocity": 0.6929133858267716
    },
    {
        "duration": 0.0849609375,
        "durationTicks": 232,
        "midi": 84,
        "name": "C6",
        "ticks": 114181,
        "time": 41.8330348046875,
        "velocity": 0.6929133858267716
    },
    {
        "duration": 0.0849609375,
        "durationTicks": 232,
        "midi": 60,
        "name": "C4",
        "ticks": 114181,
        "time": 41.8330348046875,
        "velocity": 0.6929133858267716
    },
    {
        "duration": 0.0889892578125,
        "durationTicks": 243,
        "midi": 86,
        "name": "D6",
        "ticks": 114429,
        "time": 41.9238551171875,
        "velocity": 0.6929133858267716
    },
    {
        "duration": 0.0889892578125,
        "durationTicks": 243,
        "midi": 62,
        "name": "D4",
        "ticks": 114429,
        "time": 41.9238551171875,
        "velocity": 0.6929133858267716
    },
    {
        "duration": 0.1871337890625,
        "durationTicks": 511,
        "midi": 76,
        "name": "E5",
        "ticks": 114692,
        "time": 42.02016859375,
        "velocity": 0.6692913385826772
    },
    {
        "duration": 0.1981201171875,
        "durationTicks": 541,
        "midi": 88,
        "name": "E6",
        "ticks": 114692,
        "time": 42.02016859375,
        "velocity": 0.7795275590551181
    },
    {
        "duration": 0.1871337890625,
        "durationTicks": 511,
        "midi": 52,
        "name": "E3",
        "ticks": 114692,
        "time": 42.02016859375,
        "velocity": 0.6692913385826772
    },
    {
        "duration": 0.1981201171875,
        "durationTicks": 541,
        "midi": 64,
        "name": "E4",
        "ticks": 114692,
        "time": 42.02016859375,
        "velocity": 0.7795275590551181
    },
    {
        "duration": 0.37060546875,
        "durationTicks": 1012,
        "midi": 74,
        "name": "D5",
        "ticks": 115234,
        "time": 42.218654921875,
        "velocity": 0.6299212598425197
    },
    {
        "duration": 0.37060546875,
        "durationTicks": 1012,
        "midi": 86,
        "name": "D6",
        "ticks": 115234,
        "time": 42.218654921875,
        "velocity": 0.7401574803149606
    },
    {
        "duration": 0.1746826171875,
        "durationTicks": 477,
        "midi": 38,
        "name": "D2",
        "ticks": 115234,
        "time": 42.218654921875,
        "velocity": 0.6220472440944882
    },
    {
        "duration": 0.1746826171875,
        "durationTicks": 477,
        "midi": 41,
        "name": "F2",
        "ticks": 115234,
        "time": 42.218654921875,
        "velocity": 0.6299212598425197
    },
    {
        "duration": 0.1856689453125,
        "durationTicks": 507,
        "midi": 45,
        "name": "A2",
        "ticks": 115234,
        "time": 42.218654921875,
        "velocity": 0.7401574803149606
    },
    {
        "duration": 0.173583984375,
        "durationTicks": 474,
        "midi": 50,
        "name": "D3",
        "ticks": 115742,
        "time": 42.404690078125,
        "velocity": 0.6377952755905512
    },
    {
        "duration": 0.1845703125,
        "durationTicks": 504,
        "midi": 65,
        "name": "F4",
        "ticks": 115742,
        "time": 42.404690078125,
        "velocity": 0.7480314960629921
    },
    {
        "duration": 0.1754150390625,
        "durationTicks": 479,
        "midi": 77,
        "name": "F5",
        "ticks": 116247,
        "time": 42.5896266015625,
        "velocity": 0.6299212598425197
    },
    {
        "duration": 0.1864013671875,
        "durationTicks": 509,
        "midi": 89,
        "name": "F6",
        "ticks": 116247,
        "time": 42.5896266015625,
        "velocity": 0.7401574803149606
    },
    {
        "duration": 0.1754150390625,
        "durationTicks": 479,
        "midi": 38,
        "name": "D2",
        "ticks": 116247,
        "time": 42.5896266015625,
        "velocity": 0.6220472440944882
    },
    {
        "duration": 0.1754150390625,
        "durationTicks": 479,
        "midi": 41,
        "name": "F2",
        "ticks": 116247,
        "time": 42.5896266015625,
        "velocity": 0.6299212598425197
    },
    {
        "duration": 0.1864013671875,
        "durationTicks": 509,
        "midi": 45,
        "name": "A2",
        "ticks": 116247,
        "time": 42.5896266015625,
        "velocity": 0.7401574803149606
    },
    {
        "duration": 0.371337890625,
        "durationTicks": 1014,
        "midi": 81,
        "name": "A5",
        "ticks": 116757,
        "time": 42.7763941796875,
        "velocity": 0.6535433070866141
    },
    {
        "duration": 0.371337890625,
        "durationTicks": 1014,
        "midi": 93,
        "name": "A6",
        "ticks": 116757,
        "time": 42.7763941796875,
        "velocity": 0.7637795275590551
    },
    {
        "duration": 0.1754150390625,
        "durationTicks": 479,
        "midi": 57,
        "name": "A3",
        "ticks": 116757,
        "time": 42.7763941796875,
        "velocity": 0.6535433070866141
    },
    {
        "duration": 0.1864013671875,
        "durationTicks": 509,
        "midi": 69,
        "name": "A4",
        "ticks": 116757,
        "time": 42.7763941796875,
        "velocity": 0.7637795275590551
    },
    {
        "duration": 0.173583984375,
        "durationTicks": 474,
        "midi": 38,
        "name": "D2",
        "ticks": 117267,
        "time": 42.9631617578125,
        "velocity": 0.6220472440944882
    },
    {
        "duration": 0.173583984375,
        "durationTicks": 474,
        "midi": 41,
        "name": "F2",
        "ticks": 117267,
        "time": 42.9631617578125,
        "velocity": 0.6299212598425197
    },
    {
        "duration": 0.1845703125,
        "durationTicks": 504,
        "midi": 45,
        "name": "A2",
        "ticks": 117267,
        "time": 42.9631617578125,
        "velocity": 0.7401574803149606
    },
    {
        "duration": 0.173583984375,
        "durationTicks": 474,
        "midi": 79,
        "name": "G5",
        "ticks": 117772,
        "time": 43.14809828125,
        "velocity": 0.6377952755905512
    },
    {
        "duration": 0.1845703125,
        "durationTicks": 504,
        "midi": 91,
        "name": "G6",
        "ticks": 117772,
        "time": 43.14809828125,
        "velocity": 0.7480314960629921
    },
    {
        "duration": 0.173583984375,
        "durationTicks": 474,
        "midi": 45,
        "name": "A2",
        "ticks": 117772,
        "time": 43.14809828125,
        "velocity": 0.6377952755905512
    },
    {
        "duration": 0.1845703125,
        "durationTicks": 504,
        "midi": 57,
        "name": "A3",
        "ticks": 117772,
        "time": 43.14809828125,
        "velocity": 0.7480314960629921
    },
    {
        "duration": 0.17431640625,
        "durationTicks": 476,
        "midi": 77,
        "name": "F5",
        "ticks": 118277,
        "time": 43.3330348046875,
        "velocity": 0.6299212598425197
    },
    {
        "duration": 0.185302734375,
        "durationTicks": 506,
        "midi": 89,
        "name": "F6",
        "ticks": 118277,
        "time": 43.3330348046875,
        "velocity": 0.7401574803149606
    },
    {
        "duration": 0.17431640625,
        "durationTicks": 476,
        "midi": 41,
        "name": "F2",
        "ticks": 118277,
        "time": 43.3330348046875,
        "velocity": 0.6299212598425197
    },
    {
        "duration": 0.185302734375,
        "durationTicks": 506,
        "midi": 53,
        "name": "F3",
        "ticks": 118277,
        "time": 43.3330348046875,
        "velocity": 0.7401574803149606
    },
    {
        "duration": 0.569091796875,
        "durationTicks": 1554,
        "midi": 76,
        "name": "E5",
        "ticks": 118788,
        "time": 43.52016859375,
        "velocity": 0.6692913385826772
    },
    {
        "duration": 0.569091796875,
        "durationTicks": 1554,
        "midi": 88,
        "name": "E6",
        "ticks": 118788,
        "time": 43.52016859375,
        "velocity": 0.7795275590551181
    },
    {
        "duration": 0.1871337890625,
        "durationTicks": 511,
        "midi": 36,
        "name": "C2",
        "ticks": 118788,
        "time": 43.52016859375,
        "velocity": 0.6535433070866141
    },
    {
        "duration": 0.1981201171875,
        "durationTicks": 541,
        "midi": 48,
        "name": "C3",
        "ticks": 118788,
        "time": 43.52016859375,
        "velocity": 0.7795275590551181
    },
    {
        "duration": 0.1856689453125,
        "durationTicks": 507,
        "midi": 48,
        "name": "C3",
        "ticks": 119330,
        "time": 43.718654921875,
        "velocity": 0.6299212598425197
    },
    {
        "duration": 0.1856689453125,
        "durationTicks": 507,
        "midi": 60,
        "name": "C4",
        "ticks": 119330,
        "time": 43.718654921875,
        "velocity": 0.7401574803149606
    },
    {
        "duration": 0.173583984375,
        "durationTicks": 474,
        "midi": 36,
        "name": "C2",
        "ticks": 119838,
        "time": 43.904690078125,
        "velocity": 0.6220472440944882
    },
    {
        "duration": 0.1845703125,
        "durationTicks": 504,
        "midi": 48,
        "name": "C3",
        "ticks": 119838,
        "time": 43.904690078125,
        "velocity": 0.7480314960629921
    },
    {
        "duration": 0.1754150390625,
        "durationTicks": 479,
        "midi": 72,
        "name": "C5",
        "ticks": 120343,
        "time": 44.0896266015625,
        "velocity": 0.6299212598425197
    },
    {
        "duration": 0.1864013671875,
        "durationTicks": 509,
        "midi": 84,
        "name": "C6",
        "ticks": 120343,
        "time": 44.0896266015625,
        "velocity": 0.7401574803149606
    },
    {
        "duration": 0.1864013671875,
        "durationTicks": 509,
        "midi": 48,
        "name": "C3",
        "ticks": 120343,
        "time": 44.0896266015625,
        "velocity": 0.6299212598425197
    },
    {
        "duration": 0.1864013671875,
        "durationTicks": 509,
        "midi": 60,
        "name": "C4",
        "ticks": 120343,
        "time": 44.0896266015625,
        "velocity": 0.7401574803149606
    },
    {
        "duration": 0.371337890625,
        "durationTicks": 1014,
        "midi": 76,
        "name": "E5",
        "ticks": 120853,
        "time": 44.2763941796875,
        "velocity": 0.6535433070866141
    },
    {
        "duration": 0.371337890625,
        "durationTicks": 1014,
        "midi": 88,
        "name": "E6",
        "ticks": 120853,
        "time": 44.2763941796875,
        "velocity": 0.7637795275590551
    },
    {
        "duration": 0.1754150390625,
        "durationTicks": 479,
        "midi": 36,
        "name": "C2",
        "ticks": 120853,
        "time": 44.2763941796875,
        "velocity": 0.6377952755905512
    },
    {
        "duration": 0.1864013671875,
        "durationTicks": 509,
        "midi": 48,
        "name": "C3",
        "ticks": 120853,
        "time": 44.2763941796875,
        "velocity": 0.7637795275590551
    },
    {
        "duration": 0.173583984375,
        "durationTicks": 474,
        "midi": 52,
        "name": "E3",
        "ticks": 121363,
        "time": 44.4631617578125,
        "velocity": 0.6299212598425197
    },
    {
        "duration": 0.173583984375,
        "durationTicks": 474,
        "midi": 57,
        "name": "A3",
        "ticks": 121363,
        "time": 44.4631617578125,
        "velocity": 0.6299212598425197
    },
    {
        "duration": 0.1845703125,
        "durationTicks": 504,
        "midi": 60,
        "name": "C4",
        "ticks": 121363,
        "time": 44.4631617578125,
        "velocity": 0.7401574803149606
    },
    {
        "duration": 0.173583984375,
        "durationTicks": 474,
        "midi": 74,
        "name": "D5",
        "ticks": 121868,
        "time": 44.64809828125,
        "velocity": 0.6377952755905512
    },
    {
        "duration": 0.1845703125,
        "durationTicks": 504,
        "midi": 86,
        "name": "D6",
        "ticks": 121868,
        "time": 44.64809828125,
        "velocity": 0.7480314960629921
    },
    {
        "duration": 0.173583984375,
        "durationTicks": 474,
        "midi": 31,
        "name": "G1",
        "ticks": 121868,
        "time": 44.64809828125,
        "velocity": 0.6141732283464567
    },
    {
        "duration": 0.1845703125,
        "durationTicks": 504,
        "midi": 43,
        "name": "G2",
        "ticks": 121868,
        "time": 44.64809828125,
        "velocity": 0.7480314960629921
    },
    {
        "duration": 0.17431640625,
        "durationTicks": 476,
        "midi": 72,
        "name": "C5",
        "ticks": 122373,
        "time": 44.8330348046875,
        "velocity": 0.6299212598425197
    },
    {
        "duration": 0.185302734375,
        "durationTicks": 506,
        "midi": 84,
        "name": "C6",
        "ticks": 122373,
        "time": 44.8330348046875,
        "velocity": 0.7401574803149606
    },
    {
        "duration": 0.17431640625,
        "durationTicks": 476,
        "midi": 52,
        "name": "E3",
        "ticks": 122373,
        "time": 44.8330348046875,
        "velocity": 0.6299212598425197
    },
    {
        "duration": 0.17431640625,
        "durationTicks": 476,
        "midi": 57,
        "name": "A3",
        "ticks": 122373,
        "time": 44.8330348046875,
        "velocity": 0.6299212598425197
    },
    {
        "duration": 0.185302734375,
        "durationTicks": 506,
        "midi": 60,
        "name": "C4",
        "ticks": 122373,
        "time": 44.8330348046875,
        "velocity": 0.7401574803149606
    },
    {
        "duration": 0.3841552734375,
        "durationTicks": 1049,
        "midi": 71,
        "name": "B4",
        "ticks": 122884,
        "time": 45.02016859375,
        "velocity": 0.6692913385826772
    },
    {
        "duration": 0.3841552734375,
        "durationTicks": 1049,
        "midi": 83,
        "name": "B5",
        "ticks": 122884,
        "time": 45.02016859375,
        "velocity": 0.7795275590551181
    },
    {
        "duration": 0.1871337890625,
        "durationTicks": 511,
        "midi": 35,
        "name": "B1",
        "ticks": 122884,
        "time": 45.02016859375,
        "velocity": 0.6535433070866141
    },
    {
        "duration": 0.1981201171875,
        "durationTicks": 541,
        "midi": 47,
        "name": "B2",
        "ticks": 122884,
        "time": 45.02016859375,
        "velocity": 0.7795275590551181
    },
    {
        "duration": 0.1856689453125,
        "durationTicks": 507,
        "midi": 47,
        "name": "B2",
        "ticks": 123426,
        "time": 45.218654921875,
        "velocity": 0.6299212598425197
    },
    {
        "duration": 0.1856689453125,
        "durationTicks": 507,
        "midi": 59,
        "name": "B3",
        "ticks": 123426,
        "time": 45.218654921875,
        "velocity": 0.7401574803149606
    },
    {
        "duration": 0.173583984375,
        "durationTicks": 474,
        "midi": 71,
        "name": "B4",
        "ticks": 123934,
        "time": 45.404690078125,
        "velocity": 0.6377952755905512
    },
    {
        "duration": 0.1845703125,
        "durationTicks": 504,
        "midi": 83,
        "name": "B5",
        "ticks": 123934,
        "time": 45.404690078125,
        "velocity": 0.7480314960629921
    },
    {
        "duration": 0.173583984375,
        "durationTicks": 474,
        "midi": 35,
        "name": "B1",
        "ticks": 123934,
        "time": 45.404690078125,
        "velocity": 0.6220472440944882
    },
    {
        "duration": 0.1845703125,
        "durationTicks": 504,
        "midi": 47,
        "name": "B2",
        "ticks": 123934,
        "time": 45.404690078125,
        "velocity": 0.7480314960629921
    },
    {
        "duration": 0.1754150390625,
        "durationTicks": 479,
        "midi": 72,
        "name": "C5",
        "ticks": 124439,
        "time": 45.5896266015625,
        "velocity": 0.6299212598425197
    },
    {
        "duration": 0.1864013671875,
        "durationTicks": 509,
        "midi": 84,
        "name": "C6",
        "ticks": 124439,
        "time": 45.5896266015625,
        "velocity": 0.7401574803149606
    },
    {
        "duration": 0.1754150390625,
        "durationTicks": 479,
        "midi": 47,
        "name": "B2",
        "ticks": 124439,
        "time": 45.5896266015625,
        "velocity": 0.6299212598425197
    },
    {
        "duration": 0.1864013671875,
        "durationTicks": 509,
        "midi": 59,
        "name": "B3",
        "ticks": 124439,
        "time": 45.5896266015625,
        "velocity": 0.7401574803149606
    },
    {
        "duration": 0.371337890625,
        "durationTicks": 1014,
        "midi": 74,
        "name": "D5",
        "ticks": 124949,
        "time": 45.7763941796875,
        "velocity": 0.6535433070866141
    },
    {
        "duration": 0.371337890625,
        "durationTicks": 1014,
        "midi": 86,
        "name": "D6",
        "ticks": 124949,
        "time": 45.7763941796875,
        "velocity": 0.7637795275590551
    },
    {
        "duration": 0.1754150390625,
        "durationTicks": 479,
        "midi": 50,
        "name": "D3",
        "ticks": 124949,
        "time": 45.7763941796875,
        "velocity": 0.6535433070866141
    },
    {
        "duration": 0.1864013671875,
        "durationTicks": 509,
        "midi": 62,
        "name": "D4",
        "ticks": 124949,
        "time": 45.7763941796875,
        "velocity": 0.7637795275590551
    },
    {
        "duration": 0.173583984375,
        "durationTicks": 474,
        "midi": 40,
        "name": "E2",
        "ticks": 125459,
        "time": 45.9631617578125,
        "velocity": 0.6220472440944882
    },
    {
        "duration": 0.1845703125,
        "durationTicks": 504,
        "midi": 52,
        "name": "E3",
        "ticks": 125459,
        "time": 45.9631617578125,
        "velocity": 0.7401574803149606
    },
    {
        "duration": 0.3702392578125,
        "durationTicks": 1011,
        "midi": 76,
        "name": "E5",
        "ticks": 125964,
        "time": 46.14809828125,
        "velocity": 0.6377952755905512
    },
    {
        "duration": 0.3702392578125,
        "durationTicks": 1011,
        "midi": 88,
        "name": "E6",
        "ticks": 125964,
        "time": 46.14809828125,
        "velocity": 0.7480314960629921
    },
    {
        "duration": 0.173583984375,
        "durationTicks": 474,
        "midi": 52,
        "name": "E3",
        "ticks": 125964,
        "time": 46.14809828125,
        "velocity": 0.6377952755905512
    },
    {
        "duration": 0.1845703125,
        "durationTicks": 504,
        "midi": 56,
        "name": "G#3",
        "ticks": 125964,
        "time": 46.14809828125,
        "velocity": 0.6377952755905512
    },
    {
        "duration": 0.1845703125,
        "durationTicks": 504,
        "midi": 59,
        "name": "B3",
        "ticks": 125964,
        "time": 46.14809828125,
        "velocity": 0.7480314960629921
    },
    {
        "duration": 0.17431640625,
        "durationTicks": 476,
        "midi": 44,
        "name": "G#2",
        "ticks": 126469,
        "time": 46.3330348046875,
        "velocity": 0.6299212598425197
    },
    {
        "duration": 0.185302734375,
        "durationTicks": 506,
        "midi": 56,
        "name": "G#3",
        "ticks": 126469,
        "time": 46.3330348046875,
        "velocity": 0.7401574803149606
    },
    {
        "duration": 0.3841552734375,
        "durationTicks": 1049,
        "midi": 72,
        "name": "C5",
        "ticks": 126980,
        "time": 46.52016859375,
        "velocity": 0.6692913385826772
    },
    {
        "duration": 0.3841552734375,
        "durationTicks": 1049,
        "midi": 84,
        "name": "C6",
        "ticks": 126980,
        "time": 46.52016859375,
        "velocity": 0.7795275590551181
    },
    {
        "duration": 0.1871337890625,
        "durationTicks": 511,
        "midi": 33,
        "name": "A1",
        "ticks": 126980,
        "time": 46.52016859375,
        "velocity": 0.6456692913385826
    },
    {
        "duration": 0.1981201171875,
        "durationTicks": 541,
        "midi": 45,
        "name": "A2",
        "ticks": 126980,
        "time": 46.52016859375,
        "velocity": 0.7795275590551181
    },
    {
        "duration": 0.1746826171875,
        "durationTicks": 477,
        "midi": 48,
        "name": "C3",
        "ticks": 127522,
        "time": 46.718654921875,
        "velocity": 0.6299212598425197
    },
    {
        "duration": 0.1746826171875,
        "durationTicks": 477,
        "midi": 52,
        "name": "E3",
        "ticks": 127522,
        "time": 46.718654921875,
        "velocity": 0.6299212598425197
    },
    {
        "duration": 0.1856689453125,
        "durationTicks": 507,
        "midi": 57,
        "name": "A3",
        "ticks": 127522,
        "time": 46.718654921875,
        "velocity": 0.7401574803149606
    },
    {
        "duration": 0.371337890625,
        "durationTicks": 1014,
        "midi": 69,
        "name": "A4",
        "ticks": 128030,
        "time": 46.904690078125,
        "velocity": 0.6377952755905512
    },
    {
        "duration": 0.371337890625,
        "durationTicks": 1014,
        "midi": 81,
        "name": "A5",
        "ticks": 128030,
        "time": 46.904690078125,
        "velocity": 0.7480314960629921
    },
    {
        "duration": 0.173583984375,
        "durationTicks": 474,
        "midi": 33,
        "name": "A1",
        "ticks": 128030,
        "time": 46.904690078125,
        "velocity": 0.6141732283464567
    },
    {
        "duration": 0.1845703125,
        "durationTicks": 504,
        "midi": 45,
        "name": "A2",
        "ticks": 128030,
        "time": 46.904690078125,
        "velocity": 0.7480314960629921
    },
    {
        "duration": 0.1754150390625,
        "durationTicks": 479,
        "midi": 52,
        "name": "E3",
        "ticks": 128535,
        "time": 47.0896266015625,
        "velocity": 0.6299212598425197
    },
    {
        "duration": 0.1754150390625,
        "durationTicks": 479,
        "midi": 57,
        "name": "A3",
        "ticks": 128535,
        "time": 47.0896266015625,
        "velocity": 0.6299212598425197
    },
    {
        "duration": 0.1864013671875,
        "durationTicks": 509,
        "midi": 60,
        "name": "C4",
        "ticks": 128535,
        "time": 47.0896266015625,
        "velocity": 0.7401574803149606
    },
    {
        "duration": 0.3750084267578089,
        "durationTicks": 1014,
        "midi": 69,
        "name": "A4",
        "ticks": 129045,
        "time": 47.2763941796875,
        "velocity": 0.6535433070866141
    },
    {
        "duration": 0.3750084267578089,
        "durationTicks": 1014,
        "midi": 81,
        "name": "A5",
        "ticks": 129045,
        "time": 47.2763941796875,
        "velocity": 0.7637795275590551
    },
    {
        "duration": 0.17597690624999984,
        "durationTicks": 479,
        "midi": 33,
        "name": "A1",
        "ticks": 129045,
        "time": 47.2763941796875,
        "velocity": 0.6299212598425197
    },
    {
        "duration": 0.18707429296874523,
        "durationTicks": 509,
        "midi": 45,
        "name": "A2",
        "ticks": 129045,
        "time": 47.2763941796875,
        "velocity": 0.7637795275590551
    },
    {
        "duration": 0.17634072949219615,
        "durationTicks": 474,
        "midi": 57,
        "name": "A3",
        "ticks": 129555,
        "time": 47.46383931835937,
        "velocity": 0.6299212598425197
    },
    {
        "duration": 0.17634072949219615,
        "durationTicks": 474,
        "midi": 60,
        "name": "C4",
        "ticks": 129555,
        "time": 47.46383931835937,
        "velocity": 0.6299212598425197
    },
    {
        "duration": 0.18756328808593992,
        "durationTicks": 504,
        "midi": 64,
        "name": "E4",
        "ticks": 129555,
        "time": 47.46383931835937,
        "velocity": 0.7401574803149606
    },
    {
        "duration": 0.09051974121093309,
        "durationTicks": 241,
        "midi": 40,
        "name": "E2",
        "ticks": 130060,
        "time": 47.65177820703125,
        "velocity": 0.6299212598425197
    },
    {
        "duration": 0.09615374999999915,
        "durationTicks": 256,
        "midi": 52,
        "name": "E3",
        "ticks": 130060,
        "time": 47.65177820703125,
        "velocity": 0.7480314960629921
    },
    {
        "duration": 0.08713933593750056,
        "durationTicks": 232,
        "midi": 38,
        "name": "D2",
        "ticks": 130317,
        "time": 47.74830755761718,
        "velocity": 0.6220472440944882
    },
    {
        "duration": 0.0927830361328148,
        "durationTicks": 247,
        "midi": 50,
        "name": "D3",
        "ticks": 130317,
        "time": 47.74830755761718,
        "velocity": 0.7401574803149606
    },
    {
        "duration": 0.08770143750000159,
        "durationTicks": 232,
        "midi": 36,
        "name": "C2",
        "ticks": 130565,
        "time": 47.841468617187495,
        "velocity": 0.6141732283464567
    },
    {
        "duration": 0.09337178906250188,
        "durationTicks": 247,
        "midi": 48,
        "name": "C3",
        "ticks": 130565,
        "time": 47.841468617187495,
        "velocity": 0.7401574803149606
    },
    {
        "duration": 0.09244891406250133,
        "durationTicks": 243,
        "midi": 35,
        "name": "B1",
        "ticks": 130813,
        "time": 47.935218429687495,
        "velocity": 0.6141732283464567
    },
    {
        "duration": 0.09815609179688067,
        "durationTicks": 258,
        "midi": 47,
        "name": "B2",
        "ticks": 130813,
        "time": 47.935218429687495,
        "velocity": 0.7401574803149606
    },
    {
        "duration": 0.3877507031250005,
        "durationTicks": 1049,
        "midi": 88,
        "name": "E6",
        "ticks": 131076,
        "time": 48.0352769140625,
        "velocity": 0.6692913385826772
    },
    {
        "duration": 0.3877507031250005,
        "durationTicks": 1049,
        "midi": 100,
        "name": "E7",
        "ticks": 131076,
        "time": 48.0352769140625,
        "velocity": 0.7795275590551181
    },
    {
        "duration": 0.19072921875000048,
        "durationTicks": 511,
        "midi": 28,
        "name": "E1",
        "ticks": 131076,
        "time": 48.0352769140625,
        "velocity": 0.6377952755905512
    },
    {
        "duration": 0.20171554687500048,
        "durationTicks": 541,
        "midi": 40,
        "name": "E2",
        "ticks": 131076,
        "time": 48.0352769140625,
        "velocity": 0.7716535433070866
    },
    {
        "duration": 0.1746826171875,
        "durationTicks": 477,
        "midi": 52,
        "name": "E3",
        "ticks": 131618,
        "time": 48.237358671875,
        "velocity": 0.6299212598425197
    },
    {
        "duration": 0.1746826171875,
        "durationTicks": 477,
        "midi": 55,
        "name": "G3",
        "ticks": 131618,
        "time": 48.237358671875,
        "velocity": 0.6299212598425197
    },
    {
        "duration": 0.1856689453125,
        "durationTicks": 507,
        "midi": 59,
        "name": "B3",
        "ticks": 131618,
        "time": 48.237358671875,
        "velocity": 0.7401574803149606
    },
    {
        "duration": 0.173583984375,
        "durationTicks": 474,
        "midi": 83,
        "name": "B5",
        "ticks": 132126,
        "time": 48.423393828125,
        "velocity": 0.6377952755905512
    },
    {
        "duration": 0.1845703125,
        "durationTicks": 504,
        "midi": 95,
        "name": "B6",
        "ticks": 132126,
        "time": 48.423393828125,
        "velocity": 0.7480314960629921
    },
    {
        "duration": 0.173583984375,
        "durationTicks": 474,
        "midi": 28,
        "name": "E1",
        "ticks": 132126,
        "time": 48.423393828125,
        "velocity": 0.6062992125984252
    },
    {
        "duration": 0.1845703125,
        "durationTicks": 504,
        "midi": 40,
        "name": "E2",
        "ticks": 132126,
        "time": 48.423393828125,
        "velocity": 0.7401574803149606
    },
    {
        "duration": 0.1754150390625,
        "durationTicks": 479,
        "midi": 84,
        "name": "C6",
        "ticks": 132631,
        "time": 48.6083303515625,
        "velocity": 0.6299212598425197
    },
    {
        "duration": 0.1864013671875,
        "durationTicks": 509,
        "midi": 96,
        "name": "C7",
        "ticks": 132631,
        "time": 48.6083303515625,
        "velocity": 0.7401574803149606
    },
    {
        "duration": 0.1754150390625,
        "durationTicks": 479,
        "midi": 52,
        "name": "E3",
        "ticks": 132631,
        "time": 48.6083303515625,
        "velocity": 0.6299212598425197
    },
    {
        "duration": 0.1754150390625,
        "durationTicks": 479,
        "midi": 55,
        "name": "G3",
        "ticks": 132631,
        "time": 48.6083303515625,
        "velocity": 0.6299212598425197
    },
    {
        "duration": 0.1864013671875,
        "durationTicks": 509,
        "midi": 59,
        "name": "B3",
        "ticks": 132631,
        "time": 48.6083303515625,
        "velocity": 0.7401574803149606
    },
    {
        "duration": 0.1754150390625,
        "durationTicks": 479,
        "midi": 86,
        "name": "D6",
        "ticks": 133141,
        "time": 48.7950979296875,
        "velocity": 0.6535433070866141
    },
    {
        "duration": 0.1864013671875,
        "durationTicks": 509,
        "midi": 98,
        "name": "D7",
        "ticks": 133141,
        "time": 48.7950979296875,
        "velocity": 0.7637795275590551
    },
    {
        "duration": 0.1754150390625,
        "durationTicks": 479,
        "midi": 28,
        "name": "E1",
        "ticks": 133141,
        "time": 48.7950979296875,
        "velocity": 0.6220472440944882
    },
    {
        "duration": 0.1864013671875,
        "durationTicks": 509,
        "midi": 40,
        "name": "E2",
        "ticks": 133141,
        "time": 48.7950979296875,
        "velocity": 0.7559055118110236
    },
    {
        "duration": 0.0849609375,
        "durationTicks": 232,
        "midi": 100,
        "name": "E7",
        "ticks": 133651,
        "time": 48.9818655078125,
        "velocity": 0.6929133858267716
    },
    {
        "duration": 0.173583984375,
        "durationTicks": 474,
        "midi": 52,
        "name": "E3",
        "ticks": 133651,
        "time": 48.9818655078125,
        "velocity": 0.6299212598425197
    },
    {
        "duration": 0.173583984375,
        "durationTicks": 474,
        "midi": 55,
        "name": "G3",
        "ticks": 133651,
        "time": 48.9818655078125,
        "velocity": 0.6299212598425197
    },
    {
        "duration": 0.1845703125,
        "durationTicks": 504,
        "midi": 59,
        "name": "B3",
        "ticks": 133651,
        "time": 48.9818655078125,
        "velocity": 0.7401574803149606
    },
    {
        "duration": 0.0882568359375,
        "durationTicks": 241,
        "midi": 98,
        "name": "D7",
        "ticks": 133899,
        "time": 49.0726858203125,
        "velocity": 0.6929133858267716
    },
    {
        "duration": 0.173583984375,
        "durationTicks": 474,
        "midi": 84,
        "name": "C6",
        "ticks": 134156,
        "time": 49.16680203125,
        "velocity": 0.6377952755905512
    },
    {
        "duration": 0.1845703125,
        "durationTicks": 504,
        "midi": 96,
        "name": "C7",
        "ticks": 134156,
        "time": 49.16680203125,
        "velocity": 0.7480314960629921
    },
    {
        "duration": 0.173583984375,
        "durationTicks": 474,
        "midi": 28,
        "name": "E1",
        "ticks": 134156,
        "time": 49.16680203125,
        "velocity": 0.6062992125984252
    },
    {
        "duration": 0.1845703125,
        "durationTicks": 504,
        "midi": 40,
        "name": "E2",
        "ticks": 134156,
        "time": 49.16680203125,
        "velocity": 0.7401574803149606
    },
    {
        "duration": 0.17431640625,
        "durationTicks": 476,
        "midi": 83,
        "name": "B5",
        "ticks": 134661,
        "time": 49.3517385546875,
        "velocity": 0.6299212598425197
    },
    {
        "duration": 0.185302734375,
        "durationTicks": 506,
        "midi": 95,
        "name": "B6",
        "ticks": 134661,
        "time": 49.3517385546875,
        "velocity": 0.7401574803149606
    },
    {
        "duration": 0.17431640625,
        "durationTicks": 476,
        "midi": 52,
        "name": "E3",
        "ticks": 134661,
        "time": 49.3517385546875,
        "velocity": 0.6299212598425197
    },
    {
        "duration": 0.17431640625,
        "durationTicks": 476,
        "midi": 55,
        "name": "G3",
        "ticks": 134661,
        "time": 49.3517385546875,
        "velocity": 0.6299212598425197
    },
    {
        "duration": 0.185302734375,
        "durationTicks": 506,
        "midi": 59,
        "name": "B3",
        "ticks": 134661,
        "time": 49.3517385546875,
        "velocity": 0.7401574803149606
    },
    {
        "duration": 0.3841552734375,
        "durationTicks": 1049,
        "midi": 81,
        "name": "A5",
        "ticks": 135172,
        "time": 49.53887234375,
        "velocity": 0.6692913385826772
    },
    {
        "duration": 0.3841552734375,
        "durationTicks": 1049,
        "midi": 93,
        "name": "A6",
        "ticks": 135172,
        "time": 49.53887234375,
        "velocity": 0.7795275590551181
    },
    {
        "duration": 0.1871337890625,
        "durationTicks": 511,
        "midi": 33,
        "name": "A1",
        "ticks": 135172,
        "time": 49.53887234375,
        "velocity": 0.6456692913385826
    },
    {
        "duration": 0.1981201171875,
        "durationTicks": 541,
        "midi": 45,
        "name": "A2",
        "ticks": 135172,
        "time": 49.53887234375,
        "velocity": 0.7795275590551181
    },
    {
        "duration": 0.1746826171875,
        "durationTicks": 477,
        "midi": 52,
        "name": "E3",
        "ticks": 135714,
        "time": 49.737358671875,
        "velocity": 0.6299212598425197
    },
    {
        "duration": 0.1746826171875,
        "durationTicks": 477,
        "midi": 57,
        "name": "A3",
        "ticks": 135714,
        "time": 49.737358671875,
        "velocity": 0.6299212598425197
    },
    {
        "duration": 0.1856689453125,
        "durationTicks": 507,
        "midi": 60,
        "name": "C4",
        "ticks": 135714,
        "time": 49.737358671875,
        "velocity": 0.7401574803149606
    },
    {
        "duration": 0.173583984375,
        "durationTicks": 474,
        "midi": 81,
        "name": "A5",
        "ticks": 136222,
        "time": 49.923393828125,
        "velocity": 0.6377952755905512
    },
    {
        "duration": 0.1845703125,
        "durationTicks": 504,
        "midi": 93,
        "name": "A6",
        "ticks": 136222,
        "time": 49.923393828125,
        "velocity": 0.7480314960629921
    },
    {
        "duration": 0.173583984375,
        "durationTicks": 474,
        "midi": 33,
        "name": "A1",
        "ticks": 136222,
        "time": 49.923393828125,
        "velocity": 0.6141732283464567
    },
    {
        "duration": 0.1845703125,
        "durationTicks": 504,
        "midi": 45,
        "name": "A2",
        "ticks": 136222,
        "time": 49.923393828125,
        "velocity": 0.7480314960629921
    },
    {
        "duration": 0.1754150390625,
        "durationTicks": 479,
        "midi": 84,
        "name": "C6",
        "ticks": 136727,
        "time": 50.1083303515625,
        "velocity": 0.6299212598425197
    },
    {
        "duration": 0.1864013671875,
        "durationTicks": 509,
        "midi": 96,
        "name": "C7",
        "ticks": 136727,
        "time": 50.1083303515625,
        "velocity": 0.7401574803149606
    },
    {
        "duration": 0.1754150390625,
        "durationTicks": 479,
        "midi": 48,
        "name": "C3",
        "ticks": 136727,
        "time": 50.1083303515625,
        "velocity": 0.6299212598425197
    },
    {
        "duration": 0.1754150390625,
        "durationTicks": 479,
        "midi": 52,
        "name": "E3",
        "ticks": 136727,
        "time": 50.1083303515625,
        "velocity": 0.6299212598425197
    },
    {
        "duration": 0.1864013671875,
        "durationTicks": 509,
        "midi": 57,
        "name": "A3",
        "ticks": 136727,
        "time": 50.1083303515625,
        "velocity": 0.7401574803149606
    },
    {
        "duration": 0.371337890625,
        "durationTicks": 1014,
        "midi": 88,
        "name": "E6",
        "ticks": 137237,
        "time": 50.2950979296875,
        "velocity": 0.6535433070866141
    },
    {
        "duration": 0.371337890625,
        "durationTicks": 1014,
        "midi": 100,
        "name": "E7",
        "ticks": 137237,
        "time": 50.2950979296875,
        "velocity": 0.7637795275590551
    },
    {
        "duration": 0.1754150390625,
        "durationTicks": 479,
        "midi": 33,
        "name": "A1",
        "ticks": 137237,
        "time": 50.2950979296875,
        "velocity": 0.6299212598425197
    },
    {
        "duration": 0.1864013671875,
        "durationTicks": 509,
        "midi": 45,
        "name": "A2",
        "ticks": 137237,
        "time": 50.2950979296875,
        "velocity": 0.7637795275590551
    },
    {
        "duration": 0.173583984375,
        "durationTicks": 474,
        "midi": 52,
        "name": "E3",
        "ticks": 137747,
        "time": 50.4818655078125,
        "velocity": 0.6299212598425197
    },
    {
        "duration": 0.173583984375,
        "durationTicks": 474,
        "midi": 57,
        "name": "A3",
        "ticks": 137747,
        "time": 50.4818655078125,
        "velocity": 0.6299212598425197
    },
    {
        "duration": 0.1845703125,
        "durationTicks": 504,
        "midi": 60,
        "name": "C4",
        "ticks": 137747,
        "time": 50.4818655078125,
        "velocity": 0.7401574803149606
    },
    {
        "duration": 0.173583984375,
        "durationTicks": 474,
        "midi": 86,
        "name": "D6",
        "ticks": 138252,
        "time": 50.66680203125,
        "velocity": 0.6377952755905512
    },
    {
        "duration": 0.1845703125,
        "durationTicks": 504,
        "midi": 98,
        "name": "D7",
        "ticks": 138252,
        "time": 50.66680203125,
        "velocity": 0.7480314960629921
    },
    {
        "duration": 0.173583984375,
        "durationTicks": 474,
        "midi": 33,
        "name": "A1",
        "ticks": 138252,
        "time": 50.66680203125,
        "velocity": 0.6141732283464567
    },
    {
        "duration": 0.1845703125,
        "durationTicks": 504,
        "midi": 45,
        "name": "A2",
        "ticks": 138252,
        "time": 50.66680203125,
        "velocity": 0.7480314960629921
    },
    {
        "duration": 0.17431640625,
        "durationTicks": 476,
        "midi": 84,
        "name": "C6",
        "ticks": 138757,
        "time": 50.8517385546875,
        "velocity": 0.6299212598425197
    },
    {
        "duration": 0.185302734375,
        "durationTicks": 506,
        "midi": 96,
        "name": "C7",
        "ticks": 138757,
        "time": 50.8517385546875,
        "velocity": 0.7401574803149606
    },
    {
        "duration": 0.17431640625,
        "durationTicks": 476,
        "midi": 57,
        "name": "A3",
        "ticks": 138757,
        "time": 50.8517385546875,
        "velocity": 0.6299212598425197
    },
    {
        "duration": 0.17431640625,
        "durationTicks": 476,
        "midi": 60,
        "name": "C4",
        "ticks": 138757,
        "time": 50.8517385546875,
        "velocity": 0.6299212598425197
    },
    {
        "duration": 0.185302734375,
        "durationTicks": 506,
        "midi": 64,
        "name": "E4",
        "ticks": 138757,
        "time": 50.8517385546875,
        "velocity": 0.7401574803149606
    },
    {
        "duration": 0.3841552734375,
        "durationTicks": 1049,
        "midi": 83,
        "name": "B5",
        "ticks": 139268,
        "time": 51.03887234375,
        "velocity": 0.6692913385826772
    },
    {
        "duration": 0.3841552734375,
        "durationTicks": 1049,
        "midi": 95,
        "name": "B6",
        "ticks": 139268,
        "time": 51.03887234375,
        "velocity": 0.7795275590551181
    },
    {
        "duration": 0.1871337890625,
        "durationTicks": 511,
        "midi": 32,
        "name": "G#1",
        "ticks": 139268,
        "time": 51.03887234375,
        "velocity": 0.6456692913385826
    },
    {
        "duration": 0.1981201171875,
        "durationTicks": 541,
        "midi": 44,
        "name": "G#2",
        "ticks": 139268,
        "time": 51.03887234375,
        "velocity": 0.7795275590551181
    },
    {
        "duration": 0.1746826171875,
        "durationTicks": 477,
        "midi": 52,
        "name": "E3",
        "ticks": 139810,
        "time": 51.237358671875,
        "velocity": 0.6299212598425197
    },
    {
        "duration": 0.1746826171875,
        "durationTicks": 477,
        "midi": 56,
        "name": "G#3",
        "ticks": 139810,
        "time": 51.237358671875,
        "velocity": 0.6299212598425197
    },
    {
        "duration": 0.1856689453125,
        "durationTicks": 507,
        "midi": 59,
        "name": "B3",
        "ticks": 139810,
        "time": 51.237358671875,
        "velocity": 0.7401574803149606
    },
    {
        "duration": 0.173583984375,
        "durationTicks": 474,
        "midi": 83,
        "name": "B5",
        "ticks": 140318,
        "time": 51.423393828125,
        "velocity": 0.6377952755905512
    },
    {
        "duration": 0.1845703125,
        "durationTicks": 504,
        "midi": 95,
        "name": "B6",
        "ticks": 140318,
        "time": 51.423393828125,
        "velocity": 0.7480314960629921
    },
    {
        "duration": 0.173583984375,
        "durationTicks": 474,
        "midi": 28,
        "name": "E1",
        "ticks": 140318,
        "time": 51.423393828125,
        "velocity": 0.6062992125984252
    },
    {
        "duration": 0.1845703125,
        "durationTicks": 504,
        "midi": 40,
        "name": "E2",
        "ticks": 140318,
        "time": 51.423393828125,
        "velocity": 0.7401574803149606
    },
    {
        "duration": 0.1754150390625,
        "durationTicks": 479,
        "midi": 84,
        "name": "C6",
        "ticks": 140823,
        "time": 51.6083303515625,
        "velocity": 0.6299212598425197
    },
    {
        "duration": 0.1864013671875,
        "durationTicks": 509,
        "midi": 96,
        "name": "C7",
        "ticks": 140823,
        "time": 51.6083303515625,
        "velocity": 0.7401574803149606
    },
    {
        "duration": 0.1754150390625,
        "durationTicks": 479,
        "midi": 52,
        "name": "E3",
        "ticks": 140823,
        "time": 51.6083303515625,
        "velocity": 0.6299212598425197
    },
    {
        "duration": 0.1754150390625,
        "durationTicks": 479,
        "midi": 56,
        "name": "G#3",
        "ticks": 140823,
        "time": 51.6083303515625,
        "velocity": 0.6299212598425197
    },
    {
        "duration": 0.1864013671875,
        "durationTicks": 509,
        "midi": 59,
        "name": "B3",
        "ticks": 140823,
        "time": 51.6083303515625,
        "velocity": 0.7401574803149606
    },
    {
        "duration": 0.371337890625,
        "durationTicks": 1014,
        "midi": 86,
        "name": "D6",
        "ticks": 141333,
        "time": 51.7950979296875,
        "velocity": 0.6535433070866141
    },
    {
        "duration": 0.371337890625,
        "durationTicks": 1014,
        "midi": 98,
        "name": "D7",
        "ticks": 141333,
        "time": 51.7950979296875,
        "velocity": 0.7637795275590551
    },
    {
        "duration": 0.1754150390625,
        "durationTicks": 479,
        "midi": 32,
        "name": "G#1",
        "ticks": 141333,
        "time": 51.7950979296875,
        "velocity": 0.6299212598425197
    },
    {
        "duration": 0.1864013671875,
        "durationTicks": 509,
        "midi": 44,
        "name": "G#2",
        "ticks": 141333,
        "time": 51.7950979296875,
        "velocity": 0.7637795275590551
    },
    {
        "duration": 0.173583984375,
        "durationTicks": 474,
        "midi": 52,
        "name": "E3",
        "ticks": 141843,
        "time": 51.9818655078125,
        "velocity": 0.6299212598425197
    },
    {
        "duration": 0.173583984375,
        "durationTicks": 474,
        "midi": 56,
        "name": "G#3",
        "ticks": 141843,
        "time": 51.9818655078125,
        "velocity": 0.6299212598425197
    },
    {
        "duration": 0.1845703125,
        "durationTicks": 504,
        "midi": 59,
        "name": "B3",
        "ticks": 141843,
        "time": 51.9818655078125,
        "velocity": 0.6299212598425197
    },
    {
        "duration": 0.1845703125,
        "durationTicks": 504,
        "midi": 64,
        "name": "E4",
        "ticks": 141843,
        "time": 51.9818655078125,
        "velocity": 0.7401574803149606
    },
    {
        "duration": 0.3702392578125,
        "durationTicks": 1011,
        "midi": 88,
        "name": "E6",
        "ticks": 142348,
        "time": 52.16680203125,
        "velocity": 0.6377952755905512
    },
    {
        "duration": 0.3702392578125,
        "durationTicks": 1011,
        "midi": 100,
        "name": "E7",
        "ticks": 142348,
        "time": 52.16680203125,
        "velocity": 0.7480314960629921
    },
    {
        "duration": 0.173583984375,
        "durationTicks": 474,
        "midi": 28,
        "name": "E1",
        "ticks": 142348,
        "time": 52.16680203125,
        "velocity": 0.6062992125984252
    },
    {
        "duration": 0.1845703125,
        "durationTicks": 504,
        "midi": 40,
        "name": "E2",
        "ticks": 142348,
        "time": 52.16680203125,
        "velocity": 0.7401574803149606
    },
    {
        "duration": 0.17431640625,
        "durationTicks": 476,
        "midi": 52,
        "name": "E3",
        "ticks": 142853,
        "time": 52.3517385546875,
        "velocity": 0.6299212598425197
    },
    {
        "duration": 0.17431640625,
        "durationTicks": 476,
        "midi": 56,
        "name": "G#3",
        "ticks": 142853,
        "time": 52.3517385546875,
        "velocity": 0.6299212598425197
    },
    {
        "duration": 0.185302734375,
        "durationTicks": 506,
        "midi": 59,
        "name": "B3",
        "ticks": 142853,
        "time": 52.3517385546875,
        "velocity": 0.6299212598425197
    },
    {
        "duration": 0.185302734375,
        "durationTicks": 506,
        "midi": 64,
        "name": "E4",
        "ticks": 142853,
        "time": 52.3517385546875,
        "velocity": 0.7401574803149606
    },
    {
        "duration": 0.3841552734375,
        "durationTicks": 1049,
        "midi": 84,
        "name": "C6",
        "ticks": 143364,
        "time": 52.53887234375,
        "velocity": 0.6692913385826772
    },
    {
        "duration": 0.3841552734375,
        "durationTicks": 1049,
        "midi": 96,
        "name": "C7",
        "ticks": 143364,
        "time": 52.53887234375,
        "velocity": 0.7795275590551181
    },
    {
        "duration": 0.1871337890625,
        "durationTicks": 511,
        "midi": 33,
        "name": "A1",
        "ticks": 143364,
        "time": 52.53887234375,
        "velocity": 0.6456692913385826
    },
    {
        "duration": 0.1981201171875,
        "durationTicks": 541,
        "midi": 45,
        "name": "A2",
        "ticks": 143364,
        "time": 52.53887234375,
        "velocity": 0.7795275590551181
    },
    {
        "duration": 0.1746826171875,
        "durationTicks": 477,
        "midi": 48,
        "name": "C3",
        "ticks": 143906,
        "time": 52.737358671875,
        "velocity": 0.6299212598425197
    },
    {
        "duration": 0.1856689453125,
        "durationTicks": 507,
        "midi": 52,
        "name": "E3",
        "ticks": 143906,
        "time": 52.737358671875,
        "velocity": 0.6299212598425197
    },
    {
        "duration": 0.1856689453125,
        "durationTicks": 507,
        "midi": 57,
        "name": "A3",
        "ticks": 143906,
        "time": 52.737358671875,
        "velocity": 0.6299212598425197
    },
    {
        "duration": 0.1856689453125,
        "durationTicks": 507,
        "midi": 60,
        "name": "C4",
        "ticks": 143906,
        "time": 52.737358671875,
        "velocity": 0.7401574803149606
    },
    {
        "duration": 0.371337890625,
        "durationTicks": 1014,
        "midi": 81,
        "name": "A5",
        "ticks": 144414,
        "time": 52.923393828125,
        "velocity": 0.6377952755905512
    },
    {
        "duration": 0.371337890625,
        "durationTicks": 1014,
        "midi": 93,
        "name": "A6",
        "ticks": 144414,
        "time": 52.923393828125,
        "velocity": 0.7480314960629921
    },
    {
        "duration": 0.173583984375,
        "durationTicks": 474,
        "midi": 21,
        "name": "A0",
        "ticks": 144414,
        "time": 52.923393828125,
        "velocity": 0.6141732283464567
    },
    {
        "duration": 0.1845703125,
        "durationTicks": 504,
        "midi": 33,
        "name": "A1",
        "ticks": 144414,
        "time": 52.923393828125,
        "velocity": 0.7480314960629921
    },
    {
        "duration": 0.1754150390625,
        "durationTicks": 479,
        "midi": 52,
        "name": "E3",
        "ticks": 144919,
        "time": 53.1083303515625,
        "velocity": 0.6299212598425197
    },
    {
        "duration": 0.1864013671875,
        "durationTicks": 509,
        "midi": 57,
        "name": "A3",
        "ticks": 144919,
        "time": 53.1083303515625,
        "velocity": 0.6299212598425197
    },
    {
        "duration": 0.1864013671875,
        "durationTicks": 509,
        "midi": 60,
        "name": "C4",
        "ticks": 144919,
        "time": 53.1083303515625,
        "velocity": 0.6299212598425197
    },
    {
        "duration": 0.1864013671875,
        "durationTicks": 509,
        "midi": 64,
        "name": "E4",
        "ticks": 144919,
        "time": 53.1083303515625,
        "velocity": 0.7401574803149606
    },
    {
        "duration": 0.371337890625,
        "durationTicks": 1014,
        "midi": 81,
        "name": "A5",
        "ticks": 145429,
        "time": 53.2950979296875,
        "velocity": 0.6535433070866141
    },
    {
        "duration": 0.371337890625,
        "durationTicks": 1014,
        "midi": 93,
        "name": "A6",
        "ticks": 145429,
        "time": 53.2950979296875,
        "velocity": 0.7322834645669292
    },
    {
        "duration": 0.1754150390625,
        "durationTicks": 479,
        "midi": 33,
        "name": "A1",
        "ticks": 145429,
        "time": 53.2950979296875,
        "velocity": 0.6299212598425197
    },
    {
        "duration": 0.1864013671875,
        "durationTicks": 509,
        "midi": 45,
        "name": "A2",
        "ticks": 145429,
        "time": 53.2950979296875,
        "velocity": 0.7637795275590551
    },
    {
        "duration": 0.1845703125,
        "durationTicks": 504,
        "midi": 57,
        "name": "A3",
        "ticks": 145939,
        "time": 53.4818655078125,
        "velocity": 0.6299212598425197
    },
    {
        "duration": 0.1845703125,
        "durationTicks": 504,
        "midi": 60,
        "name": "C4",
        "ticks": 145939,
        "time": 53.4818655078125,
        "velocity": 0.6299212598425197
    },
    {
        "duration": 0.1845703125,
        "durationTicks": 504,
        "midi": 64,
        "name": "E4",
        "ticks": 145939,
        "time": 53.4818655078125,
        "velocity": 0.6299212598425197
    },
    {
        "duration": 0.1845703125,
        "durationTicks": 504,
        "midi": 69,
        "name": "A4",
        "ticks": 145939,
        "time": 53.4818655078125,
        "velocity": 0.7401574803149606
    },
    {
        "duration": 0.0882568359375,
        "durationTicks": 241,
        "midi": 93,
        "name": "A6",
        "ticks": 146444,
        "time": 53.66680203125,
        "velocity": 0.7007874015748031
    },
    {
        "duration": 0.0882568359375,
        "durationTicks": 241,
        "midi": 57,
        "name": "A3",
        "ticks": 146444,
        "time": 53.66680203125,
        "velocity": 0.7007874015748031
    },
    {
        "duration": 0.0849609375,
        "durationTicks": 232,
        "midi": 95,
        "name": "B6",
        "ticks": 146701,
        "time": 53.7609182421875,
        "velocity": 0.6929133858267716
    },
    {
        "duration": 0.0849609375,
        "durationTicks": 232,
        "midi": 59,
        "name": "B3",
        "ticks": 146701,
        "time": 53.7609182421875,
        "velocity": 0.6929133858267716
    },
    {
        "duration": 0.0849609375,
        "durationTicks": 232,
        "midi": 96,
        "name": "C7",
        "ticks": 146949,
        "time": 53.8517385546875,
        "velocity": 0.6929133858267716
    },
    {
        "duration": 0.0849609375,
        "durationTicks": 232,
        "midi": 60,
        "name": "C4",
        "ticks": 146949,
        "time": 53.8517385546875,
        "velocity": 0.6929133858267716
    },
    {
        "duration": 0.0889892578125,
        "durationTicks": 243,
        "midi": 98,
        "name": "D7",
        "ticks": 147197,
        "time": 53.9425588671875,
        "velocity": 0.6929133858267716
    },
    {
        "duration": 0.0889892578125,
        "durationTicks": 243,
        "midi": 62,
        "name": "D4",
        "ticks": 147197,
        "time": 53.9425588671875,
        "velocity": 0.6929133858267716
    },
    {
        "duration": 0.1871337890625,
        "durationTicks": 511,
        "midi": 88,
        "name": "E6",
        "ticks": 147460,
        "time": 54.03887234375,
        "velocity": 0.6692913385826772
    },
    {
        "duration": 0.1981201171875,
        "durationTicks": 541,
        "midi": 100,
        "name": "E7",
        "ticks": 147460,
        "time": 54.03887234375,
        "velocity": 0.7795275590551181
    },
    {
        "duration": 0.1871337890625,
        "durationTicks": 511,
        "midi": 52,
        "name": "E3",
        "ticks": 147460,
        "time": 54.03887234375,
        "velocity": 0.6692913385826772
    },
    {
        "duration": 0.1981201171875,
        "durationTicks": 541,
        "midi": 64,
        "name": "E4",
        "ticks": 147460,
        "time": 54.03887234375,
        "velocity": 0.7795275590551181
    },
    {
        "duration": 0.37060546875,
        "durationTicks": 1012,
        "midi": 86,
        "name": "D6",
        "ticks": 148002,
        "time": 54.237358671875,
        "velocity": 0.6299212598425197
    },
    {
        "duration": 0.37060546875,
        "durationTicks": 1012,
        "midi": 98,
        "name": "D7",
        "ticks": 148002,
        "time": 54.237358671875,
        "velocity": 0.7401574803149606
    },
    {
        "duration": 0.1746826171875,
        "durationTicks": 477,
        "midi": 38,
        "name": "D2",
        "ticks": 148002,
        "time": 54.237358671875,
        "velocity": 0.6220472440944882
    },
    {
        "duration": 0.1746826171875,
        "durationTicks": 477,
        "midi": 41,
        "name": "F2",
        "ticks": 148002,
        "time": 54.237358671875,
        "velocity": 0.6299212598425197
    },
    {
        "duration": 0.1856689453125,
        "durationTicks": 507,
        "midi": 45,
        "name": "A2",
        "ticks": 148002,
        "time": 54.237358671875,
        "velocity": 0.7401574803149606
    },
    {
        "duration": 0.173583984375,
        "durationTicks": 474,
        "midi": 50,
        "name": "D3",
        "ticks": 148510,
        "time": 54.423393828125,
        "velocity": 0.6377952755905512
    },
    {
        "duration": 0.1845703125,
        "durationTicks": 504,
        "midi": 65,
        "name": "F4",
        "ticks": 148510,
        "time": 54.423393828125,
        "velocity": 0.7480314960629921
    },
    {
        "duration": 0.1754150390625,
        "durationTicks": 479,
        "midi": 89,
        "name": "F6",
        "ticks": 149015,
        "time": 54.6083303515625,
        "velocity": 0.6299212598425197
    },
    {
        "duration": 0.1864013671875,
        "durationTicks": 509,
        "midi": 101,
        "name": "F7",
        "ticks": 149015,
        "time": 54.6083303515625,
        "velocity": 0.7401574803149606
    },
    {
        "duration": 0.1754150390625,
        "durationTicks": 479,
        "midi": 38,
        "name": "D2",
        "ticks": 149015,
        "time": 54.6083303515625,
        "velocity": 0.6220472440944882
    },
    {
        "duration": 0.1754150390625,
        "durationTicks": 479,
        "midi": 41,
        "name": "F2",
        "ticks": 149015,
        "time": 54.6083303515625,
        "velocity": 0.6299212598425197
    },
    {
        "duration": 0.1864013671875,
        "durationTicks": 509,
        "midi": 45,
        "name": "A2",
        "ticks": 149015,
        "time": 54.6083303515625,
        "velocity": 0.7401574803149606
    },
    {
        "duration": 0.371337890625,
        "durationTicks": 1014,
        "midi": 93,
        "name": "A6",
        "ticks": 149525,
        "time": 54.7950979296875,
        "velocity": 0.6535433070866141
    },
    {
        "duration": 0.371337890625,
        "durationTicks": 1014,
        "midi": 105,
        "name": "A7",
        "ticks": 149525,
        "time": 54.7950979296875,
        "velocity": 0.7637795275590551
    },
    {
        "duration": 0.1754150390625,
        "durationTicks": 479,
        "midi": 57,
        "name": "A3",
        "ticks": 149525,
        "time": 54.7950979296875,
        "velocity": 0.6535433070866141
    },
    {
        "duration": 0.1864013671875,
        "durationTicks": 509,
        "midi": 69,
        "name": "A4",
        "ticks": 149525,
        "time": 54.7950979296875,
        "velocity": 0.7637795275590551
    },
    {
        "duration": 0.173583984375,
        "durationTicks": 474,
        "midi": 38,
        "name": "D2",
        "ticks": 150035,
        "time": 54.9818655078125,
        "velocity": 0.6220472440944882
    },
    {
        "duration": 0.173583984375,
        "durationTicks": 474,
        "midi": 41,
        "name": "F2",
        "ticks": 150035,
        "time": 54.9818655078125,
        "velocity": 0.6299212598425197
    },
    {
        "duration": 0.1845703125,
        "durationTicks": 504,
        "midi": 45,
        "name": "A2",
        "ticks": 150035,
        "time": 54.9818655078125,
        "velocity": 0.7401574803149606
    },
    {
        "duration": 0.173583984375,
        "durationTicks": 474,
        "midi": 91,
        "name": "G6",
        "ticks": 150540,
        "time": 55.16680203125,
        "velocity": 0.6377952755905512
    },
    {
        "duration": 0.1845703125,
        "durationTicks": 504,
        "midi": 103,
        "name": "G7",
        "ticks": 150540,
        "time": 55.16680203125,
        "velocity": 0.7480314960629921
    },
    {
        "duration": 0.173583984375,
        "durationTicks": 474,
        "midi": 45,
        "name": "A2",
        "ticks": 150540,
        "time": 55.16680203125,
        "velocity": 0.6377952755905512
    },
    {
        "duration": 0.1845703125,
        "durationTicks": 504,
        "midi": 57,
        "name": "A3",
        "ticks": 150540,
        "time": 55.16680203125,
        "velocity": 0.7480314960629921
    },
    {
        "duration": 0.17431640625,
        "durationTicks": 476,
        "midi": 89,
        "name": "F6",
        "ticks": 151045,
        "time": 55.3517385546875,
        "velocity": 0.6299212598425197
    },
    {
        "duration": 0.185302734375,
        "durationTicks": 506,
        "midi": 101,
        "name": "F7",
        "ticks": 151045,
        "time": 55.3517385546875,
        "velocity": 0.7401574803149606
    },
    {
        "duration": 0.17431640625,
        "durationTicks": 476,
        "midi": 41,
        "name": "F2",
        "ticks": 151045,
        "time": 55.3517385546875,
        "velocity": 0.6299212598425197
    },
    {
        "duration": 0.185302734375,
        "durationTicks": 506,
        "midi": 53,
        "name": "F3",
        "ticks": 151045,
        "time": 55.3517385546875,
        "velocity": 0.7401574803149606
    },
    {
        "duration": 0.569091796875,
        "durationTicks": 1554,
        "midi": 88,
        "name": "E6",
        "ticks": 151556,
        "time": 55.53887234375,
        "velocity": 0.6692913385826772
    },
    {
        "duration": 0.569091796875,
        "durationTicks": 1554,
        "midi": 100,
        "name": "E7",
        "ticks": 151556,
        "time": 55.53887234375,
        "velocity": 0.7795275590551181
    },
    {
        "duration": 0.1871337890625,
        "durationTicks": 511,
        "midi": 36,
        "name": "C2",
        "ticks": 151556,
        "time": 55.53887234375,
        "velocity": 0.6535433070866141
    },
    {
        "duration": 0.1981201171875,
        "durationTicks": 541,
        "midi": 48,
        "name": "C3",
        "ticks": 151556,
        "time": 55.53887234375,
        "velocity": 0.7795275590551181
    },
    {
        "duration": 0.1856689453125,
        "durationTicks": 507,
        "midi": 48,
        "name": "C3",
        "ticks": 152098,
        "time": 55.737358671875,
        "velocity": 0.6299212598425197
    },
    {
        "duration": 0.1856689453125,
        "durationTicks": 507,
        "midi": 60,
        "name": "C4",
        "ticks": 152098,
        "time": 55.737358671875,
        "velocity": 0.7401574803149606
    },
    {
        "duration": 0.173583984375,
        "durationTicks": 474,
        "midi": 36,
        "name": "C2",
        "ticks": 152606,
        "time": 55.923393828125,
        "velocity": 0.6220472440944882
    },
    {
        "duration": 0.1845703125,
        "durationTicks": 504,
        "midi": 48,
        "name": "C3",
        "ticks": 152606,
        "time": 55.923393828125,
        "velocity": 0.7480314960629921
    },
    {
        "duration": 0.1754150390625,
        "durationTicks": 479,
        "midi": 84,
        "name": "C6",
        "ticks": 153111,
        "time": 56.1083303515625,
        "velocity": 0.6299212598425197
    },
    {
        "duration": 0.1864013671875,
        "durationTicks": 509,
        "midi": 96,
        "name": "C7",
        "ticks": 153111,
        "time": 56.1083303515625,
        "velocity": 0.7401574803149606
    },
    {
        "duration": 0.1864013671875,
        "durationTicks": 509,
        "midi": 48,
        "name": "C3",
        "ticks": 153111,
        "time": 56.1083303515625,
        "velocity": 0.6299212598425197
    },
    {
        "duration": 0.1864013671875,
        "durationTicks": 509,
        "midi": 60,
        "name": "C4",
        "ticks": 153111,
        "time": 56.1083303515625,
        "velocity": 0.7401574803149606
    },
    {
        "duration": 0.371337890625,
        "durationTicks": 1014,
        "midi": 88,
        "name": "E6",
        "ticks": 153621,
        "time": 56.2950979296875,
        "velocity": 0.6535433070866141
    },
    {
        "duration": 0.371337890625,
        "durationTicks": 1014,
        "midi": 100,
        "name": "E7",
        "ticks": 153621,
        "time": 56.2950979296875,
        "velocity": 0.7637795275590551
    },
    {
        "duration": 0.1754150390625,
        "durationTicks": 479,
        "midi": 36,
        "name": "C2",
        "ticks": 153621,
        "time": 56.2950979296875,
        "velocity": 0.6377952755905512
    },
    {
        "duration": 0.1864013671875,
        "durationTicks": 509,
        "midi": 48,
        "name": "C3",
        "ticks": 153621,
        "time": 56.2950979296875,
        "velocity": 0.7637795275590551
    },
    {
        "duration": 0.173583984375,
        "durationTicks": 474,
        "midi": 52,
        "name": "E3",
        "ticks": 154131,
        "time": 56.4818655078125,
        "velocity": 0.6299212598425197
    },
    {
        "duration": 0.173583984375,
        "durationTicks": 474,
        "midi": 57,
        "name": "A3",
        "ticks": 154131,
        "time": 56.4818655078125,
        "velocity": 0.6299212598425197
    },
    {
        "duration": 0.1845703125,
        "durationTicks": 504,
        "midi": 60,
        "name": "C4",
        "ticks": 154131,
        "time": 56.4818655078125,
        "velocity": 0.7401574803149606
    },
    {
        "duration": 0.173583984375,
        "durationTicks": 474,
        "midi": 86,
        "name": "D6",
        "ticks": 154636,
        "time": 56.66680203125,
        "velocity": 0.6377952755905512
    },
    {
        "duration": 0.1845703125,
        "durationTicks": 504,
        "midi": 98,
        "name": "D7",
        "ticks": 154636,
        "time": 56.66680203125,
        "velocity": 0.7480314960629921
    },
    {
        "duration": 0.173583984375,
        "durationTicks": 474,
        "midi": 31,
        "name": "G1",
        "ticks": 154636,
        "time": 56.66680203125,
        "velocity": 0.6141732283464567
    },
    {
        "duration": 0.1845703125,
        "durationTicks": 504,
        "midi": 43,
        "name": "G2",
        "ticks": 154636,
        "time": 56.66680203125,
        "velocity": 0.7480314960629921
    },
    {
        "duration": 0.17431640625,
        "durationTicks": 476,
        "midi": 84,
        "name": "C6",
        "ticks": 155141,
        "time": 56.8517385546875,
        "velocity": 0.6299212598425197
    },
    {
        "duration": 0.185302734375,
        "durationTicks": 506,
        "midi": 96,
        "name": "C7",
        "ticks": 155141,
        "time": 56.8517385546875,
        "velocity": 0.7401574803149606
    },
    {
        "duration": 0.17431640625,
        "durationTicks": 476,
        "midi": 52,
        "name": "E3",
        "ticks": 155141,
        "time": 56.8517385546875,
        "velocity": 0.6299212598425197
    },
    {
        "duration": 0.17431640625,
        "durationTicks": 476,
        "midi": 57,
        "name": "A3",
        "ticks": 155141,
        "time": 56.8517385546875,
        "velocity": 0.6299212598425197
    },
    {
        "duration": 0.185302734375,
        "durationTicks": 506,
        "midi": 60,
        "name": "C4",
        "ticks": 155141,
        "time": 56.8517385546875,
        "velocity": 0.7401574803149606
    },
    {
        "duration": 0.3841552734375,
        "durationTicks": 1049,
        "midi": 83,
        "name": "B5",
        "ticks": 155652,
        "time": 57.03887234375,
        "velocity": 0.6692913385826772
    },
    {
        "duration": 0.3841552734375,
        "durationTicks": 1049,
        "midi": 95,
        "name": "B6",
        "ticks": 155652,
        "time": 57.03887234375,
        "velocity": 0.7795275590551181
    },
    {
        "duration": 0.1871337890625,
        "durationTicks": 511,
        "midi": 35,
        "name": "B1",
        "ticks": 155652,
        "time": 57.03887234375,
        "velocity": 0.6535433070866141
    },
    {
        "duration": 0.1981201171875,
        "durationTicks": 541,
        "midi": 47,
        "name": "B2",
        "ticks": 155652,
        "time": 57.03887234375,
        "velocity": 0.7795275590551181
    },
    {
        "duration": 0.1856689453125,
        "durationTicks": 507,
        "midi": 47,
        "name": "B2",
        "ticks": 156194,
        "time": 57.237358671875,
        "velocity": 0.6299212598425197
    },
    {
        "duration": 0.1856689453125,
        "durationTicks": 507,
        "midi": 59,
        "name": "B3",
        "ticks": 156194,
        "time": 57.237358671875,
        "velocity": 0.7401574803149606
    },
    {
        "duration": 0.173583984375,
        "durationTicks": 474,
        "midi": 83,
        "name": "B5",
        "ticks": 156702,
        "time": 57.423393828125,
        "velocity": 0.6377952755905512
    },
    {
        "duration": 0.1845703125,
        "durationTicks": 504,
        "midi": 95,
        "name": "B6",
        "ticks": 156702,
        "time": 57.423393828125,
        "velocity": 0.7480314960629921
    },
    {
        "duration": 0.173583984375,
        "durationTicks": 474,
        "midi": 35,
        "name": "B1",
        "ticks": 156702,
        "time": 57.423393828125,
        "velocity": 0.6220472440944882
    },
    {
        "duration": 0.1845703125,
        "durationTicks": 504,
        "midi": 47,
        "name": "B2",
        "ticks": 156702,
        "time": 57.423393828125,
        "velocity": 0.7480314960629921
    },
    {
        "duration": 0.1754150390625,
        "durationTicks": 479,
        "midi": 84,
        "name": "C6",
        "ticks": 157207,
        "time": 57.6083303515625,
        "velocity": 0.6299212598425197
    },
    {
        "duration": 0.1864013671875,
        "durationTicks": 509,
        "midi": 96,
        "name": "C7",
        "ticks": 157207,
        "time": 57.6083303515625,
        "velocity": 0.7401574803149606
    },
    {
        "duration": 0.1754150390625,
        "durationTicks": 479,
        "midi": 47,
        "name": "B2",
        "ticks": 157207,
        "time": 57.6083303515625,
        "velocity": 0.6299212598425197
    },
    {
        "duration": 0.1864013671875,
        "durationTicks": 509,
        "midi": 59,
        "name": "B3",
        "ticks": 157207,
        "time": 57.6083303515625,
        "velocity": 0.7401574803149606
    },
    {
        "duration": 0.371337890625,
        "durationTicks": 1014,
        "midi": 86,
        "name": "D6",
        "ticks": 157717,
        "time": 57.7950979296875,
        "velocity": 0.6535433070866141
    },
    {
        "duration": 0.371337890625,
        "durationTicks": 1014,
        "midi": 98,
        "name": "D7",
        "ticks": 157717,
        "time": 57.7950979296875,
        "velocity": 0.7637795275590551
    },
    {
        "duration": 0.1754150390625,
        "durationTicks": 479,
        "midi": 50,
        "name": "D3",
        "ticks": 157717,
        "time": 57.7950979296875,
        "velocity": 0.6535433070866141
    },
    {
        "duration": 0.1864013671875,
        "durationTicks": 509,
        "midi": 62,
        "name": "D4",
        "ticks": 157717,
        "time": 57.7950979296875,
        "velocity": 0.7637795275590551
    },
    {
        "duration": 0.173583984375,
        "durationTicks": 474,
        "midi": 40,
        "name": "E2",
        "ticks": 158227,
        "time": 57.9818655078125,
        "velocity": 0.6220472440944882
    },
    {
        "duration": 0.1845703125,
        "durationTicks": 504,
        "midi": 52,
        "name": "E3",
        "ticks": 158227,
        "time": 57.9818655078125,
        "velocity": 0.7401574803149606
    },
    {
        "duration": 0.3702392578125,
        "durationTicks": 1011,
        "midi": 88,
        "name": "E6",
        "ticks": 158732,
        "time": 58.16680203125,
        "velocity": 0.6377952755905512
    },
    {
        "duration": 0.3702392578125,
        "durationTicks": 1011,
        "midi": 100,
        "name": "E7",
        "ticks": 158732,
        "time": 58.16680203125,
        "velocity": 0.7480314960629921
    },
    {
        "duration": 0.173583984375,
        "durationTicks": 474,
        "midi": 52,
        "name": "E3",
        "ticks": 158732,
        "time": 58.16680203125,
        "velocity": 0.6377952755905512
    },
    {
        "duration": 0.1845703125,
        "durationTicks": 504,
        "midi": 56,
        "name": "G#3",
        "ticks": 158732,
        "time": 58.16680203125,
        "velocity": 0.6377952755905512
    },
    {
        "duration": 0.1845703125,
        "durationTicks": 504,
        "midi": 59,
        "name": "B3",
        "ticks": 158732,
        "time": 58.16680203125,
        "velocity": 0.7480314960629921
    },
    {
        "duration": 0.17431640625,
        "durationTicks": 476,
        "midi": 44,
        "name": "G#2",
        "ticks": 159237,
        "time": 58.3517385546875,
        "velocity": 0.6299212598425197
    },
    {
        "duration": 0.185302734375,
        "durationTicks": 506,
        "midi": 56,
        "name": "G#3",
        "ticks": 159237,
        "time": 58.3517385546875,
        "velocity": 0.7401574803149606
    },
    {
        "duration": 0.3841552734375,
        "durationTicks": 1049,
        "midi": 84,
        "name": "C6",
        "ticks": 159748,
        "time": 58.53887234375,
        "velocity": 0.6692913385826772
    },
    {
        "duration": 0.3841552734375,
        "durationTicks": 1049,
        "midi": 96,
        "name": "C7",
        "ticks": 159748,
        "time": 58.53887234375,
        "velocity": 0.7795275590551181
    },
    {
        "duration": 0.1871337890625,
        "durationTicks": 511,
        "midi": 33,
        "name": "A1",
        "ticks": 159748,
        "time": 58.53887234375,
        "velocity": 0.6456692913385826
    },
    {
        "duration": 0.1981201171875,
        "durationTicks": 541,
        "midi": 45,
        "name": "A2",
        "ticks": 159748,
        "time": 58.53887234375,
        "velocity": 0.7795275590551181
    },
    {
        "duration": 0.1746826171875,
        "durationTicks": 477,
        "midi": 48,
        "name": "C3",
        "ticks": 160290,
        "time": 58.737358671875,
        "velocity": 0.6299212598425197
    },
    {
        "duration": 0.1746826171875,
        "durationTicks": 477,
        "midi": 52,
        "name": "E3",
        "ticks": 160290,
        "time": 58.737358671875,
        "velocity": 0.6299212598425197
    },
    {
        "duration": 0.1856689453125,
        "durationTicks": 507,
        "midi": 57,
        "name": "A3",
        "ticks": 160290,
        "time": 58.737358671875,
        "velocity": 0.7401574803149606
    },
    {
        "duration": 0.371337890625,
        "durationTicks": 1014,
        "midi": 81,
        "name": "A5",
        "ticks": 160798,
        "time": 58.923393828125,
        "velocity": 0.6377952755905512
    },
    {
        "duration": 0.371337890625,
        "durationTicks": 1014,
        "midi": 93,
        "name": "A6",
        "ticks": 160798,
        "time": 58.923393828125,
        "velocity": 0.7480314960629921
    },
    {
        "duration": 0.173583984375,
        "durationTicks": 474,
        "midi": 33,
        "name": "A1",
        "ticks": 160798,
        "time": 58.923393828125,
        "velocity": 0.6141732283464567
    },
    {
        "duration": 0.1845703125,
        "durationTicks": 504,
        "midi": 45,
        "name": "A2",
        "ticks": 160798,
        "time": 58.923393828125,
        "velocity": 0.7480314960629921
    },
    {
        "duration": 0.1754150390625,
        "durationTicks": 479,
        "midi": 52,
        "name": "E3",
        "ticks": 161303,
        "time": 59.1083303515625,
        "velocity": 0.6299212598425197
    },
    {
        "duration": 0.1754150390625,
        "durationTicks": 479,
        "midi": 57,
        "name": "A3",
        "ticks": 161303,
        "time": 59.1083303515625,
        "velocity": 0.6299212598425197
    },
    {
        "duration": 0.1864013671875,
        "durationTicks": 509,
        "midi": 60,
        "name": "C4",
        "ticks": 161303,
        "time": 59.1083303515625,
        "velocity": 0.7401574803149606
    },
    {
        "duration": 0.371337890625,
        "durationTicks": 1014,
        "midi": 81,
        "name": "A5",
        "ticks": 161813,
        "time": 59.2950979296875,
        "velocity": 0.6535433070866141
    },
    {
        "duration": 0.2215576171875,
        "durationTicks": 605,
        "midi": 93,
        "name": "A6",
        "ticks": 161813,
        "time": 59.2950979296875,
        "velocity": 0.7322834645669292
    },
    {
        "duration": 0.1754150390625,
        "durationTicks": 479,
        "midi": 33,
        "name": "A1",
        "ticks": 161813,
        "time": 59.2950979296875,
        "velocity": 0.6299212598425197
    },
    {
        "duration": 0.1864013671875,
        "durationTicks": 509,
        "midi": 45,
        "name": "A2",
        "ticks": 161813,
        "time": 59.2950979296875,
        "velocity": 0.7637795275590551
    },
    {
        "duration": 0.173583984375,
        "durationTicks": 474,
        "midi": 57,
        "name": "A3",
        "ticks": 162323,
        "time": 59.4818655078125,
        "velocity": 0.6299212598425197
    },
    {
        "duration": 0.173583984375,
        "durationTicks": 474,
        "midi": 60,
        "name": "C4",
        "ticks": 162323,
        "time": 59.4818655078125,
        "velocity": 0.6299212598425197
    },
    {
        "duration": 0.1845703125,
        "durationTicks": 504,
        "midi": 64,
        "name": "E4",
        "ticks": 162323,
        "time": 59.4818655078125,
        "velocity": 0.7401574803149606
    },
    {
        "duration": 0.046875,
        "durationTicks": 128,
        "midi": 100,
        "name": "E7",
        "ticks": 162432,
        "time": 59.5217825,
        "velocity": 0.6929133858267716
    },
    {
        "duration": 0.046875,
        "durationTicks": 128,
        "midi": 101,
        "name": "F7",
        "ticks": 162560,
        "time": 59.5686575,
        "velocity": 0.6929133858267716
    },
    {
        "duration": 0.046875,
        "durationTicks": 128,
        "midi": 103,
        "name": "G7",
        "ticks": 162688,
        "time": 59.6155325,
        "velocity": 0.6929133858267716
    },
    {
        "duration": 0.3702392578125,
        "durationTicks": 1011,
        "midi": 93,
        "name": "A6",
        "ticks": 162828,
        "time": 59.66680203125,
        "velocity": 0.6377952755905512
    },
    {
        "duration": 0.3702392578125,
        "durationTicks": 1011,
        "midi": 105,
        "name": "A7",
        "ticks": 162828,
        "time": 59.66680203125,
        "velocity": 0.7480314960629921
    },
    {
        "duration": 0.3702392578125,
        "durationTicks": 1011,
        "midi": 21,
        "name": "A0",
        "ticks": 162828,
        "time": 59.66680203125,
        "velocity": 0.5826771653543307
    },
    {
        "duration": 0.3702392578125,
        "durationTicks": 1011,
        "midi": 33,
        "name": "A1",
        "ticks": 162828,
        "time": 59.66680203125,
        "velocity": 0.7244094488188977
    },
    {
        "duration": 0.1124267578125,
        "durationTicks": 307,
        "midi": 81,
        "name": "A5",
        "ticks": 163844,
        "time": 60.03887234375,
        "velocity": 0.6377952755905512
    },
    {
        "duration": 0.3841552734375,
        "durationTicks": 1049,
        "midi": 52,
        "name": "E3",
        "ticks": 163844,
        "time": 60.03887234375,
        "velocity": 0.6692913385826772
    },
    {
        "duration": 0.3841552734375,
        "durationTicks": 1049,
        "midi": 57,
        "name": "A3",
        "ticks": 163844,
        "time": 60.03887234375,
        "velocity": 0.6692913385826772
    },
    {
        "duration": 0.3841552734375,
        "durationTicks": 1049,
        "midi": 60,
        "name": "C4",
        "ticks": 163844,
        "time": 60.03887234375,
        "velocity": 0.6692913385826772
    },
    {
        "duration": 0.3841552734375,
        "durationTicks": 1049,
        "midi": 64,
        "name": "E4",
        "ticks": 163844,
        "time": 60.03887234375,
        "velocity": 0.7795275590551181
    },
    {
        "duration": 0.0963134765625,
        "durationTicks": 263,
        "midi": 84,
        "name": "C6",
        "ticks": 164137,
        "time": 60.1461721484375,
        "velocity": 0.5984251968503937
    },
    {
        "duration": 0.0963134765625,
        "durationTicks": 263,
        "midi": 88,
        "name": "E6",
        "ticks": 164386,
        "time": 60.237358671875,
        "velocity": 0.5984251968503937
    },
    {
        "duration": 0.0999755859375,
        "durationTicks": 273,
        "midi": 93,
        "name": "A6",
        "ticks": 164635,
        "time": 60.3285451953125,
        "velocity": 0.5984251968503937
    },
    {
        "duration": 0.099609375,
        "durationTicks": 272,
        "midi": 96,
        "name": "C7",
        "ticks": 164894,
        "time": 60.423393828125,
        "velocity": 0.6062992125984252
    },
    {
        "duration": 0.371337890625,
        "durationTicks": 1014,
        "midi": 33,
        "name": "A1",
        "ticks": 164894,
        "time": 60.423393828125,
        "velocity": 0.6141732283464567
    },
    {
        "duration": 0.371337890625,
        "durationTicks": 1014,
        "midi": 45,
        "name": "A2",
        "ticks": 164894,
        "time": 60.423393828125,
        "velocity": 0.7480314960629921
    },
    {
        "duration": 0.0955810546875,
        "durationTicks": 261,
        "midi": 93,
        "name": "A6",
        "ticks": 165152,
        "time": 60.51787625,
        "velocity": 0.5984251968503937
    },
    {
        "duration": 0.095947265625,
        "durationTicks": 262,
        "midi": 88,
        "name": "E6",
        "ticks": 165399,
        "time": 60.6083303515625,
        "velocity": 0.5984251968503937
    },
    {
        "duration": 0.10107421875,
        "durationTicks": 276,
        "midi": 84,
        "name": "C6",
        "ticks": 165647,
        "time": 60.6991506640625,
        "velocity": 0.5984251968503937
    },
    {
        "duration": 0.1014404296875,
        "durationTicks": 277,
        "midi": 81,
        "name": "A5",
        "ticks": 165909,
        "time": 60.7950979296875,
        "velocity": 0.6220472440944882
    },
    {
        "duration": 0.371337890625,
        "durationTicks": 1014,
        "midi": 48,
        "name": "C3",
        "ticks": 165909,
        "time": 60.7950979296875,
        "velocity": 0.6535433070866141
    },
    {
        "duration": 0.371337890625,
        "durationTicks": 1014,
        "midi": 52,
        "name": "E3",
        "ticks": 165909,
        "time": 60.7950979296875,
        "velocity": 0.6535433070866141
    },
    {
        "duration": 0.371337890625,
        "durationTicks": 1014,
        "midi": 57,
        "name": "A3",
        "ticks": 165909,
        "time": 60.7950979296875,
        "velocity": 0.6535433070866141
    },
    {
        "duration": 0.371337890625,
        "durationTicks": 1014,
        "midi": 60,
        "name": "C4",
        "ticks": 165909,
        "time": 60.7950979296875,
        "velocity": 0.7637795275590551
    },
    {
        "duration": 0.0955810546875,
        "durationTicks": 261,
        "midi": 84,
        "name": "C6",
        "ticks": 166172,
        "time": 60.89141140625,
        "velocity": 0.5984251968503937
    },
    {
        "duration": 0.095947265625,
        "durationTicks": 262,
        "midi": 88,
        "name": "E6",
        "ticks": 166419,
        "time": 60.9818655078125,
        "velocity": 0.5984251968503937
    },
    {
        "duration": 0.0992431640625,
        "durationTicks": 271,
        "midi": 93,
        "name": "A6",
        "ticks": 166667,
        "time": 61.0726858203125,
        "velocity": 0.5984251968503937
    },
    {
        "duration": 0.0992431640625,
        "durationTicks": 271,
        "midi": 96,
        "name": "C7",
        "ticks": 166924,
        "time": 61.16680203125,
        "velocity": 0.6062992125984252
    },
    {
        "duration": 0.3702392578125,
        "durationTicks": 1011,
        "midi": 33,
        "name": "A1",
        "ticks": 166924,
        "time": 61.16680203125,
        "velocity": 0.6141732283464567
    },
    {
        "duration": 0.3702392578125,
        "durationTicks": 1011,
        "midi": 45,
        "name": "A2",
        "ticks": 166924,
        "time": 61.16680203125,
        "velocity": 0.7480314960629921
    },
    {
        "duration": 0.095947265625,
        "durationTicks": 262,
        "midi": 93,
        "name": "A6",
        "ticks": 167181,
        "time": 61.2609182421875,
        "velocity": 0.5984251968503937
    },
    {
        "duration": 0.095947265625,
        "durationTicks": 262,
        "midi": 88,
        "name": "E6",
        "ticks": 167429,
        "time": 61.3517385546875,
        "velocity": 0.5984251968503937
    },
    {
        "duration": 0.0999755859375,
        "durationTicks": 273,
        "midi": 84,
        "name": "C6",
        "ticks": 167677,
        "time": 61.4425588671875,
        "velocity": 0.5984251968503937
    },
    {
        "duration": 0.1124267578125,
        "durationTicks": 307,
        "midi": 80,
        "name": "G#5",
        "ticks": 167940,
        "time": 61.53887234375,
        "velocity": 0.6377952755905512
    },
    {
        "duration": 0.3841552734375,
        "durationTicks": 1049,
        "midi": 50,
        "name": "D3",
        "ticks": 167940,
        "time": 61.53887234375,
        "velocity": 0.6692913385826772
    },
    {
        "duration": 0.3841552734375,
        "durationTicks": 1049,
        "midi": 52,
        "name": "E3",
        "ticks": 167940,
        "time": 61.53887234375,
        "velocity": 0.6692913385826772
    },
    {
        "duration": 0.3841552734375,
        "durationTicks": 1049,
        "midi": 56,
        "name": "G#3",
        "ticks": 167940,
        "time": 61.53887234375,
        "velocity": 0.6692913385826772
    },
    {
        "duration": 0.3841552734375,
        "durationTicks": 1049,
        "midi": 59,
        "name": "B3",
        "ticks": 167940,
        "time": 61.53887234375,
        "velocity": 0.7795275590551181
    },
    {
        "duration": 0.0963134765625,
        "durationTicks": 263,
        "midi": 83,
        "name": "B5",
        "ticks": 168233,
        "time": 61.6461721484375,
        "velocity": 0.5984251968503937
    },
    {
        "duration": 0.0963134765625,
        "durationTicks": 263,
        "midi": 86,
        "name": "D6",
        "ticks": 168482,
        "time": 61.737358671875,
        "velocity": 0.5984251968503937
    },
    {
        "duration": 0.0999755859375,
        "durationTicks": 273,
        "midi": 88,
        "name": "E6",
        "ticks": 168731,
        "time": 61.8285451953125,
        "velocity": 0.5984251968503937
    },
    {
        "duration": 0.099609375,
        "durationTicks": 272,
        "midi": 92,
        "name": "G#6",
        "ticks": 168990,
        "time": 61.923393828125,
        "velocity": 0.6062992125984252
    },
    {
        "duration": 0.371337890625,
        "durationTicks": 1014,
        "midi": 28,
        "name": "E1",
        "ticks": 168990,
        "time": 61.923393828125,
        "velocity": 0.6062992125984252
    },
    {
        "duration": 0.371337890625,
        "durationTicks": 1014,
        "midi": 40,
        "name": "E2",
        "ticks": 168990,
        "time": 61.923393828125,
        "velocity": 0.7401574803149606
    },
    {
        "duration": 0.0955810546875,
        "durationTicks": 261,
        "midi": 95,
        "name": "B6",
        "ticks": 169248,
        "time": 62.01787625,
        "velocity": 0.5984251968503937
    },
    {
        "duration": 0.095947265625,
        "durationTicks": 262,
        "midi": 92,
        "name": "G#6",
        "ticks": 169495,
        "time": 62.1083303515625,
        "velocity": 0.5984251968503937
    },
    {
        "duration": 0.10107421875,
        "durationTicks": 276,
        "midi": 88,
        "name": "E6",
        "ticks": 169743,
        "time": 62.1991506640625,
        "velocity": 0.5984251968503937
    },
    {
        "duration": 0.10153714453124962,
        "durationTicks": 277,
        "midi": 83,
        "name": "B5",
        "ticks": 170005,
        "time": 62.2950979296875,
        "velocity": 0.6220472440944882
    },
    {
        "duration": 0.3750084267578089,
        "durationTicks": 1014,
        "midi": 47,
        "name": "B2",
        "ticks": 170005,
        "time": 62.2950979296875,
        "velocity": 0.6535433070866141
    },
    {
        "duration": 0.3750084267578089,
        "durationTicks": 1014,
        "midi": 52,
        "name": "E3",
        "ticks": 170005,
        "time": 62.2950979296875,
        "velocity": 0.6535433070866141
    },
    {
        "duration": 0.3750084267578089,
        "durationTicks": 1014,
        "midi": 56,
        "name": "G#3",
        "ticks": 170005,
        "time": 62.2950979296875,
        "velocity": 0.7637795275590551
    },
    {
        "duration": 0.09625902539062281,
        "durationTicks": 261,
        "midi": 80,
        "name": "G#5",
        "ticks": 170268,
        "time": 62.3914758828125,
        "velocity": 0.5984251968503937
    },
    {
        "duration": 0.09722063183594543,
        "durationTicks": 262,
        "midi": 83,
        "name": "B5",
        "ticks": 170515,
        "time": 62.48254306835937,
        "velocity": 0.5984251968503937
    },
    {
        "duration": 0.10120157714843003,
        "durationTicks": 271,
        "midi": 88,
        "name": "E6",
        "ticks": 170763,
        "time": 62.57453878808594,
        "velocity": 0.5984251968503937
    },
    {
        "duration": 0.1017877587890581,
        "durationTicks": 271,
        "midi": 92,
        "name": "G#6",
        "ticks": 171020,
        "time": 62.67048195703125,
        "velocity": 0.6062992125984252
    },
    {
        "duration": 0.3815963144531267,
        "durationTicks": 1011,
        "midi": 28,
        "name": "E1",
        "ticks": 171020,
        "time": 62.67048195703125,
        "velocity": 0.6062992125984252
    },
    {
        "duration": 0.3815963144531267,
        "durationTicks": 1011,
        "midi": 40,
        "name": "E2",
        "ticks": 171020,
        "time": 62.67048195703125,
        "velocity": 0.7401574803149606
    },
    {
        "duration": 0.09845338769531509,
        "durationTicks": 262,
        "midi": 95,
        "name": "B6",
        "ticks": 171277,
        "time": 62.76701130761718,
        "velocity": 0.5984251968503937
    },
    {
        "duration": 0.09906914648437493,
        "durationTicks": 262,
        "midi": 92,
        "name": "G#6",
        "ticks": 171525,
        "time": 62.860172367187495,
        "velocity": 0.5984251968503937
    },
    {
        "duration": 0.10386326953125291,
        "durationTicks": 273,
        "midi": 88,
        "name": "E6",
        "ticks": 171773,
        "time": 62.953922179687495,
        "velocity": 0.5984251968503937
    },
    {
        "duration": 0.11602218750000048,
        "durationTicks": 307,
        "midi": 81,
        "name": "A5",
        "ticks": 172036,
        "time": 63.0539806640625,
        "velocity": 0.6377952755905512
    },
    {
        "duration": 0.3877507031250005,
        "durationTicks": 1049,
        "midi": 48,
        "name": "C3",
        "ticks": 172036,
        "time": 63.0539806640625,
        "velocity": 0.6692913385826772
    },
    {
        "duration": 0.3877507031250005,
        "durationTicks": 1049,
        "midi": 52,
        "name": "E3",
        "ticks": 172036,
        "time": 63.0539806640625,
        "velocity": 0.6692913385826772
    },
    {
        "duration": 0.3877507031250005,
        "durationTicks": 1049,
        "midi": 57,
        "name": "A3",
        "ticks": 172036,
        "time": 63.0539806640625,
        "velocity": 0.6692913385826772
    },
    {
        "duration": 0.3877507031250005,
        "durationTicks": 1049,
        "midi": 60,
        "name": "C4",
        "ticks": 172036,
        "time": 63.0539806640625,
        "velocity": 0.7795275590551181
    },
    {
        "duration": 0.0963134765625,
        "durationTicks": 263,
        "midi": 84,
        "name": "C6",
        "ticks": 172329,
        "time": 63.1648758984375,
        "velocity": 0.5984251968503937
    },
    {
        "duration": 0.0963134765625,
        "durationTicks": 263,
        "midi": 88,
        "name": "E6",
        "ticks": 172578,
        "time": 63.256062421875,
        "velocity": 0.5984251968503937
    },
    {
        "duration": 0.0999755859375,
        "durationTicks": 273,
        "midi": 93,
        "name": "A6",
        "ticks": 172827,
        "time": 63.3472489453125,
        "velocity": 0.5984251968503937
    },
    {
        "duration": 0.099609375,
        "durationTicks": 272,
        "midi": 96,
        "name": "C7",
        "ticks": 173086,
        "time": 63.442097578125,
        "velocity": 0.6062992125984252
    },
    {
        "duration": 0.371337890625,
        "durationTicks": 1014,
        "midi": 33,
        "name": "A1",
        "ticks": 173086,
        "time": 63.442097578125,
        "velocity": 0.6141732283464567
    },
    {
        "duration": 0.371337890625,
        "durationTicks": 1014,
        "midi": 45,
        "name": "A2",
        "ticks": 173086,
        "time": 63.442097578125,
        "velocity": 0.7480314960629921
    },
    {
        "duration": 0.0955810546875,
        "durationTicks": 261,
        "midi": 93,
        "name": "A6",
        "ticks": 173344,
        "time": 63.53658,
        "velocity": 0.5984251968503937
    },
    {
        "duration": 0.095947265625,
        "durationTicks": 262,
        "midi": 88,
        "name": "E6",
        "ticks": 173591,
        "time": 63.6270341015625,
        "velocity": 0.5984251968503937
    },
    {
        "duration": 0.10107421875,
        "durationTicks": 276,
        "midi": 84,
        "name": "C6",
        "ticks": 173839,
        "time": 63.7178544140625,
        "velocity": 0.5984251968503937
    },
    {
        "duration": 0.1014404296875,
        "durationTicks": 277,
        "midi": 81,
        "name": "A5",
        "ticks": 174101,
        "time": 63.8138016796875,
        "velocity": 0.6220472440944882
    },
    {
        "duration": 0.371337890625,
        "durationTicks": 1014,
        "midi": 45,
        "name": "A2",
        "ticks": 174101,
        "time": 63.8138016796875,
        "velocity": 0.6535433070866141
    },
    {
        "duration": 0.371337890625,
        "durationTicks": 1014,
        "midi": 48,
        "name": "C3",
        "ticks": 174101,
        "time": 63.8138016796875,
        "velocity": 0.6535433070866141
    },
    {
        "duration": 0.371337890625,
        "durationTicks": 1014,
        "midi": 52,
        "name": "E3",
        "ticks": 174101,
        "time": 63.8138016796875,
        "velocity": 0.6535433070866141
    },
    {
        "duration": 0.371337890625,
        "durationTicks": 1014,
        "midi": 57,
        "name": "A3",
        "ticks": 174101,
        "time": 63.8138016796875,
        "velocity": 0.7637795275590551
    },
    {
        "duration": 0.0955810546875,
        "durationTicks": 261,
        "midi": 84,
        "name": "C6",
        "ticks": 174364,
        "time": 63.91011515625,
        "velocity": 0.5984251968503937
    },
    {
        "duration": 0.095947265625,
        "durationTicks": 262,
        "midi": 88,
        "name": "E6",
        "ticks": 174611,
        "time": 64.0005692578125,
        "velocity": 0.5984251968503937
    },
    {
        "duration": 0.0992431640625,
        "durationTicks": 271,
        "midi": 93,
        "name": "A6",
        "ticks": 174859,
        "time": 64.0913895703125,
        "velocity": 0.5984251968503937
    },
    {
        "duration": 0.0992431640625,
        "durationTicks": 271,
        "midi": 96,
        "name": "C7",
        "ticks": 175116,
        "time": 64.18550578125,
        "velocity": 0.6062992125984252
    },
    {
        "duration": 0.3702392578125,
        "durationTicks": 1011,
        "midi": 33,
        "name": "A1",
        "ticks": 175116,
        "time": 64.18550578125,
        "velocity": 0.6141732283464567
    },
    {
        "duration": 0.3702392578125,
        "durationTicks": 1011,
        "midi": 45,
        "name": "A2",
        "ticks": 175116,
        "time": 64.18550578125,
        "velocity": 0.7480314960629921
    },
    {
        "duration": 0.095947265625,
        "durationTicks": 262,
        "midi": 93,
        "name": "A6",
        "ticks": 175373,
        "time": 64.2796219921875,
        "velocity": 0.5984251968503937
    },
    {
        "duration": 0.095947265625,
        "durationTicks": 262,
        "midi": 88,
        "name": "E6",
        "ticks": 175621,
        "time": 64.3704423046875,
        "velocity": 0.5984251968503937
    },
    {
        "duration": 0.0999755859375,
        "durationTicks": 273,
        "midi": 84,
        "name": "C6",
        "ticks": 175869,
        "time": 64.4612626171875,
        "velocity": 0.5984251968503937
    },
    {
        "duration": 0.1124267578125,
        "durationTicks": 307,
        "midi": 80,
        "name": "G#5",
        "ticks": 176132,
        "time": 64.55757609375,
        "velocity": 0.6377952755905512
    },
    {
        "duration": 0.3841552734375,
        "durationTicks": 1049,
        "midi": 44,
        "name": "G#2",
        "ticks": 176132,
        "time": 64.55757609375,
        "velocity": 0.6692913385826772
    },
    {
        "duration": 0.3841552734375,
        "durationTicks": 1049,
        "midi": 47,
        "name": "B2",
        "ticks": 176132,
        "time": 64.55757609375,
        "velocity": 0.6692913385826772
    },
    {
        "duration": 0.3841552734375,
        "durationTicks": 1049,
        "midi": 52,
        "name": "E3",
        "ticks": 176132,
        "time": 64.55757609375,
        "velocity": 0.6692913385826772
    },
    {
        "duration": 0.3841552734375,
        "durationTicks": 1049,
        "midi": 56,
        "name": "G#3",
        "ticks": 176132,
        "time": 64.55757609375,
        "velocity": 0.7795275590551181
    },
    {
        "duration": 0.0963134765625,
        "durationTicks": 263,
        "midi": 68,
        "name": "G#4",
        "ticks": 176425,
        "time": 64.6648758984375,
        "velocity": 0.5984251968503937
    },
    {
        "duration": 0.0908203125,
        "durationTicks": 248,
        "midi": 80,
        "name": "G#5",
        "ticks": 176674,
        "time": 64.756062421875,
        "velocity": 0.5984251968503937
    },
    {
        "duration": 0.0999755859375,
        "durationTicks": 273,
        "midi": 80,
        "name": "G#5",
        "ticks": 176923,
        "time": 64.8472489453125,
        "velocity": 0.5984251968503937
    },
    {
        "duration": 0.099609375,
        "durationTicks": 272,
        "midi": 92,
        "name": "G#6",
        "ticks": 177182,
        "time": 64.942097578125,
        "velocity": 0.6062992125984252
    },
    {
        "duration": 0.371337890625,
        "durationTicks": 1014,
        "midi": 28,
        "name": "E1",
        "ticks": 177182,
        "time": 64.942097578125,
        "velocity": 0.6062992125984252
    },
    {
        "duration": 0.371337890625,
        "durationTicks": 1014,
        "midi": 40,
        "name": "E2",
        "ticks": 177182,
        "time": 64.942097578125,
        "velocity": 0.7401574803149606
    },
    {
        "duration": 0.0955810546875,
        "durationTicks": 261,
        "midi": 80,
        "name": "G#5",
        "ticks": 177440,
        "time": 65.03658,
        "velocity": 0.5984251968503937
    },
    {
        "duration": 0.095947265625,
        "durationTicks": 262,
        "midi": 88,
        "name": "E6",
        "ticks": 177687,
        "time": 65.1270341015625,
        "velocity": 0.5984251968503937
    },
    {
        "duration": 0.0955810546875,
        "durationTicks": 261,
        "midi": 76,
        "name": "E5",
        "ticks": 177935,
        "time": 65.2178544140625,
        "velocity": 0.5984251968503937
    },
    {
        "duration": 0.10153714453124962,
        "durationTicks": 277,
        "midi": 76,
        "name": "E5",
        "ticks": 178197,
        "time": 65.3138016796875,
        "velocity": 0.6220472440944882
    },
    {
        "duration": 0.375008426757816,
        "durationTicks": 1014,
        "midi": 47,
        "name": "B2",
        "ticks": 178197,
        "time": 65.3138016796875,
        "velocity": 0.6535433070866141
    },
    {
        "duration": 0.375008426757816,
        "durationTicks": 1014,
        "midi": 52,
        "name": "E3",
        "ticks": 178197,
        "time": 65.3138016796875,
        "velocity": 0.6535433070866141
    },
    {
        "duration": 0.375008426757816,
        "durationTicks": 1014,
        "midi": 56,
        "name": "G#3",
        "ticks": 178197,
        "time": 65.3138016796875,
        "velocity": 0.6535433070866141
    },
    {
        "duration": 0.375008426757816,
        "durationTicks": 1014,
        "midi": 59,
        "name": "B3",
        "ticks": 178197,
        "time": 65.3138016796875,
        "velocity": 0.7637795275590551
    },
    {
        "duration": 0.09625902539062281,
        "durationTicks": 261,
        "midi": 64,
        "name": "E4",
        "ticks": 178460,
        "time": 65.4101796328125,
        "velocity": 0.5984251968503937
    },
    {
        "duration": 0.09162251171875369,
        "durationTicks": 247,
        "midi": 76,
        "name": "E5",
        "ticks": 178707,
        "time": 65.50124681835938,
        "velocity": 0.5984251968503937
    },
    {
        "duration": 0.10120157714843003,
        "durationTicks": 271,
        "midi": 76,
        "name": "E5",
        "ticks": 178955,
        "time": 65.59324253808595,
        "velocity": 0.5984251968503937
    },
    {
        "duration": 0.09615374999999915,
        "durationTicks": 256,
        "midi": 88,
        "name": "E6",
        "ticks": 179212,
        "time": 65.68918570703126,
        "velocity": 0.6062992125984252
    },
    {
        "duration": 0.3815963144531196,
        "durationTicks": 1011,
        "midi": 40,
        "name": "E2",
        "ticks": 179212,
        "time": 65.68918570703126,
        "velocity": 0.6299212598425197
    },
    {
        "duration": 0.3815963144531196,
        "durationTicks": 1011,
        "midi": 52,
        "name": "E3",
        "ticks": 179212,
        "time": 65.68918570703126,
        "velocity": 0.7480314960629921
    },
    {
        "duration": 0.09845338769530088,
        "durationTicks": 262,
        "midi": 88,
        "name": "E6",
        "ticks": 179469,
        "time": 65.7857150576172,
        "velocity": 0.5984251968503937
    },
    {
        "duration": 0.09906914648436782,
        "durationTicks": 262,
        "midi": 100,
        "name": "E7",
        "ticks": 179717,
        "time": 65.8788761171875,
        "velocity": 0.5984251968503937
    },
    {
        "duration": 0.1038632695312458,
        "durationTicks": 273,
        "midi": 88,
        "name": "E6",
        "ticks": 179965,
        "time": 65.9726259296875,
        "velocity": 0.5984251968503937
    },
    {
        "duration": 0.11602218750000759,
        "durationTicks": 307,
        "midi": 81,
        "name": "A5",
        "ticks": 180228,
        "time": 66.0726844140625,
        "velocity": 0.6377952755905512
    },
    {
        "duration": 0.3877507031250076,
        "durationTicks": 1049,
        "midi": 52,
        "name": "E3",
        "ticks": 180228,
        "time": 66.0726844140625,
        "velocity": 0.6692913385826772
    },
    {
        "duration": 0.3877507031250076,
        "durationTicks": 1049,
        "midi": 57,
        "name": "A3",
        "ticks": 180228,
        "time": 66.0726844140625,
        "velocity": 0.6692913385826772
    },
    {
        "duration": 0.3877507031250076,
        "durationTicks": 1049,
        "midi": 60,
        "name": "C4",
        "ticks": 180228,
        "time": 66.0726844140625,
        "velocity": 0.6692913385826772
    },
    {
        "duration": 0.3877507031250076,
        "durationTicks": 1049,
        "midi": 64,
        "name": "E4",
        "ticks": 180228,
        "time": 66.0726844140625,
        "velocity": 0.7795275590551181
    },
    {
        "duration": 0.0963134765625,
        "durationTicks": 263,
        "midi": 69,
        "name": "A4",
        "ticks": 180521,
        "time": 66.1835796484375,
        "velocity": 0.5984251968503937
    },
    {
        "duration": 0.0908203125,
        "durationTicks": 248,
        "midi": 81,
        "name": "A5",
        "ticks": 180770,
        "time": 66.274766171875,
        "velocity": 0.5984251968503937
    },
    {
        "duration": 0.0999755859375,
        "durationTicks": 273,
        "midi": 81,
        "name": "A5",
        "ticks": 181019,
        "time": 66.3659526953125,
        "velocity": 0.5984251968503937
    },
    {
        "duration": 0.099609375,
        "durationTicks": 272,
        "midi": 93,
        "name": "A6",
        "ticks": 181278,
        "time": 66.460801328125,
        "velocity": 0.6062992125984252
    },
    {
        "duration": 0.371337890625,
        "durationTicks": 1014,
        "midi": 33,
        "name": "A1",
        "ticks": 181278,
        "time": 66.460801328125,
        "velocity": 0.6141732283464567
    },
    {
        "duration": 0.371337890625,
        "durationTicks": 1014,
        "midi": 45,
        "name": "A2",
        "ticks": 181278,
        "time": 66.460801328125,
        "velocity": 0.7480314960629921
    },
    {
        "duration": 0.0955810546875,
        "durationTicks": 261,
        "midi": 81,
        "name": "A5",
        "ticks": 181536,
        "time": 66.55528375,
        "velocity": 0.5984251968503937
    },
    {
        "duration": 0.0904541015625,
        "durationTicks": 247,
        "midi": 93,
        "name": "A6",
        "ticks": 181783,
        "time": 66.6457378515625,
        "velocity": 0.5984251968503937
    },
    {
        "duration": 0.10107421875,
        "durationTicks": 276,
        "midi": 93,
        "name": "A6",
        "ticks": 182031,
        "time": 66.7365581640625,
        "velocity": 0.5984251968503937
    },
    {
        "duration": 0.1014404296875,
        "durationTicks": 277,
        "midi": 105,
        "name": "A7",
        "ticks": 182293,
        "time": 66.8325054296875,
        "velocity": 0.6220472440944882
    },
    {
        "duration": 0.371337890625,
        "durationTicks": 1014,
        "midi": 48,
        "name": "C3",
        "ticks": 182293,
        "time": 66.8325054296875,
        "velocity": 0.6535433070866141
    },
    {
        "duration": 0.371337890625,
        "durationTicks": 1014,
        "midi": 52,
        "name": "E3",
        "ticks": 182293,
        "time": 66.8325054296875,
        "velocity": 0.6535433070866141
    },
    {
        "duration": 0.371337890625,
        "durationTicks": 1014,
        "midi": 57,
        "name": "A3",
        "ticks": 182293,
        "time": 66.8325054296875,
        "velocity": 0.6535433070866141
    },
    {
        "duration": 0.371337890625,
        "durationTicks": 1014,
        "midi": 60,
        "name": "C4",
        "ticks": 182293,
        "time": 66.8325054296875,
        "velocity": 0.7637795275590551
    },
    {
        "duration": 0.090087890625,
        "durationTicks": 246,
        "midi": 93,
        "name": "A6",
        "ticks": 182556,
        "time": 66.92881890625,
        "velocity": 0.5984251968503937
    },
    {
        "duration": 0.095947265625,
        "durationTicks": 262,
        "midi": 93,
        "name": "A6",
        "ticks": 182803,
        "time": 67.0192730078125,
        "velocity": 0.5984251968503937
    },
    {
        "duration": 0.09375,
        "durationTicks": 256,
        "midi": 81,
        "name": "A5",
        "ticks": 183051,
        "time": 67.1100933203125,
        "velocity": 0.5984251968503937
    },
    {
        "duration": 0.0992431640625,
        "durationTicks": 271,
        "midi": 81,
        "name": "A5",
        "ticks": 183308,
        "time": 67.20420953125,
        "velocity": 0.6062992125984252
    },
    {
        "duration": 0.3702392578125,
        "durationTicks": 1011,
        "midi": 33,
        "name": "A1",
        "ticks": 183308,
        "time": 67.20420953125,
        "velocity": 0.6141732283464567
    },
    {
        "duration": 0.3702392578125,
        "durationTicks": 1011,
        "midi": 45,
        "name": "A2",
        "ticks": 183308,
        "time": 67.20420953125,
        "velocity": 0.7480314960629921
    },
    {
        "duration": 0.095947265625,
        "durationTicks": 262,
        "midi": 69,
        "name": "A4",
        "ticks": 183565,
        "time": 67.2983257421875,
        "velocity": 0.5984251968503937
    },
    {
        "duration": 0.095947265625,
        "durationTicks": 262,
        "midi": 81,
        "name": "A5",
        "ticks": 183813,
        "time": 67.3891460546875,
        "velocity": 0.5984251968503937
    },
    {
        "duration": 0.0999755859375,
        "durationTicks": 273,
        "midi": 69,
        "name": "A4",
        "ticks": 184061,
        "time": 67.4799663671875,
        "velocity": 0.5984251968503937
    },
    {
        "duration": 0.1124267578125,
        "durationTicks": 307,
        "midi": 76,
        "name": "E5",
        "ticks": 184324,
        "time": 67.57627984375,
        "velocity": 0.6377952755905512
    },
    {
        "duration": 0.3841552734375,
        "durationTicks": 1049,
        "midi": 50,
        "name": "D3",
        "ticks": 184324,
        "time": 67.57627984375,
        "velocity": 0.6692913385826772
    },
    {
        "duration": 0.3841552734375,
        "durationTicks": 1049,
        "midi": 52,
        "name": "E3",
        "ticks": 184324,
        "time": 67.57627984375,
        "velocity": 0.6692913385826772
    },
    {
        "duration": 0.3841552734375,
        "durationTicks": 1049,
        "midi": 56,
        "name": "G#3",
        "ticks": 184324,
        "time": 67.57627984375,
        "velocity": 0.6692913385826772
    },
    {
        "duration": 0.3841552734375,
        "durationTicks": 1049,
        "midi": 59,
        "name": "B3",
        "ticks": 184324,
        "time": 67.57627984375,
        "velocity": 0.7795275590551181
    },
    {
        "duration": 0.0963134765625,
        "durationTicks": 263,
        "midi": 64,
        "name": "E4",
        "ticks": 184617,
        "time": 67.6835796484375,
        "velocity": 0.5984251968503937
    },
    {
        "duration": 0.0908203125,
        "durationTicks": 248,
        "midi": 76,
        "name": "E5",
        "ticks": 184866,
        "time": 67.774766171875,
        "velocity": 0.5984251968503937
    },
    {
        "duration": 0.0999755859375,
        "durationTicks": 273,
        "midi": 76,
        "name": "E5",
        "ticks": 185115,
        "time": 67.8659526953125,
        "velocity": 0.5984251968503937
    },
    {
        "duration": 0.099609375,
        "durationTicks": 272,
        "midi": 88,
        "name": "E6",
        "ticks": 185374,
        "time": 67.960801328125,
        "velocity": 0.6062992125984252
    },
    {
        "duration": 0.371337890625,
        "durationTicks": 1014,
        "midi": 28,
        "name": "E1",
        "ticks": 185374,
        "time": 67.960801328125,
        "velocity": 0.6062992125984252
    },
    {
        "duration": 0.371337890625,
        "durationTicks": 1014,
        "midi": 40,
        "name": "E2",
        "ticks": 185374,
        "time": 67.960801328125,
        "velocity": 0.7401574803149606
    },
    {
        "duration": 0.0955810546875,
        "durationTicks": 261,
        "midi": 76,
        "name": "E5",
        "ticks": 185632,
        "time": 68.05528375,
        "velocity": 0.5984251968503937
    },
    {
        "duration": 0.0904541015625,
        "durationTicks": 247,
        "midi": 88,
        "name": "E6",
        "ticks": 185879,
        "time": 68.1457378515625,
        "velocity": 0.5984251968503937
    },
    {
        "duration": 0.10107421875,
        "durationTicks": 276,
        "midi": 88,
        "name": "E6",
        "ticks": 186127,
        "time": 68.2365581640625,
        "velocity": 0.5984251968503937
    },
    {
        "duration": 0.10153714453124962,
        "durationTicks": 277,
        "midi": 95,
        "name": "B6",
        "ticks": 186389,
        "time": 68.3325054296875,
        "velocity": 0.6220472440944882
    },
    {
        "duration": 0.375008426757816,
        "durationTicks": 1014,
        "midi": 47,
        "name": "B2",
        "ticks": 186389,
        "time": 68.3325054296875,
        "velocity": 0.6535433070866141
    },
    {
        "duration": 0.375008426757816,
        "durationTicks": 1014,
        "midi": 52,
        "name": "E3",
        "ticks": 186389,
        "time": 68.3325054296875,
        "velocity": 0.6535433070866141
    },
    {
        "duration": 0.375008426757816,
        "durationTicks": 1014,
        "midi": 56,
        "name": "G#3",
        "ticks": 186389,
        "time": 68.3325054296875,
        "velocity": 0.7637795275590551
    },
    {
        "duration": 0.09069633984375969,
        "durationTicks": 246,
        "midi": 83,
        "name": "B5",
        "ticks": 186652,
        "time": 68.4288833828125,
        "velocity": 0.5984251968503937
    },
    {
        "duration": 0.09722063183593832,
        "durationTicks": 262,
        "midi": 83,
        "name": "B5",
        "ticks": 186899,
        "time": 68.51995056835938,
        "velocity": 0.5984251968503937
    },
    {
        "duration": 0.10120157714843003,
        "durationTicks": 271,
        "midi": 71,
        "name": "B4",
        "ticks": 187147,
        "time": 68.61194628808595,
        "velocity": 0.5984251968503937
    },
    {
        "duration": 0.1017877587890581,
        "durationTicks": 271,
        "midi": 83,
        "name": "B5",
        "ticks": 187404,
        "time": 68.70788945703126,
        "velocity": 0.6062992125984252
    },
    {
        "duration": 0.3815963144531196,
        "durationTicks": 1011,
        "midi": 28,
        "name": "E1",
        "ticks": 187404,
        "time": 68.70788945703126,
        "velocity": 0.6062992125984252
    },
    {
        "duration": 0.3815963144531196,
        "durationTicks": 1011,
        "midi": 40,
        "name": "E2",
        "ticks": 187404,
        "time": 68.70788945703126,
        "velocity": 0.7401574803149606
    },
    {
        "duration": 0.09845338769530088,
        "durationTicks": 262,
        "midi": 88,
        "name": "E6",
        "ticks": 187661,
        "time": 68.8044188076172,
        "velocity": 0.5984251968503937
    },
    {
        "duration": 0.09906914648436782,
        "durationTicks": 262,
        "midi": 76,
        "name": "E5",
        "ticks": 187909,
        "time": 68.8975798671875,
        "velocity": 0.5984251968503937
    },
    {
        "duration": 0.1038632695312458,
        "durationTicks": 273,
        "midi": 88,
        "name": "E6",
        "ticks": 188157,
        "time": 68.9913296796875,
        "velocity": 0.5984251968503937
    },
    {
        "duration": 0.11602218750000759,
        "durationTicks": 307,
        "midi": 81,
        "name": "A5",
        "ticks": 188420,
        "time": 69.0913881640625,
        "velocity": 0.5748031496062992
    },
    {
        "duration": 0.11052902343750759,
        "durationTicks": 292,
        "midi": 93,
        "name": "A6",
        "ticks": 188420,
        "time": 69.0913881640625,
        "velocity": 0.6850393700787402
    },
    {
        "duration": 0.3877507031250076,
        "durationTicks": 1049,
        "midi": 48,
        "name": "C3",
        "ticks": 188420,
        "time": 69.0913881640625,
        "velocity": 0.6692913385826772
    },
    {
        "duration": 0.3877507031250076,
        "durationTicks": 1049,
        "midi": 52,
        "name": "E3",
        "ticks": 188420,
        "time": 69.0913881640625,
        "velocity": 0.6692913385826772
    },
    {
        "duration": 0.3877507031250076,
        "durationTicks": 1049,
        "midi": 57,
        "name": "A3",
        "ticks": 188420,
        "time": 69.0913881640625,
        "velocity": 0.6692913385826772
    },
    {
        "duration": 0.3877507031250076,
        "durationTicks": 1049,
        "midi": 60,
        "name": "C4",
        "ticks": 188420,
        "time": 69.0913881640625,
        "velocity": 0.7795275590551181
    },
    {
        "duration": 0.0963134765625,
        "durationTicks": 263,
        "midi": 88,
        "name": "E6",
        "ticks": 188713,
        "time": 69.2022833984375,
        "velocity": 0.5354330708661418
    },
    {
        "duration": 0.0908203125,
        "durationTicks": 248,
        "midi": 92,
        "name": "G#6",
        "ticks": 188713,
        "time": 69.2022833984375,
        "velocity": 0.6456692913385826
    },
    {
        "duration": 0.0963134765625,
        "durationTicks": 263,
        "midi": 81,
        "name": "A5",
        "ticks": 188962,
        "time": 69.293469921875,
        "velocity": 0.5354330708661418
    },
    {
        "duration": 0.0908203125,
        "durationTicks": 248,
        "midi": 93,
        "name": "A6",
        "ticks": 188962,
        "time": 69.293469921875,
        "velocity": 0.6456692913385826
    },
    {
        "duration": 0.0999755859375,
        "durationTicks": 273,
        "midi": 83,
        "name": "B5",
        "ticks": 189211,
        "time": 69.3846564453125,
        "velocity": 0.5354330708661418
    },
    {
        "duration": 0.094482421875,
        "durationTicks": 258,
        "midi": 92,
        "name": "G#6",
        "ticks": 189211,
        "time": 69.3846564453125,
        "velocity": 0.6456692913385826
    },
    {
        "duration": 0.099609375,
        "durationTicks": 272,
        "midi": 81,
        "name": "A5",
        "ticks": 189470,
        "time": 69.479505078125,
        "velocity": 0.5433070866141733
    },
    {
        "duration": 0.0941162109375,
        "durationTicks": 257,
        "midi": 93,
        "name": "A6",
        "ticks": 189470,
        "time": 69.479505078125,
        "velocity": 0.6535433070866141
    },
    {
        "duration": 0.371337890625,
        "durationTicks": 1014,
        "midi": 52,
        "name": "E3",
        "ticks": 189470,
        "time": 69.479505078125,
        "velocity": 0.6377952755905512
    },
    {
        "duration": 0.371337890625,
        "durationTicks": 1014,
        "midi": 57,
        "name": "A3",
        "ticks": 189470,
        "time": 69.479505078125,
        "velocity": 0.6377952755905512
    },
    {
        "duration": 0.371337890625,
        "durationTicks": 1014,
        "midi": 60,
        "name": "C4",
        "ticks": 189470,
        "time": 69.479505078125,
        "velocity": 0.6377952755905512
    },
    {
        "duration": 0.371337890625,
        "durationTicks": 1014,
        "midi": 64,
        "name": "E4",
        "ticks": 189470,
        "time": 69.479505078125,
        "velocity": 0.7480314960629921
    },
    {
        "duration": 0.0955810546875,
        "durationTicks": 261,
        "midi": 88,
        "name": "E6",
        "ticks": 189728,
        "time": 69.5739875,
        "velocity": 0.5354330708661418
    },
    {
        "duration": 0.090087890625,
        "durationTicks": 246,
        "midi": 92,
        "name": "G#6",
        "ticks": 189728,
        "time": 69.5739875,
        "velocity": 0.6456692913385826
    },
    {
        "duration": 0.095947265625,
        "durationTicks": 262,
        "midi": 81,
        "name": "A5",
        "ticks": 189975,
        "time": 69.6644416015625,
        "velocity": 0.5354330708661418
    },
    {
        "duration": 0.0904541015625,
        "durationTicks": 247,
        "midi": 93,
        "name": "A6",
        "ticks": 189975,
        "time": 69.6644416015625,
        "velocity": 0.6456692913385826
    },
    {
        "duration": 0.10107421875,
        "durationTicks": 276,
        "midi": 83,
        "name": "B5",
        "ticks": 190223,
        "time": 69.7552619140625,
        "velocity": 0.5354330708661418
    },
    {
        "duration": 0.0955810546875,
        "durationTicks": 261,
        "midi": 92,
        "name": "G#6",
        "ticks": 190223,
        "time": 69.7552619140625,
        "velocity": 0.6456692913385826
    },
    {
        "duration": 0.1014404296875,
        "durationTicks": 277,
        "midi": 81,
        "name": "A5",
        "ticks": 190485,
        "time": 69.8512091796875,
        "velocity": 0.5590551181102362
    },
    {
        "duration": 0.095947265625,
        "durationTicks": 262,
        "midi": 93,
        "name": "A6",
        "ticks": 190485,
        "time": 69.8512091796875,
        "velocity": 0.6692913385826772
    },
    {
        "duration": 0.371337890625,
        "durationTicks": 1014,
        "midi": 57,
        "name": "A3",
        "ticks": 190485,
        "time": 69.8512091796875,
        "velocity": 0.6535433070866141
    },
    {
        "duration": 0.371337890625,
        "durationTicks": 1014,
        "midi": 60,
        "name": "C4",
        "ticks": 190485,
        "time": 69.8512091796875,
        "velocity": 0.6535433070866141
    },
    {
        "duration": 0.371337890625,
        "durationTicks": 1014,
        "midi": 64,
        "name": "E4",
        "ticks": 190485,
        "time": 69.8512091796875,
        "velocity": 0.6535433070866141
    },
    {
        "duration": 0.371337890625,
        "durationTicks": 1014,
        "midi": 69,
        "name": "A4",
        "ticks": 190485,
        "time": 69.8512091796875,
        "velocity": 0.7637795275590551
    },
    {
        "duration": 0.0955810546875,
        "durationTicks": 261,
        "midi": 88,
        "name": "E6",
        "ticks": 190748,
        "time": 69.94752265625,
        "velocity": 0.5354330708661418
    },
    {
        "duration": 0.090087890625,
        "durationTicks": 246,
        "midi": 92,
        "name": "G#6",
        "ticks": 190748,
        "time": 69.94752265625,
        "velocity": 0.6456692913385826
    },
    {
        "duration": 0.095947265625,
        "durationTicks": 262,
        "midi": 81,
        "name": "A5",
        "ticks": 190995,
        "time": 70.0379767578125,
        "velocity": 0.5354330708661418
    },
    {
        "duration": 0.0904541015625,
        "durationTicks": 247,
        "midi": 93,
        "name": "A6",
        "ticks": 190995,
        "time": 70.0379767578125,
        "velocity": 0.6456692913385826
    },
    {
        "duration": 0.0992431640625,
        "durationTicks": 271,
        "midi": 83,
        "name": "B5",
        "ticks": 191243,
        "time": 70.1287970703125,
        "velocity": 0.5354330708661418
    },
    {
        "duration": 0.09375,
        "durationTicks": 256,
        "midi": 92,
        "name": "G#6",
        "ticks": 191243,
        "time": 70.1287970703125,
        "velocity": 0.6456692913385826
    },
    {
        "duration": 0.0992431640625,
        "durationTicks": 271,
        "midi": 81,
        "name": "A5",
        "ticks": 191500,
        "time": 70.22291328125,
        "velocity": 0.5433070866141733
    },
    {
        "duration": 0.09375,
        "durationTicks": 256,
        "midi": 93,
        "name": "A6",
        "ticks": 191500,
        "time": 70.22291328125,
        "velocity": 0.6535433070866141
    },
    {
        "duration": 0.3702392578125,
        "durationTicks": 1011,
        "midi": 21,
        "name": "A0",
        "ticks": 191500,
        "time": 70.22291328125,
        "velocity": 0.5826771653543307
    },
    {
        "duration": 0.3702392578125,
        "durationTicks": 1011,
        "midi": 28,
        "name": "E1",
        "ticks": 191500,
        "time": 70.22291328125,
        "velocity": 0.6062992125984252
    },
    {
        "duration": 0.3702392578125,
        "durationTicks": 1011,
        "midi": 33,
        "name": "A1",
        "ticks": 191500,
        "time": 70.22291328125,
        "velocity": 0.7244094488188977
    },
    {
        "duration": 0.095947265625,
        "durationTicks": 262,
        "midi": 86,
        "name": "D6",
        "ticks": 191757,
        "time": 70.3170294921875,
        "velocity": 0.5354330708661418
    },
    {
        "duration": 0.0904541015625,
        "durationTicks": 247,
        "midi": 92,
        "name": "G#6",
        "ticks": 191757,
        "time": 70.3170294921875,
        "velocity": 0.6456692913385826
    },
    {
        "duration": 0.095947265625,
        "durationTicks": 262,
        "midi": 81,
        "name": "A5",
        "ticks": 192005,
        "time": 70.4078498046875,
        "velocity": 0.5354330708661418
    },
    {
        "duration": 0.0904541015625,
        "durationTicks": 247,
        "midi": 93,
        "name": "A6",
        "ticks": 192005,
        "time": 70.4078498046875,
        "velocity": 0.6456692913385826
    },
    {
        "duration": 0.0999755859375,
        "durationTicks": 273,
        "midi": 88,
        "name": "E6",
        "ticks": 192253,
        "time": 70.4986701171875,
        "velocity": 0.5354330708661418
    },
    {
        "duration": 0.094482421875,
        "durationTicks": 258,
        "midi": 92,
        "name": "G#6",
        "ticks": 192253,
        "time": 70.4986701171875,
        "velocity": 0.6456692913385826
    },
    {
        "duration": 0.1124267578125,
        "durationTicks": 307,
        "midi": 93,
        "name": "A6",
        "ticks": 192516,
        "time": 70.59498359375,
        "velocity": 0.6377952755905512
    },
    {
        "duration": 0.1871337890625,
        "durationTicks": 511,
        "midi": 56,
        "name": "G#3",
        "ticks": 192516,
        "time": 70.59498359375,
        "velocity": 0.6692913385826772
    },
    {
        "duration": 0.1871337890625,
        "durationTicks": 511,
        "midi": 59,
        "name": "B3",
        "ticks": 192516,
        "time": 70.59498359375,
        "velocity": 0.6692913385826772
    },
    {
        "duration": 0.1981201171875,
        "durationTicks": 541,
        "midi": 64,
        "name": "E4",
        "ticks": 192516,
        "time": 70.59498359375,
        "velocity": 0.6692913385826772
    },
    {
        "duration": 0.1981201171875,
        "durationTicks": 541,
        "midi": 68,
        "name": "G#4",
        "ticks": 192516,
        "time": 70.59498359375,
        "velocity": 0.7795275590551181
    },
    {
        "duration": 0.0963134765625,
        "durationTicks": 263,
        "midi": 88,
        "name": "E6",
        "ticks": 192809,
        "time": 70.7022833984375,
        "velocity": 0.5984251968503937
    },
    {
        "duration": 0.0963134765625,
        "durationTicks": 263,
        "midi": 84,
        "name": "C6",
        "ticks": 193058,
        "time": 70.793469921875,
        "velocity": 0.5984251968503937
    },
    {
        "duration": 0.1746826171875,
        "durationTicks": 477,
        "midi": 40,
        "name": "E2",
        "ticks": 193058,
        "time": 70.793469921875,
        "velocity": 0.6850393700787402
    },
    {
        "duration": 0.0999755859375,
        "durationTicks": 273,
        "midi": 81,
        "name": "A5",
        "ticks": 193307,
        "time": 70.8846564453125,
        "velocity": 0.5984251968503937
    },
    {
        "duration": 0.099609375,
        "durationTicks": 272,
        "midi": 84,
        "name": "C6",
        "ticks": 193566,
        "time": 70.979505078125,
        "velocity": 0.6062992125984252
    },
    {
        "duration": 0.173583984375,
        "durationTicks": 474,
        "midi": 44,
        "name": "G#2",
        "ticks": 193566,
        "time": 70.979505078125,
        "velocity": 0.7007874015748031
    },
    {
        "duration": 0.0955810546875,
        "durationTicks": 261,
        "midi": 81,
        "name": "A5",
        "ticks": 193824,
        "time": 71.0739875,
        "velocity": 0.5984251968503937
    },
    {
        "duration": 0.095947265625,
        "durationTicks": 262,
        "midi": 84,
        "name": "C6",
        "ticks": 194071,
        "time": 71.1644416015625,
        "velocity": 0.5984251968503937
    },
    {
        "duration": 0.1754150390625,
        "durationTicks": 479,
        "midi": 47,
        "name": "B2",
        "ticks": 194071,
        "time": 71.1644416015625,
        "velocity": 0.6929133858267716
    },
    {
        "duration": 0.10107421875,
        "durationTicks": 276,
        "midi": 88,
        "name": "E6",
        "ticks": 194319,
        "time": 71.2552619140625,
        "velocity": 0.5984251968503937
    },
    {
        "duration": 0.10153714453124962,
        "durationTicks": 277,
        "midi": 84,
        "name": "C6",
        "ticks": 194581,
        "time": 71.3512091796875,
        "velocity": 0.6220472440944882
    },
    {
        "duration": 0.17597690624999984,
        "durationTicks": 479,
        "midi": 52,
        "name": "E3",
        "ticks": 194581,
        "time": 71.3512091796875,
        "velocity": 0.7165354330708661
    },
    {
        "duration": 0.09625902539062281,
        "durationTicks": 261,
        "midi": 81,
        "name": "A5",
        "ticks": 194844,
        "time": 71.4475871328125,
        "velocity": 0.5984251968503937
    },
    {
        "duration": 0.09722063183593832,
        "durationTicks": 262,
        "midi": 76,
        "name": "E5",
        "ticks": 195091,
        "time": 71.53865431835938,
        "velocity": 0.5984251968503937
    },
    {
        "duration": 0.17634072949219615,
        "durationTicks": 474,
        "midi": 56,
        "name": "G#3",
        "ticks": 195091,
        "time": 71.53865431835938,
        "velocity": 0.6929133858267716
    },
    {
        "duration": 0.10120157714843003,
        "durationTicks": 271,
        "midi": 72,
        "name": "C5",
        "ticks": 195339,
        "time": 71.63065003808595,
        "velocity": 0.5984251968503937
    },
    {
        "duration": 0.1017877587890581,
        "durationTicks": 271,
        "midi": 76,
        "name": "E5",
        "ticks": 195596,
        "time": 71.72659320703126,
        "velocity": 0.6062992125984252
    },
    {
        "duration": 0.17803467773437376,
        "durationTicks": 474,
        "midi": 59,
        "name": "B3",
        "ticks": 195596,
        "time": 71.72659320703126,
        "velocity": 0.7007874015748031
    },
    {
        "duration": 0.09845338769530088,
        "durationTicks": 262,
        "midi": 72,
        "name": "C5",
        "ticks": 195853,
        "time": 71.8231225576172,
        "velocity": 0.5984251968503937
    },
    {
        "duration": 0.09906914648436782,
        "durationTicks": 262,
        "midi": 69,
        "name": "A4",
        "ticks": 196101,
        "time": 71.9162836171875,
        "velocity": 0.5984251968503937
    },
    {
        "duration": 0.18049154882811536,
        "durationTicks": 476,
        "midi": 64,
        "name": "E4",
        "ticks": 196101,
        "time": 71.9162836171875,
        "velocity": 0.6929133858267716
    },
    {
        "duration": 0.1038632695312458,
        "durationTicks": 273,
        "midi": 72,
        "name": "C5",
        "ticks": 196349,
        "time": 72.0100334296875,
        "velocity": 0.5984251968503937
    },
    {
        "duration": 0.3877507031250076,
        "durationTicks": 1049,
        "midi": 76,
        "name": "E5",
        "ticks": 196612,
        "time": 72.1100919140625,
        "velocity": 0.6692913385826772
    },
    {
        "duration": 0.3877507031250076,
        "durationTicks": 1049,
        "midi": 81,
        "name": "A5",
        "ticks": 196612,
        "time": 72.1100919140625,
        "velocity": 0.6692913385826772
    },
    {
        "duration": 0.3877507031250076,
        "durationTicks": 1049,
        "midi": 84,
        "name": "C6",
        "ticks": 196612,
        "time": 72.1100919140625,
        "velocity": 0.6692913385826772
    },
    {
        "duration": 0.3877507031250076,
        "durationTicks": 1049,
        "midi": 88,
        "name": "E6",
        "ticks": 196612,
        "time": 72.1100919140625,
        "velocity": 0.7795275590551181
    },
    {
        "duration": 0.10503585937500759,
        "durationTicks": 277,
        "midi": 72,
        "name": "C5",
        "ticks": 196612,
        "time": 72.1100919140625,
        "velocity": 0.7322834645669292
    },
    {
        "duration": 0.0853271484375,
        "durationTicks": 233,
        "midi": 71,
        "name": "B4",
        "ticks": 196905,
        "time": 72.2209871484375,
        "velocity": 0.6929133858267716
    },
    {
        "duration": 0.0853271484375,
        "durationTicks": 233,
        "midi": 69,
        "name": "A4",
        "ticks": 197154,
        "time": 72.312173671875,
        "velocity": 0.6929133858267716
    },
    {
        "duration": 0.0889892578125,
        "durationTicks": 243,
        "midi": 67,
        "name": "G4",
        "ticks": 197403,
        "time": 72.4033601953125,
        "velocity": 0.6929133858267716
    },
    {
        "duration": 0.173583984375,
        "durationTicks": 474,
        "midi": 71,
        "name": "B4",
        "ticks": 197662,
        "time": 72.498208828125,
        "velocity": 0.6377952755905512
    },
    {
        "duration": 0.1845703125,
        "durationTicks": 504,
        "midi": 83,
        "name": "B5",
        "ticks": 197662,
        "time": 72.498208828125,
        "velocity": 0.7480314960629921
    },
    {
        "duration": 0.088623046875,
        "durationTicks": 242,
        "midi": 65,
        "name": "F4",
        "ticks": 197662,
        "time": 72.498208828125,
        "velocity": 0.7007874015748031
    },
    {
        "duration": 0.0845947265625,
        "durationTicks": 231,
        "midi": 64,
        "name": "E4",
        "ticks": 197920,
        "time": 72.59269125,
        "velocity": 0.6929133858267716
    },
    {
        "duration": 0.1754150390625,
        "durationTicks": 479,
        "midi": 72,
        "name": "C5",
        "ticks": 198167,
        "time": 72.6831453515625,
        "velocity": 0.6299212598425197
    },
    {
        "duration": 0.1864013671875,
        "durationTicks": 509,
        "midi": 84,
        "name": "C6",
        "ticks": 198167,
        "time": 72.6831453515625,
        "velocity": 0.7401574803149606
    },
    {
        "duration": 0.0849609375,
        "durationTicks": 232,
        "midi": 62,
        "name": "D4",
        "ticks": 198167,
        "time": 72.6831453515625,
        "velocity": 0.6929133858267716
    },
    {
        "duration": 0.090087890625,
        "durationTicks": 246,
        "midi": 60,
        "name": "C4",
        "ticks": 198415,
        "time": 72.7739656640625,
        "velocity": 0.6929133858267716
    },
    {
        "duration": 0.1754150390625,
        "durationTicks": 479,
        "midi": 74,
        "name": "D5",
        "ticks": 198677,
        "time": 72.8699129296875,
        "velocity": 0.6535433070866141
    },
    {
        "duration": 0.1864013671875,
        "durationTicks": 509,
        "midi": 86,
        "name": "D6",
        "ticks": 198677,
        "time": 72.8699129296875,
        "velocity": 0.7637795275590551
    },
    {
        "duration": 0.0904541015625,
        "durationTicks": 247,
        "midi": 59,
        "name": "B3",
        "ticks": 198677,
        "time": 72.8699129296875,
        "velocity": 0.7165354330708661
    },
    {
        "duration": 0.0845947265625,
        "durationTicks": 231,
        "midi": 57,
        "name": "A3",
        "ticks": 198940,
        "time": 72.96622640625,
        "velocity": 0.6929133858267716
    },
    {
        "duration": 0.0849609375,
        "durationTicks": 232,
        "midi": 76,
        "name": "E5",
        "ticks": 199187,
        "time": 73.0566805078125,
        "velocity": 0.6299212598425197
    },
    {
        "duration": 0.0904541015625,
        "durationTicks": 247,
        "midi": 88,
        "name": "E6",
        "ticks": 199187,
        "time": 73.0566805078125,
        "velocity": 0.7401574803149606
    },
    {
        "duration": 0.0849609375,
        "durationTicks": 232,
        "midi": 55,
        "name": "G3",
        "ticks": 199187,
        "time": 73.0566805078125,
        "velocity": 0.6929133858267716
    },
    {
        "duration": 0.0882568359375,
        "durationTicks": 241,
        "midi": 74,
        "name": "D5",
        "ticks": 199435,
        "time": 73.1475008203125,
        "velocity": 0.6299212598425197
    },
    {
        "duration": 0.09375,
        "durationTicks": 256,
        "midi": 86,
        "name": "D6",
        "ticks": 199435,
        "time": 73.1475008203125,
        "velocity": 0.7401574803149606
    },
    {
        "duration": 0.0882568359375,
        "durationTicks": 241,
        "midi": 53,
        "name": "F3",
        "ticks": 199435,
        "time": 73.1475008203125,
        "velocity": 0.6929133858267716
    },
    {
        "duration": 0.173583984375,
        "durationTicks": 474,
        "midi": 72,
        "name": "C5",
        "ticks": 199692,
        "time": 73.24161703125,
        "velocity": 0.6377952755905512
    },
    {
        "duration": 0.1845703125,
        "durationTicks": 504,
        "midi": 76,
        "name": "E5",
        "ticks": 199692,
        "time": 73.24161703125,
        "velocity": 0.6377952755905512
    },
    {
        "duration": 0.1845703125,
        "durationTicks": 504,
        "midi": 81,
        "name": "A5",
        "ticks": 199692,
        "time": 73.24161703125,
        "velocity": 0.6377952755905512
    },
    {
        "duration": 0.1845703125,
        "durationTicks": 504,
        "midi": 84,
        "name": "C6",
        "ticks": 199692,
        "time": 73.24161703125,
        "velocity": 0.7480314960629921
    },
    {
        "duration": 0.0882568359375,
        "durationTicks": 241,
        "midi": 52,
        "name": "E3",
        "ticks": 199692,
        "time": 73.24161703125,
        "velocity": 0.7007874015748031
    },
    {
        "duration": 0.0849609375,
        "durationTicks": 232,
        "midi": 50,
        "name": "D3",
        "ticks": 199949,
        "time": 73.3357332421875,
        "velocity": 0.6929133858267716
    },
    {
        "duration": 0.17431640625,
        "durationTicks": 476,
        "midi": 71,
        "name": "B4",
        "ticks": 200197,
        "time": 73.4265535546875,
        "velocity": 0.6299212598425197
    },
    {
        "duration": 0.185302734375,
        "durationTicks": 506,
        "midi": 76,
        "name": "E5",
        "ticks": 200197,
        "time": 73.4265535546875,
        "velocity": 0.6299212598425197
    },
    {
        "duration": 0.185302734375,
        "durationTicks": 506,
        "midi": 80,
        "name": "G#5",
        "ticks": 200197,
        "time": 73.4265535546875,
        "velocity": 0.6299212598425197
    },
    {
        "duration": 0.185302734375,
        "durationTicks": 506,
        "midi": 83,
        "name": "B5",
        "ticks": 200197,
        "time": 73.4265535546875,
        "velocity": 0.7401574803149606
    },
    {
        "duration": 0.0849609375,
        "durationTicks": 232,
        "midi": 48,
        "name": "C3",
        "ticks": 200197,
        "time": 73.4265535546875,
        "velocity": 0.6929133858267716
    },
    {
        "duration": 0.0889892578125,
        "durationTicks": 243,
        "midi": 47,
        "name": "B2",
        "ticks": 200445,
        "time": 73.5173738671875,
        "velocity": 0.6929133858267716
    },
    {
        "duration": 0.1981201171875,
        "durationTicks": 541,
        "midi": 69,
        "name": "A4",
        "ticks": 200708,
        "time": 73.61368734375,
        "velocity": 0.6692913385826772
    },
    {
        "duration": 0.1981201171875,
        "durationTicks": 541,
        "midi": 72,
        "name": "C5",
        "ticks": 200708,
        "time": 73.61368734375,
        "velocity": 0.6692913385826772
    },
    {
        "duration": 0.1981201171875,
        "durationTicks": 541,
        "midi": 76,
        "name": "E5",
        "ticks": 200708,
        "time": 73.61368734375,
        "velocity": 0.6692913385826772
    },
    {
        "duration": 0.1981201171875,
        "durationTicks": 541,
        "midi": 81,
        "name": "A5",
        "ticks": 200708,
        "time": 73.61368734375,
        "velocity": 0.7795275590551181
    },
    {
        "duration": 0.1014404296875,
        "durationTicks": 277,
        "midi": 64,
        "name": "E4",
        "ticks": 200708,
        "time": 73.61368734375,
        "velocity": 0.7322834645669292
    },
    {
        "duration": 0.0853271484375,
        "durationTicks": 233,
        "midi": 62,
        "name": "D4",
        "ticks": 201001,
        "time": 73.7209871484375,
        "velocity": 0.6929133858267716
    },
    {
        "duration": 0.1746826171875,
        "durationTicks": 477,
        "midi": 64,
        "name": "E4",
        "ticks": 201250,
        "time": 73.812173671875,
        "velocity": 0.6299212598425197
    },
    {
        "duration": 0.1856689453125,
        "durationTicks": 507,
        "midi": 69,
        "name": "A4",
        "ticks": 201250,
        "time": 73.812173671875,
        "velocity": 0.6299212598425197
    },
    {
        "duration": 0.1856689453125,
        "durationTicks": 507,
        "midi": 72,
        "name": "C5",
        "ticks": 201250,
        "time": 73.812173671875,
        "velocity": 0.7401574803149606
    },
    {
        "duration": 0.0853271484375,
        "durationTicks": 233,
        "midi": 60,
        "name": "C4",
        "ticks": 201250,
        "time": 73.812173671875,
        "velocity": 0.6929133858267716
    },
    {
        "duration": 0.0889892578125,
        "durationTicks": 243,
        "midi": 59,
        "name": "B3",
        "ticks": 201499,
        "time": 73.9033601953125,
        "velocity": 0.6929133858267716
    },
    {
        "duration": 0.173583984375,
        "durationTicks": 474,
        "midi": 69,
        "name": "A4",
        "ticks": 201758,
        "time": 73.998208828125,
        "velocity": 0.6377952755905512
    },
    {
        "duration": 0.1845703125,
        "durationTicks": 504,
        "midi": 72,
        "name": "C5",
        "ticks": 201758,
        "time": 73.998208828125,
        "velocity": 0.6377952755905512
    },
    {
        "duration": 0.1845703125,
        "durationTicks": 504,
        "midi": 76,
        "name": "E5",
        "ticks": 201758,
        "time": 73.998208828125,
        "velocity": 0.6377952755905512
    },
    {
        "duration": 0.1845703125,
        "durationTicks": 504,
        "midi": 81,
        "name": "A5",
        "ticks": 201758,
        "time": 73.998208828125,
        "velocity": 0.7480314960629921
    },
    {
        "duration": 0.088623046875,
        "durationTicks": 242,
        "midi": 57,
        "name": "A3",
        "ticks": 201758,
        "time": 73.998208828125,
        "velocity": 0.7007874015748031
    },
    {
        "duration": 0.0845947265625,
        "durationTicks": 231,
        "midi": 55,
        "name": "G3",
        "ticks": 202016,
        "time": 74.09269125,
        "velocity": 0.6929133858267716
    },
    {
        "duration": 0.1754150390625,
        "durationTicks": 479,
        "midi": 72,
        "name": "C5",
        "ticks": 202263,
        "time": 74.1831453515625,
        "velocity": 0.6299212598425197
    },
    {
        "duration": 0.1864013671875,
        "durationTicks": 509,
        "midi": 76,
        "name": "E5",
        "ticks": 202263,
        "time": 74.1831453515625,
        "velocity": 0.6299212598425197
    },
    {
        "duration": 0.1864013671875,
        "durationTicks": 509,
        "midi": 81,
        "name": "A5",
        "ticks": 202263,
        "time": 74.1831453515625,
        "velocity": 0.6299212598425197
    },
    {
        "duration": 0.1864013671875,
        "durationTicks": 509,
        "midi": 84,
        "name": "C6",
        "ticks": 202263,
        "time": 74.1831453515625,
        "velocity": 0.7401574803149606
    },
    {
        "duration": 0.0849609375,
        "durationTicks": 232,
        "midi": 53,
        "name": "F3",
        "ticks": 202263,
        "time": 74.1831453515625,
        "velocity": 0.6929133858267716
    },
    {
        "duration": 0.090087890625,
        "durationTicks": 246,
        "midi": 52,
        "name": "E3",
        "ticks": 202511,
        "time": 74.2739656640625,
        "velocity": 0.6929133858267716
    },
    {
        "duration": 0.37375437304687864,
        "durationTicks": 1014,
        "midi": 76,
        "name": "E5",
        "ticks": 202773,
        "time": 74.3699129296875,
        "velocity": 0.6535433070866141
    },
    {
        "duration": 0.37375437304687864,
        "durationTicks": 1014,
        "midi": 81,
        "name": "A5",
        "ticks": 202773,
        "time": 74.3699129296875,
        "velocity": 0.6535433070866141
    },
    {
        "duration": 0.37375437304687864,
        "durationTicks": 1014,
        "midi": 84,
        "name": "C6",
        "ticks": 202773,
        "time": 74.3699129296875,
        "velocity": 0.6535433070866141
    },
    {
        "duration": 0.37375437304687864,
        "durationTicks": 1014,
        "midi": 88,
        "name": "E6",
        "ticks": 202773,
        "time": 74.3699129296875,
        "velocity": 0.7637795275590551
    },
    {
        "duration": 0.09048173437500395,
        "durationTicks": 247,
        "midi": 50,
        "name": "D3",
        "ticks": 202773,
        "time": 74.3699129296875,
        "velocity": 0.7165354330708661
    },
    {
        "duration": 0.08512665820312293,
        "durationTicks": 231,
        "midi": 48,
        "name": "C3",
        "ticks": 203036,
        "time": 74.4662908828125,
        "velocity": 0.6929133858267716
    },
    {
        "duration": 0.08549517187499589,
        "durationTicks": 232,
        "midi": 47,
        "name": "B2",
        "ticks": 203283,
        "time": 74.55731375976563,
        "velocity": 0.6929133858267716
    },
    {
        "duration": 0.08937381445312553,
        "durationTicks": 241,
        "midi": 45,
        "name": "A2",
        "ticks": 203531,
        "time": 74.64873080273438,
        "velocity": 0.6929133858267716
    },
    {
        "duration": 0.17632419335937755,
        "durationTicks": 474,
        "midi": 74,
        "name": "D5",
        "ticks": 203788,
        "time": 74.74403814843751,
        "velocity": 0.6377952755905512
    },
    {
        "duration": 0.18752043359374682,
        "durationTicks": 504,
        "midi": 86,
        "name": "D6",
        "ticks": 203788,
        "time": 74.74403814843751,
        "velocity": 0.7480314960629921
    },
    {
        "duration": 0.08937381445312553,
        "durationTicks": 241,
        "midi": 43,
        "name": "G2",
        "ticks": 203788,
        "time": 74.74403814843751,
        "velocity": 0.7007874015748031
    },
    {
        "duration": 0.0865842578124898,
        "durationTicks": 232,
        "midi": 41,
        "name": "F2",
        "ticks": 204045,
        "time": 74.83937620410158,
        "velocity": 0.6929133858267716
    },
    {
        "duration": 0.17818534179687617,
        "durationTicks": 476,
        "midi": 72,
        "name": "C5",
        "ticks": 204293,
        "time": 74.93193179003907,
        "velocity": 0.6299212598425197
    },
    {
        "duration": 0.18945335937499408,
        "durationTicks": 506,
        "midi": 84,
        "name": "C6",
        "ticks": 204293,
        "time": 74.93193179003907,
        "velocity": 0.7401574803149606
    },
    {
        "duration": 0.086584257812504,
        "durationTicks": 232,
        "midi": 40,
        "name": "E2",
        "ticks": 204293,
        "time": 74.93193179003907,
        "velocity": 0.6850393700787402
    },
    {
        "duration": 0.09126376464843133,
        "durationTicks": 243,
        "midi": 38,
        "name": "D2",
        "ticks": 204541,
        "time": 75.02448737597658,
        "velocity": 0.6850393700787402
    },
    {
        "duration": 0.1981201171875,
        "durationTicks": 541,
        "midi": 71,
        "name": "B4",
        "ticks": 204804,
        "time": 75.12322559375,
        "velocity": 0.6692913385826772
    },
    {
        "duration": 0.1871337890625,
        "durationTicks": 511,
        "midi": 76,
        "name": "E5",
        "ticks": 204804,
        "time": 75.12322559375,
        "velocity": 0.6692913385826772
    },
    {
        "duration": 0.1981201171875,
        "durationTicks": 541,
        "midi": 80,
        "name": "G#5",
        "ticks": 204804,
        "time": 75.12322559375,
        "velocity": 0.6692913385826772
    },
    {
        "duration": 0.1981201171875,
        "durationTicks": 541,
        "midi": 83,
        "name": "B5",
        "ticks": 204804,
        "time": 75.12322559375,
        "velocity": 0.7795275590551181
    },
    {
        "duration": 0.1014404296875,
        "durationTicks": 277,
        "midi": 59,
        "name": "B3",
        "ticks": 204804,
        "time": 75.12322559375,
        "velocity": 0.7322834645669292
    },
    {
        "duration": 0.0853271484375,
        "durationTicks": 233,
        "midi": 57,
        "name": "A3",
        "ticks": 205097,
        "time": 75.2305253984375,
        "velocity": 0.6929133858267716
    },
    {
        "duration": 0.1746826171875,
        "durationTicks": 477,
        "midi": 59,
        "name": "B3",
        "ticks": 205346,
        "time": 75.321711921875,
        "velocity": 0.6299212598425197
    },
    {
        "duration": 0.1746826171875,
        "durationTicks": 477,
        "midi": 64,
        "name": "E4",
        "ticks": 205346,
        "time": 75.321711921875,
        "velocity": 0.6299212598425197
    },
    {
        "duration": 0.1856689453125,
        "durationTicks": 507,
        "midi": 71,
        "name": "B4",
        "ticks": 205346,
        "time": 75.321711921875,
        "velocity": 0.7401574803149606
    },
    {
        "duration": 0.0853271484375,
        "durationTicks": 233,
        "midi": 56,
        "name": "G#3",
        "ticks": 205346,
        "time": 75.321711921875,
        "velocity": 0.6929133858267716
    },
    {
        "duration": 0.0889892578125,
        "durationTicks": 243,
        "midi": 54,
        "name": "F#3",
        "ticks": 205595,
        "time": 75.4128984453125,
        "velocity": 0.6929133858267716
    },
    {
        "duration": 0.173583984375,
        "durationTicks": 474,
        "midi": 71,
        "name": "B4",
        "ticks": 205854,
        "time": 75.507747078125,
        "velocity": 0.6377952755905512
    },
    {
        "duration": 0.1845703125,
        "durationTicks": 504,
        "midi": 76,
        "name": "E5",
        "ticks": 205854,
        "time": 75.507747078125,
        "velocity": 0.6377952755905512
    },
    {
        "duration": 0.1845703125,
        "durationTicks": 504,
        "midi": 80,
        "name": "G#5",
        "ticks": 205854,
        "time": 75.507747078125,
        "velocity": 0.6377952755905512
    },
    {
        "duration": 0.1845703125,
        "durationTicks": 504,
        "midi": 83,
        "name": "B5",
        "ticks": 205854,
        "time": 75.507747078125,
        "velocity": 0.7480314960629921
    },
    {
        "duration": 0.088623046875,
        "durationTicks": 242,
        "midi": 52,
        "name": "E3",
        "ticks": 205854,
        "time": 75.507747078125,
        "velocity": 0.7007874015748031
    },
    {
        "duration": 0.0845947265625,
        "durationTicks": 231,
        "midi": 50,
        "name": "D3",
        "ticks": 206112,
        "time": 75.6022295,
        "velocity": 0.6929133858267716
    },
    {
        "duration": 0.1754150390625,
        "durationTicks": 479,
        "midi": 72,
        "name": "C5",
        "ticks": 206359,
        "time": 75.6926836015625,
        "velocity": 0.6299212598425197
    },
    {
        "duration": 0.1754150390625,
        "durationTicks": 479,
        "midi": 76,
        "name": "E5",
        "ticks": 206359,
        "time": 75.6926836015625,
        "velocity": 0.6299212598425197
    },
    {
        "duration": 0.1864013671875,
        "durationTicks": 509,
        "midi": 81,
        "name": "A5",
        "ticks": 206359,
        "time": 75.6926836015625,
        "velocity": 0.6299212598425197
    },
    {
        "duration": 0.1864013671875,
        "durationTicks": 509,
        "midi": 84,
        "name": "C6",
        "ticks": 206359,
        "time": 75.6926836015625,
        "velocity": 0.7401574803149606
    },
    {
        "duration": 0.0849609375,
        "durationTicks": 232,
        "midi": 48,
        "name": "C3",
        "ticks": 206359,
        "time": 75.6926836015625,
        "velocity": 0.6929133858267716
    },
    {
        "duration": 0.090087890625,
        "durationTicks": 246,
        "midi": 47,
        "name": "B2",
        "ticks": 206607,
        "time": 75.7835039140625,
        "velocity": 0.6929133858267716
    },
    {
        "duration": 0.1864013671875,
        "durationTicks": 509,
        "midi": 74,
        "name": "D5",
        "ticks": 206869,
        "time": 75.8794511796875,
        "velocity": 0.6535433070866141
    },
    {
        "duration": 0.1754150390625,
        "durationTicks": 479,
        "midi": 79,
        "name": "G5",
        "ticks": 206869,
        "time": 75.8794511796875,
        "velocity": 0.6535433070866141
    },
    {
        "duration": 0.1864013671875,
        "durationTicks": 509,
        "midi": 83,
        "name": "B5",
        "ticks": 206869,
        "time": 75.8794511796875,
        "velocity": 0.6535433070866141
    },
    {
        "duration": 0.1864013671875,
        "durationTicks": 509,
        "midi": 86,
        "name": "D6",
        "ticks": 206869,
        "time": 75.8794511796875,
        "velocity": 0.7637795275590551
    },
    {
        "duration": 0.0904541015625,
        "durationTicks": 247,
        "midi": 45,
        "name": "A2",
        "ticks": 206869,
        "time": 75.8794511796875,
        "velocity": 0.7165354330708661
    },
    {
        "duration": 0.0845947265625,
        "durationTicks": 231,
        "midi": 43,
        "name": "G2",
        "ticks": 207132,
        "time": 75.97576465625,
        "velocity": 0.6929133858267716
    },
    {
        "duration": 0.173583984375,
        "durationTicks": 474,
        "midi": 62,
        "name": "D4",
        "ticks": 207379,
        "time": 76.0662187578125,
        "velocity": 0.6299212598425197
    },
    {
        "duration": 0.173583984375,
        "durationTicks": 474,
        "midi": 69,
        "name": "A4",
        "ticks": 207379,
        "time": 76.0662187578125,
        "velocity": 0.6299212598425197
    },
    {
        "duration": 0.1845703125,
        "durationTicks": 504,
        "midi": 74,
        "name": "D5",
        "ticks": 207379,
        "time": 76.0662187578125,
        "velocity": 0.7401574803149606
    },
    {
        "duration": 0.0849609375,
        "durationTicks": 232,
        "midi": 41,
        "name": "F2",
        "ticks": 207379,
        "time": 76.0662187578125,
        "velocity": 0.6929133858267716
    },
    {
        "duration": 0.0882568359375,
        "durationTicks": 241,
        "midi": 40,
        "name": "E2",
        "ticks": 207627,
        "time": 76.1570390703125,
        "velocity": 0.6850393700787402
    },
    {
        "duration": 0.1845703125,
        "durationTicks": 504,
        "midi": 76,
        "name": "E5",
        "ticks": 207884,
        "time": 76.25115528125,
        "velocity": 0.6377952755905512
    },
    {
        "duration": 0.173583984375,
        "durationTicks": 474,
        "midi": 81,
        "name": "A5",
        "ticks": 207884,
        "time": 76.25115528125,
        "velocity": 0.6377952755905512
    },
    {
        "duration": 0.1845703125,
        "durationTicks": 504,
        "midi": 84,
        "name": "C6",
        "ticks": 207884,
        "time": 76.25115528125,
        "velocity": 0.6377952755905512
    },
    {
        "duration": 0.1845703125,
        "durationTicks": 504,
        "midi": 88,
        "name": "E6",
        "ticks": 207884,
        "time": 76.25115528125,
        "velocity": 0.7480314960629921
    },
    {
        "duration": 0.0882568359375,
        "durationTicks": 241,
        "midi": 38,
        "name": "D2",
        "ticks": 207884,
        "time": 76.25115528125,
        "velocity": 0.6929133858267716
    },
    {
        "duration": 0.0849609375,
        "durationTicks": 232,
        "midi": 36,
        "name": "C2",
        "ticks": 208141,
        "time": 76.3452714921875,
        "velocity": 0.6771653543307087
    },
    {
        "duration": 0.17431640625,
        "durationTicks": 476,
        "midi": 64,
        "name": "E4",
        "ticks": 208389,
        "time": 76.4360918046875,
        "velocity": 0.6299212598425197
    },
    {
        "duration": 0.17431640625,
        "durationTicks": 476,
        "midi": 69,
        "name": "A4",
        "ticks": 208389,
        "time": 76.4360918046875,
        "velocity": 0.6299212598425197
    },
    {
        "duration": 0.185302734375,
        "durationTicks": 506,
        "midi": 76,
        "name": "E5",
        "ticks": 208389,
        "time": 76.4360918046875,
        "velocity": 0.7401574803149606
    },
    {
        "duration": 0.0849609375,
        "durationTicks": 232,
        "midi": 35,
        "name": "B1",
        "ticks": 208389,
        "time": 76.4360918046875,
        "velocity": 0.6771653543307087
    },
    {
        "duration": 0.0889892578125,
        "durationTicks": 243,
        "midi": 33,
        "name": "A1",
        "ticks": 208637,
        "time": 76.5269121171875,
        "velocity": 0.6692913385826772
    },
    {
        "duration": 0.1871337890625,
        "durationTicks": 511,
        "midi": 72,
        "name": "C5",
        "ticks": 208900,
        "time": 76.62322559375,
        "velocity": 0.6692913385826772
    },
    {
        "duration": 0.1871337890625,
        "durationTicks": 511,
        "midi": 76,
        "name": "E5",
        "ticks": 208900,
        "time": 76.62322559375,
        "velocity": 0.6692913385826772
    },
    {
        "duration": 0.1981201171875,
        "durationTicks": 541,
        "midi": 81,
        "name": "A5",
        "ticks": 208900,
        "time": 76.62322559375,
        "velocity": 0.6692913385826772
    },
    {
        "duration": 0.1981201171875,
        "durationTicks": 541,
        "midi": 84,
        "name": "C6",
        "ticks": 208900,
        "time": 76.62322559375,
        "velocity": 0.7795275590551181
    },
    {
        "duration": 0.1014404296875,
        "durationTicks": 277,
        "midi": 57,
        "name": "A3",
        "ticks": 208900,
        "time": 76.62322559375,
        "velocity": 0.7322834645669292
    },
    {
        "duration": 0.0853271484375,
        "durationTicks": 233,
        "midi": 55,
        "name": "G3",
        "ticks": 209193,
        "time": 76.7305253984375,
        "velocity": 0.6929133858267716
    },
    {
        "duration": 0.1746826171875,
        "durationTicks": 477,
        "midi": 57,
        "name": "A3",
        "ticks": 209442,
        "time": 76.821711921875,
        "velocity": 0.6299212598425197
    },
    {
        "duration": 0.1746826171875,
        "durationTicks": 477,
        "midi": 64,
        "name": "E4",
        "ticks": 209442,
        "time": 76.821711921875,
        "velocity": 0.6299212598425197
    },
    {
        "duration": 0.1856689453125,
        "durationTicks": 507,
        "midi": 69,
        "name": "A4",
        "ticks": 209442,
        "time": 76.821711921875,
        "velocity": 0.7401574803149606
    },
    {
        "duration": 0.0853271484375,
        "durationTicks": 233,
        "midi": 53,
        "name": "F3",
        "ticks": 209442,
        "time": 76.821711921875,
        "velocity": 0.6929133858267716
    },
    {
        "duration": 0.0889892578125,
        "durationTicks": 243,
        "midi": 52,
        "name": "E3",
        "ticks": 209691,
        "time": 76.9128984453125,
        "velocity": 0.6929133858267716
    },
    {
        "duration": 0.1845703125,
        "durationTicks": 504,
        "midi": 69,
        "name": "A4",
        "ticks": 209950,
        "time": 77.007747078125,
        "velocity": 0.6377952755905512
    },
    {
        "duration": 0.173583984375,
        "durationTicks": 474,
        "midi": 72,
        "name": "C5",
        "ticks": 209950,
        "time": 77.007747078125,
        "velocity": 0.6377952755905512
    },
    {
        "duration": 0.1845703125,
        "durationTicks": 504,
        "midi": 76,
        "name": "E5",
        "ticks": 209950,
        "time": 77.007747078125,
        "velocity": 0.6377952755905512
    },
    {
        "duration": 0.1845703125,
        "durationTicks": 504,
        "midi": 81,
        "name": "A5",
        "ticks": 209950,
        "time": 77.007747078125,
        "velocity": 0.7480314960629921
    },
    {
        "duration": 0.088623046875,
        "durationTicks": 242,
        "midi": 50,
        "name": "D3",
        "ticks": 209950,
        "time": 77.007747078125,
        "velocity": 0.7007874015748031
    },
    {
        "duration": 0.0845947265625,
        "durationTicks": 231,
        "midi": 48,
        "name": "C3",
        "ticks": 210208,
        "time": 77.1022295,
        "velocity": 0.6929133858267716
    },
    {
        "duration": 0.1754150390625,
        "durationTicks": 479,
        "midi": 57,
        "name": "A3",
        "ticks": 210455,
        "time": 77.1926836015625,
        "velocity": 0.6299212598425197
    },
    {
        "duration": 0.1754150390625,
        "durationTicks": 479,
        "midi": 64,
        "name": "E4",
        "ticks": 210455,
        "time": 77.1926836015625,
        "velocity": 0.6299212598425197
    },
    {
        "duration": 0.1864013671875,
        "durationTicks": 509,
        "midi": 69,
        "name": "A4",
        "ticks": 210455,
        "time": 77.1926836015625,
        "velocity": 0.7401574803149606
    },
    {
        "duration": 0.0849609375,
        "durationTicks": 232,
        "midi": 47,
        "name": "B2",
        "ticks": 210455,
        "time": 77.1926836015625,
        "velocity": 0.6929133858267716
    },
    {
        "duration": 0.090087890625,
        "durationTicks": 246,
        "midi": 45,
        "name": "A2",
        "ticks": 210703,
        "time": 77.2835039140625,
        "velocity": 0.6929133858267716
    },
    {
        "duration": 0.18703231640625972,
        "durationTicks": 509,
        "midi": 69,
        "name": "A4",
        "ticks": 210965,
        "time": 77.3794511796875,
        "velocity": 0.6535433070866141
    },
    {
        "duration": 0.17597690624999984,
        "durationTicks": 479,
        "midi": 72,
        "name": "C5",
        "ticks": 210965,
        "time": 77.3794511796875,
        "velocity": 0.6535433070866141
    },
    {
        "duration": 0.18703231640625972,
        "durationTicks": 509,
        "midi": 76,
        "name": "E5",
        "ticks": 210965,
        "time": 77.3794511796875,
        "velocity": 0.6535433070866141
    },
    {
        "duration": 0.18703231640625972,
        "durationTicks": 509,
        "midi": 81,
        "name": "A5",
        "ticks": 210965,
        "time": 77.3794511796875,
        "velocity": 0.7637795275590551
    },
    {
        "duration": 0.09048173437500395,
        "durationTicks": 247,
        "midi": 47,
        "name": "B2",
        "ticks": 210965,
        "time": 77.3794511796875,
        "velocity": 0.7165354330708661
    },
    {
        "duration": 0.08512665820312293,
        "durationTicks": 231,
        "midi": 48,
        "name": "C3",
        "ticks": 211228,
        "time": 77.4758291328125,
        "velocity": 0.6929133858267716
    },
    {
        "duration": 0.18635354296874596,
        "durationTicks": 504,
        "midi": 57,
        "name": "A3",
        "ticks": 211475,
        "time": 77.56685200976564,
        "velocity": 0.6299212598425197
    },
    {
        "duration": 0.1752281718750055,
        "durationTicks": 474,
        "midi": 64,
        "name": "E4",
        "ticks": 211475,
        "time": 77.56685200976564,
        "velocity": 0.6299212598425197
    },
    {
        "duration": 0.18635354296874596,
        "durationTicks": 504,
        "midi": 69,
        "name": "A4",
        "ticks": 211475,
        "time": 77.56685200976564,
        "velocity": 0.7401574803149606
    },
    {
        "duration": 0.08549517187499589,
        "durationTicks": 232,
        "midi": 50,
        "name": "D3",
        "ticks": 211475,
        "time": 77.56685200976564,
        "velocity": 0.6929133858267716
    },
    {
        "duration": 0.08937381445312553,
        "durationTicks": 241,
        "midi": 52,
        "name": "E3",
        "ticks": 211723,
        "time": 77.65826905273438,
        "velocity": 0.6929133858267716
    },
    {
        "duration": 0.08937381445312553,
        "durationTicks": 241,
        "midi": 57,
        "name": "A3",
        "ticks": 211980,
        "time": 77.75357639843752,
        "velocity": 0.6377952755905512
    },
    {
        "duration": 0.09496484765625723,
        "durationTicks": 256,
        "midi": 69,
        "name": "A4",
        "ticks": 211980,
        "time": 77.75357639843752,
        "velocity": 0.7480314960629921
    },
    {
        "duration": 0.08937381445312553,
        "durationTicks": 241,
        "midi": 33,
        "name": "A1",
        "ticks": 211980,
        "time": 77.75357639843752,
        "velocity": 0.6141732283464567
    },
    {
        "duration": 0.09496484765625723,
        "durationTicks": 256,
        "midi": 45,
        "name": "A2",
        "ticks": 211980,
        "time": 77.75357639843752,
        "velocity": 0.7480314960629921
    },
    {
        "duration": 0.0865842578124898,
        "durationTicks": 232,
        "midi": 59,
        "name": "B3",
        "ticks": 212237,
        "time": 77.84891445410159,
        "velocity": 0.6299212598425197
    },
    {
        "duration": 0.09218237792967443,
        "durationTicks": 247,
        "midi": 71,
        "name": "B4",
        "ticks": 212237,
        "time": 77.84891445410159,
        "velocity": 0.7401574803149606
    },
    {
        "duration": 0.0865842578124898,
        "durationTicks": 232,
        "midi": 35,
        "name": "B1",
        "ticks": 212237,
        "time": 77.84891445410159,
        "velocity": 0.6141732283464567
    },
    {
        "duration": 0.09218237792967443,
        "durationTicks": 247,
        "midi": 47,
        "name": "B2",
        "ticks": 212237,
        "time": 77.84891445410159,
        "velocity": 0.7401574803149606
    },
    {
        "duration": 0.086584257812504,
        "durationTicks": 232,
        "midi": 60,
        "name": "C4",
        "ticks": 212485,
        "time": 77.94147004003908,
        "velocity": 0.6299212598425197
    },
    {
        "duration": 0.09218237792968864,
        "durationTicks": 247,
        "midi": 72,
        "name": "C5",
        "ticks": 212485,
        "time": 77.94147004003908,
        "velocity": 0.7401574803149606
    },
    {
        "duration": 0.086584257812504,
        "durationTicks": 232,
        "midi": 36,
        "name": "C2",
        "ticks": 212485,
        "time": 77.94147004003908,
        "velocity": 0.6141732283464567
    },
    {
        "duration": 0.09218237792968864,
        "durationTicks": 247,
        "midi": 48,
        "name": "C3",
        "ticks": 212485,
        "time": 77.94147004003908,
        "velocity": 0.7401574803149606
    },
    {
        "duration": 0.09126376464843133,
        "durationTicks": 243,
        "midi": 62,
        "name": "D4",
        "ticks": 212733,
        "time": 78.03402562597658,
        "velocity": 0.6299212598425197
    },
    {
        "duration": 0.09689777343749029,
        "durationTicks": 258,
        "midi": 74,
        "name": "D5",
        "ticks": 212733,
        "time": 78.03402562597658,
        "velocity": 0.7401574803149606
    },
    {
        "duration": 0.09126376464843133,
        "durationTicks": 243,
        "midi": 38,
        "name": "D2",
        "ticks": 212733,
        "time": 78.03402562597658,
        "velocity": 0.6220472440944882
    },
    {
        "duration": 0.09689777343749029,
        "durationTicks": 258,
        "midi": 50,
        "name": "D3",
        "ticks": 212733,
        "time": 78.03402562597658,
        "velocity": 0.7401574803149606
    },
    {
        "duration": 0.1871337890625,
        "durationTicks": 511,
        "midi": 64,
        "name": "E4",
        "ticks": 212996,
        "time": 78.13276384375001,
        "velocity": 0.6692913385826772
    },
    {
        "duration": 0.1981201171875,
        "durationTicks": 541,
        "midi": 69,
        "name": "A4",
        "ticks": 212996,
        "time": 78.13276384375001,
        "velocity": 0.6692913385826772
    },
    {
        "duration": 0.1981201171875,
        "durationTicks": 541,
        "midi": 72,
        "name": "C5",
        "ticks": 212996,
        "time": 78.13276384375001,
        "velocity": 0.6692913385826772
    },
    {
        "duration": 0.1981201171875,
        "durationTicks": 541,
        "midi": 76,
        "name": "E5",
        "ticks": 212996,
        "time": 78.13276384375001,
        "velocity": 0.7795275590551181
    },
    {
        "duration": 0.1014404296875,
        "durationTicks": 277,
        "midi": 52,
        "name": "E3",
        "ticks": 212996,
        "time": 78.13276384375001,
        "velocity": 0.7322834645669292
    },
    {
        "duration": 0.0853271484375,
        "durationTicks": 233,
        "midi": 50,
        "name": "D3",
        "ticks": 213289,
        "time": 78.24006364843751,
        "velocity": 0.6929133858267716
    },
    {
        "duration": 0.37060546875,
        "durationTicks": 1012,
        "midi": 62,
        "name": "D4",
        "ticks": 213538,
        "time": 78.33125017187501,
        "velocity": 0.6299212598425197
    },
    {
        "duration": 0.37060546875,
        "durationTicks": 1012,
        "midi": 65,
        "name": "F4",
        "ticks": 213538,
        "time": 78.33125017187501,
        "velocity": 0.6299212598425197
    },
    {
        "duration": 0.37060546875,
        "durationTicks": 1012,
        "midi": 69,
        "name": "A4",
        "ticks": 213538,
        "time": 78.33125017187501,
        "velocity": 0.6299212598425197
    },
    {
        "duration": 0.37060546875,
        "durationTicks": 1012,
        "midi": 74,
        "name": "D5",
        "ticks": 213538,
        "time": 78.33125017187501,
        "velocity": 0.7401574803149606
    },
    {
        "duration": 0.0853271484375,
        "durationTicks": 233,
        "midi": 48,
        "name": "C3",
        "ticks": 213538,
        "time": 78.33125017187501,
        "velocity": 0.6929133858267716
    },
    {
        "duration": 0.0889892578125,
        "durationTicks": 243,
        "midi": 47,
        "name": "B2",
        "ticks": 213787,
        "time": 78.42243669531251,
        "velocity": 0.6929133858267716
    },
    {
        "duration": 0.088623046875,
        "durationTicks": 242,
        "midi": 45,
        "name": "A2",
        "ticks": 214046,
        "time": 78.51728532812501,
        "velocity": 0.7007874015748031
    },
    {
        "duration": 0.0845947265625,
        "durationTicks": 231,
        "midi": 43,
        "name": "G2",
        "ticks": 214304,
        "time": 78.61176775000001,
        "velocity": 0.6929133858267716
    },
    {
        "duration": 0.1754150390625,
        "durationTicks": 479,
        "midi": 65,
        "name": "F4",
        "ticks": 214551,
        "time": 78.70222185156251,
        "velocity": 0.6299212598425197
    },
    {
        "duration": 0.1864013671875,
        "durationTicks": 509,
        "midi": 77,
        "name": "F5",
        "ticks": 214551,
        "time": 78.70222185156251,
        "velocity": 0.7401574803149606
    },
    {
        "duration": 0.0849609375,
        "durationTicks": 232,
        "midi": 41,
        "name": "F2",
        "ticks": 214551,
        "time": 78.70222185156251,
        "velocity": 0.6929133858267716
    },
    {
        "duration": 0.090087890625,
        "durationTicks": 246,
        "midi": 40,
        "name": "E2",
        "ticks": 214799,
        "time": 78.79304216406251,
        "velocity": 0.6850393700787402
    },
    {
        "duration": 0.371337890625,
        "durationTicks": 1014,
        "midi": 69,
        "name": "A4",
        "ticks": 215061,
        "time": 78.88898942968751,
        "velocity": 0.6535433070866141
    },
    {
        "duration": 0.371337890625,
        "durationTicks": 1014,
        "midi": 74,
        "name": "D5",
        "ticks": 215061,
        "time": 78.88898942968751,
        "velocity": 0.6535433070866141
    },
    {
        "duration": 0.371337890625,
        "durationTicks": 1014,
        "midi": 77,
        "name": "F5",
        "ticks": 215061,
        "time": 78.88898942968751,
        "velocity": 0.6535433070866141
    },
    {
        "duration": 0.371337890625,
        "durationTicks": 1014,
        "midi": 81,
        "name": "A5",
        "ticks": 215061,
        "time": 78.88898942968751,
        "velocity": 0.7637795275590551
    },
    {
        "duration": 0.0904541015625,
        "durationTicks": 247,
        "midi": 41,
        "name": "F2",
        "ticks": 215061,
        "time": 78.88898942968751,
        "velocity": 0.7165354330708661
    },
    {
        "duration": 0.0845947265625,
        "durationTicks": 231,
        "midi": 43,
        "name": "G2",
        "ticks": 215324,
        "time": 78.98530290625001,
        "velocity": 0.6929133858267716
    },
    {
        "duration": 0.0849609375,
        "durationTicks": 232,
        "midi": 45,
        "name": "A2",
        "ticks": 215571,
        "time": 79.07575700781251,
        "velocity": 0.6929133858267716
    },
    {
        "duration": 0.0882568359375,
        "durationTicks": 241,
        "midi": 47,
        "name": "B2",
        "ticks": 215819,
        "time": 79.16657732031251,
        "velocity": 0.6929133858267716
    },
    {
        "duration": 0.173583984375,
        "durationTicks": 474,
        "midi": 67,
        "name": "G4",
        "ticks": 216076,
        "time": 79.26069353125001,
        "velocity": 0.6377952755905512
    },
    {
        "duration": 0.1845703125,
        "durationTicks": 504,
        "midi": 79,
        "name": "G5",
        "ticks": 216076,
        "time": 79.26069353125001,
        "velocity": 0.7480314960629921
    },
    {
        "duration": 0.0882568359375,
        "durationTicks": 241,
        "midi": 48,
        "name": "C3",
        "ticks": 216076,
        "time": 79.26069353125001,
        "velocity": 0.7007874015748031
    },
    {
        "duration": 0.0849609375,
        "durationTicks": 232,
        "midi": 50,
        "name": "D3",
        "ticks": 216333,
        "time": 79.35480974218751,
        "velocity": 0.6929133858267716
    },
    {
        "duration": 0.17431640625,
        "durationTicks": 476,
        "midi": 65,
        "name": "F4",
        "ticks": 216581,
        "time": 79.44563005468751,
        "velocity": 0.6299212598425197
    },
    {
        "duration": 0.185302734375,
        "durationTicks": 506,
        "midi": 77,
        "name": "F5",
        "ticks": 216581,
        "time": 79.44563005468751,
        "velocity": 0.7401574803149606
    },
    {
        "duration": 0.0849609375,
        "durationTicks": 232,
        "midi": 52,
        "name": "E3",
        "ticks": 216581,
        "time": 79.44563005468751,
        "velocity": 0.6929133858267716
    },
    {
        "duration": 0.0889892578125,
        "durationTicks": 243,
        "midi": 53,
        "name": "F3",
        "ticks": 216829,
        "time": 79.53645036718751,
        "velocity": 0.6929133858267716
    },
    {
        "duration": 0.1981201171875,
        "durationTicks": 541,
        "midi": 64,
        "name": "E4",
        "ticks": 217092,
        "time": 79.63276384375001,
        "velocity": 0.6692913385826772
    },
    {
        "duration": 0.1981201171875,
        "durationTicks": 541,
        "midi": 76,
        "name": "E5",
        "ticks": 217092,
        "time": 79.63276384375001,
        "velocity": 0.7795275590551181
    },
    {
        "duration": 0.1014404296875,
        "durationTicks": 277,
        "midi": 55,
        "name": "G3",
        "ticks": 217092,
        "time": 79.63276384375001,
        "velocity": 0.7322834645669292
    },
    {
        "duration": 0.0853271484375,
        "durationTicks": 233,
        "midi": 57,
        "name": "A3",
        "ticks": 217385,
        "time": 79.74006364843751,
        "velocity": 0.6929133858267716
    },
    {
        "duration": 0.1856689453125,
        "durationTicks": 507,
        "midi": 64,
        "name": "E4",
        "ticks": 217634,
        "time": 79.83125017187501,
        "velocity": 0.6299212598425197
    },
    {
        "duration": 0.1856689453125,
        "durationTicks": 507,
        "midi": 69,
        "name": "A4",
        "ticks": 217634,
        "time": 79.83125017187501,
        "velocity": 0.6299212598425197
    },
    {
        "duration": 0.1856689453125,
        "durationTicks": 507,
        "midi": 72,
        "name": "C5",
        "ticks": 217634,
        "time": 79.83125017187501,
        "velocity": 0.6299212598425197
    },
    {
        "duration": 0.1856689453125,
        "durationTicks": 507,
        "midi": 76,
        "name": "E5",
        "ticks": 217634,
        "time": 79.83125017187501,
        "velocity": 0.7401574803149606
    },
    {
        "duration": 0.0853271484375,
        "durationTicks": 233,
        "midi": 55,
        "name": "G3",
        "ticks": 217634,
        "time": 79.83125017187501,
        "velocity": 0.6929133858267716
    },
    {
        "duration": 0.0889892578125,
        "durationTicks": 243,
        "midi": 53,
        "name": "F3",
        "ticks": 217883,
        "time": 79.92243669531251,
        "velocity": 0.6929133858267716
    },
    {
        "duration": 0.173583984375,
        "durationTicks": 474,
        "midi": 57,
        "name": "A3",
        "ticks": 218142,
        "time": 80.01728532812501,
        "velocity": 0.6377952755905512
    },
    {
        "duration": 0.1845703125,
        "durationTicks": 504,
        "midi": 64,
        "name": "E4",
        "ticks": 218142,
        "time": 80.01728532812501,
        "velocity": 0.6377952755905512
    },
    {
        "duration": 0.1845703125,
        "durationTicks": 504,
        "midi": 69,
        "name": "A4",
        "ticks": 218142,
        "time": 80.01728532812501,
        "velocity": 0.7480314960629921
    },
    {
        "duration": 0.088623046875,
        "durationTicks": 242,
        "midi": 52,
        "name": "E3",
        "ticks": 218142,
        "time": 80.01728532812501,
        "velocity": 0.7007874015748031
    },
    {
        "duration": 0.0845947265625,
        "durationTicks": 231,
        "midi": 50,
        "name": "D3",
        "ticks": 218400,
        "time": 80.11176775000001,
        "velocity": 0.6929133858267716
    },
    {
        "duration": 0.1754150390625,
        "durationTicks": 479,
        "midi": 60,
        "name": "C4",
        "ticks": 218647,
        "time": 80.20222185156251,
        "velocity": 0.6299212598425197
    },
    {
        "duration": 0.1864013671875,
        "durationTicks": 509,
        "midi": 64,
        "name": "E4",
        "ticks": 218647,
        "time": 80.20222185156251,
        "velocity": 0.6299212598425197
    },
    {
        "duration": 0.1864013671875,
        "durationTicks": 509,
        "midi": 69,
        "name": "A4",
        "ticks": 218647,
        "time": 80.20222185156251,
        "velocity": 0.6299212598425197
    },
    {
        "duration": 0.1864013671875,
        "durationTicks": 509,
        "midi": 72,
        "name": "C5",
        "ticks": 218647,
        "time": 80.20222185156251,
        "velocity": 0.7401574803149606
    },
    {
        "duration": 0.0849609375,
        "durationTicks": 232,
        "midi": 48,
        "name": "C3",
        "ticks": 218647,
        "time": 80.20222185156251,
        "velocity": 0.6929133858267716
    },
    {
        "duration": 0.090087890625,
        "durationTicks": 246,
        "midi": 47,
        "name": "B2",
        "ticks": 218895,
        "time": 80.29304216406251,
        "velocity": 0.6929133858267716
    },
    {
        "duration": 0.371337890625,
        "durationTicks": 1014,
        "midi": 64,
        "name": "E4",
        "ticks": 219157,
        "time": 80.38898942968751,
        "velocity": 0.6535433070866141
    },
    {
        "duration": 0.371337890625,
        "durationTicks": 1014,
        "midi": 69,
        "name": "A4",
        "ticks": 219157,
        "time": 80.38898942968751,
        "velocity": 0.6535433070866141
    },
    {
        "duration": 0.371337890625,
        "durationTicks": 1014,
        "midi": 72,
        "name": "C5",
        "ticks": 219157,
        "time": 80.38898942968751,
        "velocity": 0.6535433070866141
    },
    {
        "duration": 0.371337890625,
        "durationTicks": 1014,
        "midi": 76,
        "name": "E5",
        "ticks": 219157,
        "time": 80.38898942968751,
        "velocity": 0.7637795275590551
    },
    {
        "duration": 0.0904541015625,
        "durationTicks": 247,
        "midi": 45,
        "name": "A2",
        "ticks": 219157,
        "time": 80.38898942968751,
        "velocity": 0.7165354330708661
    },
    {
        "duration": 0.0845947265625,
        "durationTicks": 231,
        "midi": 47,
        "name": "B2",
        "ticks": 219420,
        "time": 80.48530290625001,
        "velocity": 0.6929133858267716
    },
    {
        "duration": 0.0849609375,
        "durationTicks": 232,
        "midi": 48,
        "name": "C3",
        "ticks": 219667,
        "time": 80.57575700781251,
        "velocity": 0.6929133858267716
    },
    {
        "duration": 0.0882568359375,
        "durationTicks": 241,
        "midi": 50,
        "name": "D3",
        "ticks": 219915,
        "time": 80.66657732031251,
        "velocity": 0.6929133858267716
    },
    {
        "duration": 0.173583984375,
        "durationTicks": 474,
        "midi": 62,
        "name": "D4",
        "ticks": 220172,
        "time": 80.76069353125001,
        "velocity": 0.6377952755905512
    },
    {
        "duration": 0.1845703125,
        "durationTicks": 504,
        "midi": 74,
        "name": "D5",
        "ticks": 220172,
        "time": 80.76069353125001,
        "velocity": 0.7480314960629921
    },
    {
        "duration": 0.0882568359375,
        "durationTicks": 241,
        "midi": 52,
        "name": "E3",
        "ticks": 220172,
        "time": 80.76069353125001,
        "velocity": 0.7007874015748031
    },
    {
        "duration": 0.0849609375,
        "durationTicks": 232,
        "midi": 53,
        "name": "F3",
        "ticks": 220429,
        "time": 80.85480974218751,
        "velocity": 0.6929133858267716
    },
    {
        "duration": 0.17431640625,
        "durationTicks": 476,
        "midi": 60,
        "name": "C4",
        "ticks": 220677,
        "time": 80.94563005468751,
        "velocity": 0.6299212598425197
    },
    {
        "duration": 0.185302734375,
        "durationTicks": 506,
        "midi": 72,
        "name": "C5",
        "ticks": 220677,
        "time": 80.94563005468751,
        "velocity": 0.7401574803149606
    },
    {
        "duration": 0.0849609375,
        "durationTicks": 232,
        "midi": 55,
        "name": "G3",
        "ticks": 220677,
        "time": 80.94563005468751,
        "velocity": 0.6929133858267716
    },
    {
        "duration": 0.0889892578125,
        "durationTicks": 243,
        "midi": 57,
        "name": "A3",
        "ticks": 220925,
        "time": 81.03645036718751,
        "velocity": 0.6929133858267716
    },
    {
        "duration": 0.3841552734375,
        "durationTicks": 1049,
        "midi": 59,
        "name": "B3",
        "ticks": 221188,
        "time": 81.13276384375001,
        "velocity": 0.6692913385826772
    },
    {
        "duration": 0.3841552734375,
        "durationTicks": 1049,
        "midi": 64,
        "name": "E4",
        "ticks": 221188,
        "time": 81.13276384375001,
        "velocity": 0.6692913385826772
    },
    {
        "duration": 0.3841552734375,
        "durationTicks": 1049,
        "midi": 68,
        "name": "G#4",
        "ticks": 221188,
        "time": 81.13276384375001,
        "velocity": 0.6692913385826772
    },
    {
        "duration": 0.3841552734375,
        "durationTicks": 1049,
        "midi": 71,
        "name": "B4",
        "ticks": 221188,
        "time": 81.13276384375001,
        "velocity": 0.7795275590551181
    },
    {
        "duration": 0.1014404296875,
        "durationTicks": 277,
        "midi": 56,
        "name": "G#3",
        "ticks": 221188,
        "time": 81.13276384375001,
        "velocity": 0.7322834645669292
    },
    {
        "duration": 0.0853271484375,
        "durationTicks": 233,
        "midi": 54,
        "name": "F#3",
        "ticks": 221481,
        "time": 81.24006364843751,
        "velocity": 0.6929133858267716
    },
    {
        "duration": 0.0853271484375,
        "durationTicks": 233,
        "midi": 52,
        "name": "E3",
        "ticks": 221730,
        "time": 81.33125017187501,
        "velocity": 0.6929133858267716
    },
    {
        "duration": 0.0889892578125,
        "durationTicks": 243,
        "midi": 50,
        "name": "D3",
        "ticks": 221979,
        "time": 81.42243669531251,
        "velocity": 0.6929133858267716
    },
    {
        "duration": 0.173583984375,
        "durationTicks": 474,
        "midi": 59,
        "name": "B3",
        "ticks": 222238,
        "time": 81.51728532812501,
        "velocity": 0.6377952755905512
    },
    {
        "duration": 0.1845703125,
        "durationTicks": 504,
        "midi": 64,
        "name": "E4",
        "ticks": 222238,
        "time": 81.51728532812501,
        "velocity": 0.6377952755905512
    },
    {
        "duration": 0.1845703125,
        "durationTicks": 504,
        "midi": 68,
        "name": "G#4",
        "ticks": 222238,
        "time": 81.51728532812501,
        "velocity": 0.6377952755905512
    },
    {
        "duration": 0.1845703125,
        "durationTicks": 504,
        "midi": 71,
        "name": "B4",
        "ticks": 222238,
        "time": 81.51728532812501,
        "velocity": 0.7480314960629921
    },
    {
        "duration": 0.088623046875,
        "durationTicks": 242,
        "midi": 48,
        "name": "C3",
        "ticks": 222238,
        "time": 81.51728532812501,
        "velocity": 0.7007874015748031
    },
    {
        "duration": 0.0845947265625,
        "durationTicks": 231,
        "midi": 47,
        "name": "B2",
        "ticks": 222496,
        "time": 81.61176775000001,
        "velocity": 0.6929133858267716
    },
    {
        "duration": 0.1754150390625,
        "durationTicks": 479,
        "midi": 60,
        "name": "C4",
        "ticks": 222743,
        "time": 81.70222185156251,
        "velocity": 0.6299212598425197
    },
    {
        "duration": 0.1864013671875,
        "durationTicks": 509,
        "midi": 64,
        "name": "E4",
        "ticks": 222743,
        "time": 81.70222185156251,
        "velocity": 0.6299212598425197
    },
    {
        "duration": 0.1864013671875,
        "durationTicks": 509,
        "midi": 69,
        "name": "A4",
        "ticks": 222743,
        "time": 81.70222185156251,
        "velocity": 0.6299212598425197
    },
    {
        "duration": 0.1864013671875,
        "durationTicks": 509,
        "midi": 72,
        "name": "C5",
        "ticks": 222743,
        "time": 81.70222185156251,
        "velocity": 0.7401574803149606
    },
    {
        "duration": 0.0849609375,
        "durationTicks": 232,
        "midi": 44,
        "name": "G#2",
        "ticks": 222743,
        "time": 81.70222185156251,
        "velocity": 0.6929133858267716
    },
    {
        "duration": 0.090087890625,
        "durationTicks": 246,
        "midi": 42,
        "name": "F#2",
        "ticks": 222991,
        "time": 81.79304216406251,
        "velocity": 0.6929133858267716
    },
    {
        "duration": 0.375008426757816,
        "durationTicks": 1014,
        "midi": 62,
        "name": "D4",
        "ticks": 223253,
        "time": 81.88898942968751,
        "velocity": 0.6535433070866141
    },
    {
        "duration": 0.375008426757816,
        "durationTicks": 1014,
        "midi": 74,
        "name": "D5",
        "ticks": 223253,
        "time": 81.88898942968751,
        "velocity": 0.7637795275590551
    },
    {
        "duration": 0.09048173437500395,
        "durationTicks": 247,
        "midi": 40,
        "name": "E2",
        "ticks": 223253,
        "time": 81.88898942968751,
        "velocity": 0.7086614173228346
    },
    {
        "duration": 0.08513365429688236,
        "durationTicks": 231,
        "midi": 41,
        "name": "F2",
        "ticks": 223516,
        "time": 81.98536738281251,
        "velocity": 0.6929133858267716
    },
    {
        "duration": 0.08603620312500482,
        "durationTicks": 232,
        "midi": 43,
        "name": "G2",
        "ticks": 223763,
        "time": 82.07643456835939,
        "velocity": 0.6929133858267716
    },
    {
        "duration": 0.08994312988281195,
        "durationTicks": 241,
        "midi": 45,
        "name": "A2",
        "ticks": 224011,
        "time": 82.16843028808596,
        "velocity": 0.6929133858267716
    },
    {
        "duration": 0.3815963144531196,
        "durationTicks": 1011,
        "midi": 64,
        "name": "E4",
        "ticks": 224268,
        "time": 82.26437345703127,
        "velocity": 0.6377952755905512
    },
    {
        "duration": 0.3815963144531196,
        "durationTicks": 1011,
        "midi": 69,
        "name": "A4",
        "ticks": 224268,
        "time": 82.26437345703127,
        "velocity": 0.6377952755905512
    },
    {
        "duration": 0.3815963144531196,
        "durationTicks": 1011,
        "midi": 72,
        "name": "C5",
        "ticks": 224268,
        "time": 82.26437345703127,
        "velocity": 0.6377952755905512
    },
    {
        "duration": 0.3815963144531196,
        "durationTicks": 1011,
        "midi": 76,
        "name": "E5",
        "ticks": 224268,
        "time": 82.26437345703127,
        "velocity": 0.7480314960629921
    },
    {
        "duration": 0.0905197412109402,
        "durationTicks": 241,
        "midi": 47,
        "name": "B2",
        "ticks": 224268,
        "time": 82.26437345703127,
        "velocity": 0.7007874015748031
    },
    {
        "duration": 0.08713933593749346,
        "durationTicks": 232,
        "midi": 48,
        "name": "C3",
        "ticks": 224525,
        "time": 82.36090280761721,
        "velocity": 0.6929133858267716
    },
    {
        "duration": 0.08770143750000159,
        "durationTicks": 232,
        "midi": 50,
        "name": "D3",
        "ticks": 224773,
        "time": 82.45406386718751,
        "velocity": 0.6929133858267716
    },
    {
        "duration": 0.09244891406250133,
        "durationTicks": 243,
        "midi": 52,
        "name": "E3",
        "ticks": 225021,
        "time": 82.54781367968751,
        "velocity": 0.6929133858267716
    },
    {
        "duration": 0.3877507031250076,
        "durationTicks": 1049,
        "midi": 60,
        "name": "C4",
        "ticks": 225284,
        "time": 82.6478721640625,
        "velocity": 0.6692913385826772
    },
    {
        "duration": 0.3877507031250076,
        "durationTicks": 1049,
        "midi": 64,
        "name": "E4",
        "ticks": 225284,
        "time": 82.6478721640625,
        "velocity": 0.6692913385826772
    },
    {
        "duration": 0.3877507031250076,
        "durationTicks": 1049,
        "midi": 69,
        "name": "A4",
        "ticks": 225284,
        "time": 82.6478721640625,
        "velocity": 0.6692913385826772
    },
    {
        "duration": 0.3877507031250076,
        "durationTicks": 1049,
        "midi": 72,
        "name": "C5",
        "ticks": 225284,
        "time": 82.6478721640625,
        "velocity": 0.7795275590551181
    },
    {
        "duration": 0.10503585937500759,
        "durationTicks": 277,
        "midi": 57,
        "name": "A3",
        "ticks": 225284,
        "time": 82.6478721640625,
        "velocity": 0.7322834645669292
    },
    {
        "duration": 0.0853271484375,
        "durationTicks": 233,
        "midi": 55,
        "name": "G3",
        "ticks": 225577,
        "time": 82.75876739843751,
        "velocity": 0.6929133858267716
    },
    {
        "duration": 0.0853271484375,
        "durationTicks": 233,
        "midi": 53,
        "name": "F3",
        "ticks": 225826,
        "time": 82.84995392187501,
        "velocity": 0.6929133858267716
    },
    {
        "duration": 0.0889892578125,
        "durationTicks": 243,
        "midi": 52,
        "name": "E3",
        "ticks": 226075,
        "time": 82.94114044531251,
        "velocity": 0.6929133858267716
    },
    {
        "duration": 0.371337890625,
        "durationTicks": 1014,
        "midi": 69,
        "name": "A4",
        "ticks": 226334,
        "time": 83.03598907812501,
        "velocity": 0.6377952755905512
    },
    {
        "duration": 0.371337890625,
        "durationTicks": 1014,
        "midi": 72,
        "name": "C5",
        "ticks": 226334,
        "time": 83.03598907812501,
        "velocity": 0.6377952755905512
    },
    {
        "duration": 0.371337890625,
        "durationTicks": 1014,
        "midi": 76,
        "name": "E5",
        "ticks": 226334,
        "time": 83.03598907812501,
        "velocity": 0.6377952755905512
    },
    {
        "duration": 0.371337890625,
        "durationTicks": 1014,
        "midi": 81,
        "name": "A5",
        "ticks": 226334,
        "time": 83.03598907812501,
        "velocity": 0.7480314960629921
    },
    {
        "duration": 0.088623046875,
        "durationTicks": 242,
        "midi": 50,
        "name": "D3",
        "ticks": 226334,
        "time": 83.03598907812501,
        "velocity": 0.7007874015748031
    },
    {
        "duration": 0.0845947265625,
        "durationTicks": 231,
        "midi": 48,
        "name": "C3",
        "ticks": 226592,
        "time": 83.13047150000001,
        "velocity": 0.6929133858267716
    },
    {
        "duration": 0.0849609375,
        "durationTicks": 232,
        "midi": 47,
        "name": "B2",
        "ticks": 226839,
        "time": 83.22092560156251,
        "velocity": 0.6929133858267716
    },
    {
        "duration": 0.090087890625,
        "durationTicks": 246,
        "midi": 45,
        "name": "A2",
        "ticks": 227087,
        "time": 83.31174591406251,
        "velocity": 0.6929133858267716
    },
    {
        "duration": 0.371337890625,
        "durationTicks": 1014,
        "midi": 69,
        "name": "A4",
        "ticks": 227349,
        "time": 83.40769317968751,
        "velocity": 0.6535433070866141
    },
    {
        "duration": 0.371337890625,
        "durationTicks": 1014,
        "midi": 72,
        "name": "C5",
        "ticks": 227349,
        "time": 83.40769317968751,
        "velocity": 0.7401574803149606
    },
    {
        "duration": 0.371337890625,
        "durationTicks": 1014,
        "midi": 76,
        "name": "E5",
        "ticks": 227349,
        "time": 83.40769317968751,
        "velocity": 0.7401574803149606
    },
    {
        "duration": 0.371337890625,
        "durationTicks": 1014,
        "midi": 81,
        "name": "A5",
        "ticks": 227349,
        "time": 83.40769317968751,
        "velocity": 0.7007874015748031
    },
    {
        "duration": 0.0904541015625,
        "durationTicks": 247,
        "midi": 47,
        "name": "B2",
        "ticks": 227349,
        "time": 83.40769317968751,
        "velocity": 0.7165354330708661
    },
    {
        "duration": 0.0845947265625,
        "durationTicks": 231,
        "midi": 48,
        "name": "C3",
        "ticks": 227612,
        "time": 83.50400665625001,
        "velocity": 0.6929133858267716
    },
    {
        "duration": 0.0849609375,
        "durationTicks": 232,
        "midi": 50,
        "name": "D3",
        "ticks": 227859,
        "time": 83.59446075781251,
        "velocity": 0.6929133858267716
    },
    {
        "duration": 0.0882568359375,
        "durationTicks": 241,
        "midi": 52,
        "name": "E3",
        "ticks": 228107,
        "time": 83.68528107031251,
        "velocity": 0.6929133858267716
    },
    {
        "duration": 0.0882568359375,
        "durationTicks": 241,
        "midi": 69,
        "name": "A4",
        "ticks": 228364,
        "time": 83.77939728125001,
        "velocity": 0.6377952755905512
    },
    {
        "duration": 0.09375,
        "durationTicks": 256,
        "midi": 81,
        "name": "A5",
        "ticks": 228364,
        "time": 83.77939728125001,
        "velocity": 0.7480314960629921
    },
    {
        "duration": 0.0882568359375,
        "durationTicks": 241,
        "midi": 45,
        "name": "A2",
        "ticks": 228364,
        "time": 83.77939728125001,
        "velocity": 0.6377952755905512
    },
    {
        "duration": 0.09375,
        "durationTicks": 256,
        "midi": 57,
        "name": "A3",
        "ticks": 228364,
        "time": 83.77939728125001,
        "velocity": 0.7480314960629921
    },
    {
        "duration": 0.0849609375,
        "durationTicks": 232,
        "midi": 71,
        "name": "B4",
        "ticks": 228621,
        "time": 83.87351349218751,
        "velocity": 0.6299212598425197
    },
    {
        "duration": 0.0904541015625,
        "durationTicks": 247,
        "midi": 83,
        "name": "B5",
        "ticks": 228621,
        "time": 83.87351349218751,
        "velocity": 0.7401574803149606
    },
    {
        "duration": 0.0849609375,
        "durationTicks": 232,
        "midi": 47,
        "name": "B2",
        "ticks": 228621,
        "time": 83.87351349218751,
        "velocity": 0.6299212598425197
    },
    {
        "duration": 0.0904541015625,
        "durationTicks": 247,
        "midi": 59,
        "name": "B3",
        "ticks": 228621,
        "time": 83.87351349218751,
        "velocity": 0.7401574803149606
    },
    {
        "duration": 0.0849609375,
        "durationTicks": 232,
        "midi": 72,
        "name": "C5",
        "ticks": 228869,
        "time": 83.96433380468751,
        "velocity": 0.6299212598425197
    },
    {
        "duration": 0.0904541015625,
        "durationTicks": 247,
        "midi": 84,
        "name": "C6",
        "ticks": 228869,
        "time": 83.96433380468751,
        "velocity": 0.7401574803149606
    },
    {
        "duration": 0.0849609375,
        "durationTicks": 232,
        "midi": 48,
        "name": "C3",
        "ticks": 228869,
        "time": 83.96433380468751,
        "velocity": 0.6299212598425197
    },
    {
        "duration": 0.0904541015625,
        "durationTicks": 247,
        "midi": 60,
        "name": "C4",
        "ticks": 228869,
        "time": 83.96433380468751,
        "velocity": 0.7401574803149606
    },
    {
        "duration": 0.0889892578125,
        "durationTicks": 243,
        "midi": 74,
        "name": "D5",
        "ticks": 229117,
        "time": 84.05515411718751,
        "velocity": 0.6299212598425197
    },
    {
        "duration": 0.094482421875,
        "durationTicks": 258,
        "midi": 86,
        "name": "D6",
        "ticks": 229117,
        "time": 84.05515411718751,
        "velocity": 0.7401574803149606
    },
    {
        "duration": 0.0889892578125,
        "durationTicks": 243,
        "midi": 50,
        "name": "D3",
        "ticks": 229117,
        "time": 84.05515411718751,
        "velocity": 0.6299212598425197
    },
    {
        "duration": 0.094482421875,
        "durationTicks": 258,
        "midi": 62,
        "name": "D4",
        "ticks": 229117,
        "time": 84.05515411718751,
        "velocity": 0.7401574803149606
    },
    {
        "duration": 0.1871337890625,
        "durationTicks": 511,
        "midi": 76,
        "name": "E5",
        "ticks": 229380,
        "time": 84.15146759375001,
        "velocity": 0.6692913385826772
    },
    {
        "duration": 0.1981201171875,
        "durationTicks": 541,
        "midi": 81,
        "name": "A5",
        "ticks": 229380,
        "time": 84.15146759375001,
        "velocity": 0.6692913385826772
    },
    {
        "duration": 0.1981201171875,
        "durationTicks": 541,
        "midi": 84,
        "name": "C6",
        "ticks": 229380,
        "time": 84.15146759375001,
        "velocity": 0.6692913385826772
    },
    {
        "duration": 0.1981201171875,
        "durationTicks": 541,
        "midi": 88,
        "name": "E6",
        "ticks": 229380,
        "time": 84.15146759375001,
        "velocity": 0.7795275590551181
    },
    {
        "duration": 0.1871337890625,
        "durationTicks": 511,
        "midi": 52,
        "name": "E3",
        "ticks": 229380,
        "time": 84.15146759375001,
        "velocity": 0.6692913385826772
    },
    {
        "duration": 0.1981201171875,
        "durationTicks": 541,
        "midi": 57,
        "name": "A3",
        "ticks": 229380,
        "time": 84.15146759375001,
        "velocity": 0.6692913385826772
    },
    {
        "duration": 0.1981201171875,
        "durationTicks": 541,
        "midi": 60,
        "name": "C4",
        "ticks": 229380,
        "time": 84.15146759375001,
        "velocity": 0.6692913385826772
    },
    {
        "duration": 0.1981201171875,
        "durationTicks": 541,
        "midi": 64,
        "name": "E4",
        "ticks": 229380,
        "time": 84.15146759375001,
        "velocity": 0.7795275590551181
    },
    {
        "duration": 0.1746826171875,
        "durationTicks": 477,
        "midi": 74,
        "name": "D5",
        "ticks": 229922,
        "time": 84.34995392187501,
        "velocity": 0.6299212598425197
    },
    {
        "duration": 0.1746826171875,
        "durationTicks": 477,
        "midi": 77,
        "name": "F5",
        "ticks": 229922,
        "time": 84.34995392187501,
        "velocity": 0.6299212598425197
    },
    {
        "duration": 0.1856689453125,
        "durationTicks": 507,
        "midi": 81,
        "name": "A5",
        "ticks": 229922,
        "time": 84.34995392187501,
        "velocity": 0.6299212598425197
    },
    {
        "duration": 0.1856689453125,
        "durationTicks": 507,
        "midi": 86,
        "name": "D6",
        "ticks": 229922,
        "time": 84.34995392187501,
        "velocity": 0.7401574803149606
    },
    {
        "duration": 0.1856689453125,
        "durationTicks": 507,
        "midi": 50,
        "name": "D3",
        "ticks": 229922,
        "time": 84.34995392187501,
        "velocity": 0.6299212598425197
    },
    {
        "duration": 0.1746826171875,
        "durationTicks": 477,
        "midi": 53,
        "name": "F3",
        "ticks": 229922,
        "time": 84.34995392187501,
        "velocity": 0.6299212598425197
    },
    {
        "duration": 0.1856689453125,
        "durationTicks": 507,
        "midi": 57,
        "name": "A3",
        "ticks": 229922,
        "time": 84.34995392187501,
        "velocity": 0.6299212598425197
    },
    {
        "duration": 0.1856689453125,
        "durationTicks": 507,
        "midi": 62,
        "name": "D4",
        "ticks": 229922,
        "time": 84.34995392187501,
        "velocity": 0.7401574803149606
    },
    {
        "duration": 0.173583984375,
        "durationTicks": 474,
        "midi": 57,
        "name": "A3",
        "ticks": 230430,
        "time": 84.53598907812501,
        "velocity": 0.6377952755905512
    },
    {
        "duration": 0.173583984375,
        "durationTicks": 474,
        "midi": 62,
        "name": "D4",
        "ticks": 230430,
        "time": 84.53598907812501,
        "velocity": 0.6377952755905512
    },
    {
        "duration": 0.1845703125,
        "durationTicks": 504,
        "midi": 69,
        "name": "A4",
        "ticks": 230430,
        "time": 84.53598907812501,
        "velocity": 0.7480314960629921
    },
    {
        "duration": 0.371337890625,
        "durationTicks": 1014,
        "midi": 26,
        "name": "D1",
        "ticks": 230430,
        "time": 84.53598907812501,
        "velocity": 0.6299212598425197
    },
    {
        "duration": 0.371337890625,
        "durationTicks": 1014,
        "midi": 33,
        "name": "A1",
        "ticks": 230430,
        "time": 84.53598907812501,
        "velocity": 0.6377952755905512
    },
    {
        "duration": 0.371337890625,
        "durationTicks": 1014,
        "midi": 38,
        "name": "D2",
        "ticks": 230430,
        "time": 84.53598907812501,
        "velocity": 0.7480314960629921
    },
    {
        "duration": 0.1754150390625,
        "durationTicks": 479,
        "midi": 77,
        "name": "F5",
        "ticks": 230935,
        "time": 84.72092560156251,
        "velocity": 0.6299212598425197
    },
    {
        "duration": 0.1864013671875,
        "durationTicks": 509,
        "midi": 81,
        "name": "A5",
        "ticks": 230935,
        "time": 84.72092560156251,
        "velocity": 0.6299212598425197
    },
    {
        "duration": 0.1864013671875,
        "durationTicks": 509,
        "midi": 86,
        "name": "D6",
        "ticks": 230935,
        "time": 84.72092560156251,
        "velocity": 0.6299212598425197
    },
    {
        "duration": 0.1864013671875,
        "durationTicks": 509,
        "midi": 89,
        "name": "F6",
        "ticks": 230935,
        "time": 84.72092560156251,
        "velocity": 0.7401574803149606
    },
    {
        "duration": 0.371337890625,
        "durationTicks": 1014,
        "midi": 81,
        "name": "A5",
        "ticks": 231445,
        "time": 84.90769317968751,
        "velocity": 0.6535433070866141
    },
    {
        "duration": 0.371337890625,
        "durationTicks": 1014,
        "midi": 86,
        "name": "D6",
        "ticks": 231445,
        "time": 84.90769317968751,
        "velocity": 0.6535433070866141
    },
    {
        "duration": 0.371337890625,
        "durationTicks": 1014,
        "midi": 89,
        "name": "F6",
        "ticks": 231445,
        "time": 84.90769317968751,
        "velocity": 0.6535433070866141
    },
    {
        "duration": 0.371337890625,
        "durationTicks": 1014,
        "midi": 93,
        "name": "A6",
        "ticks": 231445,
        "time": 84.90769317968751,
        "velocity": 0.7637795275590551
    },
    {
        "duration": 0.1864013671875,
        "durationTicks": 509,
        "midi": 45,
        "name": "A2",
        "ticks": 231445,
        "time": 84.90769317968751,
        "velocity": 0.6535433070866141
    },
    {
        "duration": 0.1864013671875,
        "durationTicks": 509,
        "midi": 50,
        "name": "D3",
        "ticks": 231445,
        "time": 84.90769317968751,
        "velocity": 0.6535433070866141
    },
    {
        "duration": 0.1864013671875,
        "durationTicks": 509,
        "midi": 53,
        "name": "F3",
        "ticks": 231445,
        "time": 84.90769317968751,
        "velocity": 0.6535433070866141
    },
    {
        "duration": 0.1864013671875,
        "durationTicks": 509,
        "midi": 57,
        "name": "A3",
        "ticks": 231445,
        "time": 84.90769317968751,
        "velocity": 0.7637795275590551
    },
    {
        "duration": 0.173583984375,
        "durationTicks": 474,
        "midi": 38,
        "name": "D2",
        "ticks": 231955,
        "time": 85.09446075781251,
        "velocity": 0.6220472440944882
    },
    {
        "duration": 0.173583984375,
        "durationTicks": 474,
        "midi": 45,
        "name": "A2",
        "ticks": 231955,
        "time": 85.09446075781251,
        "velocity": 0.6299212598425197
    },
    {
        "duration": 0.1845703125,
        "durationTicks": 504,
        "midi": 50,
        "name": "D3",
        "ticks": 231955,
        "time": 85.09446075781251,
        "velocity": 0.7401574803149606
    },
    {
        "duration": 0.173583984375,
        "durationTicks": 474,
        "midi": 79,
        "name": "G5",
        "ticks": 232460,
        "time": 85.27939728125001,
        "velocity": 0.6377952755905512
    },
    {
        "duration": 0.1845703125,
        "durationTicks": 504,
        "midi": 91,
        "name": "G6",
        "ticks": 232460,
        "time": 85.27939728125001,
        "velocity": 0.7480314960629921
    },
    {
        "duration": 0.173583984375,
        "durationTicks": 474,
        "midi": 55,
        "name": "G3",
        "ticks": 232460,
        "time": 85.27939728125001,
        "velocity": 0.6377952755905512
    },
    {
        "duration": 0.1845703125,
        "durationTicks": 504,
        "midi": 67,
        "name": "G4",
        "ticks": 232460,
        "time": 85.27939728125001,
        "velocity": 0.7480314960629921
    },
    {
        "duration": 0.17431640625,
        "durationTicks": 476,
        "midi": 77,
        "name": "F5",
        "ticks": 232965,
        "time": 85.46433380468751,
        "velocity": 0.6299212598425197
    },
    {
        "duration": 0.185302734375,
        "durationTicks": 506,
        "midi": 89,
        "name": "F6",
        "ticks": 232965,
        "time": 85.46433380468751,
        "velocity": 0.7401574803149606
    },
    {
        "duration": 0.17431640625,
        "durationTicks": 476,
        "midi": 53,
        "name": "F3",
        "ticks": 232965,
        "time": 85.46433380468751,
        "velocity": 0.6299212598425197
    },
    {
        "duration": 0.185302734375,
        "durationTicks": 506,
        "midi": 65,
        "name": "F4",
        "ticks": 232965,
        "time": 85.46433380468751,
        "velocity": 0.7401574803149606
    },
    {
        "duration": 0.3841552734375,
        "durationTicks": 1049,
        "midi": 76,
        "name": "E5",
        "ticks": 233476,
        "time": 85.65146759375001,
        "velocity": 0.6692913385826772
    },
    {
        "duration": 0.3841552734375,
        "durationTicks": 1049,
        "midi": 81,
        "name": "A5",
        "ticks": 233476,
        "time": 85.65146759375001,
        "velocity": 0.6692913385826772
    },
    {
        "duration": 0.3841552734375,
        "durationTicks": 1049,
        "midi": 84,
        "name": "C6",
        "ticks": 233476,
        "time": 85.65146759375001,
        "velocity": 0.6692913385826772
    },
    {
        "duration": 0.3841552734375,
        "durationTicks": 1049,
        "midi": 88,
        "name": "E6",
        "ticks": 233476,
        "time": 85.65146759375001,
        "velocity": 0.7795275590551181
    },
    {
        "duration": 0.1981201171875,
        "durationTicks": 541,
        "midi": 52,
        "name": "E3",
        "ticks": 233476,
        "time": 85.65146759375001,
        "velocity": 0.6692913385826772
    },
    {
        "duration": 0.1871337890625,
        "durationTicks": 511,
        "midi": 57,
        "name": "A3",
        "ticks": 233476,
        "time": 85.65146759375001,
        "velocity": 0.6692913385826772
    },
    {
        "duration": 0.1981201171875,
        "durationTicks": 541,
        "midi": 60,
        "name": "C4",
        "ticks": 233476,
        "time": 85.65146759375001,
        "velocity": 0.6692913385826772
    },
    {
        "duration": 0.1981201171875,
        "durationTicks": 541,
        "midi": 64,
        "name": "E4",
        "ticks": 233476,
        "time": 85.65146759375001,
        "velocity": 0.7795275590551181
    },
    {
        "duration": 0.37060546875,
        "durationTicks": 1012,
        "midi": 28,
        "name": "E1",
        "ticks": 234018,
        "time": 85.84995392187501,
        "velocity": 0.6220472440944882
    },
    {
        "duration": 0.37060546875,
        "durationTicks": 1012,
        "midi": 33,
        "name": "A1",
        "ticks": 234018,
        "time": 85.84995392187501,
        "velocity": 0.6299212598425197
    },
    {
        "duration": 0.37060546875,
        "durationTicks": 1012,
        "midi": 40,
        "name": "E2",
        "ticks": 234018,
        "time": 85.84995392187501,
        "velocity": 0.7401574803149606
    },
    {
        "duration": 0.173583984375,
        "durationTicks": 474,
        "midi": 64,
        "name": "E4",
        "ticks": 234526,
        "time": 86.03598907812501,
        "velocity": 0.6377952755905512
    },
    {
        "duration": 0.173583984375,
        "durationTicks": 474,
        "midi": 69,
        "name": "A4",
        "ticks": 234526,
        "time": 86.03598907812501,
        "velocity": 0.6377952755905512
    },
    {
        "duration": 0.1845703125,
        "durationTicks": 504,
        "midi": 72,
        "name": "C5",
        "ticks": 234526,
        "time": 86.03598907812501,
        "velocity": 0.6377952755905512
    },
    {
        "duration": 0.1845703125,
        "durationTicks": 504,
        "midi": 76,
        "name": "E5",
        "ticks": 234526,
        "time": 86.03598907812501,
        "velocity": 0.7480314960629921
    },
    {
        "duration": 0.1754150390625,
        "durationTicks": 479,
        "midi": 72,
        "name": "C5",
        "ticks": 235031,
        "time": 86.22092560156251,
        "velocity": 0.6299212598425197
    },
    {
        "duration": 0.1864013671875,
        "durationTicks": 509,
        "midi": 84,
        "name": "C6",
        "ticks": 235031,
        "time": 86.22092560156251,
        "velocity": 0.7401574803149606
    },
    {
        "duration": 0.1754150390625,
        "durationTicks": 479,
        "midi": 48,
        "name": "C3",
        "ticks": 235031,
        "time": 86.22092560156251,
        "velocity": 0.6299212598425197
    },
    {
        "duration": 0.1864013671875,
        "durationTicks": 509,
        "midi": 60,
        "name": "C4",
        "ticks": 235031,
        "time": 86.22092560156251,
        "velocity": 0.7401574803149606
    },
    {
        "duration": 0.371337890625,
        "durationTicks": 1014,
        "midi": 76,
        "name": "E5",
        "ticks": 235541,
        "time": 86.40769317968751,
        "velocity": 0.6535433070866141
    },
    {
        "duration": 0.371337890625,
        "durationTicks": 1014,
        "midi": 81,
        "name": "A5",
        "ticks": 235541,
        "time": 86.40769317968751,
        "velocity": 0.6535433070866141
    },
    {
        "duration": 0.371337890625,
        "durationTicks": 1014,
        "midi": 84,
        "name": "C6",
        "ticks": 235541,
        "time": 86.40769317968751,
        "velocity": 0.6535433070866141
    },
    {
        "duration": 0.371337890625,
        "durationTicks": 1014,
        "midi": 88,
        "name": "E6",
        "ticks": 235541,
        "time": 86.40769317968751,
        "velocity": 0.7637795275590551
    },
    {
        "duration": 0.371337890625,
        "durationTicks": 1014,
        "midi": 52,
        "name": "E3",
        "ticks": 235541,
        "time": 86.40769317968751,
        "velocity": 0.6535433070866141
    },
    {
        "duration": 0.371337890625,
        "durationTicks": 1014,
        "midi": 57,
        "name": "A3",
        "ticks": 235541,
        "time": 86.40769317968751,
        "velocity": 0.6535433070866141
    },
    {
        "duration": 0.371337890625,
        "durationTicks": 1014,
        "midi": 60,
        "name": "C4",
        "ticks": 235541,
        "time": 86.40769317968751,
        "velocity": 0.6535433070866141
    },
    {
        "duration": 0.371337890625,
        "durationTicks": 1014,
        "midi": 64,
        "name": "E4",
        "ticks": 235541,
        "time": 86.40769317968751,
        "velocity": 0.7637795275590551
    },
    {
        "duration": 0.173583984375,
        "durationTicks": 474,
        "midi": 74,
        "name": "D5",
        "ticks": 236556,
        "time": 86.77939728125001,
        "velocity": 0.6377952755905512
    },
    {
        "duration": 0.1845703125,
        "durationTicks": 504,
        "midi": 86,
        "name": "D6",
        "ticks": 236556,
        "time": 86.77939728125001,
        "velocity": 0.7480314960629921
    },
    {
        "duration": 0.173583984375,
        "durationTicks": 474,
        "midi": 50,
        "name": "D3",
        "ticks": 236556,
        "time": 86.77939728125001,
        "velocity": 0.6377952755905512
    },
    {
        "duration": 0.1845703125,
        "durationTicks": 504,
        "midi": 62,
        "name": "D4",
        "ticks": 236556,
        "time": 86.77939728125001,
        "velocity": 0.7480314960629921
    },
    {
        "duration": 0.17431640625,
        "durationTicks": 476,
        "midi": 72,
        "name": "C5",
        "ticks": 237061,
        "time": 86.96433380468751,
        "velocity": 0.6299212598425197
    },
    {
        "duration": 0.185302734375,
        "durationTicks": 506,
        "midi": 84,
        "name": "C6",
        "ticks": 237061,
        "time": 86.96433380468751,
        "velocity": 0.7401574803149606
    },
    {
        "duration": 0.17431640625,
        "durationTicks": 476,
        "midi": 48,
        "name": "C3",
        "ticks": 237061,
        "time": 86.96433380468751,
        "velocity": 0.6299212598425197
    },
    {
        "duration": 0.185302734375,
        "durationTicks": 506,
        "midi": 60,
        "name": "C4",
        "ticks": 237061,
        "time": 86.96433380468751,
        "velocity": 0.7401574803149606
    },
    {
        "duration": 0.3841552734375,
        "durationTicks": 1049,
        "midi": 71,
        "name": "B4",
        "ticks": 237572,
        "time": 87.15146759375001,
        "velocity": 0.6692913385826772
    },
    {
        "duration": 0.3841552734375,
        "durationTicks": 1049,
        "midi": 76,
        "name": "E5",
        "ticks": 237572,
        "time": 87.15146759375001,
        "velocity": 0.6692913385826772
    },
    {
        "duration": 0.3841552734375,
        "durationTicks": 1049,
        "midi": 80,
        "name": "G#5",
        "ticks": 237572,
        "time": 87.15146759375001,
        "velocity": 0.6692913385826772
    },
    {
        "duration": 0.3841552734375,
        "durationTicks": 1049,
        "midi": 83,
        "name": "B5",
        "ticks": 237572,
        "time": 87.15146759375001,
        "velocity": 0.7795275590551181
    },
    {
        "duration": 0.3841552734375,
        "durationTicks": 1049,
        "midi": 47,
        "name": "B2",
        "ticks": 237572,
        "time": 87.15146759375001,
        "velocity": 0.6692913385826772
    },
    {
        "duration": 0.3841552734375,
        "durationTicks": 1049,
        "midi": 52,
        "name": "E3",
        "ticks": 237572,
        "time": 87.15146759375001,
        "velocity": 0.6692913385826772
    },
    {
        "duration": 0.3841552734375,
        "durationTicks": 1049,
        "midi": 56,
        "name": "G#3",
        "ticks": 237572,
        "time": 87.15146759375001,
        "velocity": 0.6692913385826772
    },
    {
        "duration": 0.3841552734375,
        "durationTicks": 1049,
        "midi": 59,
        "name": "B3",
        "ticks": 237572,
        "time": 87.15146759375001,
        "velocity": 0.7795275590551181
    },
    {
        "duration": 0.173583984375,
        "durationTicks": 474,
        "midi": 71,
        "name": "B4",
        "ticks": 238622,
        "time": 87.53598907812501,
        "velocity": 0.6377952755905512
    },
    {
        "duration": 0.1845703125,
        "durationTicks": 504,
        "midi": 83,
        "name": "B5",
        "ticks": 238622,
        "time": 87.53598907812501,
        "velocity": 0.7480314960629921
    },
    {
        "duration": 0.173583984375,
        "durationTicks": 474,
        "midi": 47,
        "name": "B2",
        "ticks": 238622,
        "time": 87.53598907812501,
        "velocity": 0.6377952755905512
    },
    {
        "duration": 0.1845703125,
        "durationTicks": 504,
        "midi": 59,
        "name": "B3",
        "ticks": 238622,
        "time": 87.53598907812501,
        "velocity": 0.7480314960629921
    },
    {
        "duration": 0.1754150390625,
        "durationTicks": 479,
        "midi": 72,
        "name": "C5",
        "ticks": 239127,
        "time": 87.72092560156251,
        "velocity": 0.6299212598425197
    },
    {
        "duration": 0.1864013671875,
        "durationTicks": 509,
        "midi": 84,
        "name": "C6",
        "ticks": 239127,
        "time": 87.72092560156251,
        "velocity": 0.7401574803149606
    },
    {
        "duration": 0.1754150390625,
        "durationTicks": 479,
        "midi": 48,
        "name": "C3",
        "ticks": 239127,
        "time": 87.72092560156251,
        "velocity": 0.6299212598425197
    },
    {
        "duration": 0.1864013671875,
        "durationTicks": 509,
        "midi": 60,
        "name": "C4",
        "ticks": 239127,
        "time": 87.72092560156251,
        "velocity": 0.7401574803149606
    },
    {
        "duration": 0.371337890625,
        "durationTicks": 1014,
        "midi": 74,
        "name": "D5",
        "ticks": 239637,
        "time": 87.90769317968751,
        "velocity": 0.6535433070866141
    },
    {
        "duration": 0.371337890625,
        "durationTicks": 1014,
        "midi": 77,
        "name": "F5",
        "ticks": 239637,
        "time": 87.90769317968751,
        "velocity": 0.6535433070866141
    },
    {
        "duration": 0.371337890625,
        "durationTicks": 1014,
        "midi": 81,
        "name": "A5",
        "ticks": 239637,
        "time": 87.90769317968751,
        "velocity": 0.6535433070866141
    },
    {
        "duration": 0.371337890625,
        "durationTicks": 1014,
        "midi": 86,
        "name": "D6",
        "ticks": 239637,
        "time": 87.90769317968751,
        "velocity": 0.7637795275590551
    },
    {
        "duration": 0.371337890625,
        "durationTicks": 1014,
        "midi": 50,
        "name": "D3",
        "ticks": 239637,
        "time": 87.90769317968751,
        "velocity": 0.6535433070866141
    },
    {
        "duration": 0.371337890625,
        "durationTicks": 1014,
        "midi": 53,
        "name": "F3",
        "ticks": 239637,
        "time": 87.90769317968751,
        "velocity": 0.6535433070866141
    },
    {
        "duration": 0.371337890625,
        "durationTicks": 1014,
        "midi": 57,
        "name": "A3",
        "ticks": 239637,
        "time": 87.90769317968751,
        "velocity": 0.6535433070866141
    },
    {
        "duration": 0.371337890625,
        "durationTicks": 1014,
        "midi": 62,
        "name": "D4",
        "ticks": 239637,
        "time": 87.90769317968751,
        "velocity": 0.7637795275590551
    },
    {
        "duration": 0.3702392578125,
        "durationTicks": 1011,
        "midi": 76,
        "name": "E5",
        "ticks": 240652,
        "time": 88.27939728125001,
        "velocity": 0.6377952755905512
    },
    {
        "duration": 0.3702392578125,
        "durationTicks": 1011,
        "midi": 81,
        "name": "A5",
        "ticks": 240652,
        "time": 88.27939728125001,
        "velocity": 0.6377952755905512
    },
    {
        "duration": 0.3702392578125,
        "durationTicks": 1011,
        "midi": 84,
        "name": "C6",
        "ticks": 240652,
        "time": 88.27939728125001,
        "velocity": 0.6377952755905512
    },
    {
        "duration": 0.3702392578125,
        "durationTicks": 1011,
        "midi": 88,
        "name": "E6",
        "ticks": 240652,
        "time": 88.27939728125001,
        "velocity": 0.7480314960629921
    },
    {
        "duration": 0.3702392578125,
        "durationTicks": 1011,
        "midi": 52,
        "name": "E3",
        "ticks": 240652,
        "time": 88.27939728125001,
        "velocity": 0.6377952755905512
    },
    {
        "duration": 0.3702392578125,
        "durationTicks": 1011,
        "midi": 57,
        "name": "A3",
        "ticks": 240652,
        "time": 88.27939728125001,
        "velocity": 0.6377952755905512
    },
    {
        "duration": 0.3702392578125,
        "durationTicks": 1011,
        "midi": 60,
        "name": "C4",
        "ticks": 240652,
        "time": 88.27939728125001,
        "velocity": 0.6377952755905512
    },
    {
        "duration": 0.3702392578125,
        "durationTicks": 1011,
        "midi": 64,
        "name": "E4",
        "ticks": 240652,
        "time": 88.27939728125001,
        "velocity": 0.7480314960629921
    },
    {
        "duration": 0.3841552734375,
        "durationTicks": 1049,
        "midi": 72,
        "name": "C5",
        "ticks": 241668,
        "time": 88.65146759375001,
        "velocity": 0.6692913385826772
    },
    {
        "duration": 0.3841552734375,
        "durationTicks": 1049,
        "midi": 76,
        "name": "E5",
        "ticks": 241668,
        "time": 88.65146759375001,
        "velocity": 0.6692913385826772
    },
    {
        "duration": 0.3841552734375,
        "durationTicks": 1049,
        "midi": 81,
        "name": "A5",
        "ticks": 241668,
        "time": 88.65146759375001,
        "velocity": 0.6692913385826772
    },
    {
        "duration": 0.3841552734375,
        "durationTicks": 1049,
        "midi": 84,
        "name": "C6",
        "ticks": 241668,
        "time": 88.65146759375001,
        "velocity": 0.7795275590551181
    },
    {
        "duration": 0.3841552734375,
        "durationTicks": 1049,
        "midi": 48,
        "name": "C3",
        "ticks": 241668,
        "time": 88.65146759375001,
        "velocity": 0.6692913385826772
    },
    {
        "duration": 0.3841552734375,
        "durationTicks": 1049,
        "midi": 52,
        "name": "E3",
        "ticks": 241668,
        "time": 88.65146759375001,
        "velocity": 0.6692913385826772
    },
    {
        "duration": 0.3841552734375,
        "durationTicks": 1049,
        "midi": 57,
        "name": "A3",
        "ticks": 241668,
        "time": 88.65146759375001,
        "velocity": 0.6692913385826772
    },
    {
        "duration": 0.3841552734375,
        "durationTicks": 1049,
        "midi": 60,
        "name": "C4",
        "ticks": 241668,
        "time": 88.65146759375001,
        "velocity": 0.7795275590551181
    },
    {
        "duration": 0.371337890625,
        "durationTicks": 1014,
        "midi": 81,
        "name": "A5",
        "ticks": 242718,
        "time": 89.03598907812501,
        "velocity": 0.6377952755905512
    },
    {
        "duration": 0.371337890625,
        "durationTicks": 1014,
        "midi": 84,
        "name": "C6",
        "ticks": 242718,
        "time": 89.03598907812501,
        "velocity": 0.6377952755905512
    },
    {
        "duration": 0.2215576171875,
        "durationTicks": 605,
        "midi": 88,
        "name": "E6",
        "ticks": 242718,
        "time": 89.03598907812501,
        "velocity": 0.6377952755905512
    },
    {
        "duration": 0.2215576171875,
        "durationTicks": 605,
        "midi": 93,
        "name": "A6",
        "ticks": 242718,
        "time": 89.03598907812501,
        "velocity": 0.7480314960629921
    },
    {
        "duration": 0.371337890625,
        "durationTicks": 1014,
        "midi": 45,
        "name": "A2",
        "ticks": 242718,
        "time": 89.03598907812501,
        "velocity": 0.6377952755905512
    },
    {
        "duration": 0.371337890625,
        "durationTicks": 1014,
        "midi": 48,
        "name": "C3",
        "ticks": 242718,
        "time": 89.03598907812501,
        "velocity": 0.6377952755905512
    },
    {
        "duration": 0.371337890625,
        "durationTicks": 1014,
        "midi": 52,
        "name": "E3",
        "ticks": 242718,
        "time": 89.03598907812501,
        "velocity": 0.6377952755905512
    },
    {
        "duration": 0.371337890625,
        "durationTicks": 1014,
        "midi": 57,
        "name": "A3",
        "ticks": 242718,
        "time": 89.03598907812501,
        "velocity": 0.7480314960629921
    },
    {
        "duration": 0.046875,
        "durationTicks": 128,
        "midi": 100,
        "name": "E7",
        "ticks": 243328,
        "time": 89.25937775000001,
        "velocity": 0.6929133858267716
    },
    {
        "duration": 0.046875,
        "durationTicks": 128,
        "midi": 101,
        "name": "F7",
        "ticks": 243456,
        "time": 89.30625275000001,
        "velocity": 0.6929133858267716
    },
    {
        "duration": 0.046875,
        "durationTicks": 128,
        "midi": 103,
        "name": "G7",
        "ticks": 243584,
        "time": 89.35312775000001,
        "velocity": 0.6929133858267716
    },
    {
        "duration": 0.741943359375,
        "durationTicks": 2026,
        "midi": 93,
        "name": "A6",
        "ticks": 243733,
        "time": 89.40769317968751,
        "velocity": 0.6535433070866141
    },
    {
        "duration": 0.741943359375,
        "durationTicks": 2026,
        "midi": 96,
        "name": "C7",
        "ticks": 243733,
        "time": 89.40769317968751,
        "velocity": 0.6535433070866141
    },
    {
        "duration": 0.741943359375,
        "durationTicks": 2026,
        "midi": 100,
        "name": "E7",
        "ticks": 243733,
        "time": 89.40769317968751,
        "velocity": 0.6535433070866141
    },
    {
        "duration": 0.741943359375,
        "durationTicks": 2026,
        "midi": 105,
        "name": "A7",
        "ticks": 243733,
        "time": 89.40769317968751,
        "velocity": 0.7637795275590551
    },
    {
        "duration": 0.741943359375,
        "durationTicks": 2026,
        "midi": 33,
        "name": "A1",
        "ticks": 243733,
        "time": 89.40769317968751,
        "velocity": 0.6299212598425197
    },
    {
        "duration": 0.741943359375,
        "durationTicks": 2026,
        "midi": 40,
        "name": "E2",
        "ticks": 243733,
        "time": 89.40769317968751,
        "velocity": 0.6456692913385826
    },
    {
        "duration": 0.741943359375,
        "durationTicks": 2026,
        "midi": 45,
        "name": "A2",
        "ticks": 243733,
        "time": 89.40769317968751,
        "velocity": 0.7637795275590551
    }
]